<svg id="Camada_1" data-name="Camada 1" xmlns="http://www.w3.org/2000/svg" xmlns:xlink="http://www.w3.org/1999/xlink" viewBox="0 0 56.28 54.63"><defs><style>.cls-1{fill:none;}.cls-2{fill:#b11a22;}.cls-3{fill:#0d3851;}.cls-4{clip-path:url(#clip-path);}.cls-5{fill:#fff;}</style><clipPath id="clip-path" transform="translate(-4.72 -4.37)"><path class="cls-1" d="M28.58,43.79h0a11.89,11.89,0,0,1-11.83-12V11.54a.18.18,0,0,1,.19-.19h1L28.84,6.1l10.35,5.26h1a.2.2,0,0,1,.19.19V31.83A11.89,11.89,0,0,1,28.58,43.79Z"/></clipPath></defs><path class="cls-1" d="M35.32,29.61a18.17,18.17,0,0,1-6.23,1.54A8.15,8.15,0,0,1,27.34,31a19.4,19.4,0,0,1-4.14-1.6A18.42,18.42,0,0,0,19,27.75a8.63,8.63,0,0,0-2.26-.15v.63a10.14,10.14,0,0,1,3.74.55A29.33,29.33,0,0,1,23.3,30,13.92,13.92,0,0,0,29,31.78a16.55,16.55,0,0,0,6.19-1.5A28.27,28.27,0,0,1,39.12,29a12,12,0,0,1,1.3-.19v-.64a15.11,15.11,0,0,0-3.27.77Z" transform="translate(-4.72 -4.37)"/><path class="cls-1" d="M35.32,31.42A17.93,17.93,0,0,1,29.09,33a8.13,8.13,0,0,1-1.75-.18,19.4,19.4,0,0,1-4.14-1.6A18.42,18.42,0,0,0,19,29.56a8.63,8.63,0,0,0-2.26-.15V30a10.14,10.14,0,0,1,3.74.55c1,.34,1.9.79,2.82,1.22A13.79,13.79,0,0,0,29,33.59a16.55,16.55,0,0,0,6.19-1.5,28.27,28.27,0,0,1,3.94-1.27,12.18,12.18,0,0,1,1.29-.19V30a14.54,14.54,0,0,0-3.27.77C36.54,31,35.92,31.2,35.32,31.42Z" transform="translate(-4.72 -4.37)"/><path class="cls-1" d="M35.32,30.52a18.15,18.15,0,0,1-6.23,1.53,8.81,8.81,0,0,1-1.75-.18,18.91,18.91,0,0,1-4.14-1.61A18.89,18.89,0,0,0,19,28.65a9.09,9.09,0,0,0-2.26-.15v.64a9.74,9.74,0,0,1,3.74.55,27,27,0,0,1,2.82,1.22A13.93,13.93,0,0,0,29,32.69a17,17,0,0,0,6.19-1.5,25.85,25.85,0,0,1,3.94-1.27,10,10,0,0,1,1.3-.2v-.63a14.56,14.56,0,0,0-3.27.76C36.54,30.06,35.92,30.29,35.32,30.52Z" transform="translate(-4.72 -4.37)"/><path class="cls-1" d="M35.32,32.33a18.15,18.15,0,0,1-6.23,1.53,8.15,8.15,0,0,1-1.75-.19,18.88,18.88,0,0,1-4.14-1.6A18.89,18.89,0,0,0,19,30.46a9.09,9.09,0,0,0-2.26-.15V31a9.74,9.74,0,0,1,3.74.55,27,27,0,0,1,2.82,1.22A13.93,13.93,0,0,0,29,34.5,17,17,0,0,0,35.18,33a25.85,25.85,0,0,1,3.94-1.27,10.11,10.11,0,0,1,1.29-.2V30.9a14.47,14.47,0,0,0-3.26.76C36.54,31.87,35.92,32.1,35.32,32.33Z" transform="translate(-4.72 -4.37)"/><path class="cls-1" d="M35.32,35a17.93,17.93,0,0,1-6.23,1.53,8.13,8.13,0,0,1-1.75-.18,19.4,19.4,0,0,1-4.14-1.6A18,18,0,0,0,19,33.18,9.1,9.1,0,0,0,16.8,33c0,.21,0,.42.08.63a10.08,10.08,0,0,1,3.6.56,29.25,29.25,0,0,1,2.82,1.22A13.79,13.79,0,0,0,29,37.21a16.55,16.55,0,0,0,6.19-1.5,27,27,0,0,1,3.94-1.27,9.78,9.78,0,0,1,1-.17c.05-.21.09-.43.12-.65a14.65,14.65,0,0,0-3.13.76C36.54,34.58,35.92,34.82,35.32,35Z" transform="translate(-4.72 -4.37)"/><path class="cls-1" d="M35.32,36a18.15,18.15,0,0,1-6.23,1.53,8.15,8.15,0,0,1-1.75-.19,18.88,18.88,0,0,1-4.14-1.6A18.42,18.42,0,0,0,19,34.08a9.17,9.17,0,0,0-2.08-.16c0,.21.09.43.13.63a10.28,10.28,0,0,1,3.43.56,29.33,29.33,0,0,1,2.82,1.23A13.92,13.92,0,0,0,29,38.11a16.54,16.54,0,0,0,6.19-1.49,27,27,0,0,1,3.94-1.28c.27-.05.54-.1.8-.13q.11-.33.18-.66a15,15,0,0,0-3,.73C36.54,35.49,35.92,35.72,35.32,36Z" transform="translate(-4.72 -4.37)"/><path class="cls-1" d="M35.32,34.14a18.15,18.15,0,0,1-6.23,1.53,8.15,8.15,0,0,1-1.75-.19,18.88,18.88,0,0,1-4.14-1.6A18.89,18.89,0,0,0,19,32.27a9.09,9.09,0,0,0-2.26-.15c0,.21,0,.42,0,.63a10.14,10.14,0,0,1,3.7.55,29.33,29.33,0,0,1,2.82,1.23A13.92,13.92,0,0,0,29,36.3a16.54,16.54,0,0,0,6.19-1.49,25.85,25.85,0,0,1,3.94-1.27,10.48,10.48,0,0,1,1.19-.19c0-.21,0-.43.07-.64a14.88,14.88,0,0,0-3.23.76C36.54,33.68,35.92,33.91,35.32,34.14Z" transform="translate(-4.72 -4.37)"/><path class="cls-1" d="M35.32,33.23a17.93,17.93,0,0,1-6.23,1.53,8.13,8.13,0,0,1-1.75-.18A19.4,19.4,0,0,1,23.2,33,18.42,18.42,0,0,0,19,31.37a8.23,8.23,0,0,0-2.26-.15v.63a10.14,10.14,0,0,1,3.74.55c1,.34,1.9.79,2.82,1.22A13.79,13.79,0,0,0,29,35.4a16.55,16.55,0,0,0,6.19-1.5,27,27,0,0,1,3.94-1.27,11.64,11.64,0,0,1,1.28-.19c0-.2,0-.4,0-.61v0a14.45,14.45,0,0,0-3.26.77C36.54,32.77,35.92,33,35.32,33.23Z" transform="translate(-4.72 -4.37)"/><path class="cls-1" d="M35.32,26a18.15,18.15,0,0,1-6.23,1.53,8.15,8.15,0,0,1-1.75-.19,18.88,18.88,0,0,1-4.14-1.6A18.89,18.89,0,0,0,19,24.13,9.09,9.09,0,0,0,16.74,24v.64a9.93,9.93,0,0,1,3.74.54,29.33,29.33,0,0,1,2.82,1.23A13.92,13.92,0,0,0,29,28.16a16.54,16.54,0,0,0,6.19-1.49,25.85,25.85,0,0,1,3.94-1.27,10.26,10.26,0,0,1,1.3-.2v-.63a14.56,14.56,0,0,0-3.27.76C36.54,25.54,35.92,25.77,35.32,26Z" transform="translate(-4.72 -4.37)"/><path class="cls-1" d="M35.32,25.09a17.93,17.93,0,0,1-6.23,1.53,8.13,8.13,0,0,1-1.75-.18,19.4,19.4,0,0,1-4.14-1.6A18,18,0,0,0,19,23.23a8.23,8.23,0,0,0-2.26-.15v.63a10.14,10.14,0,0,1,3.74.55,29.25,29.25,0,0,1,2.82,1.22A13.79,13.79,0,0,0,29,27.26a16.55,16.55,0,0,0,6.19-1.5,27,27,0,0,1,3.94-1.27,10.2,10.2,0,0,1,1.3-.19v-.64a14.68,14.68,0,0,0-3.27.77C36.54,24.63,35.92,24.87,35.32,25.09Z" transform="translate(-4.72 -4.37)"/><path class="cls-1" d="M35.32,24.19a18.15,18.15,0,0,1-6.23,1.53,8.15,8.15,0,0,1-1.75-.19,18.88,18.88,0,0,1-4.14-1.6A18.89,18.89,0,0,0,19,22.32a9.09,9.09,0,0,0-2.26-.15v.64a9.74,9.74,0,0,1,3.74.55,27,27,0,0,1,2.82,1.22A13.93,13.93,0,0,0,29,26.36a17,17,0,0,0,6.19-1.5,25.85,25.85,0,0,1,3.94-1.27,10.26,10.26,0,0,1,1.3-.2v-.63a14.69,14.69,0,0,0-3.27.76C36.54,23.73,35.92,24,35.32,24.19Z" transform="translate(-4.72 -4.37)"/><path class="cls-1" d="M35.32,27.81a18.15,18.15,0,0,1-6.23,1.53,8.15,8.15,0,0,1-1.75-.19,18.88,18.88,0,0,1-4.14-1.6A18.42,18.42,0,0,0,19,25.94a9.09,9.09,0,0,0-2.26-.15v.63a10.14,10.14,0,0,1,3.74.55A29.33,29.33,0,0,1,23.3,28.2,13.92,13.92,0,0,0,29,30a16.73,16.73,0,0,0,6.19-1.49,27,27,0,0,1,3.94-1.28,12,12,0,0,1,1.3-.19v-.63a14.56,14.56,0,0,0-3.27.76C36.54,27.35,35.92,27.58,35.32,27.81Z" transform="translate(-4.72 -4.37)"/><path class="cls-1" d="M35.32,28.71a17.93,17.93,0,0,1-6.23,1.53,8.81,8.81,0,0,1-1.75-.18,18.91,18.91,0,0,1-4.14-1.61,18.39,18.39,0,0,0-4.2-1.6,8.64,8.64,0,0,0-2.26-.16v.64a9.94,9.94,0,0,1,3.74.55A27,27,0,0,1,23.3,29.1,13.93,13.93,0,0,0,29,30.88a17,17,0,0,0,6.19-1.5,25.85,25.85,0,0,1,3.94-1.27,10,10,0,0,1,1.3-.2v-.63a14,14,0,0,0-3.27.77C36.54,28.25,35.92,28.48,35.32,28.71Z" transform="translate(-4.72 -4.37)"/><path class="cls-1" d="M35.32,26.9a17.93,17.93,0,0,1-6.23,1.53,8.13,8.13,0,0,1-1.75-.18,19.4,19.4,0,0,1-4.14-1.6A18,18,0,0,0,19,25a8.64,8.64,0,0,0-2.26-.16v.64a10.14,10.14,0,0,1,3.74.55,29.25,29.25,0,0,1,2.82,1.22A13.93,13.93,0,0,0,29,29.07a16.75,16.75,0,0,0,6.19-1.5,27,27,0,0,1,3.94-1.27,10.2,10.2,0,0,1,1.3-.19v-.64a14.54,14.54,0,0,0-3.27.77C36.54,26.44,35.92,26.68,35.32,26.9Z" transform="translate(-4.72 -4.37)"/><path class="cls-1" d="M35.32,38.66a18.15,18.15,0,0,1-6.23,1.53A8.81,8.81,0,0,1,27.34,40,18.91,18.91,0,0,1,23.2,38.4,18.39,18.39,0,0,0,19,36.8a7.66,7.66,0,0,0-1.24-.16c.1.23.2.45.32.67a9.63,9.63,0,0,1,2.4.52,27,27,0,0,1,2.82,1.22A13.93,13.93,0,0,0,29,40.83a17,17,0,0,0,6.19-1.5,30,30,0,0,1,3.39-1.14c.15-.24.29-.48.42-.73-.66.15-1.29.35-1.84.53S35.92,38.43,35.32,38.66Z" transform="translate(-4.72 -4.37)"/><path class="cls-1" d="M29,11a16.75,16.75,0,0,0,6.19-1.5l.36-.14L34.87,9a16.76,16.76,0,0,1-5.75,1.35,8.81,8.81,0,0,1-1.75-.18,18.28,18.28,0,0,1-4-1.56l-.63.3.63.3A13.93,13.93,0,0,0,29,11Z" transform="translate(-4.72 -4.37)"/><path class="cls-1" d="M35.32,36.85a17.93,17.93,0,0,1-6.23,1.53,8.81,8.81,0,0,1-1.75-.18,18.91,18.91,0,0,1-4.14-1.61A18.39,18.39,0,0,0,19,35a8.6,8.6,0,0,0-1.88-.17c.05.22.12.43.18.64a10.18,10.18,0,0,1,3.18.56,27,27,0,0,1,2.82,1.22A13.93,13.93,0,0,0,29,39a16.75,16.75,0,0,0,6.19-1.5,25.85,25.85,0,0,1,3.94-1.27l.48-.09.24-.67a15,15,0,0,0-2.69.7C36.54,36.39,35.92,36.62,35.32,36.85Z" transform="translate(-4.72 -4.37)"/><path class="cls-1" d="M34.55,8.83l-.73-.36a14.44,14.44,0,0,1-4.7,1,8.15,8.15,0,0,1-1.75-.19,15.15,15.15,0,0,1-3.09-1.1l-.64.3A13.09,13.09,0,0,0,29,10.07,15.09,15.09,0,0,0,34.55,8.83Z" transform="translate(-4.72 -4.37)"/><path class="cls-1" d="M29,12.79a16.79,16.79,0,0,0,6.19-1.5c.81-.31,1.64-.62,2.48-.89L37,10l-1.6.59a18.15,18.15,0,0,1-6.23,1.53A8.81,8.81,0,0,1,27.37,12a18.91,18.91,0,0,1-4.14-1.61c-.6-.28-1.21-.58-1.84-.84l-.7.33c.9.33,1.78.75,2.64,1.16A13.93,13.93,0,0,0,29,12.79Z" transform="translate(-4.72 -4.37)"/><path class="cls-1" d="M33.5,8.3l-.77-.38a12.37,12.37,0,0,1-3.61.61,8.13,8.13,0,0,1-1.75-.18,12.86,12.86,0,0,1-2.1-.68L24.61,8A11.21,11.21,0,0,0,29,9.17,12.7,12.7,0,0,0,33.5,8.3Z" transform="translate(-4.72 -4.37)"/><path class="cls-1" d="M31.19,7.15l-1-.49a9.82,9.82,0,0,1-1.09.06,8.27,8.27,0,0,1-1.55-.14L26.71,7A8.92,8.92,0,0,0,29,7.36,10.5,10.5,0,0,0,31.19,7.15Z" transform="translate(-4.72 -4.37)"/><path class="cls-1" d="M32.4,7.75l-.84-.42a11.08,11.08,0,0,1-2.44.3,8.15,8.15,0,0,1-1.75-.19,9.22,9.22,0,0,1-1-.28l-.73.35A9.89,9.89,0,0,0,29,8.26,11,11,0,0,0,32.4,7.75Z" transform="translate(-4.72 -4.37)"/><path class="cls-1" d="M29,11.88a16.55,16.55,0,0,0,6.19-1.5l1.4-.52-.71-.35-.55.2a18.17,18.17,0,0,1-6.23,1.54,8.15,8.15,0,0,1-1.75-.19,19.4,19.4,0,0,1-4.14-1.6l-.85-.41-.66.31c.55.24,1.08.49,1.61.75A13.92,13.92,0,0,0,29,11.88Z" transform="translate(-4.72 -4.37)"/><path class="cls-1" d="M35.32,23.28a17.93,17.93,0,0,1-6.23,1.53,8.13,8.13,0,0,1-1.75-.18A19.4,19.4,0,0,1,23.2,23,18.42,18.42,0,0,0,19,21.42a8.63,8.63,0,0,0-2.26-.15v.63a10.14,10.14,0,0,1,3.74.55c1,.34,1.9.79,2.82,1.22A13.79,13.79,0,0,0,29,25.45,16.55,16.55,0,0,0,35.18,24a28.27,28.27,0,0,1,3.94-1.27,10.2,10.2,0,0,1,1.3-.19v-.64a14.68,14.68,0,0,0-3.27.77C36.54,22.82,35.92,23.06,35.32,23.28Z" transform="translate(-4.72 -4.37)"/><path class="cls-1" d="M35.32,37.75a17.94,17.94,0,0,1-6.23,1.54,8.15,8.15,0,0,1-1.75-.19,19.4,19.4,0,0,1-4.14-1.6A18.42,18.42,0,0,0,19,35.89a8.8,8.8,0,0,0-1.61-.17c.08.22.16.44.25.65a10.35,10.35,0,0,1,2.84.55,29.33,29.33,0,0,1,2.82,1.23A13.92,13.92,0,0,0,29,39.92a16.55,16.55,0,0,0,6.19-1.5,28.27,28.27,0,0,1,3.94-1.27h0c.11-.23.22-.46.32-.69a17.33,17.33,0,0,0-2.33.63C36.54,37.3,35.92,37.53,35.32,37.75Z" transform="translate(-4.72 -4.37)"/><path class="cls-1" d="M21.23,41.12a11.79,11.79,0,0,0,6.06,2.49A19,19,0,0,1,23.2,42C22.56,41.71,21.9,41.4,21.23,41.12Z" transform="translate(-4.72 -4.37)"/><path class="cls-1" d="M35.32,39.56a17.93,17.93,0,0,1-6.23,1.53,8.13,8.13,0,0,1-1.75-.18,19.4,19.4,0,0,1-4.14-1.6A18.42,18.42,0,0,0,19,37.7q-.39-.08-.78-.12c.14.24.28.47.43.7a10,10,0,0,1,1.83.45c1,.34,1.9.79,2.82,1.22A13.79,13.79,0,0,0,29,41.73a16.55,16.55,0,0,0,6.19-1.5c.84-.32,1.7-.64,2.57-.91.21-.25.4-.52.59-.79-.42.12-.82.24-1.19.37C36.54,39.1,35.92,39.34,35.32,39.56Z" transform="translate(-4.72 -4.37)"/><path class="cls-1" d="M29.09,42.9a8.13,8.13,0,0,1-1.75-.18,19.4,19.4,0,0,1-4.14-1.6,21.31,21.31,0,0,0-3.49-1.43,12.32,12.32,0,0,0,.88.89c.92.33,1.83.76,2.71,1.18A13.79,13.79,0,0,0,29,43.54a11.67,11.67,0,0,0,3.85-.66,11.67,11.67,0,0,0,3-1.71l-.54.2A17.93,17.93,0,0,1,29.09,42.9Z" transform="translate(-4.72 -4.37)"/><path class="cls-1" d="M35.32,40.47A18.15,18.15,0,0,1,29.09,42a8.15,8.15,0,0,1-1.75-.19,18.88,18.88,0,0,1-4.14-1.6A18.89,18.89,0,0,0,19,38.6l-.16,0c.18.25.37.51.57.75a8.62,8.62,0,0,1,1.07.31,27,27,0,0,1,2.82,1.22A13.93,13.93,0,0,0,29,42.64a16.75,16.75,0,0,0,6.19-1.5l1.3-.49a10.2,10.2,0,0,0,.93-.93l-.26.08C36.54,40,35.92,40.24,35.32,40.47Z" transform="translate(-4.72 -4.37)"/><path class="cls-1" d="M29.77,6.44,28.84,6l-.83.4a8.24,8.24,0,0,0,1,.09Z" transform="translate(-4.72 -4.37)"/><path class="cls-1" d="M35.35,16.05a18.15,18.15,0,0,1-6.23,1.53,8.15,8.15,0,0,1-1.75-.19,18.88,18.88,0,0,1-4.14-1.6A18.42,18.42,0,0,0,19,14.18,8.86,8.86,0,0,0,16.74,14v.64a10.09,10.09,0,0,1,3.77.54,29.33,29.33,0,0,1,2.82,1.23A18.78,18.78,0,0,0,27.51,18l.27.06a8.4,8.4,0,0,0,1.21.12,11.51,11.51,0,0,0,3.63-.59h0c.87-.27,1.73-.6,2.56-.91a27,27,0,0,1,3.94-1.28,11.64,11.64,0,0,1,1.28-.19v-.63a14.38,14.38,0,0,0-3.25.76C36.57,15.59,36,15.82,35.35,16.05Z" transform="translate(-4.72 -4.37)"/><path class="cls-1" d="M35.35,14.24a18.15,18.15,0,0,1-6.23,1.53,8.15,8.15,0,0,1-1.75-.19A18.88,18.88,0,0,1,23.23,14,18.89,18.89,0,0,0,19,12.37a8.86,8.86,0,0,0-2.29-.15v.64a10.09,10.09,0,0,1,3.77.54,29.33,29.33,0,0,1,2.82,1.23A13.92,13.92,0,0,0,29,16.4a16.59,16.59,0,0,0,6.19-1.49,25.85,25.85,0,0,1,3.94-1.27,10,10,0,0,1,1.28-.2v-.63a14.38,14.38,0,0,0-3.25.76C36.57,13.78,36,14,35.35,14.24Z" transform="translate(-4.72 -4.37)"/><path class="cls-1" d="M35.35,15.14a17.93,17.93,0,0,1-6.23,1.53,8.13,8.13,0,0,1-1.75-.18,19.4,19.4,0,0,1-4.14-1.6A18,18,0,0,0,19,13.28a8.44,8.44,0,0,0-2.29-.15v.63a9.9,9.9,0,0,1,3.77.55,29.25,29.25,0,0,1,2.82,1.22A13.93,13.93,0,0,0,29,17.31a16.55,16.55,0,0,0,6.19-1.5,27,27,0,0,1,3.94-1.27,9.9,9.9,0,0,1,1.28-.19v-.64a14.36,14.36,0,0,0-3.25.77C36.57,14.68,36,14.92,35.35,15.14Z" transform="translate(-4.72 -4.37)"/><path class="cls-1" d="M35.32,20.57a18.15,18.15,0,0,1-6.23,1.53,8.81,8.81,0,0,1-1.75-.18,18.91,18.91,0,0,1-4.14-1.61,18.39,18.39,0,0,0-4.2-1.6,8.64,8.64,0,0,0-2.26-.16v.64a9.94,9.94,0,0,1,3.74.55A27,27,0,0,1,23.3,21,13.93,13.93,0,0,0,29,22.74a17,17,0,0,0,6.19-1.5A25.85,25.85,0,0,1,39.12,20a10.26,10.26,0,0,1,1.3-.2v-.63a14.65,14.65,0,0,0-3.28.76C36.54,20.11,35.92,20.34,35.32,20.57Z" transform="translate(-4.72 -4.37)"/><path class="cls-1" d="M35.32,19.67a18.15,18.15,0,0,1-6.23,1.53A8.15,8.15,0,0,1,27.34,21a18.88,18.88,0,0,1-4.14-1.6A19,19,0,0,0,19,17.8l-.3-.06a9.4,9.4,0,0,0-2-.1v.64a10.14,10.14,0,0,1,3.74.55,29.33,29.33,0,0,1,2.82,1.23A13.92,13.92,0,0,0,29,21.83a16.55,16.55,0,0,0,6.19-1.5,28.27,28.27,0,0,1,3.94-1.27,12.16,12.16,0,0,1,1.31-.19v-.64a15.21,15.21,0,0,0-3.28.77C36.54,19.21,35.92,19.44,35.32,19.67Z" transform="translate(-4.72 -4.37)"/><path class="cls-1" d="M35.35,17.85c-.32.12-.64.25-1,.36h0a15.45,15.45,0,0,1-5.25,1.17,8.15,8.15,0,0,1-1.75-.19,17.18,17.18,0,0,1-3.73-1.4l-.36-.17h0l-.06,0A18.42,18.42,0,0,0,19,16a8.86,8.86,0,0,0-2.29-.15v.64a10.09,10.09,0,0,1,3.77.54,24.71,24.71,0,0,1,2.4,1l.36.17h0l.06,0A13.92,13.92,0,0,0,29,20a16.64,16.64,0,0,0,6.2-1.49c.81-.32,1.66-.64,2.51-.9h0c.5-.16,1-.28,1.41-.38a11.64,11.64,0,0,1,1.28-.19v-.63a14.38,14.38,0,0,0-3.25.76C36.57,17.4,36,17.63,35.35,17.85Z" transform="translate(-4.72 -4.37)"/><path class="cls-1" d="M35.35,17a29,29,0,0,1-3.93,1.27h0a11,11,0,0,1-2.28.26,8.28,8.28,0,0,1-1.76-.18,12.77,12.77,0,0,1-1.66-.5l-.46-.17h.06c-.7-.29-1.38-.61-2.05-.94a18.39,18.39,0,0,0-4.2-1.6,8.87,8.87,0,0,0-2.29-.16v.64a9.9,9.9,0,0,1,3.77.55,27,27,0,0,1,2.82,1.22c.49.24,1,.48,1.52.71l.39.17h0a10.32,10.32,0,0,0,3.78.9,16.63,16.63,0,0,0,6.17-1.49h.06a25.38,25.38,0,0,1,3.93-1.27,9.65,9.65,0,0,1,1.28-.19v-.64a14.36,14.36,0,0,0-3.25.77C36.57,16.49,36,16.72,35.35,17Z" transform="translate(-4.72 -4.37)"/><path class="cls-1" d="M36.83,18.21h0c-.49.17-1,.36-1.47.54a17.93,17.93,0,0,1-6.23,1.53,8.13,8.13,0,0,1-1.75-.18A18.91,18.91,0,0,1,23.2,18.5c-.5-.23-1-.48-1.52-.7l-.39-.17h0A11.91,11.91,0,0,0,19,16.9a8.87,8.87,0,0,0-2.29-.16v.64a9.9,9.9,0,0,1,3.77.55c.11,0,.22.07.33.12l.45.17h-.05c.7.28,1.39.61,2.06.93A13.93,13.93,0,0,0,29,20.93a16.55,16.55,0,0,0,6.19-1.5,25.85,25.85,0,0,1,3.94-1.27A8.17,8.17,0,0,1,40,18a2,2,0,0,1,.24,0l.19,0h0v-.63a14.93,14.93,0,0,0-3.25.76Z" transform="translate(-4.72 -4.37)"/><path class="cls-1" d="M35.32,21.47A18.17,18.17,0,0,1,29.09,23a8.15,8.15,0,0,1-1.75-.19,19.4,19.4,0,0,1-4.14-1.6A18.42,18.42,0,0,0,19,19.61a8.63,8.63,0,0,0-2.26-.15v.63a10.14,10.14,0,0,1,3.74.55,29.33,29.33,0,0,1,2.82,1.23A13.92,13.92,0,0,0,29,23.64a16.55,16.55,0,0,0,6.19-1.5,28.27,28.27,0,0,1,3.94-1.27,12.36,12.36,0,0,1,1.3-.19V20a14.68,14.68,0,0,0-3.27.77Z" transform="translate(-4.72 -4.37)"/><path class="cls-1" d="M35.32,22.38a18.15,18.15,0,0,1-6.23,1.53,8.81,8.81,0,0,1-1.75-.18,18.91,18.91,0,0,1-4.14-1.61A18.89,18.89,0,0,0,19,20.51a9.09,9.09,0,0,0-2.26-.15V21a9.74,9.74,0,0,1,3.74.55,27,27,0,0,1,2.82,1.22A13.93,13.93,0,0,0,29,24.55a16.75,16.75,0,0,0,6.19-1.5,25.85,25.85,0,0,1,3.94-1.27,10.26,10.26,0,0,1,1.3-.2V21a14.69,14.69,0,0,0-3.27.76C36.54,21.92,35.92,22.15,35.32,22.38Z" transform="translate(-4.72 -4.37)"/><path class="cls-1" d="M35.35,11.52a17.93,17.93,0,0,1-6.23,1.53,8.13,8.13,0,0,1-1.75-.18,19.4,19.4,0,0,1-4.14-1.6A25.69,25.69,0,0,0,20.34,10l-.81.39c.33.08.66.17,1,.28,1,.34,1.9.79,2.82,1.22A13.79,13.79,0,0,0,29,13.69a16.55,16.55,0,0,0,6.19-1.5A28.85,28.85,0,0,1,38.86,11l-.81-.41-.87.28C36.57,11.06,36,11.3,35.35,11.52Z" transform="translate(-4.72 -4.37)"/><path class="cls-1" d="M35.35,12.43A18.15,18.15,0,0,1,29.12,14a8.15,8.15,0,0,1-1.75-.19,18.88,18.88,0,0,1-4.14-1.6,19.05,19.05,0,0,0-4.08-1.58l-1,.49a9.39,9.39,0,0,1,2.38.52,27,27,0,0,1,2.82,1.22A13.93,13.93,0,0,0,29,14.6a17,17,0,0,0,6.19-1.5,25.85,25.85,0,0,1,3.94-1.27,10,10,0,0,1,1.28-.2v-.47h-1.1a18.75,18.75,0,0,0-2.15.6C36.57,12,36,12.2,35.35,12.43Z" transform="translate(-4.72 -4.37)"/><path class="cls-1" d="M35.35,13.33a17.93,17.93,0,0,1-6.23,1.53,8.13,8.13,0,0,1-1.75-.18,19.4,19.4,0,0,1-4.14-1.6A18,18,0,0,0,19,11.47a8.44,8.44,0,0,0-2.29-.15V12a9.9,9.9,0,0,1,3.77.55,29.25,29.25,0,0,1,2.82,1.22A13.79,13.79,0,0,0,29,15.5,16.55,16.55,0,0,0,35.21,14a27,27,0,0,1,3.94-1.27,12,12,0,0,1,1.28-.19V11.9a14.36,14.36,0,0,0-3.25.77C36.57,12.87,36,13.11,35.35,13.33Z" transform="translate(-4.72 -4.37)"/><path class="cls-2" d="M27,18.22a13.33,13.33,0,0,1-1.75-.59h-.06l.46.17a12.77,12.77,0,0,0,1.66.5,8.28,8.28,0,0,0,1.76.18,11,11,0,0,0,2.28-.26H31V18a16.08,16.08,0,0,0,1.66-.41h0a11.51,11.51,0,0,1-3.63.59,8.4,8.4,0,0,1-1.21-.12l.59.12Z" transform="translate(-4.72 -4.37)"/><path class="cls-2" d="M23.29,17.63h0l.36.17a17.18,17.18,0,0,0,3.73,1.4,8.15,8.15,0,0,0,1.75.19,15.45,15.45,0,0,0,5.25-1.17h-.73l.47-.17,1.12-.42h0A16.63,16.63,0,0,1,29,19.12a10.32,10.32,0,0,1-3.78-.9h-.68Z" transform="translate(-4.72 -4.37)"/><path class="cls-2" d="M21.31,17.63h0l.39.17c.51.22,1,.47,1.52.7a18.91,18.91,0,0,0,4.14,1.61,8.13,8.13,0,0,0,1.75.18,17.93,17.93,0,0,0,6.23-1.53c.48-.18,1-.37,1.47-.54H36l.48-.17c.45-.17.86-.31,1.25-.42h0c-.85.26-1.7.58-2.51.9A16.64,16.64,0,0,1,29,20a13.92,13.92,0,0,1-5.69-1.77l-.06,0h-.62C22.21,18,21.77,17.82,21.31,17.63Z" transform="translate(-4.72 -4.37)"/><path class="cls-2" d="M39.78,18,40,18a8.17,8.17,0,0,0-.84.14,25.85,25.85,0,0,0-3.94,1.27A16.55,16.55,0,0,1,29,20.93a13.93,13.93,0,0,1-5.69-1.78c-.67-.32-1.36-.65-2.06-.93H20.5A12.2,12.2,0,0,0,19,17.8l-.32-.06.3.06a19,19,0,0,1,4.19,1.61A18.88,18.88,0,0,0,27.34,21a8.15,8.15,0,0,0,1.75.19,18.15,18.15,0,0,0,6.23-1.53c.6-.23,1.22-.46,1.83-.67a15.21,15.21,0,0,1,3.28-.77h-.64Z" transform="translate(-4.72 -4.37)"/><path class="cls-2" d="M40.2,18l.19,0Z" transform="translate(-4.72 -4.37)"/><path class="cls-2" d="M35.18,20.33A16.55,16.55,0,0,1,29,21.83a13.92,13.92,0,0,1-5.69-1.77,29.33,29.33,0,0,0-2.82-1.23,10.14,10.14,0,0,0-3.74-.55v.27a8.64,8.64,0,0,1,2.26.16,18.39,18.39,0,0,1,4.2,1.6,18.91,18.91,0,0,0,4.14,1.61,8.81,8.81,0,0,0,1.75.18,18.15,18.15,0,0,0,6.23-1.53c.6-.23,1.22-.46,1.83-.67a14.65,14.65,0,0,1,3.28-.76v-.27a12.16,12.16,0,0,0-1.31.19A28.27,28.27,0,0,0,35.18,20.33Z" transform="translate(-4.72 -4.37)"/><path class="cls-2" d="M35.18,21.24A17,17,0,0,1,29,22.74,13.93,13.93,0,0,1,23.3,21a27,27,0,0,0-2.82-1.22,9.94,9.94,0,0,0-3.74-.55v.27a8.63,8.63,0,0,1,2.26.15,18.42,18.42,0,0,1,4.2,1.61,19.4,19.4,0,0,0,4.14,1.6,8.15,8.15,0,0,0,1.75.19,18.17,18.17,0,0,0,6.23-1.54l1.83-.66A14.68,14.68,0,0,1,40.42,20v-.27a10.26,10.26,0,0,0-1.3.2A25.85,25.85,0,0,0,35.18,21.24Z" transform="translate(-4.72 -4.37)"/><path class="cls-2" d="M35.18,22.14A16.55,16.55,0,0,1,29,23.64a13.92,13.92,0,0,1-5.69-1.77,29.33,29.33,0,0,0-2.82-1.23,10.14,10.14,0,0,0-3.74-.55v.27a9.09,9.09,0,0,1,2.26.15,18.89,18.89,0,0,1,4.2,1.61,18.91,18.91,0,0,0,4.14,1.61,8.81,8.81,0,0,0,1.75.18,18.15,18.15,0,0,0,6.23-1.53c.6-.23,1.22-.46,1.83-.67A14.69,14.69,0,0,1,40.42,21v-.27a12.36,12.36,0,0,0-1.3.19A28.27,28.27,0,0,0,35.18,22.14Z" transform="translate(-4.72 -4.37)"/><path class="cls-2" d="M35.18,23.05A16.75,16.75,0,0,1,29,24.55a13.93,13.93,0,0,1-5.69-1.78,27,27,0,0,0-2.82-1.22A9.74,9.74,0,0,0,16.74,21v.27a8.63,8.63,0,0,1,2.26.15A18.42,18.42,0,0,1,23.2,23a19.4,19.4,0,0,0,4.14,1.6,8.13,8.13,0,0,0,1.75.18,17.93,17.93,0,0,0,6.23-1.53c.6-.22,1.22-.46,1.83-.66a14.68,14.68,0,0,1,3.27-.77v-.27a10.26,10.26,0,0,0-1.3.2A25.85,25.85,0,0,0,35.18,23.05Z" transform="translate(-4.72 -4.37)"/><path class="cls-2" d="M35.18,24A16.55,16.55,0,0,1,29,25.45a13.79,13.79,0,0,1-5.69-1.78c-.92-.43-1.86-.88-2.82-1.22a10.14,10.14,0,0,0-3.74-.55v.27a9.09,9.09,0,0,1,2.26.15,18.89,18.89,0,0,1,4.2,1.61,18.88,18.88,0,0,0,4.14,1.6,8.15,8.15,0,0,0,1.75.19,18.15,18.15,0,0,0,6.23-1.53c.6-.23,1.22-.46,1.83-.67a14.69,14.69,0,0,1,3.27-.76v-.27a10.2,10.2,0,0,0-1.3.19A28.27,28.27,0,0,0,35.18,24Z" transform="translate(-4.72 -4.37)"/><path class="cls-2" d="M35.18,24.86A17,17,0,0,1,29,26.36a13.93,13.93,0,0,1-5.69-1.78,27,27,0,0,0-2.82-1.22,9.74,9.74,0,0,0-3.74-.55v.27a8.23,8.23,0,0,1,2.26.15,18,18,0,0,1,4.2,1.61,19.4,19.4,0,0,0,4.14,1.6,8.13,8.13,0,0,0,1.75.18,17.93,17.93,0,0,0,6.23-1.53c.6-.22,1.22-.46,1.83-.66a14.68,14.68,0,0,1,3.27-.77v-.27a10.26,10.26,0,0,0-1.3.2A25.85,25.85,0,0,0,35.18,24.86Z" transform="translate(-4.72 -4.37)"/><path class="cls-2" d="M35.18,25.76A16.55,16.55,0,0,1,29,27.26a13.79,13.79,0,0,1-5.69-1.78,29.25,29.25,0,0,0-2.82-1.22,10.14,10.14,0,0,0-3.74-.55V24a9.09,9.09,0,0,1,2.26.15,18.89,18.89,0,0,1,4.2,1.61,18.88,18.88,0,0,0,4.14,1.6,8.15,8.15,0,0,0,1.75.19A18.15,18.15,0,0,0,35.32,26c.6-.23,1.22-.46,1.83-.67a14.56,14.56,0,0,1,3.27-.76V24.3a10.2,10.2,0,0,0-1.3.19A27,27,0,0,0,35.18,25.76Z" transform="translate(-4.72 -4.37)"/><path class="cls-2" d="M35.18,26.67A16.54,16.54,0,0,1,29,28.16a13.92,13.92,0,0,1-5.69-1.77,29.33,29.33,0,0,0-2.82-1.23,9.93,9.93,0,0,0-3.74-.54v.26A8.64,8.64,0,0,1,19,25a18,18,0,0,1,4.2,1.61,19.4,19.4,0,0,0,4.14,1.6,8.13,8.13,0,0,0,1.75.18,17.93,17.93,0,0,0,6.23-1.53c.6-.22,1.22-.46,1.83-.66a14.54,14.54,0,0,1,3.27-.77V25.2a10.26,10.26,0,0,0-1.3.2A25.85,25.85,0,0,0,35.18,26.67Z" transform="translate(-4.72 -4.37)"/><path class="cls-2" d="M35.18,27.57A16.75,16.75,0,0,1,29,29.07a13.93,13.93,0,0,1-5.69-1.78,29.25,29.25,0,0,0-2.82-1.22,10.14,10.14,0,0,0-3.74-.55v.27a9.09,9.09,0,0,1,2.26.15,18.42,18.42,0,0,1,4.2,1.61,18.88,18.88,0,0,0,4.14,1.6,8.15,8.15,0,0,0,1.75.19,18.15,18.15,0,0,0,6.23-1.53c.6-.23,1.22-.46,1.83-.67a14.56,14.56,0,0,1,3.27-.76v-.27a10.2,10.2,0,0,0-1.3.19A27,27,0,0,0,35.18,27.57Z" transform="translate(-4.72 -4.37)"/><path class="cls-2" d="M35.18,28.48A16.73,16.73,0,0,1,29,30,13.92,13.92,0,0,1,23.3,28.2,29.33,29.33,0,0,0,20.48,27a10.14,10.14,0,0,0-3.74-.55v.27a8.64,8.64,0,0,1,2.26.16,18.39,18.39,0,0,1,4.2,1.6,18.91,18.91,0,0,0,4.14,1.61,8.81,8.81,0,0,0,1.75.18,17.93,17.93,0,0,0,6.23-1.53c.6-.23,1.22-.46,1.83-.66a14,14,0,0,1,3.27-.77V27a12,12,0,0,0-1.3.19A27,27,0,0,0,35.18,28.48Z" transform="translate(-4.72 -4.37)"/><path class="cls-2" d="M35.18,29.38A17,17,0,0,1,29,30.88,13.93,13.93,0,0,1,23.3,29.1a27,27,0,0,0-2.82-1.22,9.94,9.94,0,0,0-3.74-.55v.27a8.63,8.63,0,0,1,2.26.15,18.42,18.42,0,0,1,4.2,1.61A19.4,19.4,0,0,0,27.34,31a8.15,8.15,0,0,0,1.75.19,18.17,18.17,0,0,0,6.23-1.54L37.15,29a15.11,15.11,0,0,1,3.27-.77v-.27a10,10,0,0,0-1.3.2A25.85,25.85,0,0,0,35.18,29.38Z" transform="translate(-4.72 -4.37)"/><path class="cls-2" d="M35.18,30.28A16.55,16.55,0,0,1,29,31.78,13.92,13.92,0,0,1,23.3,30a29.33,29.33,0,0,0-2.82-1.23,10.14,10.14,0,0,0-3.74-.55v.27a9.09,9.09,0,0,1,2.26.15,18.89,18.89,0,0,1,4.2,1.61,18.91,18.91,0,0,0,4.14,1.61,8.81,8.81,0,0,0,1.75.18,18.15,18.15,0,0,0,6.23-1.53c.6-.23,1.22-.46,1.83-.67a14.56,14.56,0,0,1,3.27-.76v-.27a12,12,0,0,0-1.3.19A28.27,28.27,0,0,0,35.18,30.28Z" transform="translate(-4.72 -4.37)"/><path class="cls-2" d="M35.18,31.19A17,17,0,0,1,29,32.69a13.93,13.93,0,0,1-5.69-1.78,27,27,0,0,0-2.82-1.22,9.74,9.74,0,0,0-3.74-.55v.27a8.63,8.63,0,0,1,2.26.15,18.42,18.42,0,0,1,4.2,1.61,19.4,19.4,0,0,0,4.14,1.6,8.13,8.13,0,0,0,1.75.18,17.93,17.93,0,0,0,6.23-1.53c.6-.22,1.22-.46,1.83-.66A14.54,14.54,0,0,1,40.42,30v-.27a10,10,0,0,0-1.3.2A25.85,25.85,0,0,0,35.18,31.19Z" transform="translate(-4.72 -4.37)"/><path class="cls-2" d="M35.18,32.09A16.55,16.55,0,0,1,29,33.59a13.79,13.79,0,0,1-5.69-1.78c-.92-.43-1.86-.88-2.82-1.22A10.14,10.14,0,0,0,16.74,30v.27a9.09,9.09,0,0,1,2.26.15,18.89,18.89,0,0,1,4.2,1.61,18.88,18.88,0,0,0,4.14,1.6,8.15,8.15,0,0,0,1.75.19,18.15,18.15,0,0,0,6.23-1.53c.6-.23,1.22-.46,1.83-.67a14.47,14.47,0,0,1,3.26-.76v-.27a12.18,12.18,0,0,0-1.29.19A28.27,28.27,0,0,0,35.18,32.09Z" transform="translate(-4.72 -4.37)"/><path class="cls-2" d="M35.18,33A17,17,0,0,1,29,34.5a13.93,13.93,0,0,1-5.69-1.78,27,27,0,0,0-2.82-1.22A9.74,9.74,0,0,0,16.74,31v.27a8.23,8.23,0,0,1,2.26.15A18.42,18.42,0,0,1,23.2,33a19.4,19.4,0,0,0,4.14,1.6,8.13,8.13,0,0,0,1.75.18,17.93,17.93,0,0,0,6.23-1.53c.6-.22,1.22-.46,1.83-.66a14.45,14.45,0,0,1,3.26-.77v-.27a10.11,10.11,0,0,0-1.29.2A25.85,25.85,0,0,0,35.18,33Z" transform="translate(-4.72 -4.37)"/><path class="cls-2" d="M35.18,33.9A16.55,16.55,0,0,1,29,35.4a13.79,13.79,0,0,1-5.69-1.78c-.92-.43-1.86-.88-2.82-1.22a10.14,10.14,0,0,0-3.74-.55v.27a9.09,9.09,0,0,1,2.26.15,18.89,18.89,0,0,1,4.2,1.61,18.88,18.88,0,0,0,4.14,1.6,8.15,8.15,0,0,0,1.75.19,18.15,18.15,0,0,0,6.23-1.53c.6-.23,1.22-.46,1.83-.67a14.88,14.88,0,0,1,3.23-.76,2.45,2.45,0,0,1,0-.27,11.64,11.64,0,0,0-1.28.19A27,27,0,0,0,35.18,33.9Z" transform="translate(-4.72 -4.37)"/><path class="cls-2" d="M35.18,34.81A16.54,16.54,0,0,1,29,36.3a13.92,13.92,0,0,1-5.69-1.77,29.33,29.33,0,0,0-2.82-1.23,10.14,10.14,0,0,0-3.7-.55,2.45,2.45,0,0,0,0,.27,9.1,9.1,0,0,1,2.2.16,18,18,0,0,1,4.2,1.61,19.4,19.4,0,0,0,4.14,1.6,8.13,8.13,0,0,0,1.75.18A17.93,17.93,0,0,0,35.32,35c.6-.22,1.22-.46,1.83-.66a14.65,14.65,0,0,1,3.13-.76l0-.27a10.48,10.48,0,0,0-1.19.19A25.85,25.85,0,0,0,35.18,34.81Z" transform="translate(-4.72 -4.37)"/><path class="cls-2" d="M35.18,35.71A16.55,16.55,0,0,1,29,37.21a13.79,13.79,0,0,1-5.69-1.78,29.25,29.25,0,0,0-2.82-1.22,10.08,10.08,0,0,0-3.6-.56c0,.09,0,.18,0,.27a9.17,9.17,0,0,1,2.08.16,18.42,18.42,0,0,1,4.2,1.61,18.88,18.88,0,0,0,4.14,1.6,8.15,8.15,0,0,0,1.75.19A18.15,18.15,0,0,0,35.32,36c.6-.23,1.22-.46,1.83-.67a15,15,0,0,1,3-.73l.06-.28a9.78,9.78,0,0,0-1,.17A27,27,0,0,0,35.18,35.71Z" transform="translate(-4.72 -4.37)"/><path class="cls-2" d="M35.18,36.62A16.54,16.54,0,0,1,29,38.11a13.92,13.92,0,0,1-5.69-1.77,29.33,29.33,0,0,0-2.82-1.23,10.28,10.28,0,0,0-3.43-.56c0,.09,0,.18.07.27A8.6,8.6,0,0,1,19,35a18.39,18.39,0,0,1,4.2,1.6,18.91,18.91,0,0,0,4.14,1.61,8.81,8.81,0,0,0,1.75.18,17.93,17.93,0,0,0,6.23-1.53c.6-.23,1.22-.46,1.83-.66a15,15,0,0,1,2.69-.7c0-.09.06-.19.08-.28-.26,0-.53.08-.8.13A27,27,0,0,0,35.18,36.62Z" transform="translate(-4.72 -4.37)"/><path class="cls-2" d="M35.18,37.52A16.75,16.75,0,0,1,29,39a13.93,13.93,0,0,1-5.69-1.78A27,27,0,0,0,20.48,36a10.18,10.18,0,0,0-3.18-.56l.09.26a8.8,8.8,0,0,1,1.61.17,18.42,18.42,0,0,1,4.2,1.61,19.4,19.4,0,0,0,4.14,1.6,8.15,8.15,0,0,0,1.75.19,17.94,17.94,0,0,0,6.23-1.54c.6-.22,1.22-.45,1.83-.66a17.33,17.33,0,0,1,2.33-.63l.12-.3-.48.09A25.85,25.85,0,0,0,35.18,37.52Z" transform="translate(-4.72 -4.37)"/><path class="cls-2" d="M35.18,38.42A16.55,16.55,0,0,1,29,39.92a13.92,13.92,0,0,1-5.69-1.77,29.33,29.33,0,0,0-2.82-1.23,10.35,10.35,0,0,0-2.84-.55l.12.27A7.66,7.66,0,0,1,19,36.8a18.39,18.39,0,0,1,4.2,1.6A18.91,18.91,0,0,0,27.34,40a8.81,8.81,0,0,0,1.75.18,18.15,18.15,0,0,0,6.23-1.53c.6-.23,1.22-.46,1.83-.67s1.18-.38,1.84-.53l.17-.31h0A28.27,28.27,0,0,0,35.18,38.42Z" transform="translate(-4.72 -4.37)"/><path class="cls-2" d="M29,40.83a13.93,13.93,0,0,1-5.69-1.78,27,27,0,0,0-2.82-1.22,9.63,9.63,0,0,0-2.4-.52l.14.27q.39,0,.78.12a18.42,18.42,0,0,1,4.2,1.61,19.4,19.4,0,0,0,4.14,1.6,8.13,8.13,0,0,0,1.75.18,17.93,17.93,0,0,0,6.23-1.53c.6-.22,1.22-.46,1.83-.66.37-.13.77-.25,1.19-.37l.23-.34a30,30,0,0,0-3.39,1.14A17,17,0,0,1,29,40.83Z" transform="translate(-4.72 -4.37)"/><path class="cls-2" d="M29,41.73A13.79,13.79,0,0,1,23.3,40c-.92-.43-1.86-.88-2.82-1.22a10,10,0,0,0-1.83-.45l.19.3.16,0a18.89,18.89,0,0,1,4.2,1.61,18.88,18.88,0,0,0,4.14,1.6,8.15,8.15,0,0,0,1.75.19,18.15,18.15,0,0,0,6.23-1.53c.6-.23,1.22-.46,1.83-.67l.26-.08c.12-.13.23-.26.34-.4-.87.27-1.73.59-2.57.91A16.55,16.55,0,0,1,29,41.73Z" transform="translate(-4.72 -4.37)"/><path class="cls-2" d="M29,42.64a13.93,13.93,0,0,1-5.69-1.78,27,27,0,0,0-2.82-1.22,8.62,8.62,0,0,0-1.07-.31l.3.36a21.31,21.31,0,0,1,3.49,1.43,19.4,19.4,0,0,0,4.14,1.6,8.13,8.13,0,0,0,1.75.18,17.93,17.93,0,0,0,6.23-1.53l.54-.2c.21-.17.42-.34.62-.52l-1.3.49A16.75,16.75,0,0,1,29,42.64Z" transform="translate(-4.72 -4.37)"/><path class="cls-2" d="M23.3,41.76c-.88-.42-1.79-.85-2.71-1.18.21.19.42.37.64.54.67.28,1.33.59,2,.9a19,19,0,0,0,4.09,1.59,10.91,10.91,0,0,0,1.29.07h0a11.61,11.61,0,0,0,4.26-.8,11.67,11.67,0,0,1-3.85.66A13.79,13.79,0,0,1,23.3,41.76Z" transform="translate(-4.72 -4.37)"/><path class="cls-2" d="M30.21,6.66l-.44-.22-.75,0a8.24,8.24,0,0,1-1-.09l-.44.21a8.27,8.27,0,0,0,1.55.14A9.82,9.82,0,0,0,30.21,6.66Z" transform="translate(-4.72 -4.37)"/><path class="cls-2" d="M29.12,7.63a11.08,11.08,0,0,0,2.44-.3l-.37-.18A10.5,10.5,0,0,1,29,7.36,8.92,8.92,0,0,1,26.71,7l-.37.17a9.22,9.22,0,0,0,1,.28A8.15,8.15,0,0,0,29.12,7.63Z" transform="translate(-4.72 -4.37)"/><path class="cls-2" d="M29.12,8.53a12.37,12.37,0,0,0,3.61-.61l-.33-.17A11,11,0,0,1,29,8.26a9.89,9.89,0,0,1-3.41-.75l-.34.16a12.86,12.86,0,0,0,2.1.68A8.13,8.13,0,0,0,29.12,8.53Z" transform="translate(-4.72 -4.37)"/><path class="cls-2" d="M29.12,9.44a14.44,14.44,0,0,0,4.7-1L33.5,8.3A12.7,12.7,0,0,1,29,9.17,11.21,11.21,0,0,1,24.61,8l-.33.16a15.15,15.15,0,0,0,3.09,1.1A8.15,8.15,0,0,0,29.12,9.44Z" transform="translate(-4.72 -4.37)"/><path class="cls-2" d="M29.12,10.34A16.76,16.76,0,0,0,34.87,9l-.32-.16A15.09,15.09,0,0,1,29,10.07a13.09,13.09,0,0,1-5.38-1.62l-.31.15a18.28,18.28,0,0,0,4,1.56A8.81,8.81,0,0,0,29.12,10.34Z" transform="translate(-4.72 -4.37)"/><path class="cls-2" d="M27.37,11.06a8.15,8.15,0,0,0,1.75.19,18.17,18.17,0,0,0,6.23-1.54l.55-.2-.33-.17-.36.14A16.75,16.75,0,0,1,29,11,13.93,13.93,0,0,1,23.33,9.2l-.63-.3-.32.15.85.41A19.4,19.4,0,0,0,27.37,11.06Z" transform="translate(-4.72 -4.37)"/><path class="cls-2" d="M27.37,12a8.81,8.81,0,0,0,1.75.18,18.15,18.15,0,0,0,6.23-1.53L37,10l-.34-.17-1.4.52A16.55,16.55,0,0,1,29,11.88a13.92,13.92,0,0,1-5.69-1.77c-.53-.26-1.06-.51-1.61-.75l-.33.16c.63.26,1.24.56,1.84.84A18.91,18.91,0,0,0,27.37,12Z" transform="translate(-4.72 -4.37)"/><path class="cls-2" d="M35.21,11.29A16.79,16.79,0,0,1,29,12.79,13.93,13.93,0,0,1,23.33,11c-.86-.41-1.74-.83-2.64-1.16l-.35.17a25.69,25.69,0,0,1,2.89,1.25,19.4,19.4,0,0,0,4.14,1.6,8.13,8.13,0,0,0,1.75.18,17.93,17.93,0,0,0,6.23-1.53c.6-.22,1.22-.46,1.83-.66l.87-.28-.36-.18C36.85,10.67,36,11,35.21,11.29Z" transform="translate(-4.72 -4.37)"/><path class="cls-2" d="M29,13.69a13.79,13.79,0,0,1-5.69-1.78c-.92-.43-1.86-.88-2.82-1.22-.32-.11-.65-.2-1-.28l-.38.18a19.05,19.05,0,0,1,4.08,1.58,18.88,18.88,0,0,0,4.14,1.6,8.15,8.15,0,0,0,1.75.19,18.15,18.15,0,0,0,6.23-1.53c.6-.23,1.22-.46,1.83-.67a18.75,18.75,0,0,1,2.15-.6h-.12L38.86,11a28.85,28.85,0,0,0-3.65,1.2A16.55,16.55,0,0,1,29,13.69Z" transform="translate(-4.72 -4.37)"/><path class="cls-2" d="M35.21,13.1A17,17,0,0,1,29,14.6a13.93,13.93,0,0,1-5.69-1.78,27,27,0,0,0-2.82-1.22,9.39,9.39,0,0,0-2.38-.52l-.19.09h-1.2v.16a8.44,8.44,0,0,1,2.29.15,18,18,0,0,1,4.2,1.61,19.4,19.4,0,0,0,4.14,1.6,8.13,8.13,0,0,0,1.75.18,17.93,17.93,0,0,0,6.23-1.53c.6-.22,1.22-.46,1.83-.66a14.36,14.36,0,0,1,3.25-.77v-.27a10,10,0,0,0-1.28.2A25.85,25.85,0,0,0,35.21,13.1Z" transform="translate(-4.72 -4.37)"/><path class="cls-2" d="M35.21,14A16.55,16.55,0,0,1,29,15.5a13.79,13.79,0,0,1-5.69-1.78,29.25,29.25,0,0,0-2.82-1.22A9.9,9.9,0,0,0,16.74,12v.27a8.86,8.86,0,0,1,2.29.15A18.89,18.89,0,0,1,23.23,14a18.88,18.88,0,0,0,4.14,1.6,8.15,8.15,0,0,0,1.75.19,18.15,18.15,0,0,0,6.23-1.53c.6-.23,1.22-.46,1.83-.67a14.38,14.38,0,0,1,3.25-.76v-.27a12,12,0,0,0-1.28.19A27,27,0,0,0,35.21,14Z" transform="translate(-4.72 -4.37)"/><path class="cls-2" d="M35.21,14.91A16.59,16.59,0,0,1,29,16.4a13.92,13.92,0,0,1-5.69-1.77,29.33,29.33,0,0,0-2.82-1.23,10.09,10.09,0,0,0-3.77-.54v.27a8.44,8.44,0,0,1,2.29.15,18,18,0,0,1,4.2,1.61,19.4,19.4,0,0,0,4.14,1.6,8.13,8.13,0,0,0,1.75.18,17.93,17.93,0,0,0,6.23-1.53c.6-.22,1.22-.46,1.83-.66a14.36,14.36,0,0,1,3.25-.77v-.27a10,10,0,0,0-1.28.2A25.85,25.85,0,0,0,35.21,14.91Z" transform="translate(-4.72 -4.37)"/><path class="cls-2" d="M35.21,15.81A16.55,16.55,0,0,1,29,17.31a13.93,13.93,0,0,1-5.69-1.78,29.25,29.25,0,0,0-2.82-1.22,9.9,9.9,0,0,0-3.77-.55V14a8.86,8.86,0,0,1,2.29.15,18.42,18.42,0,0,1,4.2,1.61,18.88,18.88,0,0,0,4.14,1.6,8.15,8.15,0,0,0,1.75.19,18.15,18.15,0,0,0,6.23-1.53c.6-.23,1.22-.46,1.83-.67a14.38,14.38,0,0,1,3.25-.76v-.27a9.9,9.9,0,0,0-1.28.19A27,27,0,0,0,35.21,15.81Z" transform="translate(-4.72 -4.37)"/><path class="cls-2" d="M19,15.09a18.39,18.39,0,0,1,4.2,1.6c.67.33,1.35.65,2.05.94H26a10.64,10.64,0,0,0,1.75.47L27.51,18a18.78,18.78,0,0,1-4.18-1.6,29.33,29.33,0,0,0-2.82-1.23,10.09,10.09,0,0,0-3.77-.54v.26A8.87,8.87,0,0,1,19,15.09Z" transform="translate(-4.72 -4.37)"/><path class="cls-2" d="M25.28,17.63a13.33,13.33,0,0,0,1.75.59h1.34l-.59-.12A10.64,10.64,0,0,1,26,17.63Z" transform="translate(-4.72 -4.37)"/><path class="cls-2" d="M35.21,16.72c-.83.31-1.69.64-2.56.91h.84l-.56.17c-.47.15-1,.3-1.55.42h0A29,29,0,0,0,35.35,17c.6-.23,1.22-.46,1.83-.66a14.36,14.36,0,0,1,3.25-.77v-.27a11.64,11.64,0,0,0-1.28.19A27,27,0,0,0,35.21,16.72Z" transform="translate(-4.72 -4.37)"/><path class="cls-2" d="M31,18.22h.38c.56-.12,1.08-.27,1.55-.42l.56-.17h-.84A16.08,16.08,0,0,1,31,18Z" transform="translate(-4.72 -4.37)"/><path class="cls-2" d="M19,16a18.42,18.42,0,0,1,4.2,1.61l.06,0h.62l1.3.59h0l-.39-.17c-.51-.23-1-.47-1.52-.71a27,27,0,0,0-2.82-1.22,9.9,9.9,0,0,0-3.77-.55v.27A8.86,8.86,0,0,1,19,16Z" transform="translate(-4.72 -4.37)"/><path class="cls-2" d="M23.29,17.63l1.24.58h.68l-1.3-.59Z" transform="translate(-4.72 -4.37)"/><path class="cls-2" d="M35.22,17.62h.71l-.61.23-1,.36h0c.33-.11.65-.24,1-.36.6-.22,1.22-.45,1.83-.66a14.38,14.38,0,0,1,3.25-.76v-.27a9.65,9.65,0,0,0-1.28.19A25.38,25.38,0,0,0,35.22,17.62Z" transform="translate(-4.72 -4.37)"/><path class="cls-2" d="M33.61,18.22h.73l1-.36.61-.23H35.2l-1.12.42Z" transform="translate(-4.72 -4.37)"/><path class="cls-2" d="M19,16.9a11.91,11.91,0,0,1,2.28.73H22l1.26.59h0l-.36-.17a24.71,24.71,0,0,0-2.4-1,10.09,10.09,0,0,0-3.77-.54v.26A8.87,8.87,0,0,1,19,16.9Z" transform="translate(-4.72 -4.37)"/><path class="cls-2" d="M21.31,17.63c.46.19.9.39,1.31.58h.62L22,17.63Z" transform="translate(-4.72 -4.37)"/><path class="cls-2" d="M37.74,17.63h.95l-.61.17c-.29.09-.6.18-.93.3l-.36.12h0l.35-.12a14.93,14.93,0,0,1,3.25-.76v-.27a11.64,11.64,0,0,0-1.28.19C38.7,17.35,38.24,17.47,37.74,17.63Z" transform="translate(-4.72 -4.37)"/><path class="cls-2" d="M36,18.22h.78l.36-.12c.33-.12.64-.21.93-.3l.61-.17h-.95c-.39.11-.8.25-1.25.42Z" transform="translate(-4.72 -4.37)"/><path class="cls-2" d="M18.71,17.74l-.56-.11h1.29a9.49,9.49,0,0,1,1,.3l.76.29h.05l-.45-.17c-.11-.05-.22-.08-.33-.12a9.9,9.9,0,0,0-3.77-.55v.26A9.4,9.4,0,0,1,18.71,17.74Z" transform="translate(-4.72 -4.37)"/><path class="cls-2" d="M19.44,17.63H18.15l.56.11.32.06a12.2,12.2,0,0,1,1.47.41h.74l-.76-.29A9.49,9.49,0,0,0,19.44,17.63Z" transform="translate(-4.72 -4.37)"/><path class="cls-2" d="M40,18a2,2,0,0,1,.24,0A2,2,0,0,0,40,18Z" transform="translate(-4.72 -4.37)"/><path class="cls-2" d="M40.43,18Z" transform="translate(-4.72 -4.37)"/><path class="cls-2" d="M40.2,18A2,2,0,0,0,40,18l-.18,0v.18h.64V18h0Z" transform="translate(-4.72 -4.37)"/><path class="cls-3" d="M28.58,45.18A13.21,13.21,0,0,1,15.39,32V10.34A.64.64,0,0,1,16,9.7h1.89L28.85,4.37,39.28,9.7h1.86a.64.64,0,0,1,.64.64V32A13.21,13.21,0,0,1,28.58,45.18ZM16.28,10.6V32a12.31,12.31,0,0,0,24.61,0V10.6H39.06L28.84,5.37,18.13,10.6Z" transform="translate(-4.72 -4.37)"/><g class="cls-4"><path class="cls-5" d="M41.59,37.74l-.1,0-.06,0,0,0-.09,0a75.83,75.83,0,0,1-7-3.4c-.22-.13-.45-.25-.68-.37s-.14-.14-.16-.28a4.78,4.78,0,0,0-.12-1.41c-.05-.13.06-.13.13-.15.4-.08.81-.14,1.21-.19a2.73,2.73,0,0,0,.64-.16,1.41,1.41,0,0,0,.91-1.39,4.37,4.37,0,0,1,.4-1.89c.19-.5.26-1,.42-1.55a7.62,7.62,0,0,0,.37-1.32,1.3,1.3,0,0,1,.3-.7,1.24,1.24,0,0,0,.15-1.31,3,3,0,0,0-.28-.53c0-.06-.05-.09,0-.12a2.07,2.07,0,0,0,1.26-1.5c0-.19.09-.32.3-.37s.26-.22.23-.44a.31.31,0,0,0-.31-.33c-.1,0-.13-.06-.15-.15a2.09,2.09,0,0,0-.9-1.3.16.16,0,0,1-.09-.18.57.57,0,0,0-.09-.36,10.65,10.65,0,0,1-.9-2.18,5.48,5.48,0,0,0-2.07-3.16.31.31,0,0,1-.16-.33,2.22,2.22,0,0,0-1.21-2.43,4.61,4.61,0,0,0-1.7-.52c-.77-.1-1.56-.08-2.35-.12s-1.72,0-2.59.13a9.68,9.68,0,0,0-4.2,1.51A10.23,10.23,0,0,0,20.83,13a12.09,12.09,0,0,0-1.28,1.73A5.14,5.14,0,0,0,18.74,18a5.61,5.61,0,0,1,.08,1.08,5.62,5.62,0,0,0,0,1.23,7.13,7.13,0,0,0,.4,1.76c.34.88.61,1.79,1,2.66a16.06,16.06,0,0,0,1.47,2.5,1.63,1.63,0,0,0,.65.6.14.14,0,0,1,.12.15c0,.25,0,.5,0,.76s0,.19-.17.23a1,1,0,0,0-.68.74c-.21.9-.57,1.74-.86,2.61a.22.22,0,0,1-.1.13c-.85.59-1.68,1.2-2.54,1.78-.56.37-1.15.68-1.72,1a.13.13,0,0,1-.14,0l-.3.19a18.35,18.35,0,0,0,3.71,4.84,15.36,15.36,0,0,0,4,2.69,14.81,14.81,0,0,0,6.13,1.4,11.61,11.61,0,0,0,2.2-.19,14.25,14.25,0,0,0,4-1.28,16.24,16.24,0,0,0,5.14-4c.28-.33.55-.67.81-1A3.39,3.39,0,0,0,41.59,37.74Z" transform="translate(-4.72 -4.37)"/><path class="cls-3" d="M32.75,11.72l.26.42s.05.12.11.1.06-.1.05-.16a1.19,1.19,0,0,0-.24-.55,2.63,2.63,0,0,0-2.06-1.07,4.48,4.48,0,0,0-2.12.45c-2,.87-3.82,2-5.72,2.95-.05,0-.11,0-.12.11s.14,0,.2-.05c1.46-.58,2.82-1.38,4.24-2.05a14.11,14.11,0,0,1,2-.95,3.4,3.4,0,0,1,1.73-.18A2.54,2.54,0,0,1,32.75,11.72Z" transform="translate(-4.72 -4.37)"/><path class="cls-3" d="M30.81,16.17a5.37,5.37,0,0,1,2.54-.29,24.33,24.33,0,0,0,2.55.32,2.82,2.82,0,0,1,.47.07c0-.1-.1-.11-.15-.13a1.66,1.66,0,0,0-.61-.12,7.86,7.86,0,0,1-1.81-.21,5.34,5.34,0,0,0-3,.25c-.08,0-.17,0-.22.14s0,0,.05,0Z" transform="translate(-4.72 -4.37)"/><path class="cls-3" d="M35.87,15.3a.26.26,0,0,0-.15-.09,4.47,4.47,0,0,0-1.2-.23A13.26,13.26,0,0,0,32,14.87a4.31,4.31,0,0,0-1.38.38C32.38,14.71,34.13,15.08,35.87,15.3Z" transform="translate(-4.72 -4.37)"/><path class="cls-3" d="M31,11a5.63,5.63,0,0,1,1.6,1.13C32.39,11.59,31.42,10.89,31,11Z" transform="translate(-4.72 -4.37)"/><path class="cls-3" d="M41.53,37.77a.2.2,0,0,1-.1,0l-.06,0h0l-.09-.05c-2.34-1.07-4.72-2.09-7-3.39-.22-.13-.45-.25-.68-.37s-.14-.14-.15-.28a5.22,5.22,0,0,0-.12-1.42c0-.13.05-.13.12-.14.41-.08.81-.15,1.22-.2a2.15,2.15,0,0,0,.64-.16,1.39,1.39,0,0,0,.9-1.38,4.34,4.34,0,0,1,.4-1.89c.19-.5.26-1,.42-1.56a6.54,6.54,0,0,0,.37-1.31,1.28,1.28,0,0,1,.31-.7,1.26,1.26,0,0,0,.14-1.31,3,3,0,0,0-.28-.53c0-.06,0-.09,0-.12a2.08,2.08,0,0,0,1.26-1.51c0-.18.1-.31.3-.36s.26-.22.23-.44a.31.31,0,0,0-.31-.33c-.1,0-.13-.07-.15-.16a2.07,2.07,0,0,0-.9-1.29.17.17,0,0,1-.09-.19.59.59,0,0,0-.09-.36,10.57,10.57,0,0,1-.9-2.17,5.5,5.5,0,0,0-2.07-3.17.3.3,0,0,1-.16-.32,2.24,2.24,0,0,0-1.21-2.44,4.42,4.42,0,0,0-1.69-.51c-.78-.1-1.57-.08-2.36-.12s-1.72,0-2.58.13a9.67,9.67,0,0,0-4.21,1.51A10.17,10.17,0,0,0,20.77,13a12.18,12.18,0,0,0-1.28,1.74A5.2,5.2,0,0,0,18.68,18a5.61,5.61,0,0,1,.08,1.08,6.32,6.32,0,0,0,0,1.23,7.42,7.42,0,0,0,.4,1.75c.34.89.61,1.8,1,2.67a16.06,16.06,0,0,0,1.47,2.5,1.71,1.71,0,0,0,.66.59.19.19,0,0,1,.12.15l0,.76a.2.2,0,0,1-.16.23,1,1,0,0,0-.69.75c-.21.9-.57,1.74-.86,2.61a.26.26,0,0,1-.1.13c-.85.59-1.68,1.2-2.54,1.77-.55.37-1.14.69-1.71,1-.07,0-.11,0-.14,0l-.3.2a18.26,18.26,0,0,0,3.7,4.84,15.24,15.24,0,0,0,4,2.68,14.82,14.82,0,0,0,6.13,1.41A12.6,12.6,0,0,0,32,44.22a14.37,14.37,0,0,0,4-1.29,16.14,16.14,0,0,0,5.13-4q.42-.49.81-1Zm-1.47.32L38.94,39a27.81,27.81,0,0,1-3.81,2.46c-.89.51-1.8,1-2.66,1.6-.06,0-.15.15-.2.07s.07-.14.13-.19c1.38-.94,2.84-1.73,4.28-2.55a22.2,22.2,0,0,0,2.67-1.84l.68-.48Zm-2.2-1a4.84,4.84,0,0,1-.94.75c-.87.58-1.8,1.08-2.69,1.62-1.21.73-2.4,1.47-3.57,2.25-.07,0-.17.17-.23.09s.09-.16.17-.21c1.32-.89,2.65-1.75,4-2.54a33.38,33.38,0,0,0,3.09-1.87A.75.75,0,0,1,37.86,37.09Zm-.54-.29,0,0a4.52,4.52,0,0,1-.71.53C35.78,38,34.86,38.45,34,39c-1.18.71-2.34,1.45-3.5,2.2,0,0-.1.09-.18.08s.09-.16.16-.21c1-.72,2.12-1.38,3.2-2s2.16-1.22,3.19-1.9Zm-1.12-.45c-1.48,1-3.06,1.88-4.57,2.85A41.51,41.51,0,0,1,36.2,36.35Zm-4.66,2.26c1.32-1,2.75-1.73,4.16-2.61A43.47,43.47,0,0,1,31.54,38.61Zm-.48-.28a44.36,44.36,0,0,1,4.16-2.58C33.86,36.66,32.44,37.46,31.06,38.33Zm.15.73c0,.31-.11.47-.32.48s-.43-.29-.43-.54a.41.41,0,0,1,.34-.42C31,38.57,31.21,38.83,31.21,39.06ZM37.9,19.18a1.67,1.67,0,0,1,.74,1.74,2,2,0,0,1-.75,1.41,1.22,1.22,0,0,1-.44.22c-.07,0-.16,0-.17-.06s.07-.06.11-.08a1.86,1.86,0,0,0,1.1-1.74,1.67,1.67,0,0,0-.44-1.23,1,1,0,0,0-1.54.1,1.93,1.93,0,0,0-.23.48c0,.08-.05.15-.15.15a1.28,1.28,0,0,1,.95-1.2A1.13,1.13,0,0,1,37.9,19.18Zm-.86,2V22l-.51-.89A.35.35,0,0,0,36.9,21s0-.06.07,0a.07.07,0,0,1,0,.1c0,.09-.15.15-.18.26S36.94,21.22,37,21.19ZM36.65,20s-.08,0,0-.07.08-.16.18-.15a.57.57,0,0,1,.45.63A.68.68,0,0,0,36.65,20Zm.47-.25a.65.65,0,0,0-.29-.07.68.68,0,0,1,.47-.26c.09,0,.15,0,.14.12s0,.24,0,.36Zm1,1c.09,0,.13,0,.12.13a1.58,1.58,0,0,1-.78,1.26c-.08.05-.11,0-.11-.06v-.32a5.28,5.28,0,0,1,.09-.81c0-.11.07-.17.19-.17Zm-.42-.6c0-.19.05-.39.07-.58s0-.12,0-.14.09,0,.12.07a1,1,0,0,1,.35.65c0,.22,0,.26-.21.27H38C37.68,20.48,37.69,20.48,37.73,20.21ZM20,22.27a2.14,2.14,0,0,1-.06.35,2,2,0,0,1,.07-.78,5,5,0,0,1,1.24-2.36c.51-.63,1-1.28,1.47-1.92a5.7,5.7,0,0,1,.93-1,.44.44,0,0,0,.12-.15,1.65,1.65,0,0,0-.54.36A8.28,8.28,0,0,0,22.14,18c-.47.58-1,1.13-1.42,1.72a4.53,4.53,0,0,0-.83,1.6,7.31,7.31,0,0,0-.15.76,1.12,1.12,0,0,1,0-.81A6,6,0,0,1,21,19,20.08,20.08,0,0,0,22.31,17a5.42,5.42,0,0,1,1.27-1.43l.11-.1a.29.29,0,0,0-.24.08A4.83,4.83,0,0,0,22.09,17a25.82,25.82,0,0,1-1.65,2.24,4.92,4.92,0,0,0-.88,2,.26.26,0,0,1,0,.1,4.57,4.57,0,0,1,.62-1.94c.57-1,1.23-1.93,1.87-2.88a4.61,4.61,0,0,1,.82-.89l.11-.12c-.11,0-.16.05-.21.09A4.59,4.59,0,0,0,21.48,17c-.38.63-.84,1.2-1.2,1.84a10.88,10.88,0,0,1,1-2.14,6.83,6.83,0,0,1,1.5-1.58,9.87,9.87,0,0,1,2.33-1.53l.25-.15a19.62,19.62,0,0,1-2,1.87,7.44,7.44,0,0,0,1.91-1.41,4.1,4.1,0,0,1-.47,1.16c-.21.35-.53.6-.73,1a4.9,4.9,0,0,0,1.5-1.92,2.25,2.25,0,0,1-.19,1,5.57,5.57,0,0,1-.5.85,3.29,3.29,0,0,0,.95-1.36,5.17,5.17,0,0,1-.35,1.83,4.85,4.85,0,0,1-1.1,1.47,3.6,3.6,0,0,0,.71-.58,3.83,3.83,0,0,0,.9-2,.55.55,0,0,1,.37-.45,7.81,7.81,0,0,1,1.75-.64.68.68,0,0,0,.32-.13.31.31,0,0,0-.23,0,6.24,6.24,0,0,0-2.1.68s-.09.07-.12,0-.06-.15,0-.21l.17-.08a8.58,8.58,0,0,1,2-.68.1.1,0,0,0,.09-.05,1,1,0,0,0-.6,0,8.59,8.59,0,0,0-1.55.53c-.05,0-.12.11-.17,0s0-.14.11-.18a6.39,6.39,0,0,1,1.74-.64l.45-.15a1.52,1.52,0,0,0-.67,0,6.43,6.43,0,0,0-1.45.46c-.06,0-.12.06-.17,0s0-.11.09-.14a3.28,3.28,0,0,1,1.2-.44l1-.28a.13.13,0,0,0,.11-.08,15,15,0,0,0-1.82.34,6.79,6.79,0,0,1,2.8-.72v-.06h-.78a3.42,3.42,0,0,1,1.27-.12c-.18-.14-.41-.12-.63-.2a3.64,3.64,0,0,1,1.05.1c.07,0,.2.08.23,0s-.1-.13-.17-.18a1.56,1.56,0,0,0-.26-.13.54.54,0,0,1,.34.05c.25.08.49.18.74.27.05,0,.11.07.15,0s0-.11-.08-.15a1.87,1.87,0,0,0-1.4-.5,1.92,1.92,0,0,1,1.2.12,3.89,3.89,0,0,1,1,.68c0-.13,0-.19-.06-.26a2,2,0,0,0-2.11-.85,5.43,5.43,0,0,0-1.39.52c-.6.33-1.25.54-1.87.82a17.12,17.12,0,0,0-3.84,2.33,10.47,10.47,0,0,0-.78.84,9.43,9.43,0,0,0-1.14,1.52,8.28,8.28,0,0,0-.72,1.5c-.18.5-.36,1-.53,1.5-.07.2-.11.42-.17.62a9.74,9.74,0,0,1,.93-3.32,8.81,8.81,0,0,1,1.9-2.83c-.06-.05-.09,0-.13,0a5.89,5.89,0,0,0-1.65,2c-.47,1-.82,2-1.23,3a3.62,3.62,0,0,1,.17-1.14,19.8,19.8,0,0,1,1.22-2.79A7.7,7.7,0,0,1,23,13.29a.38.38,0,0,0,.21-.21,7.29,7.29,0,0,0-2.57,2.23,9,9,0,0,0-1.36,3.16,7.34,7.34,0,0,1,2.66-5.17,4.64,4.64,0,0,0-1.84,1.86,12.75,12.75,0,0,0-1,2.44,3.52,3.52,0,0,1,.15-1.25,6.26,6.26,0,0,1,1.16-2.23,14.75,14.75,0,0,1,1.81-2.06,7.27,7.27,0,0,1,2.16-1.35A10,10,0,0,1,26.86,10a5.36,5.36,0,0,1,.69-.06c.85,0,1.7,0,2.55,0a8.91,8.91,0,0,1,2.62.31A2.31,2.31,0,0,1,34.41,12a1.18,1.18,0,0,1,0,.59c-.08-.14,0-.29,0-.44a.89.89,0,0,0-.24-.4c0,.25.13.49-.05.71a2.13,2.13,0,0,0-.32-1.22.29.29,0,0,0,0,.24,4.13,4.13,0,0,1,.09.93c0,.1.07.11.13.16a7,7,0,0,1,2.46,3.07c.07.22.13.43.19.66A7.86,7.86,0,0,0,37.29,18a2.33,2.33,0,0,1,.11.28c.07.21,0,.29-.23.32,0-.08.09-.11.12-.16s.14-.1.06-.17-.1,0-.14.06a.67.67,0,0,1-.36.23c0-.14.16-.2.12-.38a8.42,8.42,0,0,1-.71.61c.08-.25.27-.39.32-.61-.24.12-.37.35-.58.56a3,3,0,0,0-.3-1.22c0,.22.07.44.1.65a2.55,2.55,0,0,1-.3,1.58.34.34,0,0,1-.2.19l-.07,0c-.15-.22-.24.07-.39,0a1.09,1.09,0,0,1,.23-.33c0-.05.08-.1,0-.15s-.1,0-.13,0l-.12.12s-.06.11-.12.05,0-.1,0-.16l.27-.31a.11.11,0,0,0,0-.13c-.19,0-.28.25-.5.26a1.89,1.89,0,0,0,.6-2.16h-.07c0,.19,0,.39,0,.58a1.67,1.67,0,0,1-.17,1c-.09.18-.29.24-.45.34a.06.06,0,0,1-.06,0s0-.07,0-.1a1.31,1.31,0,0,1,.3-.36.32.32,0,0,0,.14-.34,3,3,0,0,1-.72.42l.31-.34c0-.05.13-.11.08-.17s-.14,0-.19,0a2.73,2.73,0,0,1-.42.22,1.44,1.44,0,0,1,.32-.33s.12-.09.07-.15-.1,0-.15,0l-.42.28a.25.25,0,0,1-.19.07c.06-.23.33-.3.42-.57-.34.18-.58.42-.93.57.13-.22.36-.31.39-.56a3.24,3.24,0,0,1-1,.59,4.63,4.63,0,0,0,.6-.65,12.65,12.65,0,0,1-1.21.79,3.13,3.13,0,0,0,.65-.73c-.41.27-.73.65-1.11.93a7.07,7.07,0,0,0,.67-.86c-.52.37-.87.91-1.38,1.28a11,11,0,0,1,.75-1,.19.19,0,0,0-.18.08,11.7,11.7,0,0,0-1.14,1.39s-.08.07,0,.11.07,0,.11,0a4.7,4.7,0,0,1,1.32-.67c.18,0,.27-.23.49-.26-.55.47-1.14.82-1.66,1.28.38,0,.64-.35,1-.5a.58.58,0,0,1-.5.55l-1.23,0c-.62,0-1.23,0-1.85.08a.66.66,0,0,1-.23,0,2.61,2.61,0,0,1,.28-.17c.57-.27,1.13-.55,1.68-.86.06,0,.16-.05.15-.18l-.78.36c-.44.22-.89.42-1.32.66a1.83,1.83,0,0,1-1.14.25c.82-.48,1.7-.81,2.54-1.32a.26.26,0,0,0-.3,0c-.81.36-1.62.71-2.39,1.14a1.29,1.29,0,0,1-.41.16c-.06,0-.14,0-.17,0s0-.14.06-.19.12-.08.18-.11c1.32-.62,2.59-1.32,3.94-1.87a.26.26,0,0,0,.11-.1,20.85,20.85,0,0,0-4.12,1.78.39.39,0,0,1,.23-.43A31,31,0,0,1,28.88,18l.94-.41a.29.29,0,0,0-.26,0A19.76,19.76,0,0,0,26.12,19s-.08.07-.12,0,0-.09,0-.14a.62.62,0,0,1,.32-.32c.82-.44,1.65-.83,2.5-1.19.25-.11.5-.22.74-.35a15.2,15.2,0,0,0-3.23,1.28.78.78,0,0,1,.47-.6c.83-.36,1.65-.75,2.49-1.07,0,0,.06,0,.07-.11a13.89,13.89,0,0,0-2.85,1.1c0-.25.18-.48.07-.73a.09.09,0,0,0-.08.1,3.39,3.39,0,0,1-.87,1.69,4.85,4.85,0,0,0-.49.61,1.81,1.81,0,0,0-.3.83c0,.2-.15.16-.25.15s-.08-.11-.07-.18a2.88,2.88,0,0,1,.91-1.66,3.53,3.53,0,0,0,.94-1.67c0-.07.06-.13,0-.2s-.08.11-.1.17a4.64,4.64,0,0,1-.95,1.52,3.46,3.46,0,0,0-1.06,1.85.24.24,0,0,1,0,.08.13.13,0,0,1-.16.09c-.09,0-.07-.11-.05-.17s.09-.26.13-.4.07-.08,0-.16a1.32,1.32,0,0,0-.32.56,1.66,1.66,0,0,0-.06.16c0,.07-.1.06-.15,0s0-.07,0-.11a7.09,7.09,0,0,1,1-1.81c.22-.27.49-.5.71-.77a3.1,3.1,0,0,0,.78-1.79c0-.11.05-.31-.06-.32s-.06.17-.07.27a3.28,3.28,0,0,1-1.1,2.09,5.72,5.72,0,0,0-1.26,1.81,2,2,0,0,1-.32.55c-.05.06-.1.17-.21.09s0-.15,0-.22a12.27,12.27,0,0,1,.71-1.28l.06-.1s0-.06,0-.08-.06,0-.09,0a.9.9,0,0,0-.27.28c-.24.33-.42.7-.67,1l-.09.12c-.06,0-.11,0-.15,0s0-.08,0-.11c.31-.48.56-1,.88-1.47a1.55,1.55,0,0,0,.29-.42,1.24,1.24,0,0,0-.52.46c-.29.41-.53.85-.85,1.23-.07.08-.12.19-.25.17s-.12,0,0-.12c.4-.43.65-1,1-1.43,0,0,.07-.08,0-.12s-.09,0-.12,0a2.44,2.44,0,0,0-.49.62,3.33,3.33,0,0,1-.72.91.23.23,0,0,1-.29.05c.37-.47.68-1,1-1.45s.68-1,1.07-1.39a1.73,1.73,0,0,0-.62.55c-.68.84-1.33,1.7-2,2.5a3.55,3.55,0,0,0-.75,1A3.76,3.76,0,0,0,20,22.27Zm15.8-2a1.58,1.58,0,0,0-.9.23A.64.64,0,0,1,35.78,20.28Zm-1.61,1.61a1.58,1.58,0,0,1-1.63.72,1.44,1.44,0,0,1-1.05-1.25,2.37,2.37,0,0,1,0-.53,2.34,2.34,0,0,1,.64-1.71,1.22,1.22,0,0,1,2,.12A2.22,2.22,0,0,1,34.17,21.89ZM25.3,21.1c.18.26.21.27.47.08s.23-.16.68-.13a10.38,10.38,0,0,0-1.14.81C25.35,21.57,25.25,21.35,25.3,21.1Zm.12-.34c-.49,0-1,0-1.48,0l-.31,0c-.07,0-.15,0-.15-.1s.09-.06.13-.06c.48,0,.94-.08,1.44,0,1.15-.05,2.32-.09,3.49-.1.75,0,1.49,0,2.24-.07a2.85,2.85,0,0,0,.29,0s.1,0,.1.05,0,.06-.09.07a4.86,4.86,0,0,1-.93.07c-.76,0-1.53,0-2.29.06Zm-.32-.61a1.81,1.81,0,0,1,.52-1c-.08.2-.15.4-.22.59a2,2,0,0,0-.11.4q0,.16-.15.15C25,20.3,25.09,20.21,25.1,20.15Zm-4.37,3.6a3,3,0,0,1-.29-2.09,1.93,1.93,0,0,1,.37-.76,1.33,1.33,0,0,1,1.7-.45,2.91,2.91,0,0,1,.92.67c.05.05.05.08,0,.13a.24.24,0,0,0,0,.23.49.49,0,0,0,.13-.26c0-.07,0-.11.12-.11s.09,0,.12,0,0,.08,0,.11-.07.08,0,.12.08,0,.11,0,.11-.2.2-.08-.09.13-.14.19a.76.76,0,0,0-.09.09s-.08.1,0,.15.1,0,.14,0l.15-.11s.1-.11.16,0,0,.12-.06.17l-.28.32a.21.21,0,0,0-.07.21,2.76,2.76,0,0,0,.46-.37c.07-.06.12-.1.21,0s.1.12,0,.2a2.25,2.25,0,0,0-.57.58s-.08.07-.05.14.12-.07.17-.12l.48-.44c.19-.19.19-.19.43,0a5.32,5.32,0,0,0-.73.69l-.09.1c0,.05-.1.11,0,.16s.11,0,.14-.07c.24-.25.5-.48.76-.71a10.67,10.67,0,0,1,1.69-1.22,1.3,1.3,0,0,1,.75-.1c-.59.36-1.13.73-1.66,1.11a7.52,7.52,0,0,0-1.43,1.27.68.68,0,0,0-.16.34.75.75,0,0,0,.25-.21,16,16,0,0,1,2.4-2,9.18,9.18,0,0,1,1-.52.2.2,0,0,1,.11,0c.72,0,1.44-.06,2.16,0l.05,0c-.41.18-.89.12-1.26.4a.58.58,0,0,0,.32,0c.56-.1,1.09-.27,1.64-.39.26-.06.28,0,.29.24v.12h0a2.48,2.48,0,0,0,.62,1.29h0c.18.18.18.18,0,.38.17,0,.29-.23.47,0-.06.1-.21.13-.25.28a.45.45,0,0,0,.3-.14.55.55,0,0,1,.41-.13,1.91,1.91,0,0,0,1.46-.58,2.39,2.39,0,0,0,.6-1.34.64.64,0,0,1,.9-.43,1.81,1.81,0,0,1,.49.54,24.29,24.29,0,0,1,1.28,2.42,1.07,1.07,0,0,1,.1.4.64.64,0,0,1-.4.71,1.53,1.53,0,0,1-.78.19c.21-.1.4-.16.51-.35a6.51,6.51,0,0,1-.78.27c0-.09.09-.08.14-.11l.23-.11s.09,0,.08-.09-.09,0-.13,0l-.4.15c-.06,0-.12.07-.18,0,.11-.1.29-.1.39-.29a5.43,5.43,0,0,1-.88.23c.08-.13.23-.14.3-.29-.28.06-.47.27-.75.29.07-.12.22-.15.27-.32-.35.16-.6.47-1,.52.07-.16.19-.2.29-.27l.38-.26s.09,0,.05-.1-.07,0-.1,0a3.17,3.17,0,0,0-.56.4.35.35,0,0,1-.3.1,3.26,3.26,0,0,1,.47-.62.55.55,0,0,0-.29.18c-.08.09-.12.21-.28.29.08-.34.33-.49.52-.73-.13,0-.18.09-.25.14l-.23.2a.77.77,0,0,1,.37-.61c.2-.16.45-.15.66-.26a.94.94,0,0,0-.77,0,1.53,1.53,0,0,0-.38.29,6.2,6.2,0,0,1-1,.92s-.06,0-.07.09c.2,0,.33-.18.52-.27l-.35.42-.14.14h0a10.43,10.43,0,0,1-1.42,1.32,2.46,2.46,0,0,0,.58-.36c-.2.39-.62.55-.86.9l0,0,.47-.39h0a1.92,1.92,0,0,0-.19,1.65.85.85,0,0,0,.19.38c0-.08,0-.14,0-.19a2.39,2.39,0,0,1,.17-1.76,7.57,7.57,0,0,1,.53-.6c.33-.47.75-.87,1.11-1.31.1-.12.14-.1.19,0a.74.74,0,0,0,.42.55.68.68,0,0,0,.56,0l.22-.08c-.05.09-.16.1-.18.21.27-.05.44-.34.76-.29a1.72,1.72,0,0,0-.61.42c.21,0,.34-.19.53-.18a1.42,1.42,0,0,0-.31.36c.23-.14.47-.07.65-.21l-.32.22s-.08,0-.06.09.07,0,.11,0a3.49,3.49,0,0,1,.34-.15l-.31.18s-.09,0-.06.1.06,0,.1,0l.22-.1c-.23.31-.38.6-.16,1,.09-.32.11-.68.44-.88,0,0-.06.06,0,.1a.4.4,0,0,0,.33-.47c.08.08,0,.17.06.25a1.9,1.9,0,0,1,0,.25,3.36,3.36,0,0,1-.08.89A.18.18,0,0,1,36,27a.22.22,0,0,0-.19,0,.55.55,0,0,1-.6.06,2.05,2.05,0,0,0-1.15-.05,2.25,2.25,0,0,1-1,0c0-.11.16-.14.16-.29L33,27c-.08.05-.15.13-.28,0s-.16.11-.29.12c.16-.18.38-.28.51-.47l0,0a3.36,3.36,0,0,0-1.2,1.05s-.11.12-.05.18.13,0,.18-.05a1.8,1.8,0,0,1,1.45-.35,4.93,4.93,0,0,0,.77,0,5.15,5.15,0,0,1,1.11.1c.19,0,.38,0,.57,0s.25.08.19.3-.11.43-.17.64a.31.31,0,0,0,0,.25,2.09,2.09,0,0,0,.45-1.15.41.41,0,0,1,0-.22,2.33,2.33,0,0,0,.29-1.55c0-.13-.08-.27,0-.37s.22-.06.33-.11.19-.13.25-.07,0,.19,0,.29c-.15.65-.41,1.26-.54,1.92A6.48,6.48,0,0,1,36,29.05a1.18,1.18,0,0,0-.11.59,3.46,3.46,0,0,1,0,.85,1.22,1.22,0,0,1-.62.82c0-.21.23-.31.26-.53-.29.25-.46.63-.9.72a1.89,1.89,0,0,0,.47-.65c-.32.26-.56.65-1.06.72l.56-.59,0,0c-.35.2-.6.58-1,.57a2.44,2.44,0,0,0,.55-.63c-.39.22-.62.64-1.09.59a3.16,3.16,0,0,0,.62-.54c-.39.12-.69.46-1.13.4l.69-.52,0,0-.75.36a.3.3,0,0,1-.38,0,5.48,5.48,0,0,0,.82-.67c-.43.15-.75.49-1.18.5.2-.24.47-.37.64-.63a2.25,2.25,0,0,0-.71.39.23.23,0,0,1-.36,0L32,30l0-.06-.48.28a2.5,2.5,0,0,1-.53.3.24.24,0,0,1-.25,0,3.46,3.46,0,0,1,.44-.34,2,2,0,0,0,.39-.37c0-.05-.07,0-.1,0-.27.18-.53.34-.79.53s-.2,0-.26-.06.06-.12.1-.15a4.41,4.41,0,0,0,.74-.64c-.09,0-.14,0-.19.05l-.7.46c-.08.06-.14.08-.22,0s-.08-.13,0-.18a4.09,4.09,0,0,0,.91-.75s0,0,0-.07-.09,0-.12,0c-.29.25-.61.43-.92.65-.07,0-.13.08-.19,0s-.07-.16,0-.24a6.83,6.83,0,0,0,.74-.59,1.19,1.19,0,0,0,.25-.29,6.69,6.69,0,0,0-1,.69c0,.05-.07.18-.17.11a.29.29,0,0,1,0-.36l.93-.83s.09,0,.09-.13-.17.11-.25.16a7.9,7.9,0,0,0-.8.63c-.09.08-.11.05-.14,0a.28.28,0,0,1,.1-.33l.81-.7a.33.33,0,0,0,.09-.11,4.5,4.5,0,0,0-1,.71c-.12-.25-.1-.35.1-.51a10.57,10.57,0,0,0,.83-.67.22.22,0,0,0,.09-.16,8.36,8.36,0,0,0-1.11.85c0-.38,0-.73.08-1.09,0,0,0-.09,0-.12s-.07,0-.11,0l-.51.37a.35.35,0,0,0-.15.28,4.84,4.84,0,0,0,.62-.43,3,3,0,0,1-.19,1.27c.16-.05.15,0,.17.15a3.9,3.9,0,0,0,.43,1.52c.05.07,0,.12,0,.17l-.44.23a.25.25,0,0,1-.31-.05,3.28,3.28,0,0,0,.65-.53c-.08,0-.13,0-.18,0L29,30a.36.36,0,0,1-.42,0,6.91,6.91,0,0,0,.91-.78c-.06-.05-.09,0-.11,0-.29.22-.6.38-.9.57a.28.28,0,0,1-.37,0,11.1,11.1,0,0,0,1.12-.91c0-.06-.07,0-.09,0l-1.2.78-.08,0a.18.18,0,0,1-.21-.07c-.05-.07,0-.09.1-.13.34-.27.69-.54,1-.84.05,0,.12-.07.13-.15s-.07,0-.1,0a13.79,13.79,0,0,0-1.27.89c-.14.12-.27,0-.43,0A13.4,13.4,0,0,0,28.69,28c-.08-.05-.12,0-.16,0-.52.35-1.05.71-1.56,1.07a.25.25,0,0,1-.38,0c.65-.47,1.28-1,1.9-1.53a.17.17,0,0,0-.19.05c-.59.42-1.19.83-1.78,1.26-.13.09-.22.11-.35,0a25.18,25.18,0,0,0,2.06-1.73.36.36,0,0,0-.24.1c-.64.47-1.29.95-1.92,1.43-.1.08-.15.05-.21,0s0-.14.07-.17c.43-.33.86-.65,1.27-1a7.49,7.49,0,0,0,.7-.68l0-.05-.42.31-1.7,1.27c-.05,0-.1.12-.18,0s0-.14.06-.19c.55-.48,1.1-.95,1.62-1.45.06-.06.14-.1.16-.2s-.1,0-.14,0c-.61.47-1.23.91-1.8,1.44,0,0-.07.1-.11,0s-.1-.15,0-.24l.43-.38c.39-.34.78-.68,1.14-1.05,0,0,.1-.07.1-.15s-.08,0-.11,0a18,18,0,0,0-1.54,1.23s-.09.14-.16.06a.16.16,0,0,1,0-.24c.22-.19.44-.39.64-.59a26.81,26.81,0,0,1,2.73-2l1.16-.89c.06-.05.14-.07.14-.18a33.77,33.77,0,0,0-4.77,3.5.44.44,0,0,1,.11-.47,19.11,19.11,0,0,1,2.52-2c.56-.38,1.11-.79,1.64-1.21,0,0,.08,0,.07-.14A28.69,28.69,0,0,0,25,26.5c-.13-.18,0-.31.09-.42a14.61,14.61,0,0,1,1.48-1.25c.82-.56,1.62-1.14,2.41-1.74.05,0,.1-.06.13-.13a21.34,21.34,0,0,0-4.2,3c-.12-.15-.08-.27.05-.4A14.39,14.39,0,0,1,27,24l1.59-1.2c.05,0,.1-.06.11-.12s-.08,0-.11,0c-.89.6-1.81,1.14-2.64,1.82-.35.29-.7.59-1,.9-.05,0-.1.17-.17.07s-.13-.18,0-.3a16.75,16.75,0,0,1,1.65-1.38l1.87-1.38s.08,0,.08-.1a16.06,16.06,0,0,0-3.72,2.78,8,8,0,0,0-.34-.73.3.3,0,0,0,0,.21,7.42,7.42,0,0,1,.28,1.55c0,.44-.17.69-.52.72a1.24,1.24,0,0,1-.82-.21A8,8,0,0,1,20.73,23.75ZM23.28,30a3.27,3.27,0,0,1-.47-1.2A17.86,17.86,0,0,0,25,31.93a2,2,0,0,1-.85-.65C23.85,30.84,23.55,30.42,23.28,30Zm.44,1a2,2,0,0,1-.89-1.51A6.83,6.83,0,0,0,23.72,31Zm1.24.63a19.53,19.53,0,0,1-1.77-2.54,2.48,2.48,0,0,1-.33-.78,30.28,30.28,0,0,0,3.13,4,2.15,2.15,0,0,0-.3-.48c-.74-.94-1.5-1.85-2.16-2.85-.22-.34-.44-.7-.66-1.05a.45.45,0,0,1-.07-.31,38,38,0,0,0,2.59,3.27l.08-.06A32.32,32.32,0,0,1,22.77,27c.9.94,1.64,2,2.55,3-.67-1-1.42-1.89-2.09-2.86a7.45,7.45,0,0,1,1.51,1.56,21.61,21.61,0,0,0,2.07,2.4,10.47,10.47,0,0,0,1,1l.1.07,0,0-1-1.15-1.07-1.15a13.11,13.11,0,0,1-1-1.21c-.31-.42-.63-.84-1-1.25a.41.41,0,0,1,.32.17,16.38,16.38,0,0,1,1.1,1.25A12.89,12.89,0,0,0,27,30.63c.39.35.75.73,1.17,1a.27.27,0,0,0,.22.08c-.87-.81-1.65-1.66-2.42-2.52.32.24.63.49.93.76s.62.56.94.83a3.91,3.91,0,0,0,1,.7c-.7-.61-1.33-1.29-2-1.92l.16.09a38.77,38.77,0,0,1,3.13,2.45l.37.31c.13.09.16.16,0,.29s-.39.38-.58.57a.38.38,0,0,0-.15.23,7,7,0,0,1,1.27-.9.54.54,0,0,1-.15.21l-1,1a.28.28,0,0,1-.26.07,16.13,16.13,0,0,1-4-1.59A2.59,2.59,0,0,1,25,31.63Zm5.86.15.34.32s.14.07.07.16-.14,0-.21,0-.15-.15-.22-.22a8.58,8.58,0,0,0-1.35-1.14l-.11-.1A3.88,3.88,0,0,1,30.82,31.78Zm-1.29-1.54a1.55,1.55,0,0,0,.33-.24l.06-.06a.3.3,0,0,1,.15.23c0,.15-.42.3-.54.21S29.44,30.29,29.53,30.24Zm2.2,1.91A2.2,2.2,0,0,1,31,31.6c-.24-.2-.47-.42-.69-.64l1.46,1.15Zm.24.32a5.31,5.31,0,0,1-1.59,1.71C30.91,33.61,31.48,33.08,32,32.47Zm-1.24-.25.06.07s.11.09,0,.15-.11.08-.18,0c-.63-.68-1.43-1.16-2.1-1.79L28,30.14v0l.39.23A14,14,0,0,1,30.73,32.22Zm.76.35a5.06,5.06,0,0,1-.89,1.06c-.1.1-.22.18-.31.29a.22.22,0,0,1-.35,0A20.35,20.35,0,0,0,31.49,32.57ZM30.56,35a1.74,1.74,0,0,1,.68-.93,8.85,8.85,0,0,0,.76-.57,1.74,1.74,0,0,0,.66-1.22c0-.05,0-.11,0-.11s.07,0,.1,0a.3.3,0,0,1,.09.24,1.4,1.4,0,0,1-.4,1,5.66,5.66,0,0,1-1,.83,2.23,2.23,0,0,0-1,1.8,6.2,6.2,0,0,1-.12.71.37.37,0,0,1-.23.29C30.35,36.36,30.33,35.65,30.56,35Zm2.23-1.32a3.19,3.19,0,0,1-1.28,1.22A4.79,4.79,0,0,0,32.79,33.67ZM31.3,36a4.46,4.46,0,0,0,1.58-1.45A2.63,2.63,0,0,1,31.3,36Zm1.38-.7a2.61,2.61,0,0,1-1.41,1.21A5.24,5.24,0,0,0,32.68,35.34Zm-1.26.15A5,5,0,0,0,33,33.89,2.82,2.82,0,0,1,31.42,35.49Zm-9.16-6s0,0,.08,0,0,0,0,.07a.43.43,0,0,0,0,.11.91.91,0,0,0,.24.83,12,12,0,0,0,2.93,2.14,15.58,15.58,0,0,0,4.1,1.62.93.93,0,0,1,.48.25.23.23,0,0,1,.06.26c0,.08-.06.11-.15.08a27.78,27.78,0,0,1-4.29-1.62,12,12,0,0,1-2.95-2.11,2.47,2.47,0,0,1-.63-1,.45.45,0,0,1,0-.22A.54.54,0,0,1,22.26,29.53Zm0,7.19a12.76,12.76,0,0,1,1.14-.64s.08,0,.1,0a0,0,0,0,1,0,.06l-1.15.65h-.05l0,0A0,0,0,0,1,22.26,36.72Zm-.34-.31A4.8,4.8,0,0,1,23,35.77,6.62,6.62,0,0,1,21.92,36.41Zm2.06,0a4,4,0,0,1-1.41.77A8.51,8.51,0,0,1,24,36.37Zm-1,1.14a9.51,9.51,0,0,1,1.48-.86s.06,0,.12,0l-1.13.68-.42.25a.06.06,0,0,1-.09,0C22.9,37.55,23,37.53,23,37.51Zm2.27-.61-2,1.19A4.88,4.88,0,0,1,25.25,36.9Zm-1.6,1.46a13.89,13.89,0,0,1,1.94-1.2.16.16,0,0,1,.2,0l-.68.42-1.4.87s-.09.08-.12,0S23.62,38.39,23.65,38.36Zm.35.39a10.9,10.9,0,0,1,1.24-.8l.92-.52a.26.26,0,0,1,.26,0,.34.34,0,0,1-.19.15c-.73.42-1.44.86-2.14,1.32l0,0c-.06,0-.13.13-.18,0S24,38.79,24,38.75Zm.3.47a27.93,27.93,0,0,1,2.58-1.63.22.22,0,0,1,.24,0c-.58.36-1.14.71-1.69,1.07l-1.07.7s-.09.11-.13,0S24.25,39.26,24.3,39.22ZM26.58,36c.52-.37,1-.72,1.57-1.06A11.68,11.68,0,0,1,26.58,36Zm2.18-.85,0,0c-.53.38-1.08.71-1.64,1l0,0ZM27.1,36.85l0,0,2.31-1.5A25.44,25.44,0,0,1,27.1,36.85Zm2.44-1A12.63,12.63,0,0,1,27.79,37Zm-6.94-.35a5.53,5.53,0,0,1-1,.58A3.29,3.29,0,0,1,22.6,35.46Zm-3.15-1.17c-.89.61-1.85,1.11-2.74,1.73A25.24,25.24,0,0,1,19.45,34.29Zm.29.35c-.92.62-1.89,1.17-2.8,1.8A20.52,20.52,0,0,1,19.74,34.64Zm.32.35c-.94.63-1.92,1.19-2.85,1.82A22.22,22.22,0,0,1,20.06,35Zm.28.38c-.93.64-1.9,1.21-2.84,1.85A18.68,18.68,0,0,1,20.34,35.37ZM17.8,37.6c-.05-.07.05-.1.1-.13.72-.55,1.49-1,2.25-1.49a2.32,2.32,0,0,1,.56-.3.78.78,0,0,1-.3.24c-.83.53-1.67,1-2.46,1.64C17.9,37.6,17.84,37.68,17.8,37.6Zm.26.41c0-.06,0-.08.07-.11.89-.68,1.85-1.24,2.8-1.84l.1,0a.23.23,0,0,1-.13.14c-.89.63-1.82,1.18-2.7,1.81C18.16,38,18.11,38.08,18.06,38Zm.42.43a.08.08,0,0,1-.12,0c-.06-.07,0-.08.05-.11.64-.46,1.28-.92,2-1.33l.84-.53c.05,0,.09-.09.18-.05a.86.86,0,0,1-.26.21l-2.42,1.66Zm.3.42a.08.08,0,0,1-.08,0c0-.06,0-.08.06-.11l.47-.36c.77-.56,1.58-1,2.36-1.57,0,0,.1-.1.14,0s0,.11-.07.13c-.62.42-1.24.82-1.85,1.24-.31.21-.61.45-.91.67Zm.26.35c-.07-.1,0-.12.08-.15.91-.71,1.9-1.3,2.86-1.91l.08,0a3.4,3.4,0,0,1-.81.66c-.69.45-1.37.91-2,1.41C19.16,39.22,19.1,39.29,19,39.21Zm.57.34-.11.08a.13.13,0,0,1-.13-.09c0-.07,0-.08.08-.1.64-.46,1.29-.92,2-1.33.27-.16.52-.35.78-.52a1.19,1.19,0,0,1,.15-.09.05.05,0,0,1,.08,0s0,0,0,.07l-.37.25C21.21,38.4,20.4,39,19.61,39.55Zm.31.44c-.07,0-.13,0-.17-.05s0-.09.07-.12c.76-.62,1.61-1.09,2.4-1.66l.4-.28s.07-.05.1,0a.22.22,0,0,1-.12.13c-.6.42-1.18.87-1.79,1.27a9.91,9.91,0,0,0-.82.63Zm.21.27c-.06-.09.05-.11.1-.14l2.65-1.81a.39.39,0,0,1,.11-.06c.05,0,.09,0,.11.09l-.12.08-2.05,1.43-.58.43C20.26,40.36,20.18,40.34,20.13,40.26Zm.4.35c-.06-.09,0-.1.09-.13l2.57-1.75a.39.39,0,0,1,.11-.06.05.05,0,0,1,.08,0c0,.07-.09.1-.14.14l-2.19,1.56a3.09,3.09,0,0,0-.31.23A.14.14,0,0,1,20.53,40.61Zm.55.41a.15.15,0,0,1-.12-.08c0-.09,0-.1.08-.12.69-.48,1.39-1,2.09-1.42l.39-.28c.05,0,.1-.11.15,0s0,.1-.08.14c-.47.4-1,.72-1.48,1.08L21.2,41Zm.26.17a27.91,27.91,0,0,0,2.54-1.68l.1-.06s.09-.05.12,0,0,.09-.05.11l-.69.51-1.68,1.21C21.52,41.4,21.45,41.29,21.34,41.19Zm.49.36c2-1.3,3.81-2.73,5.86-3.85,0,0,.06,0,.1,0l-.59.38c-1.22.77-2.43,1.57-3.61,2.43-.49.36-1,.67-1.48,1.05C22,41.69,21.92,41.63,21.83,41.55Zm.47.3c1-.68,2-1.35,3-2.05a33.3,33.3,0,0,1,3.1-1.93c-.48.39-1,.7-1.52,1q-2,1.31-3.92,2.71c-.13.09-.26.16-.38.26A.2.2,0,0,1,22.3,41.85Zm.61.39s-.09,0-.09-.08.05,0,.08-.07l3.36-2.31c.83-.56,1.66-1.11,2.53-1.61a.1.1,0,0,1,.14,0,1.34,1.34,0,0,1-.34.26c-1.18.74-2.32,1.53-3.46,2.34l-2.05,1.46C23,42.26,23,42.28,22.91,42.24Zm.66.29a.15.15,0,0,1-.19-.07c0-.08.05-.09.09-.12.65-.45,1.33-.87,2-1.34.85-.62,1.72-1.21,2.6-1.79l.84-.53s.1-.08.12,0-.09.12-.15.15c-.84.52-1.66,1.08-2.47,1.65l-2.67,1.93Zm.57.25a.14.14,0,0,1-.21,0c-.05-.08.05-.1.09-.13.57-.41,1.16-.78,1.72-1.2.75-.55,1.53-1.07,2.29-1.6l.92-.59s.06,0,.1,0,0,0,0,0-.09.12-.15.16c-.82.56-1.65,1.09-2.45,1.68S25,42.13,24.23,42.71Zm.5.24a.13.13,0,0,1-.16-.06c-.05-.06,0-.08.06-.11a4,4,0,0,1,.34-.23c1.35-.84,2.59-1.88,3.94-2.72l.22-.14c.05,0,.09,0,.1.05s-.07.1-.12.13l-1.47,1a13.51,13.51,0,0,0-1.25.89c-.49.43-1.05.74-1.55,1.14Zm.37.14.58-.39c1.13-.8,2.23-1.62,3.39-2.36.07,0,.16-.17.22-.07s-.08.15-.15.2c-.83.55-1.67,1.1-2.47,1.71-.41.31-.81.62-1.24.91A.24.24,0,0,1,25,43.16Zm.77.29s-.11,0-.13-.07,0-.07.08-.09c1.16-.77,2.26-1.65,3.43-2.4.05,0,.11-.12.15-.06s0,.13-.08.18l-2.18,1.51c-.39.27-.72.61-1.12.85C25.88,43.4,25.84,43.45,25.78,43.45Zm.49.11c1-.75,2-1.44,3-2.14.05,0,.11-.12.15-.05s0,.14-.08.19l-2,1.41a9.15,9.15,0,0,0-.8.59C26.43,43.64,26.36,43.62,26.27,43.56Zm.65.14,2.6-1.83c.06.12,0,.15-.06.19l-2.29,1.65A.23.23,0,0,1,26.92,43.7Zm.95.13a.22.22,0,0,1-.26,0l.24-.19,1.62-1.14s.09-.11.14,0,0,.11-.06.14l-1.26.9Zm1.78-.64-.72.51-.34.23a.19.19,0,0,1-.27,0l1.27-.88s.08-.07.12,0S29.69,43.16,29.65,43.19Zm1.91.43a.43.43,0,0,1-.37-.42c0-.23.14-.4.31-.4a.44.44,0,0,1,.43.43A.4.4,0,0,1,31.56,43.62Zm.34-1.47c-.43.27-.87.54-1.28.85a.28.28,0,0,0-.09.36c.09.16.18,0,.29,0s0,.16-.08.2a.28.28,0,0,0-.16.33s.07.13,0,.15-.11-.06-.12-.13c-.07-.47-.13-.94-.19-1.41-.11-.83-.24-1.66-.39-2.48-.1-.6-.17-1.2-.23-1.81a.51.51,0,0,1,.38-.6l.55-.17v0l-.57.3a.37.37,0,0,0-.21.31c0,.16,0,.22.19.14a15,15,0,0,0,1.53-.82c1-.63,2-1.23,3-1.82a.72.72,0,0,1,.2-.09,3.29,3.29,0,0,1-.59.41c-.9.55-1.81,1.11-2.72,1.65-.42.26-.86.49-1.29.73-.16.1-.32.2-.28.44s.05.21.2.14.09-.06.12,0,0,.1-.07.12a.29.29,0,0,0-.16.37c0,.07,0,.12.13.08s.08-.09.12,0a.1.1,0,0,1,0,.14c-.18.09-.14.24-.1.39s.07.13.16.08l.22-.14s.1-.05.13,0,0,.07-.07.09l-.23.16a.33.33,0,0,0-.11.44c.06.11.1,0,.15,0,.74-.47,1.49-.94,2.23-1.43,1.07-.7,2.21-1.3,3.3-2,.32-.19.63-.39,1-.62a.22.22,0,0,1-.12.17,21.45,21.45,0,0,1-2.4,1.51c-1.24.72-2.45,1.51-3.66,2.29a.41.41,0,0,1-.11.07c-.34.23-.34.23-.27.64s.11.67.16,1c0,.11,0,.12.14,0,1.49-1,3-2,4.56-2.87a29.44,29.44,0,0,0,3.28-2.05l.11-.07a.17.17,0,0,1-.11.17,24.3,24.3,0,0,1-3.1,2c-1.61.92-3.18,1.91-4.72,2.93a.34.34,0,0,0-.07.42c0,.06.09,0,.13,0a8.6,8.6,0,0,0,.9-.58q2.28-1.47,4.63-2.8a24.14,24.14,0,0,0,2.84-1.89H39a3.21,3.21,0,0,1-.49.43,21.73,21.73,0,0,1-3.26,2.13C34.12,40.76,33,41.46,31.9,42.15Zm.11.48c-.06-.1.13-.15.21-.21,1.48-1,3.05-1.88,4.6-2.78a25.54,25.54,0,0,0,2.65-1.84s.05-.06.13,0c-.41.37-.83.69-1.24,1a22.14,22.14,0,0,1-2.73,1.74c-1.13.64-2.26,1.29-3.34,2C32.2,42.59,32.07,42.73,32,42.63Zm.08,1.16.26-.2c1.37-.92,2.8-1.75,4.24-2.54a23.3,23.3,0,0,0,3-2c.34-.26.69-.51,1-.75a3.13,3.13,0,0,1-.59.5,27.26,27.26,0,0,1-2.69,2L33.56,43a11.41,11.41,0,0,0-1.19.76A.29.29,0,0,1,32.09,43.79Zm7.81-4.26a17.08,17.08,0,0,1-2.46,1.86l-2.15,1.19c-.28.16-.55.33-.82.5a4.28,4.28,0,0,1-1.2.5C34.19,43,35.09,42.5,36,42a19.32,19.32,0,0,0,2.89-1.8c.63-.51,1.27-1,1.91-1.49A6.35,6.35,0,0,1,39.9,39.53Z" transform="translate(-4.72 -4.37)"/><path class="cls-3" d="M30.59,18.68a3.67,3.67,0,0,0-.92,1.14A5.55,5.55,0,0,0,30.59,18.68Z" transform="translate(-4.72 -4.37)"/><path class="cls-3" d="M26.69,10.2c0-.07-.09,0-.14,0a3.91,3.91,0,0,0-1.35.56l-.84.55a10.46,10.46,0,0,0-1.71,1.33.52.52,0,0,0-.2.26c.09,0,.13,0,.17-.07l.52-.39a12.27,12.27,0,0,1,3.45-2.11C26.64,10.29,26.72,10.29,26.69,10.2Z" transform="translate(-4.72 -4.37)"/><path class="cls-3" d="M34.08,16.63a5.48,5.48,0,0,0-2.21.05,2.51,2.51,0,0,0-1,.45c.06.05.09,0,.13,0a4.51,4.51,0,0,1,2.37-.44l.71,0s.12,0,.12-.05S34.13,16.63,34.08,16.63Z" transform="translate(-4.72 -4.37)"/><path class="cls-3" d="M26.84,17l-.08.05s-.09.09-.07.15.1,0,.15,0a1.45,1.45,0,0,0,.29-.11c.47-.22.95-.44,1.43-.63l.54-.24-.09,0A13.11,13.11,0,0,0,26.84,17Z" transform="translate(-4.72 -4.37)"/><path class="cls-3" d="M23.62,13.07s0,0,0,.06a.41.41,0,0,0,.24-.06,14.44,14.44,0,0,0,2.59-1.48,6.76,6.76,0,0,1,2-1l1.19-.32a.31.31,0,0,0,.23-.15l-.63.12a6.49,6.49,0,0,0-2.61,1C25.64,11.87,24.65,12.5,23.62,13.07Z" transform="translate(-4.72 -4.37)"/><path class="cls-3" d="M31.58,43.06a.18.18,0,0,0-.19.21c0,.12.05.25.18.24s.2-.11.21-.25S31.69,43.06,31.58,43.06Z" transform="translate(-4.72 -4.37)"/><path class="cls-3" d="M32.31,10.51a2.35,2.35,0,0,1,1.2,1.65c0,.06,0,.13.09.13s.07-.08.08-.14a1.34,1.34,0,0,0-.18-.76,2.71,2.71,0,0,0-1.19-1s-.09-.06-.16,0S32.25,10.47,32.31,10.51Z" transform="translate(-4.72 -4.37)"/><path class="cls-3" d="M30.69,39.18c0,.11,0,.25.15.24s.21-.13.22-.26a.21.21,0,0,0-.21-.22C30.7,38.94,30.68,39.06,30.69,39.18Z" transform="translate(-4.72 -4.37)"/><path class="cls-3" d="M24.68,10.76c.06,0,.13-.08.13-.18a7.44,7.44,0,0,0-3.18,2.52l0,0h.05l.13-.13a9,9,0,0,1,1.85-1.58A7.1,7.1,0,0,0,24.68,10.76Z" transform="translate(-4.72 -4.37)"/><path class="cls-3" d="M24,12.35c-.05,0-.1.05-.1.13a.36.36,0,0,0,.2-.06,8.06,8.06,0,0,0,1.21-.78A7.35,7.35,0,0,1,28,10.23s.1,0,.11-.07v0H28a5.35,5.35,0,0,0-2.51,1.07C25,11.58,24.45,12,24,12.35Z" transform="translate(-4.72 -4.37)"/><path class="cls-3" d="M26.66,16c-.1.05-.28.11-.23.22s.22,0,.32,0a14.94,14.94,0,0,1,1.48-.63l.48-.16a.12.12,0,0,0-.15,0A7.83,7.83,0,0,0,26.66,16Z" transform="translate(-4.72 -4.37)"/><path class="cls-3" d="M31.91,24.83c-.69.57-1.47,1-2.2,1.59A6.82,6.82,0,0,0,31.91,24.83Z" transform="translate(-4.72 -4.37)"/><path class="cls-3" d="M28.72,26.71a19.2,19.2,0,0,0,2.77-2.07A14.84,14.84,0,0,0,28.72,26.71Z" transform="translate(-4.72 -4.37)"/><path class="cls-3" d="M31.11,22s.06,0,.05-.07-.05,0-.08,0-.09,0-.14,0l-.88.51,0,.06A7.77,7.77,0,0,0,31.11,22Z" transform="translate(-4.72 -4.37)"/><path class="cls-3" d="M31.07,24.4a22.37,22.37,0,0,0-3,2.23A16,16,0,0,0,31.07,24.4Z" transform="translate(-4.72 -4.37)"/><path class="cls-3" d="M30.21,23.89a24.5,24.5,0,0,0-3,2.13A13.15,13.15,0,0,0,30.21,23.89Z" transform="translate(-4.72 -4.37)"/><path class="cls-3" d="M27.65,26.32a15.24,15.24,0,0,0,3-2.14A24.83,24.83,0,0,0,27.65,26.32Z" transform="translate(-4.72 -4.37)"/><path class="cls-3" d="M21.77,24.22a5.57,5.57,0,0,1-.37-1.11,2.89,2.89,0,0,1-.12-1.17.18.18,0,0,1,.1-.16,2.6,2.6,0,0,1,.63-.3.31.31,0,0,1,.32.1c-.16.09-.32.18-.47.28s-.35.24-.36.38a1.8,1.8,0,0,1,1.06-.35c-.34.31-.76.44-1,.79a.49.49,0,0,0,.28-.13,2.22,2.22,0,0,1,.69-.34c.1,0,.24-.13.28,0s-.12.16-.21.21a1,1,0,0,0-.62.93,1.15,1.15,0,0,0,.89,1.33,1.93,1.93,0,0,1,.65.22c.13.09.25,0,.32-.11a.43.43,0,0,0-.1-.55c-.21-.25-.47-.48-.39-.87L23.4,23a2.13,2.13,0,0,1,.22-.69c-.17,0-.21.19-.33.25a4.26,4.26,0,0,0-.28-.83,1.23,1.23,0,0,0-1-.85,1.05,1.05,0,0,0-1.25.9,3.71,3.71,0,0,0,.32,2c0,.06,0,.14.15.14A3.63,3.63,0,0,1,21,22.3a8.24,8.24,0,0,0,.47,1.63,2.72,2.72,0,0,0,.79,1.22c.06.05.11.12.22.09,0,0-.07-.1-.11-.13A2.4,2.4,0,0,1,21.77,24.22Z" transform="translate(-4.72 -4.37)"/><path class="cls-3" d="M34.41,28.31a2.92,2.92,0,0,1-.37.34c-.13.11-.31.15-.45.31h.09c.27-.21.63-.27.88-.54,0,0,.09-.1.14,0s0,.1-.06.14a1.85,1.85,0,0,1-.33.24.67.67,0,0,0-.3.3,6.63,6.63,0,0,0,1-.62c-.11.25-.33.36-.52.52a.53.53,0,0,0,.48-.18c.17-.2.33-.42.62-.42h0c.05,0,.08-.06.07-.1s-.06-.05-.11-.05a8.25,8.25,0,0,1-1.11-.05h-.64c0,.05,0,.07,0,.08s.19,0,.19.09-.11.12-.18.17-.27.08-.4.2a.94.94,0,0,0,.72-.3C34.22,28.32,34.28,28.24,34.41,28.31Z" transform="translate(-4.72 -4.37)"/><path class="cls-3" d="M22.79,25c0-.05-.06,0-.09,0a.23.23,0,0,0,0,.2.91.91,0,0,0,.65.53C23.11,25.5,22.85,25.34,22.79,25Z" transform="translate(-4.72 -4.37)"/><path class="cls-3" d="M30.24,32.83l.06-.08A13.54,13.54,0,0,0,29,31.67,8.49,8.49,0,0,0,30.24,32.83Z" transform="translate(-4.72 -4.37)"/><path class="cls-3" d="M27.45,21.6l-1.09.71a10.08,10.08,0,0,0-1.71,1.42.7.7,0,0,0-.24.45,28.88,28.88,0,0,1,3.25-2.62A.2.2,0,0,0,27.45,21.6Z" transform="translate(-4.72 -4.37)"/><path class="cls-3" d="M29.25,21.9a8.45,8.45,0,0,0,1.46-.6c.05,0,.13-.05.14-.13s0,0,0,0l-1.63.62s-.13,0-.09.11S29.2,21.91,29.25,21.9Z" transform="translate(-4.72 -4.37)"/><path class="cls-3" d="M24.79,24.24a.68.68,0,0,0-.25.42,41,41,0,0,1,3.57-2.78.4.4,0,0,0-.26.09A19.73,19.73,0,0,0,26,23.23,8.83,8.83,0,0,0,24.79,24.24Z" transform="translate(-4.72 -4.37)"/><path class="cls-3" d="M32.44,22.14a2.45,2.45,0,0,0,1.15-1.07C33.23,21.44,32.82,21.74,32.44,22.14Z" transform="translate(-4.72 -4.37)"/><path class="cls-3" d="M26.72,16.51a.11.11,0,0,0,0,.11s.06,0,.1,0a1,1,0,0,0,.29-.1,12.35,12.35,0,0,1,1.4-.61l.54-.19a.16.16,0,0,0-.14,0,9.55,9.55,0,0,0-2,.69A.65.65,0,0,0,26.72,16.51Z" transform="translate(-4.72 -4.37)"/><path class="cls-3" d="M23.46,17.85A5.69,5.69,0,0,0,25.23,16a1.73,1.73,0,0,0-.26.28,12,12,0,0,1-1.23,1.14A.69.69,0,0,0,23.46,17.85Z" transform="translate(-4.72 -4.37)"/><path class="cls-3" d="M33.37,21s.06-.1,0-.13-.08,0-.11.06a2.45,2.45,0,0,1-.62.58.61.61,0,0,0-.27.28,3.27,3.27,0,0,0,.64-.4A1.31,1.31,0,0,0,33.37,21Z" transform="translate(-4.72 -4.37)"/><path class="cls-3" d="M26.26,15.3c.5-.2,1-.45,1.5-.61l.73-.23a.31.31,0,0,0-.24,0,8.27,8.27,0,0,0-1.54.46,2,2,0,0,0-.52.24c-.07,0-.17.11-.12.2S26.2,15.33,26.26,15.3Z" transform="translate(-4.72 -4.37)"/><path class="cls-3" d="M32.38,19.13A2.23,2.23,0,0,0,31.9,22a.92.92,0,0,0,.48.43.14.14,0,0,0,.18,0,1.11,1.11,0,0,1-.63-.71,2.79,2.79,0,0,1-.18-1c.15.09.18.09.19,0s-.09-.11,0-.13.09.07.12.12.06.11.1.16a.33.33,0,0,0,.57.05.93.93,0,0,0,.22-.43c0-.07,0-.11.1,0s.27.13.35.28a.17.17,0,0,0,.19.1c0-.1-.15-.16,0-.27a2.32,2.32,0,0,1,.43-.4s.05,0,.07,0a.17.17,0,0,1,0,.07c0,.07,0,.1-.09.14l-.31.26s-.06.06,0,.09.07,0,.11,0a1.17,1.17,0,0,1,.38-.23c-.07.2-.22.27-.33.38s-.12.06-.07.13.1,0,.15,0,.15-.14.26-.16a1.78,1.78,0,0,1-.67,1.46.11.11,0,0,0,.13,0,1.41,1.41,0,0,0,.49-.48A2.09,2.09,0,0,0,34,19.44,1.07,1.07,0,0,0,32.38,19.13Zm1,.46c0,.05-.07,0-.11,0a1,1,0,0,0-.5-.16.21.21,0,0,0-.19,0c.15.05.28.08.4.13a.47.47,0,0,1,.29.31c-.77-.29-.88-.26-1.19.31-.18-.24-.18-.23,0-.46a1.53,1.53,0,0,1,.62-.54.94.94,0,0,1,.7.26A.11.11,0,0,1,33.41,19.59Z" transform="translate(-4.72 -4.37)"/><path class="cls-3" d="M26.29,15.65s-.08.07-.06.12.09,0,.13,0l.14,0a13.15,13.15,0,0,1,2-.78l.07-.05-.06,0a6.42,6.42,0,0,0-2.08.67Z" transform="translate(-4.72 -4.37)"/><path class="cls-3" d="M30.8,21.5a5.15,5.15,0,0,1-1.15.63s-.12,0-.13.11.11,0,.16,0a7,7,0,0,0,1.42-.77.18.18,0,0,0,0-.08h0A1.22,1.22,0,0,0,30.8,21.5Z" transform="translate(-4.72 -4.37)"/><path class="cls-3" d="M29.44,33.39a4.24,4.24,0,0,0-.94-1A3.69,3.69,0,0,0,29.44,33.39Z" transform="translate(-4.72 -4.37)"/><path class="cls-3" d="M35.4,28.52c-.13.13-.25.23-.35.34a.52.52,0,0,1-.43.2,1.51,1.51,0,0,0-.87.31,7.16,7.16,0,0,1,1.73-.11c-.11-.13-.28-.12-.42-.2A1.77,1.77,0,0,0,35.4,28.52Z" transform="translate(-4.72 -4.37)"/><path class="cls-3" d="M32.75,24.77a4.58,4.58,0,0,0-1.24.9s-.06,0-.09.07c-.53.38-1,.79-1.58,1.16-.1.06-.21.12-.24.26a.26.26,0,0,0,.19-.07c.49-.34.92-.75,1.43-1.06a2.29,2.29,0,0,0,.52-.41,6.39,6.39,0,0,1,1-.73h0l.14-.14C32.83,24.7,32.79,24.74,32.75,24.77Z" transform="translate(-4.72 -4.37)"/><path class="cls-3" d="M27.7,32.61a13.31,13.31,0,0,0-2.22-2.36A18.39,18.39,0,0,0,27.7,32.61Z" transform="translate(-4.72 -4.37)"/><path class="cls-3" d="M27.33,33a12,12,0,0,0-1.66-1.83A12.58,12.58,0,0,0,27.33,33Z" transform="translate(-4.72 -4.37)"/></g><path class="cls-3" d="M28.57,43.85A12,12,0,0,1,16.63,31.74V11.36a.29.29,0,0,1,.28-.28h1l11-5.28,0,0,10.34,5.27h1a.29.29,0,0,1,.2.09.25.25,0,0,1,.09.2V31.74A12,12,0,0,1,28.57,43.85ZM28.83,6,17.92,11.26h-1a.11.11,0,0,0-.1.1V31.74a11.76,11.76,0,1,0,23.52,0V11.37a.1.1,0,0,0-.11-.11H39.15Z" transform="translate(-4.72 -4.37)"/><path class="cls-1" d="M37.35,36a5.1,5.1,0,0,0,2.12-1A5.36,5.36,0,0,0,41.4,31.5a5.23,5.23,0,0,0-2.12,1A5.55,5.55,0,0,0,37.35,36Z" transform="translate(-4.72 -4.37)"/><path class="cls-3" d="M6.58,52.06V45.17a.44.44,0,0,0-.08-.28.56.56,0,0,0-.27-.15v-.2h4.14a5.21,5.21,0,0,1,2.09.34A3.13,3.13,0,0,1,14,46.52a5,5,0,0,1,.4,2.09,4.18,4.18,0,0,1-1.18,3.21,2.86,2.86,0,0,1-1.16.66,5.75,5.75,0,0,1-1.69.2H6.23v-.19a.56.56,0,0,0,.27-.15A.47.47,0,0,0,6.58,52.06Zm1.62-.72h2a2.89,2.89,0,0,0,1.47-.29,2.61,2.61,0,0,0,1.05-2.44,3.12,3.12,0,0,0-.57-2,1.72,1.72,0,0,0-.76-.55,3.52,3.52,0,0,0-1.19-.16h-2Z" transform="translate(-4.72 -4.37)"/><path class="cls-3" d="M17.24,49.76v1.81h4.25a.31.31,0,0,0,.22-.07.52.52,0,0,0,.13-.24H22V53h-.15a.52.52,0,0,0-.13-.24.31.31,0,0,0-.22-.07h-6v-.15a.58.58,0,0,0,.24-.13.32.32,0,0,0,.07-.23V46.56a.29.29,0,0,0-.07-.22.49.49,0,0,0-.24-.13v-.15h5.88a.34.34,0,0,0,.22-.07.46.46,0,0,0,.13-.24h.15v1.7h-.15a.46.46,0,0,0-.13-.24.34.34,0,0,0-.22-.07H17.24v1.57h2.68a.29.29,0,0,0,.22-.07.44.44,0,0,0,.13-.24h.15v1.67h-.15a.54.54,0,0,0-.13-.24.34.34,0,0,0-.22-.07Z" transform="translate(-4.72 -4.37)"/><path class="cls-3" d="M28.57,49.78h-3.8v2.38a.31.31,0,0,0,.07.22.44.44,0,0,0,.24.13v.15H23v-.15a.66.66,0,0,0,.24-.13.36.36,0,0,0,.07-.22v-5.6a.34.34,0,0,0-.07-.22.54.54,0,0,0-.24-.13v-.15h2.06v.15a.44.44,0,0,0-.24.12.33.33,0,0,0-.07.23v2.13h3.8V46.56a.39.39,0,0,0-.06-.23.54.54,0,0,0-.24-.12v-.15h2.06v.15a.53.53,0,0,0-.25.13.34.34,0,0,0-.06.22v5.6a.36.36,0,0,0,.06.22.64.64,0,0,0,.25.13v.15H28.27v-.15a.45.45,0,0,0,.23-.13.31.31,0,0,0,.07-.22Z" transform="translate(-4.72 -4.37)"/><path class="cls-3" d="M35.15,45.94a3.9,3.9,0,0,1,2.74.93A3.3,3.3,0,0,1,39,49.4a3.23,3.23,0,0,1-.52,1.77,3.56,3.56,0,0,1-3.28,1.61,3.88,3.88,0,0,1-2.73-.94,3.3,3.3,0,0,1-.82-1.19,3.33,3.33,0,0,1-.25-1.29,3.38,3.38,0,0,1,.51-1.82A3.61,3.61,0,0,1,35.15,45.94Zm0,1.12a2.29,2.29,0,0,0-1.57.56,2.38,2.38,0,0,0,0,3.47,2.51,2.51,0,0,0,3.16,0,2.13,2.13,0,0,0,.57-.81,2.32,2.32,0,0,0,.18-.89,2.21,2.21,0,0,0-.75-1.77A2.42,2.42,0,0,0,35.15,47.06Z" transform="translate(-4.72 -4.37)"/><path class="cls-3" d="M41.76,47.58v4.51a.4.4,0,0,0,.08.26.56.56,0,0,0,.27.14v.17H39.93v-.17a.56.56,0,0,0,.27-.14.4.4,0,0,0,.08-.26V45.81a.36.36,0,0,0-.08-.25.56.56,0,0,0-.27-.15v-.17h2.53v.17c-.16,0-.24.13-.24.26a.43.43,0,0,0,.15.28l4.1,4.26v-4.4a.36.36,0,0,0-.08-.25.56.56,0,0,0-.27-.15v-.17H48.3v.17a.56.56,0,0,0-.27.15.36.36,0,0,0-.08.25v6.28a.4.4,0,0,0,.08.26.56.56,0,0,0,.27.14v.17H46v-.17c.15,0,.23-.11.23-.23s-.09-.2-.27-.39Z" transform="translate(-4.72 -4.37)"/><circle class="cls-5" cx="24.1" cy="2.61" r="1.86"/><path class="cls-3" d="M28.82,8.93A1.95,1.95,0,1,1,30.77,7,2,2,0,0,1,28.82,8.93Zm0-3.72A1.77,1.77,0,1,0,30.59,7,1.77,1.77,0,0,0,28.82,5.21Z" transform="translate(-4.72 -4.37)"/><path class="cls-2" d="M29.88,6.46l-.2,0a.22.22,0,0,1-.21-.24c0-.1,0-.21,0-.31a.24.24,0,0,0-.22-.21,3.75,3.75,0,0,0-.82,0,.25.25,0,0,0-.22.21c0,.1,0,.21,0,.31s-.07.21-.22.24a1.2,1.2,0,0,1-.2,0,.25.25,0,0,0-.29.23V7c0,.1,0,.21,0,.31s.08.24.26.28l.22,0a.26.26,0,0,1,.24.24l0,.18c.06.27,0,.26.31.3h.52c.29,0,.26,0,.31-.3l0-.18a.28.28,0,0,1,.25-.24l.22,0c.18,0,.22-.09.25-.28s0-.21,0-.31V6.69c0-.17-.13-.23-.29-.23M29.4,7a.37.37,0,0,1-.08.18,1.1,1.1,0,0,1-.42.31h-.16a1.27,1.27,0,0,1-.42-.31A.49.49,0,0,1,28.24,7a.26.26,0,0,1,.32-.32l.13,0a.43.43,0,0,0,.13,0h0a.35.35,0,0,0,.13,0l.13,0A.26.26,0,0,1,29.4,7" transform="translate(-4.72 -4.37)"/><path class="cls-3" d="M28.29,58.71v0a.05.05,0,0,0-.05,0l-.13.17v0h0v0H28v0h0l0,0,.08-.16v0l0,0v0Z" transform="translate(-4.72 -4.37)"/><path class="cls-2" d="M41.17,57.27c0-.06,0-.12,0-.17l-6,.07-5.57,0c-1.49,0-3,0-4.49,0a43.26,43.26,0,0,0-4.41.07c-1.29.12-2.57.33-3.86.48-.31,0-1.89.35-1.76-.39a2,2,0,0,1,.56-.83c0-.05,0-.08-.06-.09a.39.39,0,0,0-.23,0,9,9,0,0,1-3,.89c-.2,0-.86.11-.76-.28a1.18,1.18,0,0,1,.28-.44c.17-.18.35-.35.53-.52a10.93,10.93,0,0,0,1-.94.6.6,0,0,0,.18-.33c0-.14-.17-.17-.28-.17a4.59,4.59,0,0,0-1.69.47c-.63.24-1.24.51-1.86.78q-2.54,1.11-5,2.34c-.07,0-.1.09,0,.14s.21,0,.26-.05q2.28-1.12,4.59-2.15l1.8-.77c.35-.14.69-.28,1-.39a1.7,1.7,0,0,1,.72-.18c.26.06-.26.52-.33.59-.36.34-.74.66-1.09,1-.17.17-.58.54-.48.84s.73.26,1,.23a9.3,9.3,0,0,0,2.85-.74c-.25.29-.49.69-.24,1a1,1,0,0,0,.74.23,8.41,8.41,0,0,0,1.33-.09l1.89-.25c1-.13,1.91-.25,2.87-.29.71,0,1.41,0,2.12,0,1.65,0,3.31,0,5,0s3.56,0,5.34,0c2.36,0,4.72,0,7.08-.08Z" transform="translate(-4.72 -4.37)"/><path class="cls-2" d="M42.05,56.12a.28.28,0,0,1,.32-.25.47.47,0,0,0,.34-.15c.35-.31.68-.63,1-.93a.26.26,0,0,0,.06-.38,1.9,1.9,0,0,1-.16-1.49,2,2,0,0,1,.72-1.1,3.19,3.19,0,0,0-.24,1.1A1.73,1.73,0,0,0,44.53,54a3.9,3.9,0,0,1,2.56-3.18A5.57,5.57,0,0,0,46.5,52a5.53,5.53,0,0,1,2.74-2,11.76,11.76,0,0,1,3.55-.68,5.89,5.89,0,0,0-1.55,1.13c.35-.19.68-.41,1-.59a4.57,4.57,0,0,1,1.87-.64,12,12,0,0,1,4.24.66,10.49,10.49,0,0,1,2.47,1.21c.06,0,.18.09.13.17s-.14,0-.21,0a8.23,8.23,0,0,0-1.11,0,18.19,18.19,0,0,0-3.21.41,1.47,1.47,0,0,1-1.05-.08.41.41,0,0,0-.31-.06c.08.11.27.12.25.23s-.19.11-.3.14l-1.44.37a1,1,0,0,1-.53,0L51.79,52a2.75,2.75,0,0,0,.76.35.15.15,0,0,1,.11.07c0,.06,0,.08-.09.11a2.58,2.58,0,0,1-1.53.21l-.33-.06c.19.14.45.13.69.28a6,6,0,0,1-3.82.62,3.87,3.87,0,0,0,2.13.33,6,6,0,0,1-1.89.69,5.76,5.76,0,0,1-2.07,0,1.81,1.81,0,0,0,1,.47,4.48,4.48,0,0,0,1.15,0,.79.79,0,0,1-.15.11,2.88,2.88,0,0,1-2.65,0,.34.34,0,0,0-.46,0c-.2.19-.42.35-.63.54-.37.35-.84.62-1,1.1a.16.16,0,0,1-.17.08,5,5,0,0,0-1.38.52A5.72,5.72,0,0,0,42.05,56.12ZM44.27,55a23.6,23.6,0,0,1,7-3.65,23,23,0,0,1,7.25-.85,15.55,15.55,0,0,0-4.17-.06A20,20,0,0,0,43,56.06C43.27,55.79,43.72,55.42,44.27,55Z" transform="translate(-4.72 -4.37)"/><path class="cls-5" d="M42.55,56.37l-1.19,1,1.23-1Z" transform="translate(-4.72 -4.37)"/><circle class="cls-5" cx="37.83" cy="52.04" r="0.16"/><path class="cls-2" d="M52.11,48.09V47h.24v1.15a.53.53,0,0,1-.53.5H49.69a.54.54,0,0,1-.53-.52V46a.54.54,0,0,1,.53-.53h1.07v.24h-1a.33.33,0,0,0-.35.32v2.09a.32.32,0,0,0,.33.31h2.06A.31.31,0,0,0,52.11,48.09Z" transform="translate(-4.72 -4.37)"/><path class="cls-2" d="M52.55,45.94c-.47.22-.46.77-.53.8a.07.07,0,0,1-.06,0,1,1,0,0,0-.89-.9s0,0,0,0a0,0,0,0,1,0,0,1,1,0,0,0,.89-.9.05.05,0,0,1,0,0,0,0,0,0,1,0,0,1,1,0,0,0,.9.89s0,0,0,0S52.76,45.85,52.55,45.94Z" transform="translate(-4.72 -4.37)"/><path class="cls-2" d="M51.47,45.08c-.13.06-.13.21-.15.22h0a.29.29,0,0,0-.25-.25h0a.28.28,0,0,0,.25-.25h0c0,.16.09.2.25.24h0S51.53,45.05,51.47,45.08Z" transform="translate(-4.72 -4.37)"/><path class="cls-2" d="M50.7,47.45h-.48l-.12.37h-.26l.45-1.43h.33l.47,1.43h-.27Zm-.06-.23-.2-.58-.18.59Z" transform="translate(-4.72 -4.37)"/><rect class="cls-2" x="46.55" y="42.02" width="0.25" height="1.43"/><path class="cls-2" d="M15.6,54.49c0-.16,0-.2-.11-.21h-.07a0,0,0,0,1,0-.05l.46,0a.83.83,0,0,1,.36.06.29.29,0,0,1,.16.27.31.31,0,0,1-.22.29s0,0,0,0a.34.34,0,0,1,.29.35c0,.25-.19.42-.57.42h-.51a0,0,0,0,1,0-.05h0c.11,0,.12,0,.12-.27Zm.17.28c0,.06,0,.07.11.06s.34-.07.34-.27a.29.29,0,0,0-.32-.29h-.1s0,0,0,.06Zm0,.5a.39.39,0,0,0,.05.23.2.2,0,0,0,.17.06c.19,0,.33-.08.33-.3s-.08-.36-.42-.36c-.12,0-.13,0-.13.05Z" transform="translate(-4.72 -4.37)"/><path class="cls-2" d="M16.9,54.53c0-.22,0-.26-.14-.27h-.05s0,0,0,0h.53s0,0,0,0H17.2c-.12,0-.13.05-.13.27v.77c0,.22,0,.25.13.27h.06s0,0,0,.05h-.53a0,0,0,0,1,0-.05h.05c.13,0,.14,0,.14-.27Z" transform="translate(-4.72 -4.37)"/><path class="cls-2" d="M17.62,54.49c0-.16,0-.2-.1-.21h-.07a0,0,0,0,1,0-.05l.46,0a.8.8,0,0,1,.36.06.29.29,0,0,1,.16.27.31.31,0,0,1-.21.29s0,0,0,0a.34.34,0,0,1,.28.35c0,.25-.18.42-.57.42h-.5s0,0,0-.05h0c.12,0,.12,0,.12-.27Zm.18.28c0,.06,0,.07.11.06s.34-.07.34-.27a.29.29,0,0,0-.32-.29h-.1s0,0,0,.06Zm0,.5c0,.08,0,.19,0,.23a.21.21,0,0,0,.17.06c.19,0,.34-.08.34-.3s-.09-.36-.43-.36c-.11,0-.12,0-.12.05Z" transform="translate(-4.72 -4.37)"/><path class="cls-2" d="M18.92,54.53c0-.23,0-.26-.14-.27h-.05s0,0,0,0h.54s0,0,0,0h-.05c-.13,0-.13,0-.13.27v.75c0,.13,0,.19,0,.23s.06.05.23.05.23,0,.27,0a.57.57,0,0,0,.14-.21s0,0,0,0a1.88,1.88,0,0,1-.09.3h-1s0,0,0-.05h.06c.12,0,.13,0,.13-.27Z" transform="translate(-4.72 -4.37)"/><path class="cls-2" d="M20.11,54.53c0-.22,0-.26-.13-.27h-.06s0,0,0,0h.53s0,0,0,0h-.06c-.12,0-.13.05-.13.27v.77c0,.22,0,.25.13.27h.06s0,0,0,.05h-.53a0,0,0,0,1,0-.05H20c.12,0,.13,0,.13-.27Z" transform="translate(-4.72 -4.37)"/><path class="cls-2" d="M20.66,54.93a.74.74,0,0,1,.76-.76.71.71,0,0,1,.74.74.73.73,0,0,1-.74.75A.72.72,0,0,1,20.66,54.93ZM22,55c0-.36-.16-.74-.57-.74-.22,0-.51.15-.51.62s.15.73.58.73C21.7,55.59,22,55.4,22,55Z" transform="translate(-4.72 -4.37)"/><path class="cls-2" d="M23,55.3c0,.23,0,.26.13.27h.07s0,0,0,.05H22.6a0,0,0,0,1,0-.05h.08c.12,0,.13,0,.13-.27v-1c0-.06,0-.07-.06-.07h-.12a.42.42,0,0,0-.26.06.25.25,0,0,0-.1.15,0,0,0,0,1-.06,0,2.23,2.23,0,0,0,.09-.32h0c0,.07.08.07.18.07h.87c.11,0,.13,0,.16-.06h0a1.35,1.35,0,0,0,0,.33,0,0,0,0,1,0,0s0-.13-.06-.15a.4.4,0,0,0-.25-.06h-.15c-.06,0-.06,0-.06.08Z" transform="translate(-4.72 -4.37)"/><path class="cls-2" d="M23.89,54.53c0-.22,0-.26-.13-.27h0s0,0,0,0h.95s0,.19,0,.29h-.05c0-.1-.06-.18-.17-.2l-.21,0h-.15c-.06,0-.06,0-.06.09v.43c0,.06,0,.06.07.06h.3s0,0,0-.08l0-.09a0,0,0,0,1,.06,0s0,.13,0,.21,0,.16,0,.21h-.06l0-.08a.11.11,0,0,0-.06-.09h-.29c-.07,0-.07,0-.07.06v.3c0,.12,0,.19,0,.23s.07.05.26.05a.51.51,0,0,0,.27,0,.44.44,0,0,0,.15-.2s.05,0,.06,0a2.11,2.11,0,0,1-.1.3H23.69s0,0,0-.05h.07c.12,0,.13,0,.13-.27Z" transform="translate(-4.72 -4.37)"/><path class="cls-2" d="M25.23,54.36a.9.9,0,0,1,.58-.19,2.18,2.18,0,0,1,.38,0s0,0,.06,0,0,.19,0,.32a0,0,0,0,1-.06,0c0-.14-.12-.31-.44-.31a.59.59,0,0,0-.6.65.63.63,0,0,0,.63.7.46.46,0,0,0,.45-.31.06.06,0,0,1,.06,0,1,1,0,0,1-.1.3l-.08,0a1.16,1.16,0,0,1-.34,0,.89.89,0,0,1-.53-.15.68.68,0,0,1-.31-.59A.71.71,0,0,1,25.23,54.36Z" transform="translate(-4.72 -4.37)"/><path class="cls-2" d="M27.24,55.13c0-.05,0-.06-.09-.06h-.33c-.05,0-.06,0-.08,0l-.07.23a1,1,0,0,0-.05.18s0,0,.06,0h.07a0,0,0,0,1,0,.05h-.43s0,0,0-.05h.07c.05,0,.09,0,.12-.11s.1-.23.19-.47l.22-.58c0-.08,0-.12,0-.16a.19.19,0,0,0,.11-.08l0,0a2.47,2.47,0,0,0,.1.29l.29.86c.06.19.09.22.18.23h.06s0,0,0,.05h-.51a0,0,0,0,1,0-.05h.06s.08,0,.08,0a.36.36,0,0,0,0-.11Zm-.43-.2s0,.06.05.06h.26c.06,0,.07,0,.05-.07l-.12-.35L27,54.43h0l-.05.13Z" transform="translate(-4.72 -4.37)"/><path class="cls-2" d="M28.51,54.49c0-.15,0-.2-.1-.21h-.05s0,0,0-.05l.54,0a1.21,1.21,0,0,1,.48.07.65.65,0,0,1,.43.63.72.72,0,0,1-.37.64,1.13,1.13,0,0,1-.49.1l-.34,0h-.27a0,0,0,0,1,0-.05h.05c.13,0,.13,0,.13-.27Zm.18.76a.4.4,0,0,0,0,.24.31.31,0,0,0,.26.08c.42,0,.61-.27.61-.67a.61.61,0,0,0-.68-.63c-.13,0-.19,0-.21,0s0,.06,0,.16Z" transform="translate(-4.72 -4.37)"/><path class="cls-2" d="M30.18,54.53c0-.22,0-.26-.13-.27h0s0,0,0,0H31a1.72,1.72,0,0,1,0,.29H31c0-.1-.05-.18-.16-.2l-.21,0h-.15c-.07,0-.07,0-.07.09v.43c0,.06,0,.06.07.06h.31a.1.1,0,0,0,.05-.08l0-.09a0,0,0,0,1,.05,0s0,.13,0,.21,0,.16,0,.21h-.05l0-.08a.13.13,0,0,0-.07-.09h-.29c-.06,0-.07,0-.07.06v.3a.41.41,0,0,0,0,.23s.07.05.26.05a.53.53,0,0,0,.28,0,.65.65,0,0,0,.15-.2,0,0,0,0,1,.05,0,2.13,2.13,0,0,1-.09.3H30a0,0,0,0,1,0-.05h.07c.12,0,.13,0,.13-.27Z" transform="translate(-4.72 -4.37)"/><path class="cls-2" d="M31.72,54.93c-.1,0-.11,0-.11.07v.3c0,.23,0,.26.14.27h.06s0,0,0,.05h-.52s0,0,0-.05h0c.12,0,.13,0,.13-.27v-.77c0-.23,0-.26-.13-.27h0s0,0,0,0h.52s0,0,0,0h0c-.12,0-.13,0-.13.27v.25c0,.06,0,.06.11.06h.62c.1,0,.1,0,.1-.06v-.25c0-.23,0-.26-.13-.27h0s0,0,0,0h.51s0,0,0,0h0c-.13,0-.13,0-.13.27v.77c0,.23,0,.25.13.27h0s0,0,0,.05h-.51a0,0,0,0,1,0-.05h0c.13,0,.13,0,.13-.27V55c0-.07,0-.07-.1-.07Z" transform="translate(-4.72 -4.37)"/><path class="cls-2" d="M33,54.93a.74.74,0,0,1,.77-.76.71.71,0,0,1,.74.74.73.73,0,0,1-.74.75A.73.73,0,0,1,33,54.93Zm1.3,0c0-.36-.16-.74-.57-.74-.22,0-.51.15-.51.62s.15.73.57.73C34,55.59,34.29,55.4,34.29,55Z" transform="translate(-4.72 -4.37)"/><path class="cls-2" d="M36,55.26c0,.06,0,.32,0,.37a0,0,0,0,1,0,0,2.8,2.8,0,0,0-.27-.33l-.5-.56c-.06-.07-.2-.25-.25-.29h0a.45.45,0,0,0,0,.14v.46a1.57,1.57,0,0,0,0,.45s0,0,.11,0h.06s0,0,0,.05h-.48a0,0,0,0,1,0-.05h.06s.08,0,.09,0a2.12,2.12,0,0,0,0-.45v-.62a.17.17,0,0,0,0-.15.25.25,0,0,0-.13-.05h0a0,0,0,0,1,0,0H35a2.84,2.84,0,0,0,.37.47l.2.24.36.39h0a.25.25,0,0,0,0-.1v-.45a1.61,1.61,0,0,0,0-.45s0,0-.14,0h0s0,0,0,0h.48a0,0,0,0,1,0,0h0a.25.25,0,0,0-.12,0,1.65,1.65,0,0,0,0,.45Z" transform="translate(-4.72 -4.37)"/><path class="cls-2" d="M36.56,54.53c0-.22,0-.26-.14-.27h-.05s0,0,0,0h.54s0,0,0,0h-.06c-.12,0-.13.05-.13.27v.77c0,.22,0,.25.13.27h.06s0,0,0,.05h-.54a0,0,0,0,1,0-.05h.05c.13,0,.14,0,.14-.27Z" transform="translate(-4.72 -4.37)"/><path class="cls-2" d="M37.88,55.13c0-.05,0-.06-.09-.06h-.32c-.06,0-.07,0-.08,0l-.08.23a1,1,0,0,0-.05.18s0,0,.07,0h.07a0,0,0,0,1,0,.05H37a0,0,0,0,1,0-.05H37s.1,0,.13-.11.1-.23.19-.47l.22-.58a.27.27,0,0,0,0-.16.19.19,0,0,0,.11-.08l0,0a2.46,2.46,0,0,0,.09.29l.29.86c.07.19.09.22.19.23h0a0,0,0,0,1,0,.05h-.5a0,0,0,0,1,0-.05h.07s.07,0,.07,0a.36.36,0,0,0,0-.11Zm-.43-.2s0,.06,0,.06h.26c.07,0,.07,0,.05-.07l-.12-.35a1.27,1.27,0,0,0,0-.14h0l0,.13Z" transform="translate(-4.72 -4.37)"/><path class="cls-2" d="M39.77,55.26c0,.06,0,.32,0,.37s0,0,0,0l-.28-.33L39,54.77l-.25-.29h0a.45.45,0,0,0,0,.14v.46a1.57,1.57,0,0,0,0,.45.14.14,0,0,0,.11,0h.07a0,0,0,0,1,0,.05h-.47a0,0,0,0,1,0-.05h.06a.19.19,0,0,0,.1,0,2.16,2.16,0,0,0,0-.45v-.62a.2.2,0,0,0,0-.15.29.29,0,0,0-.14-.05h0a0,0,0,0,1,0,0h.34a2.84,2.84,0,0,0,.37.47l.21.24.35.39h0v-.55a1.61,1.61,0,0,0,0-.45s0,0-.13,0h0a0,0,0,0,1,0,0H40a0,0,0,0,1,0,0h0l-.12,0a2.17,2.17,0,0,0,0,.45Z" transform="translate(-4.72 -4.37)"/><path class="cls-2" d="M40.9,55.13c0-.05,0-.06-.09-.06h-.33s-.06,0-.08,0l-.07.23a1,1,0,0,0,0,.18s0,0,.06,0h.07a0,0,0,0,1,0,.05H40s0,0,0-.05h.07c.05,0,.1,0,.13-.11s.09-.23.18-.47l.22-.58c0-.08.05-.12,0-.16a.19.19,0,0,0,.11-.08l0,0c0,.1.07.2.1.29l.29.86c.06.19.09.22.18.23h.06s0,0,0,.05h-.5a0,0,0,0,1,0-.05h.06c.05,0,.08,0,.08,0a.36.36,0,0,0,0-.11Zm-.43-.2s0,.06.05.06h.26c.06,0,.07,0,0-.07l-.12-.35a1.09,1.09,0,0,0-.05-.14h0l0,.13Z" transform="translate(-4.72 -4.37)"/></svg>