<svg id="Camada_1" data-name="Camada 1" xmlns="http://www.w3.org/2000/svg" xmlns:xlink="http://www.w3.org/1999/xlink" viewBox="0 0 125.09 60.91"><defs><style>.cls-1{fill:none;}.cls-2{fill:#b11a22;}.cls-3{fill:#0d3851;}.cls-4{clip-path:url(#clip-path);}.cls-5{fill:#fff;}</style><clipPath id="clip-path" transform="translate(-73.91 -4.28)"><path class="cls-1" d="M93.6,63.12h0A17.77,17.77,0,0,1,75.94,45.26V15a.29.29,0,0,1,.29-.29H77.7L94,6.85l15.45,7.86,1.54,0a.29.29,0,0,1,.28.29V45.26A17.76,17.76,0,0,1,93.6,63.12Z"/></clipPath></defs><path class="cls-1" d="M103.66,42c-3,1.12-6.08,2.28-9.29,2.28A12.47,12.47,0,0,1,91.75,44a28.59,28.59,0,0,1-6.18-2.4,28.23,28.23,0,0,0-6.26-2.4,13.37,13.37,0,0,0-3.38-.23v1a15,15,0,0,1,5.58.82,43.53,43.53,0,0,1,4.21,1.83c2.67,1.28,5.44,2.6,8.49,2.65,3.24.06,6.3-1.11,9.25-2.23a39,39,0,0,1,5.87-1.9,15.18,15.18,0,0,1,1.94-.29v-1A21.74,21.74,0,0,0,106.39,41C105.48,41.27,104.56,41.62,103.66,42Z" transform="translate(-73.91 -4.28)"/><path class="cls-1" d="M103.66,44.66c-3,1.12-6.08,2.28-9.29,2.28a12.47,12.47,0,0,1-2.62-.27,28.59,28.59,0,0,1-6.18-2.4,28.23,28.23,0,0,0-6.26-2.4,12.91,12.91,0,0,0-3.38-.22v.94a15,15,0,0,1,5.58.82,43.53,43.53,0,0,1,4.21,1.83c2.67,1.28,5.44,2.6,8.49,2.65,3.25.06,6.3-1.11,9.25-2.23a39,39,0,0,1,5.87-1.9,15.18,15.18,0,0,1,1.94-.29v-.95a21.74,21.74,0,0,0-4.88,1.14C105.48,44,104.56,44.32,103.66,44.66Z" transform="translate(-73.91 -4.28)"/><path class="cls-1" d="M103.66,43.31c-3,1.12-6.08,2.28-9.29,2.28a12.47,12.47,0,0,1-2.62-.27,28.59,28.59,0,0,1-6.18-2.4,28.23,28.23,0,0,0-6.26-2.4,12.91,12.91,0,0,0-3.38-.22v.94a15,15,0,0,1,5.58.82,43.53,43.53,0,0,1,4.21,1.83c2.67,1.28,5.44,2.6,8.49,2.65,3.24.05,6.3-1.11,9.25-2.23a39,39,0,0,1,5.87-1.9,15.18,15.18,0,0,1,1.94-.29v-.95a21.74,21.74,0,0,0-4.88,1.14C105.48,42.62,104.56,43,103.66,43.31Z" transform="translate(-73.91 -4.28)"/><path class="cls-1" d="M103.66,46c-3,1.12-6.08,2.28-9.29,2.28A12.47,12.47,0,0,1,91.75,48a28.59,28.59,0,0,1-6.18-2.4,28.23,28.23,0,0,0-6.26-2.4A13.37,13.37,0,0,0,75.93,43v.95a15,15,0,0,1,5.58.82,43.53,43.53,0,0,1,4.21,1.83c2.67,1.28,5.44,2.6,8.49,2.65,3.25.06,6.3-1.11,9.25-2.24a40.15,40.15,0,0,1,5.87-1.89,15.18,15.18,0,0,1,1.94-.29v-1A21.74,21.74,0,0,0,106.39,45C105.48,45.32,104.56,45.67,103.66,46Z" transform="translate(-73.91 -4.28)"/><path class="cls-1" d="M103.66,50.06c-3,1.12-6.08,2.28-9.29,2.28a12.47,12.47,0,0,1-2.62-.27,29.09,29.09,0,0,1-6.18-2.39,27.77,27.77,0,0,0-6.26-2.41A13.62,13.62,0,0,0,76,47c0,.32.07.63.11.94a15.14,15.14,0,0,1,5.38.83,43.53,43.53,0,0,1,4.21,1.83c2.67,1.28,5.44,2.6,8.49,2.65,3.25.06,6.3-1.11,9.25-2.23a39,39,0,0,1,5.87-1.9c.53-.11,1-.19,1.56-.25.07-.32.13-.64.18-1a22.32,22.32,0,0,0-4.68,1.12C105.48,49.37,104.56,49.72,103.66,50.06Z" transform="translate(-73.91 -4.28)"/><path class="cls-1" d="M103.66,51.41c-3,1.12-6.08,2.28-9.29,2.28a12.47,12.47,0,0,1-2.62-.27A29.09,29.09,0,0,1,85.57,51a27.77,27.77,0,0,0-6.26-2.41,13.6,13.6,0,0,0-3.1-.24c.05.32.12.64.19.95a15.12,15.12,0,0,1,5.11.83A43.53,43.53,0,0,1,85.72,52c2.67,1.28,5.44,2.6,8.49,2.65,3.25.07,6.3-1.11,9.25-2.23a39,39,0,0,1,5.87-1.9c.41-.09.81-.15,1.21-.21.09-.32.18-.65.26-1a23.5,23.5,0,0,0-4.41,1.09C105.48,50.72,104.56,51.07,103.66,51.41Z" transform="translate(-73.91 -4.28)"/><path class="cls-1" d="M103.66,48.71c-3,1.12-6.08,2.28-9.29,2.28a12.47,12.47,0,0,1-2.62-.27,28.59,28.59,0,0,1-6.18-2.4,28.23,28.23,0,0,0-6.26-2.4,13.26,13.26,0,0,0-3.37-.23c0,.32,0,.64,0,1a15.07,15.07,0,0,1,5.53.82,43.53,43.53,0,0,1,4.21,1.83c2.67,1.28,5.44,2.6,8.49,2.65,3.24.06,6.3-1.11,9.25-2.23a39,39,0,0,1,5.87-1.9,17,17,0,0,1,1.79-.28c0-.32.07-.63.09-1a21.88,21.88,0,0,0-4.82,1.13C105.48,48,104.56,48.37,103.66,48.71Z" transform="translate(-73.91 -4.28)"/><path class="cls-1" d="M103.66,47.36c-3,1.12-6.08,2.28-9.29,2.28a12.47,12.47,0,0,1-2.62-.27A28.59,28.59,0,0,1,85.57,47a28.23,28.23,0,0,0-6.26-2.4,12.91,12.91,0,0,0-3.38-.22v.94a15,15,0,0,1,5.58.82,43.53,43.53,0,0,1,4.21,1.83c2.67,1.28,5.44,2.6,8.49,2.65,3.24.06,6.3-1.11,9.25-2.23a39,39,0,0,1,5.87-1.9,17,17,0,0,1,1.91-.29q0-.45,0-.9v-.05a21.74,21.74,0,0,0-4.88,1.14C105.48,46.67,104.56,47,103.66,47.36Z" transform="translate(-73.91 -4.28)"/><path class="cls-1" d="M103.66,36.56c-3,1.12-6.08,2.28-9.29,2.28a12.47,12.47,0,0,1-2.62-.27,28.59,28.59,0,0,1-6.18-2.4,28.23,28.23,0,0,0-6.26-2.4,13.37,13.37,0,0,0-3.38-.23v1a15,15,0,0,1,5.58.82,43.53,43.53,0,0,1,4.21,1.83c2.67,1.28,5.44,2.6,8.49,2.65,3.24.06,6.3-1.11,9.25-2.24a40.15,40.15,0,0,1,5.87-1.89,15.32,15.32,0,0,1,2-.29v-.95a21.83,21.83,0,0,0-4.89,1.14C105.48,35.87,104.56,36.22,103.66,36.56Z" transform="translate(-73.91 -4.28)"/><path class="cls-1" d="M103.66,35.21c-3,1.12-6.08,2.28-9.29,2.28a12.47,12.47,0,0,1-2.62-.27,28.59,28.59,0,0,1-6.18-2.4,28.23,28.23,0,0,0-6.26-2.4,13.37,13.37,0,0,0-3.38-.23v1a15,15,0,0,1,5.58.82,43.53,43.53,0,0,1,4.21,1.83c2.67,1.28,5.44,2.6,8.49,2.65,3.25.06,6.3-1.11,9.25-2.24a40.15,40.15,0,0,1,5.87-1.89,15.32,15.32,0,0,1,2-.29v-1a21.83,21.83,0,0,0-4.89,1.14C105.48,34.52,104.56,34.87,103.66,35.21Z" transform="translate(-73.91 -4.28)"/><path class="cls-1" d="M103.66,33.86c-3,1.12-6.08,2.28-9.29,2.28a12.47,12.47,0,0,1-2.62-.27,28.59,28.59,0,0,1-6.18-2.4,27.74,27.74,0,0,0-6.26-2.4,13.37,13.37,0,0,0-3.38-.23v.95a15,15,0,0,1,5.58.82,43.53,43.53,0,0,1,4.21,1.83c2.67,1.28,5.44,2.6,8.49,2.65,3.24.06,6.3-1.11,9.25-2.23a39,39,0,0,1,5.87-1.9,15.59,15.59,0,0,1,2-.29v-1a21.83,21.83,0,0,0-4.89,1.14C105.48,33.17,104.56,33.52,103.66,33.86Z" transform="translate(-73.91 -4.28)"/><path class="cls-1" d="M103.66,39.26c-3,1.12-6.08,2.28-9.29,2.28a12.47,12.47,0,0,1-2.62-.27,28.59,28.59,0,0,1-6.18-2.4,28.23,28.23,0,0,0-6.26-2.4,13.37,13.37,0,0,0-3.38-.23v.95a15,15,0,0,1,5.58.82,43.53,43.53,0,0,1,4.21,1.83c2.67,1.28,5.44,2.6,8.49,2.65,3.25.06,6.3-1.11,9.25-2.23a39,39,0,0,1,5.87-1.9,15.44,15.44,0,0,1,1.94-.29v-1a21.87,21.87,0,0,0-4.88,1.14C105.48,38.57,104.56,38.92,103.66,39.26Z" transform="translate(-73.91 -4.28)"/><path class="cls-1" d="M103.66,40.61c-3,1.12-6.08,2.28-9.29,2.28a12.47,12.47,0,0,1-2.62-.27,28.59,28.59,0,0,1-6.18-2.4,28.23,28.23,0,0,0-6.26-2.4,13.37,13.37,0,0,0-3.38-.23v.95a15,15,0,0,1,5.58.82,43.53,43.53,0,0,1,4.21,1.83c2.67,1.28,5.44,2.6,8.49,2.65,3.25.06,6.3-1.11,9.25-2.24a40.15,40.15,0,0,1,5.87-1.89,15.44,15.44,0,0,1,1.94-.29v-1a21.87,21.87,0,0,0-4.88,1.14C105.48,39.92,104.56,40.27,103.66,40.61Z" transform="translate(-73.91 -4.28)"/><path class="cls-1" d="M103.66,37.91c-3,1.12-6.08,2.28-9.29,2.28a12.47,12.47,0,0,1-2.62-.27,28.59,28.59,0,0,1-6.18-2.4,28.23,28.23,0,0,0-6.26-2.4,13.37,13.37,0,0,0-3.38-.23v1a15,15,0,0,1,5.58.82,43.53,43.53,0,0,1,4.21,1.83c2.67,1.28,5.44,2.6,8.49,2.65,3.24,0,6.3-1.11,9.25-2.24A40.15,40.15,0,0,1,109.33,37a15.32,15.32,0,0,1,2-.29v-.95a21.83,21.83,0,0,0-4.89,1.14C105.48,37.22,104.56,37.57,103.66,37.91Z" transform="translate(-73.91 -4.28)"/><path class="cls-1" d="M103.66,55.46c-3,1.12-6.08,2.28-9.29,2.28a12.47,12.47,0,0,1-2.62-.27,29.09,29.09,0,0,1-6.18-2.39,27.77,27.77,0,0,0-6.26-2.41,15.23,15.23,0,0,0-1.86-.23c.15.34.31.67.48,1a15.37,15.37,0,0,1,3.58.77A43.53,43.53,0,0,1,85.72,56c2.67,1.28,5.44,2.6,8.49,2.65,3.25.05,6.3-1.11,9.25-2.23a46.12,46.12,0,0,1,5.05-1.71c.22-.35.44-.71.64-1.08a26.28,26.28,0,0,0-2.76.79C105.48,54.77,104.56,55.12,103.66,55.46Z" transform="translate(-73.91 -4.28)"/><path class="cls-1" d="M94.25,14.14c3.25.06,6.3-1.11,9.26-2.24l.53-.2L103,11.17a24.78,24.78,0,0,1-8.57,2,12.35,12.35,0,0,1-2.62-.28,27.74,27.74,0,0,1-6-2.32l-.94.45.94.45C88.44,12.76,91.2,14.09,94.25,14.14Z" transform="translate(-73.91 -4.28)"/><path class="cls-1" d="M103.66,52.76c-3,1.12-6.08,2.28-9.29,2.28a12.47,12.47,0,0,1-2.62-.27,29.09,29.09,0,0,1-6.18-2.39A27.77,27.77,0,0,0,79.31,50a13.51,13.51,0,0,0-2.82-.25c.09.33.18.65.28,1a15.05,15.05,0,0,1,4.74.83,43.53,43.53,0,0,1,4.21,1.83c2.67,1.28,5.44,2.6,8.49,2.65,3.25.06,6.3-1.11,9.25-2.23a39,39,0,0,1,5.87-1.9l.72-.13c.13-.33.25-.66.35-1a24.61,24.61,0,0,0-4,1C105.48,52.07,104.56,52.42,103.66,52.76Z" transform="translate(-73.91 -4.28)"/><path class="cls-1" d="M102.51,10.93l-1.08-.54a21.3,21.3,0,0,1-7,1.45,12.35,12.35,0,0,1-2.62-.28,22.7,22.7,0,0,1-4.62-1.65l-.94.45c2.52,1.21,5.14,2.38,8,2.43A22.59,22.59,0,0,0,102.51,10.93Z" transform="translate(-73.91 -4.28)"/><path class="cls-1" d="M94.25,16.84c3.25.06,6.3-1.11,9.26-2.24,1.2-.46,2.44-.93,3.69-1.32l-1.1-.55c-.8.28-1.61.58-2.39.87-3,1.13-6.09,2.29-9.29,2.29a12.35,12.35,0,0,1-2.62-.28,28.36,28.36,0,0,1-6.18-2.39c-.9-.43-1.81-.86-2.74-1.26l-1,.5c1.34.49,2.66,1.12,3.93,1.73C88.44,15.46,91.2,16.79,94.25,16.84Z" transform="translate(-73.91 -4.28)"/><path class="cls-1" d="M101,10.15,99.8,9.57a18.35,18.35,0,0,1-5.38.92,12.35,12.35,0,0,1-2.62-.28,19.12,19.12,0,0,1-3.14-1l-1,.47a16.78,16.78,0,0,0,6.58,1.76A19.59,19.59,0,0,0,101,10.15Z" transform="translate(-73.91 -4.28)"/><path class="cls-1" d="M97.5,8.42,96,7.69a14.67,14.67,0,0,1-1.62.1,12.23,12.23,0,0,1-2.32-.22l-1.28.61a13.16,13.16,0,0,0,3.43.56A15.25,15.25,0,0,0,97.5,8.42Z" transform="translate(-73.91 -4.28)"/><path class="cls-1" d="M99.3,9.32,98,8.69a15.81,15.81,0,0,1-3.62.45,12.35,12.35,0,0,1-2.62-.28,14,14,0,0,1-1.54-.42L89.17,9a14.54,14.54,0,0,0,5.08,1.13A16.8,16.8,0,0,0,99.3,9.32Z" transform="translate(-73.91 -4.28)"/><path class="cls-1" d="M94.25,15.49c3.25,0,6.3-1.11,9.26-2.24l2.08-.78-1.06-.53-.82.31c-3,1.13-6.09,2.29-9.29,2.29a12.35,12.35,0,0,1-2.62-.28,28.36,28.36,0,0,1-6.18-2.39l-1.28-.6-1,.46c.81.35,1.61.73,2.39,1.11C88.44,14.11,91.2,15.44,94.25,15.49Z" transform="translate(-73.91 -4.28)"/><path class="cls-1" d="M103.66,32.51c-3,1.12-6.08,2.28-9.29,2.28a12.47,12.47,0,0,1-2.62-.27,28.59,28.59,0,0,1-6.18-2.4,28.23,28.23,0,0,0-6.26-2.4,13.37,13.37,0,0,0-3.38-.23v1a15,15,0,0,1,5.58.82,43.53,43.53,0,0,1,4.21,1.83c2.67,1.28,5.44,2.6,8.49,2.65,3.24,0,6.3-1.11,9.25-2.24a40.15,40.15,0,0,1,5.87-1.89,15.59,15.59,0,0,1,2-.29v-.95a21.83,21.83,0,0,0-4.89,1.14C105.48,31.82,104.56,32.17,103.66,32.51Z" transform="translate(-73.91 -4.28)"/><path class="cls-1" d="M103.66,54.11c-3,1.12-6.08,2.28-9.29,2.28a12.47,12.47,0,0,1-2.62-.27,28.59,28.59,0,0,1-6.18-2.4,28.23,28.23,0,0,0-6.26-2.4,13.19,13.19,0,0,0-2.4-.24c.11.32.23.65.36,1a14.74,14.74,0,0,1,4.24.81,43.53,43.53,0,0,1,4.21,1.83c2.67,1.28,5.44,2.6,8.49,2.65,3.25.06,6.3-1.11,9.25-2.23a39,39,0,0,1,5.87-1.9h.06c.17-.34.33-.68.48-1a26.76,26.76,0,0,0-3.48.94C105.48,53.42,104.56,53.77,103.66,54.11Z" transform="translate(-73.91 -4.28)"/><path class="cls-1" d="M82.64,59.13a17.53,17.53,0,0,0,9,3.72,29,29,0,0,1-6.11-2.37C84.61,60,83.64,59.55,82.64,59.13Z" transform="translate(-73.91 -4.28)"/><path class="cls-1" d="M103.66,56.81c-3,1.12-6.08,2.28-9.29,2.28a12.47,12.47,0,0,1-2.62-.27,29.09,29.09,0,0,1-6.18-2.39A27.77,27.77,0,0,0,79.31,54c-.39-.08-.78-.13-1.16-.17.19.35.4.7.62,1a15.43,15.43,0,0,1,2.74.67,43.53,43.53,0,0,1,4.21,1.83c2.67,1.28,5.44,2.6,8.49,2.65,3.24.06,6.3-1.11,9.25-2.23,1.25-.48,2.53-1,3.83-1.36.31-.39.6-.78.88-1.19-.63.18-1.23.37-1.78.55C105.48,56.12,104.56,56.47,103.66,56.81Z" transform="translate(-73.91 -4.28)"/><path class="cls-1" d="M94.37,61.79a12.47,12.47,0,0,1-2.62-.27,29.09,29.09,0,0,1-6.18-2.39A31.93,31.93,0,0,0,80.37,57a16.57,16.57,0,0,0,1.31,1.34,41.44,41.44,0,0,1,4,1.76c2.67,1.28,5.44,2.6,8.49,2.65a17.6,17.6,0,0,0,5.76-1,17.41,17.41,0,0,0,4.5-2.56l-.81.31C100.66,60.63,97.58,61.79,94.37,61.79Z" transform="translate(-73.91 -4.28)"/><path class="cls-1" d="M103.66,58.16c-3,1.12-6.08,2.28-9.29,2.28a12.47,12.47,0,0,1-2.62-.27,29.09,29.09,0,0,1-6.18-2.39,27.77,27.77,0,0,0-6.26-2.41l-.24,0c.27.39.55.76.84,1.13a15.24,15.24,0,0,1,1.6.45,43.53,43.53,0,0,1,4.21,1.83c2.67,1.28,5.44,2.6,8.49,2.65,3.25.06,6.3-1.11,9.25-2.23l1.93-.73a16.81,16.81,0,0,0,1.4-1.4l-.4.13C105.48,57.47,104.56,57.82,103.66,58.16Z" transform="translate(-73.91 -4.28)"/><path class="cls-1" d="M95.38,7.36,94,6.66l-1.25.6a12.3,12.3,0,0,0,1.5.13C94.63,7.39,95,7.38,95.38,7.36Z" transform="translate(-73.91 -4.28)"/><path class="cls-1" d="M103.71,21.7c-3,1.13-6.09,2.29-9.29,2.29a12.35,12.35,0,0,1-2.62-.28,28.17,28.17,0,0,1-6.18-2.39,27.35,27.35,0,0,0-6.27-2.4,13.2,13.2,0,0,0-3.42-.23v.95a15.16,15.16,0,0,1,5.62.82,39.36,39.36,0,0,1,4.21,1.83A28.19,28.19,0,0,0,92,24.68l.4.09a12.57,12.57,0,0,0,1.8.17,17.41,17.41,0,0,0,5.43-.87h0c1.29-.4,2.57-.88,3.82-1.36a41,41,0,0,1,5.87-1.9,16.62,16.62,0,0,1,1.91-.28v-.95a21.46,21.46,0,0,0-4.85,1.14C105.53,21,104.6,21.37,103.71,21.7Z" transform="translate(-73.91 -4.28)"/><path class="cls-1" d="M103.71,19c-3,1.13-6.09,2.29-9.29,2.29A12.35,12.35,0,0,1,91.8,21a28.36,28.36,0,0,1-6.18-2.39,27.35,27.35,0,0,0-6.27-2.4A13.2,13.2,0,0,0,75.93,16v1a14.93,14.93,0,0,1,5.62.82,39.36,39.36,0,0,1,4.21,1.83c2.68,1.27,5.44,2.6,8.49,2.65,3.25.06,6.3-1.11,9.26-2.24a41,41,0,0,1,5.87-1.9,16.62,16.62,0,0,1,1.91-.28v-.95A21.46,21.46,0,0,0,106.44,18C105.53,18.32,104.6,18.67,103.71,19Z" transform="translate(-73.91 -4.28)"/><path class="cls-1" d="M103.7,20.35c-3,1.13-6.08,2.29-9.28,2.29a12.35,12.35,0,0,1-2.62-.28A28.36,28.36,0,0,1,85.62,20a27.35,27.35,0,0,0-6.27-2.4,13.2,13.2,0,0,0-3.42-.23v.95a14.93,14.93,0,0,1,5.62.82,39.36,39.36,0,0,1,4.21,1.83c2.68,1.27,5.44,2.6,8.49,2.65,3.25.06,6.3-1.11,9.26-2.24a41,41,0,0,1,5.87-1.9,16.62,16.62,0,0,1,1.91-.28v-1a21.46,21.46,0,0,0-4.85,1.14C105.53,19.67,104.6,20,103.7,20.35Z" transform="translate(-73.91 -4.28)"/><path class="cls-1" d="M103.66,28.46c-3,1.12-6.08,2.28-9.29,2.28a11.86,11.86,0,0,1-2.62-.28,28.06,28.06,0,0,1-6.18-2.39,27.74,27.74,0,0,0-6.26-2.4,13.37,13.37,0,0,0-3.38-.23v.95a15,15,0,0,1,5.58.82A43.53,43.53,0,0,1,85.72,29c2.67,1.28,5.44,2.6,8.49,2.65,3.25.06,6.3-1.11,9.25-2.24a40.15,40.15,0,0,1,5.87-1.89,15.59,15.59,0,0,1,2-.29v-.95a21.83,21.83,0,0,0-4.89,1.14C105.48,27.77,104.56,28.12,103.66,28.46Z" transform="translate(-73.91 -4.28)"/><path class="cls-1" d="M103.66,27.1c-3,1.13-6.08,2.29-9.29,2.29a11.86,11.86,0,0,1-2.62-.28,28.06,28.06,0,0,1-6.18-2.39,28,28,0,0,0-6.26-2.4l-.43-.09a13.44,13.44,0,0,0-2.95-.14V25a15,15,0,0,1,5.58.82,43.53,43.53,0,0,1,4.21,1.83c2.67,1.28,5.44,2.6,8.49,2.65,3.25.06,6.3-1.11,9.25-2.24a40.15,40.15,0,0,1,5.87-1.89,15.59,15.59,0,0,1,2-.29V25a21.8,21.8,0,0,0-4.9,1.14C105.48,26.42,104.56,26.77,103.66,27.1Z" transform="translate(-73.91 -4.28)"/><path class="cls-1" d="M103.71,24.4l-1.44.54h-.07a23.22,23.22,0,0,1-7.83,1.74,11.86,11.86,0,0,1-2.62-.28,25.5,25.5,0,0,1-5.57-2.1l-.53-.25h0l-.08,0a27.35,27.35,0,0,0-6.27-2.4,13.2,13.2,0,0,0-3.42-.23v.95a14.93,14.93,0,0,1,5.62.82,34.79,34.79,0,0,1,3.6,1.53l.53.26h-.05l.09,0c2.67,1.28,5.44,2.6,8.49,2.65,3.25.06,6.3-1.11,9.25-2.24,1.22-.46,2.49-.94,3.75-1.33h.06c.76-.23,1.44-.42,2.11-.56a16.62,16.62,0,0,1,1.91-.28v-.95a21.33,21.33,0,0,0-4.85,1.14C105.53,23.72,104.61,24.06,103.71,24.4Z" transform="translate(-73.91 -4.28)"/><path class="cls-1" d="M103.71,23.05a42.23,42.23,0,0,1-5.87,1.89h-.06a15.93,15.93,0,0,1-3.4.39,12.08,12.08,0,0,1-2.63-.28,17.5,17.5,0,0,1-2.48-.74l-.68-.26h.08c-1-.43-2.06-.91-3-1.39a27.35,27.35,0,0,0-6.27-2.4A13.2,13.2,0,0,0,75.93,20V21a14.93,14.93,0,0,1,5.62.82,39.36,39.36,0,0,1,4.21,1.83c.74.35,1.51.72,2.27,1.05l.58.26h0a15.29,15.29,0,0,0,5.63,1.34c3.24.06,6.28-1.1,9.21-2.22h.09a41,41,0,0,1,5.87-1.9,16.62,16.62,0,0,1,1.91-.28v-.95a21.33,21.33,0,0,0-4.85,1.14C105.53,22.37,104.6,22.72,103.71,23.05Z" transform="translate(-73.91 -4.28)"/><path class="cls-1" d="M105.92,24.94h-.06c-.73.26-1.48.53-2.2.81-3,1.12-6.08,2.28-9.29,2.28a11.86,11.86,0,0,1-2.62-.28,28.06,28.06,0,0,1-6.18-2.39c-.74-.35-1.5-.72-2.26-1.05l-.59-.26h0A18.86,18.86,0,0,0,79.35,23a13.2,13.2,0,0,0-3.42-.23v1a15.13,15.13,0,0,1,5.62.82l.49.18.69.26h-.08c1,.42,2.07.91,3.07,1.39,2.67,1.28,5.44,2.6,8.49,2.65,3.25.06,6.3-1.11,9.25-2.24a40.15,40.15,0,0,1,5.87-1.89c.43-.09.85-.16,1.26-.22l.36,0,.29,0h.05v-.94a21.33,21.33,0,0,0-4.85,1.14Z" transform="translate(-73.91 -4.28)"/><path class="cls-1" d="M103.66,29.81c-3,1.12-6.08,2.28-9.29,2.28a12.47,12.47,0,0,1-2.62-.27,28.59,28.59,0,0,1-6.18-2.4A27.74,27.74,0,0,0,79.31,27a13.37,13.37,0,0,0-3.38-.23v.95a15,15,0,0,1,5.58.82,43.53,43.53,0,0,1,4.21,1.83c2.67,1.28,5.44,2.6,8.49,2.65,3.24.06,6.3-1.11,9.25-2.24a40.15,40.15,0,0,1,5.87-1.89,15.59,15.59,0,0,1,2-.29v-.95a21.83,21.83,0,0,0-4.89,1.14C105.48,29.12,104.56,29.47,103.66,29.81Z" transform="translate(-73.91 -4.28)"/><path class="cls-1" d="M103.66,31.16c-3,1.12-6.08,2.28-9.29,2.28a11.86,11.86,0,0,1-2.62-.28,28.06,28.06,0,0,1-6.18-2.39,27.74,27.74,0,0,0-6.26-2.4,13.37,13.37,0,0,0-3.38-.23v.95a15,15,0,0,1,5.58.82,43.53,43.53,0,0,1,4.21,1.83c2.67,1.28,5.44,2.6,8.49,2.65,3.25.07,6.3-1.11,9.25-2.24a40.15,40.15,0,0,1,5.87-1.89,15.59,15.59,0,0,1,2-.29V29a21.83,21.83,0,0,0-4.89,1.14C105.48,30.47,104.56,30.82,103.66,31.16Z" transform="translate(-73.91 -4.28)"/><path class="cls-1" d="M103.71,15c-3,1.13-6.09,2.29-9.29,2.29A12.35,12.35,0,0,1,91.8,17a28.36,28.36,0,0,1-6.18-2.39,41.16,41.16,0,0,0-4.31-1.86l-1.21.58a15,15,0,0,1,1.45.42,39.36,39.36,0,0,1,4.21,1.83c2.68,1.27,5.44,2.6,8.49,2.65,3.25.06,6.3-1.11,9.26-2.24a44.27,44.27,0,0,1,5.43-1.8l-1.21-.6c-.45.13-.89.27-1.29.41C105.53,14.27,104.6,14.62,103.71,15Z" transform="translate(-73.91 -4.28)"/><path class="cls-1" d="M103.71,16.3c-3,1.13-6.09,2.29-9.29,2.29a12.35,12.35,0,0,1-2.62-.28,28.17,28.17,0,0,1-6.18-2.39,28.46,28.46,0,0,0-6.09-2.36L78,14.29a15,15,0,0,1,3.55.77,39.36,39.36,0,0,1,4.21,1.83c2.68,1.27,5.44,2.6,8.49,2.65,3.25.05,6.3-1.11,9.26-2.24a41,41,0,0,1,5.87-1.9,16.62,16.62,0,0,1,1.91-.28V14.4l-1.65,0a24.94,24.94,0,0,0-3.21.89C105.53,15.62,104.6,16,103.71,16.3Z" transform="translate(-73.91 -4.28)"/><path class="cls-1" d="M103.71,17.65c-3,1.13-6.09,2.29-9.29,2.29a12.35,12.35,0,0,1-2.62-.28,28.17,28.17,0,0,1-6.18-2.39,27.35,27.35,0,0,0-6.27-2.4,13.2,13.2,0,0,0-3.42-.23v.95a14.93,14.93,0,0,1,5.62.82,39.36,39.36,0,0,1,4.21,1.83c2.68,1.27,5.44,2.6,8.49,2.65,3.25.05,6.3-1.11,9.26-2.24a41,41,0,0,1,5.87-1.9,16.62,16.62,0,0,1,1.91-.28v-.95a21.46,21.46,0,0,0-4.85,1.14C105.53,17,104.6,17.32,103.71,17.65Z" transform="translate(-73.91 -4.28)"/><path class="cls-2" d="M91.29,24.94a18.75,18.75,0,0,1-2.62-.88h-.08l.68.26a17.5,17.5,0,0,0,2.48.74,12.08,12.08,0,0,0,2.63.28,15.93,15.93,0,0,0,3.4-.39h-.56l0-.27a22.25,22.25,0,0,0,2.5-.62h0a17.41,17.41,0,0,1-5.43.87,12.57,12.57,0,0,1-1.8-.17l.88.18Z" transform="translate(-73.91 -4.28)"/><path class="cls-2" d="M85.7,24.06h0l.53.25a25.5,25.5,0,0,0,5.57,2.1,11.86,11.86,0,0,0,2.62.28A23.22,23.22,0,0,0,102.2,25h-1.09l.71-.26,1.67-.63h-.07c-2.93,1.12-6,2.28-9.21,2.22A15.29,15.29,0,0,1,88.58,25l-1,0C86.94,24.65,86.31,24.35,85.7,24.06Z" transform="translate(-73.91 -4.28)"/><path class="cls-2" d="M82.76,24.06h0l.59.26c.76.33,1.52.7,2.26,1.05a28.06,28.06,0,0,0,6.18,2.39,11.86,11.86,0,0,0,2.62.28c3.21,0,6.29-1.16,9.29-2.28.72-.28,1.47-.55,2.2-.81H104.7l.71-.26c.68-.25,1.29-.45,1.86-.63h-.06c-1.26.39-2.53.87-3.75,1.33-2.95,1.13-6,2.3-9.25,2.24-3-.05-5.82-1.37-8.49-2.65l-.09,0-.93,0C84.09,24.64,83.44,24.34,82.76,24.06Z" transform="translate(-73.91 -4.28)"/><path class="cls-2" d="M110.32,24.68l.27,0c-.41.06-.83.13-1.26.22a40.15,40.15,0,0,0-5.87,1.89c-2.95,1.13-6,2.3-9.25,2.24-3,0-5.82-1.37-8.49-2.65-1-.48-2-1-3.07-1.39H81.54a15.89,15.89,0,0,0-2.19-.62l-.47-.09.43.09a28,28,0,0,1,6.26,2.4,28.06,28.06,0,0,0,6.18,2.39,11.86,11.86,0,0,0,2.62.28c3.21,0,6.29-1.16,9.29-2.29.9-.33,1.82-.68,2.73-1a21.8,21.8,0,0,1,4.9-1.14v0h-1Z" transform="translate(-73.91 -4.28)"/><path class="cls-2" d="M111,24.6l.29,0Z" transform="translate(-73.91 -4.28)"/><path class="cls-2" d="M103.46,28.1c-2.95,1.13-6,2.3-9.25,2.24-3-.05-5.82-1.37-8.49-2.65a43.53,43.53,0,0,0-4.21-1.83A15,15,0,0,0,75.93,25v.4a13.37,13.37,0,0,1,3.38.23,27.74,27.74,0,0,1,6.26,2.4,28.06,28.06,0,0,0,6.18,2.39,11.86,11.86,0,0,0,2.62.28c3.21,0,6.29-1.16,9.29-2.28.9-.34,1.82-.69,2.73-1a21.83,21.83,0,0,1,4.89-1.14v-.4a15.59,15.59,0,0,0-2,.29A40.15,40.15,0,0,0,103.46,28.1Z" transform="translate(-73.91 -4.28)"/><path class="cls-2" d="M103.46,29.45c-2.95,1.13-6,2.3-9.25,2.24-3-.05-5.82-1.37-8.49-2.65a43.53,43.53,0,0,0-4.21-1.83,15,15,0,0,0-5.58-.82v.4a13.37,13.37,0,0,1,3.38.23,27.74,27.74,0,0,1,6.26,2.4,28.59,28.59,0,0,0,6.18,2.4,12.47,12.47,0,0,0,2.62.27c3.21,0,6.29-1.16,9.29-2.28.9-.34,1.82-.69,2.73-1a21.83,21.83,0,0,1,4.89-1.14v-.4a15.59,15.59,0,0,0-2,.29A40.15,40.15,0,0,0,103.46,29.45Z" transform="translate(-73.91 -4.28)"/><path class="cls-2" d="M103.46,30.8c-2.95,1.13-6,2.3-9.25,2.24-3,0-5.82-1.37-8.49-2.65a43.53,43.53,0,0,0-4.21-1.83,15,15,0,0,0-5.58-.82v.4a13.37,13.37,0,0,1,3.38.23,27.74,27.74,0,0,1,6.26,2.4,28.06,28.06,0,0,0,6.18,2.39,11.86,11.86,0,0,0,2.62.28c3.21,0,6.29-1.16,9.29-2.28.9-.34,1.82-.69,2.73-1A21.83,21.83,0,0,1,111.28,29v-.4a15.59,15.59,0,0,0-2,.29A40.15,40.15,0,0,0,103.46,30.8Z" transform="translate(-73.91 -4.28)"/><path class="cls-2" d="M103.46,32.15c-2.95,1.13-6,2.31-9.25,2.24-3,0-5.82-1.37-8.49-2.65a43.53,43.53,0,0,0-4.21-1.83,15,15,0,0,0-5.58-.82v.4a13.37,13.37,0,0,1,3.38.23,28.23,28.23,0,0,1,6.26,2.4,28.59,28.59,0,0,0,6.18,2.4,12.47,12.47,0,0,0,2.62.27c3.21,0,6.29-1.16,9.29-2.28.9-.34,1.82-.69,2.73-1a21.83,21.83,0,0,1,4.89-1.14V30a15.59,15.59,0,0,0-2,.29A40.15,40.15,0,0,0,103.46,32.15Z" transform="translate(-73.91 -4.28)"/><path class="cls-2" d="M103.46,33.5c-2.95,1.13-6,2.29-9.25,2.24-3-.05-5.82-1.37-8.49-2.65a43.53,43.53,0,0,0-4.21-1.83,15,15,0,0,0-5.58-.82v.4a13.37,13.37,0,0,1,3.38.23,27.74,27.74,0,0,1,6.26,2.4,28.59,28.59,0,0,0,6.18,2.4,12.47,12.47,0,0,0,2.62.27c3.21,0,6.29-1.16,9.29-2.28.9-.34,1.82-.69,2.73-1a21.83,21.83,0,0,1,4.89-1.14v-.4a15.59,15.59,0,0,0-2,.29A40.15,40.15,0,0,0,103.46,33.5Z" transform="translate(-73.91 -4.28)"/><path class="cls-2" d="M103.46,34.86c-2.95,1.12-6,2.29-9.25,2.23-3-.05-5.82-1.37-8.49-2.65a43.53,43.53,0,0,0-4.21-1.83,15,15,0,0,0-5.58-.82v.4a13.37,13.37,0,0,1,3.38.23,28.23,28.23,0,0,1,6.26,2.4,28.59,28.59,0,0,0,6.18,2.4,12.47,12.47,0,0,0,2.62.27c3.21,0,6.29-1.16,9.29-2.28.9-.34,1.82-.69,2.73-1a21.83,21.83,0,0,1,4.89-1.14v-.4a15.59,15.59,0,0,0-2,.29A39,39,0,0,0,103.46,34.86Z" transform="translate(-73.91 -4.28)"/><path class="cls-2" d="M103.46,36.2c-2.95,1.13-6,2.3-9.25,2.24-3,0-5.82-1.37-8.49-2.65A43.53,43.53,0,0,0,81.51,34a15,15,0,0,0-5.58-.82v.4a13.37,13.37,0,0,1,3.38.23,28.23,28.23,0,0,1,6.26,2.4,28.59,28.59,0,0,0,6.18,2.4,12.47,12.47,0,0,0,2.62.27c3.21,0,6.29-1.16,9.29-2.28.9-.34,1.82-.69,2.73-1a21.83,21.83,0,0,1,4.89-1.14V34a15.32,15.32,0,0,0-2,.29A40.15,40.15,0,0,0,103.46,36.2Z" transform="translate(-73.91 -4.28)"/><path class="cls-2" d="M103.46,37.55c-2.95,1.13-6,2.3-9.25,2.24-3,0-5.82-1.37-8.49-2.65a43.53,43.53,0,0,0-4.21-1.83,15,15,0,0,0-5.58-.82v.4a13.37,13.37,0,0,1,3.38.23,28.23,28.23,0,0,1,6.26,2.4,28.59,28.59,0,0,0,6.18,2.4,12.47,12.47,0,0,0,2.62.27c3.21,0,6.29-1.16,9.29-2.28.9-.34,1.82-.69,2.73-1a21.83,21.83,0,0,1,4.89-1.14v-.4a15.32,15.32,0,0,0-2,.29A40.15,40.15,0,0,0,103.46,37.55Z" transform="translate(-73.91 -4.28)"/><path class="cls-2" d="M103.46,38.9c-2.95,1.13-6,2.29-9.25,2.24-3,0-5.82-1.37-8.49-2.65a43.53,43.53,0,0,0-4.21-1.83,15,15,0,0,0-5.58-.82v.4a13.37,13.37,0,0,1,3.38.23,28.23,28.23,0,0,1,6.26,2.4,28.59,28.59,0,0,0,6.18,2.4,12.47,12.47,0,0,0,2.62.27c3.21,0,6.29-1.16,9.29-2.28.9-.34,1.82-.69,2.73-1a21.87,21.87,0,0,1,4.88-1.14v-.4a15.32,15.32,0,0,0-2,.29A40.15,40.15,0,0,0,103.46,38.9Z" transform="translate(-73.91 -4.28)"/><path class="cls-2" d="M103.46,40.26c-2.95,1.12-6,2.29-9.25,2.23-3-.05-5.82-1.37-8.49-2.65A43.53,43.53,0,0,0,81.51,38a15,15,0,0,0-5.58-.82v.4a13.37,13.37,0,0,1,3.38.23,28.23,28.23,0,0,1,6.26,2.4,28.59,28.59,0,0,0,6.18,2.4,12.47,12.47,0,0,0,2.62.27c3.21,0,6.29-1.16,9.29-2.28.9-.34,1.82-.69,2.73-1a21.87,21.87,0,0,1,4.88-1.14v-.4a15.44,15.44,0,0,0-1.94.29A39,39,0,0,0,103.46,40.26Z" transform="translate(-73.91 -4.28)"/><path class="cls-2" d="M103.46,41.6c-2.95,1.13-6,2.3-9.25,2.24-3-.05-5.82-1.37-8.49-2.65a43.53,43.53,0,0,0-4.21-1.83,15,15,0,0,0-5.58-.82v.4a13.37,13.37,0,0,1,3.38.23,28.23,28.23,0,0,1,6.26,2.4A28.59,28.59,0,0,0,91.75,44a12.47,12.47,0,0,0,2.62.27c3.21,0,6.29-1.16,9.29-2.28.9-.34,1.82-.69,2.73-1a21.74,21.74,0,0,1,4.88-1.14v-.4a15.44,15.44,0,0,0-1.94.29A40.15,40.15,0,0,0,103.46,41.6Z" transform="translate(-73.91 -4.28)"/><path class="cls-2" d="M103.46,43c-2.95,1.12-6,2.29-9.25,2.23-3,0-5.82-1.37-8.49-2.65a43.53,43.53,0,0,0-4.21-1.83,15,15,0,0,0-5.58-.82v.41a12.91,12.91,0,0,1,3.38.22,28.23,28.23,0,0,1,6.26,2.4,28.59,28.59,0,0,0,6.18,2.4,12.47,12.47,0,0,0,2.62.27c3.21,0,6.29-1.16,9.29-2.28.9-.34,1.82-.69,2.73-1a21.74,21.74,0,0,1,4.88-1.14v-.4a15.18,15.18,0,0,0-1.94.29A39,39,0,0,0,103.46,43Z" transform="translate(-73.91 -4.28)"/><path class="cls-2" d="M103.46,44.31c-2.95,1.12-6,2.28-9.25,2.23-3,0-5.82-1.37-8.49-2.65a43.53,43.53,0,0,0-4.21-1.83,15,15,0,0,0-5.58-.82v.41a12.91,12.91,0,0,1,3.38.22,28.23,28.23,0,0,1,6.26,2.4,28.59,28.59,0,0,0,6.18,2.4,12.47,12.47,0,0,0,2.62.27c3.21,0,6.29-1.16,9.29-2.28.9-.34,1.82-.69,2.73-1a21.74,21.74,0,0,1,4.88-1.14v-.4a15.18,15.18,0,0,0-1.94.29A39,39,0,0,0,103.46,44.31Z" transform="translate(-73.91 -4.28)"/><path class="cls-2" d="M103.46,45.66c-2.95,1.12-6,2.29-9.25,2.23-3,0-5.82-1.37-8.49-2.65a43.53,43.53,0,0,0-4.21-1.83,15,15,0,0,0-5.58-.82V43a13.37,13.37,0,0,1,3.38.23,28.23,28.23,0,0,1,6.26,2.4A28.59,28.59,0,0,0,91.75,48a12.47,12.47,0,0,0,2.62.27c3.21,0,6.29-1.16,9.29-2.28.9-.34,1.82-.69,2.73-1a21.74,21.74,0,0,1,4.88-1.14v-.4a15.18,15.18,0,0,0-1.94.29A39,39,0,0,0,103.46,45.66Z" transform="translate(-73.91 -4.28)"/><path class="cls-2" d="M103.46,47c-2.95,1.13-6,2.3-9.25,2.24-3-.05-5.82-1.37-8.49-2.65a43.53,43.53,0,0,0-4.21-1.83,15,15,0,0,0-5.58-.82v.41a12.91,12.91,0,0,1,3.38.22A28.23,28.23,0,0,1,85.57,47a28.59,28.59,0,0,0,6.18,2.4,12.47,12.47,0,0,0,2.62.27c3.21,0,6.29-1.16,9.29-2.28.9-.34,1.82-.69,2.73-1a21.74,21.74,0,0,1,4.88-1.14v-.4a15.18,15.18,0,0,0-1.94.29A40.15,40.15,0,0,0,103.46,47Z" transform="translate(-73.91 -4.28)"/><path class="cls-2" d="M103.46,48.36c-2.95,1.12-6,2.29-9.25,2.23-3-.05-5.82-1.37-8.49-2.65a43.53,43.53,0,0,0-4.21-1.83,15,15,0,0,0-5.58-.82c0,.14,0,.27,0,.4a13.26,13.26,0,0,1,3.37.23,28.23,28.23,0,0,1,6.26,2.4,28.59,28.59,0,0,0,6.18,2.4,12.47,12.47,0,0,0,2.62.27c3.21,0,6.29-1.16,9.29-2.28.9-.34,1.82-.69,2.73-1a21.88,21.88,0,0,1,4.82-1.13c0-.14,0-.27,0-.41a17,17,0,0,0-1.91.29A39,39,0,0,0,103.46,48.36Z" transform="translate(-73.91 -4.28)"/><path class="cls-2" d="M103.46,49.71c-2.95,1.12-6,2.29-9.25,2.23-3,0-5.82-1.37-8.49-2.65a43.53,43.53,0,0,0-4.21-1.83A15.07,15.07,0,0,0,76,46.64c0,.14,0,.27,0,.4a13.62,13.62,0,0,1,3.29.23,27.77,27.77,0,0,1,6.26,2.41,29.09,29.09,0,0,0,6.18,2.39,12.47,12.47,0,0,0,2.62.27c3.21,0,6.29-1.16,9.29-2.28.9-.34,1.82-.69,2.73-1a22.32,22.32,0,0,1,4.68-1.12c0-.13,0-.27.05-.41a17,17,0,0,0-1.79.28A39,39,0,0,0,103.46,49.71Z" transform="translate(-73.91 -4.28)"/><path class="cls-2" d="M103.46,51.06c-2.95,1.12-6,2.29-9.25,2.23-3,0-5.82-1.37-8.49-2.65a43.53,43.53,0,0,0-4.21-1.83A15.14,15.14,0,0,0,76.13,48c0,.14.05.27.08.4a13.6,13.6,0,0,1,3.1.24A27.77,27.77,0,0,1,85.57,51a29.09,29.09,0,0,0,6.18,2.39,12.47,12.47,0,0,0,2.62.27c3.21,0,6.29-1.16,9.29-2.28.9-.34,1.82-.69,2.73-1a23.5,23.5,0,0,1,4.41-1.09l.09-.41c-.51.06-1,.14-1.56.25A39,39,0,0,0,103.46,51.06Z" transform="translate(-73.91 -4.28)"/><path class="cls-2" d="M103.46,52.41c-2.95,1.12-6,2.3-9.25,2.23-3,0-5.82-1.37-8.49-2.65a43.53,43.53,0,0,0-4.21-1.83,15.12,15.12,0,0,0-5.11-.83l.09.39a13.51,13.51,0,0,1,2.82.25,27.77,27.77,0,0,1,6.26,2.41,29.09,29.09,0,0,0,6.18,2.39,12.47,12.47,0,0,0,2.62.27c3.21,0,6.29-1.16,9.29-2.28.9-.34,1.82-.69,2.73-1a24.61,24.61,0,0,1,4-1c0-.14.09-.28.14-.43-.4.06-.8.12-1.21.21A39,39,0,0,0,103.46,52.41Z" transform="translate(-73.91 -4.28)"/><path class="cls-2" d="M103.46,53.76c-2.95,1.12-6,2.29-9.25,2.23-3-.05-5.82-1.37-8.49-2.65a43.53,43.53,0,0,0-4.21-1.83,15.05,15.05,0,0,0-4.74-.83c0,.13.09.26.14.4a13.19,13.19,0,0,1,2.4.24,28.23,28.23,0,0,1,6.26,2.4,28.59,28.59,0,0,0,6.18,2.4,12.47,12.47,0,0,0,2.62.27c3.21,0,6.29-1.16,9.29-2.28.9-.34,1.82-.69,2.73-1a26.76,26.76,0,0,1,3.48-.94l.18-.44-.72.13A39,39,0,0,0,103.46,53.76Z" transform="translate(-73.91 -4.28)"/><path class="cls-2" d="M103.46,55.11c-2.95,1.12-6,2.29-9.25,2.23-3-.05-5.82-1.37-8.49-2.65a43.53,43.53,0,0,0-4.21-1.83,14.74,14.74,0,0,0-4.24-.81l.18.39a15.23,15.23,0,0,1,1.86.23,27.77,27.77,0,0,1,6.26,2.41,29.09,29.09,0,0,0,6.18,2.39,12.47,12.47,0,0,0,2.62.27c3.21,0,6.29-1.16,9.29-2.28.9-.34,1.82-.69,2.73-1a26.28,26.28,0,0,1,2.76-.79l.24-.47h-.06A39,39,0,0,0,103.46,55.11Z" transform="translate(-73.91 -4.28)"/><path class="cls-2" d="M94.21,58.69c-3,0-5.82-1.37-8.49-2.65a43.53,43.53,0,0,0-4.21-1.83,15.37,15.37,0,0,0-3.58-.77l.22.41c.38,0,.77.09,1.16.17a27.77,27.77,0,0,1,6.26,2.41,29.09,29.09,0,0,0,6.18,2.39,12.47,12.47,0,0,0,2.62.27c3.21,0,6.29-1.16,9.29-2.28.9-.34,1.82-.69,2.73-1,.55-.18,1.15-.37,1.78-.55.12-.16.23-.34.34-.51a46.12,46.12,0,0,0-5.05,1.71C100.51,57.58,97.46,58.74,94.21,58.69Z" transform="translate(-73.91 -4.28)"/><path class="cls-2" d="M94.21,60c-3,0-5.82-1.37-8.49-2.65a43.53,43.53,0,0,0-4.21-1.83,15.43,15.43,0,0,0-2.74-.67l.3.44.24,0a27.77,27.77,0,0,1,6.26,2.41,29.09,29.09,0,0,0,6.18,2.39,12.47,12.47,0,0,0,2.62.27c3.21,0,6.29-1.16,9.29-2.28.9-.34,1.82-.69,2.73-1l.4-.13c.17-.19.34-.38.5-.58-1.3.39-2.58.88-3.83,1.36C100.51,58.93,97.45,60.1,94.21,60Z" transform="translate(-73.91 -4.28)"/><path class="cls-2" d="M94.21,61.39c-3,0-5.82-1.37-8.49-2.65a43.53,43.53,0,0,0-4.21-1.83,15.24,15.24,0,0,0-1.6-.45l.46.53a31.93,31.93,0,0,1,5.2,2.14,29.09,29.09,0,0,0,6.18,2.39,12.47,12.47,0,0,0,2.62.27c3.21,0,6.29-1.16,9.29-2.28l.81-.31c.31-.24.62-.5.92-.77l-1.93.73C100.51,60.28,97.46,61.45,94.21,61.39Z" transform="translate(-73.91 -4.28)"/><path class="cls-2" d="M85.72,60.09a41.44,41.44,0,0,0-4-1.76c.31.28.63.55,1,.8,1,.42,2,.88,2.93,1.35a29,29,0,0,0,6.11,2.37,17.38,17.38,0,0,0,1.92.1h0A17.54,17.54,0,0,0,100,61.76a17.6,17.6,0,0,1-5.76,1C91.16,62.69,88.39,61.37,85.72,60.09Z" transform="translate(-73.91 -4.28)"/><path class="cls-2" d="M96,7.69l-.66-.33c-.37,0-.75,0-1.13,0a12.3,12.3,0,0,1-1.5-.13l-.65.31a12.23,12.23,0,0,0,2.32.22A14.67,14.67,0,0,0,96,7.69Z" transform="translate(-73.91 -4.28)"/><path class="cls-2" d="M94.42,9.14A15.81,15.81,0,0,0,98,8.69l-.54-.27a15.25,15.25,0,0,1-3.25.32,13.16,13.16,0,0,1-3.43-.56l-.56.26a14,14,0,0,0,1.54.42A12.35,12.35,0,0,0,94.42,9.14Z" transform="translate(-73.91 -4.28)"/><path class="cls-2" d="M94.42,10.49a18.35,18.35,0,0,0,5.38-.92l-.5-.25a16.8,16.8,0,0,1-5,.77A14.54,14.54,0,0,1,89.17,9l-.51.25a19.12,19.12,0,0,0,3.14,1A12.35,12.35,0,0,0,94.42,10.49Z" transform="translate(-73.91 -4.28)"/><path class="cls-2" d="M94.42,11.84a21.3,21.3,0,0,0,7-1.45l-.48-.24a19.59,19.59,0,0,1-6.7,1.29,16.78,16.78,0,0,1-6.58-1.76l-.49.23a22.7,22.7,0,0,0,4.62,1.65A12.35,12.35,0,0,0,94.42,11.84Z" transform="translate(-73.91 -4.28)"/><path class="cls-2" d="M94.42,13.19a24.78,24.78,0,0,0,8.57-2l-.48-.24a22.59,22.59,0,0,1-8.26,1.86c-2.87,0-5.49-1.22-8-2.43l-.48.23a27.74,27.74,0,0,0,6,2.32A12.35,12.35,0,0,0,94.42,13.19Z" transform="translate(-73.91 -4.28)"/><path class="cls-2" d="M91.8,14.26a12.35,12.35,0,0,0,2.62.28c3.2,0,6.29-1.16,9.29-2.29l.82-.31L104,11.7l-.53.2c-3,1.13-6,2.3-9.26,2.24-3-.05-5.81-1.38-8.49-2.65L84.82,11l-.48.23,1.28.6A28.36,28.36,0,0,0,91.8,14.26Z" transform="translate(-73.91 -4.28)"/><path class="cls-2" d="M91.8,15.61a12.35,12.35,0,0,0,2.62.28c3.2,0,6.29-1.16,9.29-2.29.78-.29,1.59-.59,2.39-.87l-.51-.26-2.08.78c-3,1.13-6,2.29-9.26,2.24-3-.05-5.81-1.38-8.49-2.65-.78-.38-1.58-.76-2.39-1.11l-.49.23c.93.4,1.84.83,2.74,1.26A28.36,28.36,0,0,0,91.8,15.61Z" transform="translate(-73.91 -4.28)"/><path class="cls-2" d="M103.51,14.6c-3,1.13-6,2.3-9.26,2.24-3-.05-5.81-1.38-8.49-2.65-1.27-.61-2.59-1.24-3.93-1.73l-.52.25a41.16,41.16,0,0,1,4.31,1.86A28.36,28.36,0,0,0,91.8,17a12.35,12.35,0,0,0,2.62.28c3.2,0,6.28-1.16,9.29-2.29.89-.33,1.82-.68,2.73-1,.4-.14.84-.28,1.29-.41l-.53-.27C106,13.67,104.71,14.14,103.51,14.6Z" transform="translate(-73.91 -4.28)"/><path class="cls-2" d="M94.25,18.19c-3-.05-5.81-1.38-8.49-2.65a39.36,39.36,0,0,0-4.21-1.83,15,15,0,0,0-1.45-.42l-.57.27a28.46,28.46,0,0,1,6.09,2.36,28.17,28.17,0,0,0,6.18,2.39,12.35,12.35,0,0,0,2.62.28c3.2,0,6.29-1.16,9.29-2.29.89-.33,1.82-.68,2.73-1a24.94,24.94,0,0,1,3.21-.89h-.18l-.53-.27a44.27,44.27,0,0,0-5.43,1.8C100.55,17.08,97.5,18.25,94.25,18.19Z" transform="translate(-73.91 -4.28)"/><path class="cls-2" d="M103.51,17.3c-3,1.13-6,2.29-9.26,2.24-3-.05-5.81-1.38-8.49-2.65a39.36,39.36,0,0,0-4.21-1.83A15,15,0,0,0,78,14.29l-.27.13-1.8,0v.24a13.2,13.2,0,0,1,3.42.23,27.35,27.35,0,0,1,6.27,2.4,28.17,28.17,0,0,0,6.18,2.39,12.35,12.35,0,0,0,2.62.28c3.2,0,6.29-1.16,9.29-2.29.89-.33,1.82-.68,2.73-1a21.46,21.46,0,0,1,4.85-1.14v-.4a16.62,16.62,0,0,0-1.91.28A41,41,0,0,0,103.51,17.3Z" transform="translate(-73.91 -4.28)"/><path class="cls-2" d="M103.51,18.65c-3,1.13-6,2.29-9.26,2.24-3-.05-5.81-1.38-8.49-2.65a39.36,39.36,0,0,0-4.21-1.83,14.93,14.93,0,0,0-5.62-.82V16a13.2,13.2,0,0,1,3.42.23,27.35,27.35,0,0,1,6.27,2.4A28.36,28.36,0,0,0,91.8,21a12.35,12.35,0,0,0,2.62.28c3.2,0,6.29-1.16,9.29-2.29.89-.33,1.82-.68,2.73-1a21.46,21.46,0,0,1,4.85-1.14v-.4a16.62,16.62,0,0,0-1.91.28A41,41,0,0,0,103.51,18.65Z" transform="translate(-73.91 -4.28)"/><path class="cls-2" d="M103.51,20c-3,1.13-6,2.3-9.26,2.24-3,0-5.81-1.38-8.49-2.65a39.36,39.36,0,0,0-4.21-1.83,14.93,14.93,0,0,0-5.62-.82v.4a13.2,13.2,0,0,1,3.42.23A27.35,27.35,0,0,1,85.62,20a28.36,28.36,0,0,0,6.18,2.39,12.35,12.35,0,0,0,2.62.28c3.2,0,6.28-1.16,9.28-2.29.9-.33,1.83-.68,2.74-1a21.46,21.46,0,0,1,4.85-1.14v-.4a16.62,16.62,0,0,0-1.91.28A41,41,0,0,0,103.51,20Z" transform="translate(-73.91 -4.28)"/><path class="cls-2" d="M103.51,21.35c-3,1.13-6,2.3-9.26,2.24-3-.05-5.81-1.38-8.49-2.65a39.36,39.36,0,0,0-4.21-1.83,14.93,14.93,0,0,0-5.62-.82v.4a13.2,13.2,0,0,1,3.42.23,27.35,27.35,0,0,1,6.27,2.4,28.17,28.17,0,0,0,6.18,2.39,12.35,12.35,0,0,0,2.62.28c3.2,0,6.29-1.16,9.29-2.29.89-.33,1.82-.68,2.73-1a21.46,21.46,0,0,1,4.85-1.14v-.4a16.62,16.62,0,0,0-1.91.28A41,41,0,0,0,103.51,21.35Z" transform="translate(-73.91 -4.28)"/><path class="cls-2" d="M79.35,20.27a27.35,27.35,0,0,1,6.27,2.4c1,.48,2,1,3,1.39h1.12a17.39,17.39,0,0,0,2.62.7l-.4-.09a28.19,28.19,0,0,1-6.25-2.39,39.36,39.36,0,0,0-4.21-1.83,15.16,15.16,0,0,0-5.62-.82V20A13.2,13.2,0,0,1,79.35,20.27Z" transform="translate(-73.91 -4.28)"/><path class="cls-2" d="M88.67,24.06a18.75,18.75,0,0,0,2.62.88h2l-.88-.18a17.39,17.39,0,0,1-2.62-.7Z" transform="translate(-73.91 -4.28)"/><path class="cls-2" d="M103.51,22.7c-1.25.48-2.53,1-3.82,1.36h1.24l-.83.26c-.7.22-1.48.45-2.32.63h.06a42.23,42.23,0,0,0,5.87-1.89c.89-.33,1.82-.68,2.73-1a21.33,21.33,0,0,1,4.85-1.14v-.4a16.62,16.62,0,0,0-1.91.28A41,41,0,0,0,103.51,22.7Z" transform="translate(-73.91 -4.28)"/><path class="cls-2" d="M97.22,25h.56c.84-.18,1.62-.41,2.32-.63l.83-.26H99.69a22.25,22.25,0,0,1-2.5.62Z" transform="translate(-73.91 -4.28)"/><path class="cls-2" d="M79.35,21.62A27.35,27.35,0,0,1,85.62,24l.08,0h.93c.64.3,1.29.6,2,.88h0L88,24.69c-.76-.33-1.53-.7-2.27-1.05a39.36,39.36,0,0,0-4.21-1.83A14.93,14.93,0,0,0,75.93,21v.4A13.2,13.2,0,0,1,79.35,21.62Z" transform="translate(-73.91 -4.28)"/><path class="cls-2" d="M85.7,24.06c.61.29,1.24.59,1.86.87l1,0c-.66-.28-1.31-.58-2-.88Z" transform="translate(-73.91 -4.28)"/><path class="cls-2" d="M103.51,24.05h1.07l-.92.34L102.2,25h.07l1.44-.54c.9-.34,1.82-.68,2.73-1a21.33,21.33,0,0,1,4.85-1.14v-.4a16.62,16.62,0,0,0-1.91.28A41,41,0,0,0,103.51,24.05Z" transform="translate(-73.91 -4.28)"/><path class="cls-2" d="M101.11,25h1.09l1.46-.55.92-.34h-1.09l-1.67.63Z" transform="translate(-73.91 -4.28)"/><path class="cls-2" d="M79.35,23a18.86,18.86,0,0,1,3.41,1.09h1c.62.28,1.25.58,1.87.88h.05l-.53-.26a34.79,34.79,0,0,0-3.6-1.53,14.93,14.93,0,0,0-5.62-.82v.4A13.2,13.2,0,0,1,79.35,23Z" transform="translate(-73.91 -4.28)"/><path class="cls-2" d="M82.76,24.06c.68.28,1.33.58,1.94.87l.93,0c-.62-.3-1.25-.6-1.87-.88Z" transform="translate(-73.91 -4.28)"/><path class="cls-2" d="M107.27,24.06h1.42l-.9.26c-.44.13-.9.27-1.4.44l-.53.19h.06l.52-.18a21.33,21.33,0,0,1,4.85-1.14v-.4a16.62,16.62,0,0,0-1.91.28C108.71,23.64,108,23.83,107.27,24.06Z" transform="translate(-73.91 -4.28)"/><path class="cls-2" d="M104.7,25h1.16l.53-.19c.5-.17,1-.31,1.4-.44l.9-.26h-1.42c-.57.18-1.18.38-1.86.63Z" transform="translate(-73.91 -4.28)"/><path class="cls-2" d="M78.88,24.23,78,24.06H80c.51.12,1,.28,1.54.45s.76.28,1.14.44h.08L82,24.69l-.49-.18a15.13,15.13,0,0,0-5.62-.82v.4A13.44,13.44,0,0,1,78.88,24.23Z" transform="translate(-73.91 -4.28)"/><path class="cls-2" d="M80,24.06H78l.85.17.47.09a15.89,15.89,0,0,1,2.19.62h1.11c-.38-.16-.76-.3-1.14-.44S80.48,24.18,80,24.06Z" transform="translate(-73.91 -4.28)"/><path class="cls-2" d="M110.59,24.64l.36,0Z" transform="translate(-73.91 -4.28)"/><path class="cls-2" d="M111.29,24.57h0Z" transform="translate(-73.91 -4.28)"/><path class="cls-2" d="M111,24.6l-.36,0-.27,0,0,.27h1v-.38h-.05Z" transform="translate(-73.91 -4.28)"/><path class="cls-3" d="M93.61,65.18a19.72,19.72,0,0,1-19.7-19.69V13.19a1,1,0,0,1,1-.95h2.82L94,4.28l15.57,8h2.78a1,1,0,0,1,1,.95v32.3A19.72,19.72,0,0,1,93.61,65.18ZM75.25,13.57V45.49a18.36,18.36,0,1,0,36.72,0V13.57h-2.72L94,5.77l-16,7.8Z" transform="translate(-73.91 -4.28)"/><g class="cls-4"><path class="cls-5" d="M113,54.08a.34.34,0,0,1-.15,0l-.08,0-.06,0a.45.45,0,0,1-.14-.06c-3.5-1.6-7-3.12-10.39-5.07-.33-.2-.67-.38-1-.56-.17-.09-.21-.2-.23-.41a7.44,7.44,0,0,0-.17-2.11c-.08-.2.08-.2.19-.22.6-.12,1.2-.22,1.8-.29a3.56,3.56,0,0,0,1-.24A2.08,2.08,0,0,0,105.08,43a6.47,6.47,0,0,1,.6-2.82c.29-.75.39-1.56.62-2.32a10.42,10.42,0,0,0,.56-2,1.92,1.92,0,0,1,.45-1.05,1.86,1.86,0,0,0,.22-1.95,4.07,4.07,0,0,0-.42-.8c-.06-.08-.08-.12,0-.17A3.09,3.09,0,0,0,109,29.63c.07-.27.15-.47.46-.55s.38-.32.34-.66a.46.46,0,0,0-.46-.48c-.15,0-.2-.1-.23-.23a3,3,0,0,0-1.35-1.93.26.26,0,0,1-.12-.29.85.85,0,0,0-.14-.53,16.26,16.26,0,0,1-1.35-3.25A8.16,8.16,0,0,0,103.09,17a.47.47,0,0,1-.24-.49,3.3,3.3,0,0,0-1.8-3.63,6.7,6.7,0,0,0-2.53-.77C97.36,12,96.19,12,95,11.92s-2.58,0-3.86.19a14.43,14.43,0,0,0-6.28,2.26A15.48,15.48,0,0,0,82,17.08a18.22,18.22,0,0,0-1.91,2.59,7.69,7.69,0,0,0-1.2,4.91A8.66,8.66,0,0,1,79,26.19,9.43,9.43,0,0,0,79,28a11.08,11.08,0,0,0,.6,2.62c.5,1.32.91,2.67,1.48,4a23.21,23.21,0,0,0,2.19,3.73,2.47,2.47,0,0,0,1,.89.26.26,0,0,1,.18.23c0,.37,0,.75.06,1.13,0,.2-.08.28-.25.34a1.46,1.46,0,0,0-1,1.12C82.93,43.4,82.4,44.66,82,46a.38.38,0,0,1-.15.2C80.55,47,79.3,47.94,78,48.8c-.83.55-1.71,1-2.56,1.53-.1.06-.16.06-.21,0l-.45.29a27.41,27.41,0,0,0,5.53,7.23,23.3,23.3,0,0,0,6,4A22.3,22.3,0,0,0,95.45,64a19.07,19.07,0,0,0,3.29-.29,21.37,21.37,0,0,0,6-1.92,24.08,24.08,0,0,0,7.66-6c.42-.49.83-1,1.21-1.52Z" transform="translate(-73.91 -4.28)"/><path class="cls-3" d="M99.83,15.25c.14.2.26.42.38.62s.08.18.17.16.08-.16.07-.25a1.77,1.77,0,0,0-.35-.82A4,4,0,0,0,97,13.36a6.82,6.82,0,0,0-3.16.67c-2.93,1.3-5.7,2.93-8.55,4.41-.06,0-.15.06-.17.16s.21,0,.3-.07c2.18-.87,4.21-2.06,6.32-3.06a20.74,20.74,0,0,1,3.07-1.41,5.05,5.05,0,0,1,2.58-.27A3.68,3.68,0,0,1,99.83,15.25Z" transform="translate(-73.91 -4.28)"/><path class="cls-3" d="M96.93,21.88a8.3,8.3,0,0,1,3.79-.43,35,35,0,0,0,3.82.48,4.68,4.68,0,0,1,.69.11c0-.16-.14-.17-.23-.2a2.37,2.37,0,0,0-.91-.17,11.67,11.67,0,0,1-2.7-.33,8.1,8.1,0,0,0-4.41.38c-.11.05-.26.07-.33.21s0,0,.07,0Z" transform="translate(-73.91 -4.28)"/><path class="cls-3" d="M104.48,20.6a.33.33,0,0,0-.22-.14,6.84,6.84,0,0,0-1.79-.35A19.66,19.66,0,0,0,98.71,20a6.32,6.32,0,0,0-2.06.56C99.27,19.71,101.88,20.26,104.48,20.6Z" transform="translate(-73.91 -4.28)"/><path class="cls-3" d="M97.16,14.24a7.82,7.82,0,0,1,2.38,1.68C99.29,15.05,97.85,14,97.16,14.24Z" transform="translate(-73.91 -4.28)"/><path class="cls-3" d="M112.94,54.13a.32.32,0,0,1-.16,0l-.08,0-.06,0a.4.4,0,0,1-.13-.07c-3.51-1.6-7.05-3.12-10.4-5.07-.33-.19-.67-.37-1-.55-.18-.09-.21-.21-.23-.42a7.48,7.48,0,0,0-.18-2.11c-.08-.2.08-.2.19-.22.6-.11,1.2-.21,1.81-.29a4,4,0,0,0,1-.23A2.09,2.09,0,0,0,105,43a6.58,6.58,0,0,1,.6-2.82c.29-.75.39-1.56.63-2.33a11,11,0,0,0,.55-2,1.86,1.86,0,0,1,.46-1,1.88,1.88,0,0,0,.21-2,3.73,3.73,0,0,0-.42-.79c-.06-.09-.08-.13,0-.18a3,3,0,0,0,1.87-2.24c.08-.28.15-.48.46-.55s.38-.33.35-.66a.47.47,0,0,0-.47-.49c-.15,0-.2-.1-.23-.23a3.08,3.08,0,0,0-1.34-1.93.25.25,0,0,1-.13-.28.94.94,0,0,0-.13-.54,15.7,15.7,0,0,1-1.35-3.25A8.25,8.25,0,0,0,103,17a.44.44,0,0,1-.23-.48A3.33,3.33,0,0,0,101,12.92a6.77,6.77,0,0,0-2.53-.77C97.27,12,96.1,12,94.92,12s-2.57,0-3.86.19a14.44,14.44,0,0,0-6.28,2.27A15.06,15.06,0,0,0,82,17.13,18.09,18.09,0,0,0,80,19.72a7.69,7.69,0,0,0-1.2,4.91A8.67,8.67,0,0,1,79,26.24a8.71,8.71,0,0,0,0,1.84,11.08,11.08,0,0,0,.6,2.62c.51,1.32.91,2.68,1.49,4a23.57,23.57,0,0,0,2.18,3.74,2.52,2.52,0,0,0,1,.88c.1.05.18.1.18.23l.06,1.14a.31.31,0,0,1-.25.34,1.45,1.45,0,0,0-1,1.11c-.32,1.34-.85,2.6-1.29,3.9a.4.4,0,0,1-.15.19c-1.26.89-2.51,1.8-3.79,2.65-.83.55-1.71,1-2.56,1.54a.19.19,0,0,1-.21,0l-.44.29a27.16,27.16,0,0,0,5.53,7.22,22.75,22.75,0,0,0,6,4A22.17,22.17,0,0,0,95.36,64a18.24,18.24,0,0,0,3.3-.29,21.3,21.3,0,0,0,6-1.92,23.94,23.94,0,0,0,7.66-5.95c.42-.5.83-1,1.22-1.52Zm-2.2.48c-.56.44-1.12.87-1.67,1.32a40.57,40.57,0,0,1-5.69,3.67c-1.33.78-2.69,1.53-4,2.4-.09.06-.22.22-.3.09s.1-.21.2-.27c2.06-1.4,4.23-2.59,6.39-3.8a37.53,37.53,0,0,0,4-2.75l1-.73Zm-3.28-1.5a7.54,7.54,0,0,1-1.4,1.13c-1.31.87-2.69,1.6-4,2.41Q99.33,58.27,96.7,60c-.1.07-.25.26-.33.13s.13-.24.25-.32c2-1.31,4-2.6,6-3.78a52.45,52.45,0,0,0,4.59-2.79C107.3,53.19,107.38,53.16,107.46,53.11Zm-.81-.43,0,.06a8.08,8.08,0,0,1-1,.8c-1.29.88-2.66,1.61-4,2.41-1.76,1.06-3.49,2.16-5.21,3.28-.08.05-.15.13-.27.12,0-.18.13-.24.23-.31C98,58,99.56,57,101.17,56s3.22-1.82,4.77-2.84ZM105,52c-2.21,1.54-4.57,2.81-6.82,4.26A63.21,63.21,0,0,1,105,52Zm-7,3.38c2-1.44,4.09-2.58,6.2-3.89A64.62,64.62,0,0,1,98,55.38ZM97.31,55a62.08,62.08,0,0,1,6.2-3.85C101.49,52.47,99.37,53.67,97.31,55Zm.22,1.09c0,.46-.16.7-.48.71s-.64-.44-.64-.81a.62.62,0,0,1,.51-.63C97.2,55.32,97.53,55.71,97.53,56.06Zm10-29.68a2.52,2.52,0,0,1,1.1,2.6,2.94,2.94,0,0,1-1.12,2.1,1.71,1.71,0,0,1-.66.33c-.11,0-.23,0-.26-.08s.11-.1.18-.13a2.75,2.75,0,0,0,1.63-2.6,2.52,2.52,0,0,0-.64-1.84,1.45,1.45,0,0,0-2.31.16,2.45,2.45,0,0,0-.34.71c0,.12-.08.23-.23.23a1.91,1.91,0,0,1,1.43-1.79A1.67,1.67,0,0,1,107.52,26.38Zm-1.28,3v1.2l-.78-1.33A.51.51,0,0,0,106,29s.06-.08.11-.05,0,.1,0,.15-.23.22-.27.39C106,29.58,106.08,29.43,106.24,29.37Zm-.6-1.73c-.06,0-.12,0-.07-.11s.12-.24.28-.23a.85.85,0,0,1,.67.95A1,1,0,0,0,105.64,27.64Zm.72-.38a1.19,1.19,0,0,0-.44-.11,1.12,1.12,0,0,1,.71-.38c.13,0,.22,0,.2.18s0,.35-.08.54Zm1.53,1.56c.14,0,.2,0,.18.19a2.42,2.42,0,0,1-1.16,1.88c-.13.08-.16,0-.16-.09v-.49a6,6,0,0,1,.13-1.2c0-.17.1-.25.28-.25S107.65,28.83,107.89,28.82Zm-.63-.9c0-.29.07-.58.1-.87,0-.07,0-.17.06-.2s.14,0,.19.09a1.58,1.58,0,0,1,.52,1c.07.34,0,.4-.32.41h-.22C107.19,28.32,107.2,28.32,107.26,27.92ZM80.76,31a3,3,0,0,1-.08.51,3,3,0,0,1,.1-1.16,7.57,7.57,0,0,1,1.85-3.53c.76-.93,1.47-1.91,2.2-2.86a8,8,0,0,1,1.39-1.45.58.58,0,0,0,.17-.21,2.24,2.24,0,0,0-.8.53A11.1,11.1,0,0,0,84,24.65c-.7.87-1.45,1.69-2.12,2.57a6.82,6.82,0,0,0-1.24,2.39c-.1.35-.15.72-.23,1.13a1.75,1.75,0,0,1,.06-1.22,9.16,9.16,0,0,1,1.78-3.45,29,29,0,0,0,2-2.88A8.11,8.11,0,0,1,86.14,21l.16-.13A.39.39,0,0,0,86,21a7,7,0,0,0-2,2.17,38.12,38.12,0,0,1-2.46,3.33,7.22,7.22,0,0,0-1.31,3s0,.06-.06.15A7,7,0,0,1,81,26.73c.85-1.48,1.82-2.88,2.78-4.28A6.49,6.49,0,0,1,85,21.11a1,1,0,0,0,.17-.18c-.16,0-.24.07-.32.13A6.8,6.8,0,0,0,83,23.11c-.57.94-1.25,1.79-1.8,2.74a16.41,16.41,0,0,1,1.46-3.19,9.78,9.78,0,0,1,2.23-2.35A14.76,14.76,0,0,1,88.38,18a2.4,2.4,0,0,0,.37-.22,28.27,28.27,0,0,1-3,2.8,11.71,11.71,0,0,0,2.85-2.11,6.73,6.73,0,0,1-.69,1.73c-.32.52-.81.89-1.1,1.43a7.19,7.19,0,0,0,2.24-2.87,3.42,3.42,0,0,1-.28,1.46A8.58,8.58,0,0,1,88,21.52a5,5,0,0,0,1.42-2,7.72,7.72,0,0,1-.53,2.74,7.19,7.19,0,0,1-1.64,2.19,5.19,5.19,0,0,0,1.06-.86,5.89,5.89,0,0,0,1.35-3,.8.8,0,0,1,.54-.67,12,12,0,0,1,2.63-1,1,1,0,0,0,.48-.2.48.48,0,0,0-.35,0,9.72,9.72,0,0,0-3.14,1c-.07,0-.14.1-.18,0s-.09-.23,0-.31a1,1,0,0,1,.24-.14,13.33,13.33,0,0,1,2.95-1,.2.2,0,0,0,.14-.08,1.39,1.39,0,0,0-.89,0,12.56,12.56,0,0,0-2.31.78c-.08,0-.18.16-.26,0s0-.22.16-.28a10.29,10.29,0,0,1,2.6-1,4.54,4.54,0,0,0,.68-.23,2.4,2.4,0,0,0-1,.05,10.31,10.31,0,0,0-2.17.68c-.09.05-.18.11-.25,0s.06-.17.13-.22a5,5,0,0,1,1.79-.65c.5-.15,1-.27,1.51-.41a.23.23,0,0,0,.16-.13,23.77,23.77,0,0,0-2.72.51,10.32,10.32,0,0,1,4.18-1.08v-.09H93.46A5.48,5.48,0,0,1,95.35,16c-.27-.22-.61-.18-.94-.3A5.34,5.34,0,0,1,96,15.8c.12,0,.31.12.35,0s-.15-.19-.26-.26a2.19,2.19,0,0,0-.38-.2.8.8,0,0,1,.5.07l1.11.4c.07,0,.17.11.22,0s-.06-.16-.12-.21a2.73,2.73,0,0,0-2.09-.76,3,3,0,0,1,1.79.18,5.8,5.8,0,0,1,1.57,1,.39.39,0,0,0-.11-.39,2.9,2.9,0,0,0-3.14-1.27,8.84,8.84,0,0,0-2.08.77c-.89.49-1.87.8-2.79,1.24a24.62,24.62,0,0,0-5.72,3.47,13.72,13.72,0,0,0-1.17,1.24A14.77,14.77,0,0,0,82,23.42a12.08,12.08,0,0,0-1.08,2.23c-.26.75-.54,1.49-.79,2.24-.1.3-.17.62-.25.92-.07-.82.32-2.17,1.38-4.95a13.12,13.12,0,0,1,2.84-4.23c-.09-.08-.14,0-.19,0a8.9,8.9,0,0,0-2.47,3.07c-.69,1.45-1.21,3-1.83,4.51a5.41,5.41,0,0,1,.25-1.71,31.38,31.38,0,0,1,1.82-4.16,11.57,11.57,0,0,1,3.64-3.79.55.55,0,0,0,.32-.32,10.76,10.76,0,0,0-3.83,3.34,13,13,0,0,0-2,4.71,11,11,0,0,1,4-7.71A6.79,6.79,0,0,0,81,20.38,19,19,0,0,0,79.4,24a5.59,5.59,0,0,1,.23-1.87,9.22,9.22,0,0,1,1.73-3.33,22.13,22.13,0,0,1,2.71-3.08,11.27,11.27,0,0,1,3.22-2,15.21,15.21,0,0,1,3.74-1,8.93,8.93,0,0,1,1-.08c1.26,0,2.53-.07,3.8-.07a13.68,13.68,0,0,1,3.92.48,3.42,3.42,0,0,1,2.51,2.59,1.55,1.55,0,0,1,0,.88c-.11-.21,0-.44,0-.66a1.36,1.36,0,0,0-.36-.6c0,.39.19.73-.08,1.06a3.13,3.13,0,0,0-.47-1.82.53.53,0,0,0,0,.37,5.27,5.27,0,0,1,.13,1.37c0,.16.11.18.19.24,1.52,1.28,3,2.57,3.68,4.59.1.32.2.65.28,1a12.49,12.49,0,0,0,1,2.52,2.09,2.09,0,0,1,.17.41c.11.32,0,.43-.34.47,0-.11.13-.15.18-.23s.2-.15.09-.26-.15.05-.21.1a1.11,1.11,0,0,1-.55.34c0-.21.25-.3.19-.57a13.44,13.44,0,0,1-1.06.92c.12-.37.4-.58.47-.92-.35.18-.55.53-.86.85a4.26,4.26,0,0,0-.44-1.83c0,.33.09.65.14,1a3.82,3.82,0,0,1-.45,2.35.47.47,0,0,1-.29.28s-.1,0-.11,0c-.22-.32-.36.11-.58.07a1.77,1.77,0,0,1,.34-.5c0-.07.12-.15,0-.22s-.15,0-.2.07-.12.12-.18.17-.09.16-.17.08a.15.15,0,0,1,0-.24c.15-.15.28-.3.42-.46s.09-.1.05-.19c-.28,0-.41.37-.75.38,1.17-.84,1.15-2,.89-3.22h-.09c0,.29,0,.58,0,.87a2.52,2.52,0,0,1-.25,1.43c-.13.27-.43.37-.67.51a.09.09,0,0,1-.1,0c0-.05,0-.1,0-.15a1.77,1.77,0,0,1,.44-.54A.48.48,0,0,0,103,25a4.88,4.88,0,0,1-1.09.62c.17-.19.32-.34.46-.51s.2-.16.12-.25-.19,0-.28.07a3.59,3.59,0,0,1-.62.33,2.42,2.42,0,0,1,.48-.48c.06-.06.17-.13.1-.23s-.15,0-.22.05l-.62.41a.47.47,0,0,1-.29.11c.09-.35.48-.45.62-.85-.5.26-.87.62-1.38.85.19-.33.53-.46.57-.84a4.59,4.59,0,0,1-1.45.88,9,9,0,0,0,.89-1,19.29,19.29,0,0,1-1.8,1.17,4.85,4.85,0,0,0,1-1.09c-.6.41-1.08,1-1.66,1.4a9.66,9.66,0,0,0,1-1.29c-.76.55-1.3,1.35-2.05,1.91a16.23,16.23,0,0,1,1.12-1.46.31.31,0,0,0-.27.13,18.7,18.7,0,0,0-1.7,2.07c0,.05-.11.11,0,.17s.11,0,.16-.05a6.81,6.81,0,0,1,2-1c.26-.08.4-.35.73-.4-.83.7-1.71,1.22-2.48,1.91.57-.08,1-.52,1.45-.75a.86.86,0,0,1-.75.83l-1.83.05c-.92,0-1.84,0-2.76.12a.88.88,0,0,1-.35,0c.14-.08.28-.18.43-.25.84-.41,1.68-.81,2.5-1.28.09,0,.24-.07.22-.27L94,26.67c-.66.32-1.33.63-2,1a2.72,2.72,0,0,1-1.7.37c1.23-.71,2.54-1.21,3.8-2a.41.41,0,0,0-.45,0c-1.2.53-2.42,1.06-3.57,1.7a1.82,1.82,0,0,1-.62.24c-.08,0-.2.06-.24,0s0-.21.08-.29a.53.53,0,0,1,.28-.16c2-.93,3.86-2,5.87-2.8a.37.37,0,0,0,.17-.14,31,31,0,0,0-6.15,2.66.56.56,0,0,1,.35-.64,44.7,44.7,0,0,1,4.23-2.07c.46-.19.9-.39,1.4-.61a.44.44,0,0,0-.38,0,28.8,28.8,0,0,0-5.14,2.22c-.06,0-.12.1-.17,0s0-.14,0-.21a1,1,0,0,1,.48-.48c1.22-.65,2.46-1.24,3.73-1.78a10.21,10.21,0,0,0,1.11-.53,23.53,23.53,0,0,0-4.82,1.92,1.12,1.12,0,0,1,.7-.89c1.24-.54,2.45-1.12,3.71-1.6,0,0,.09,0,.1-.16a20.22,20.22,0,0,0-4.24,1.64c0-.37.26-.71.1-1.09-.11,0-.11.09-.12.15a5.06,5.06,0,0,1-1.3,2.51,8,8,0,0,0-.73.92,2.78,2.78,0,0,0-.45,1.24c0,.3-.22.24-.38.23s-.11-.17-.1-.28a4.35,4.35,0,0,1,1.37-2.47,5.18,5.18,0,0,0,1.39-2.5c0-.09.09-.19,0-.3s-.12.16-.15.25a6.63,6.63,0,0,1-1.43,2.27,5.18,5.18,0,0,0-1.57,2.77l0,.11c0,.11-.13.17-.24.14s-.1-.16-.08-.25.14-.4.2-.59.09-.13,0-.25a2.16,2.16,0,0,0-.48.84,1.7,1.7,0,0,1-.09.24c-.05.1-.14.09-.22.06s0-.11,0-.17a10.62,10.62,0,0,1,1.49-2.7c.33-.4.73-.75,1.06-1.14A4.72,4.72,0,0,0,90,21.44c0-.17.08-.46-.09-.48s-.09.26-.11.4a4.83,4.83,0,0,1-1.63,3.13,8.32,8.32,0,0,0-1.88,2.69,3.59,3.59,0,0,1-.48.83c-.08.08-.15.26-.31.13s0-.23,0-.33a17.9,17.9,0,0,1,1.07-1.91l.09-.15s0-.08,0-.12-.09,0-.13,0a1.15,1.15,0,0,0-.41.41c-.36.49-.62,1.05-1,1.53a1.15,1.15,0,0,1-.14.17c-.08.07-.16,0-.22,0s0-.11,0-.17c.47-.71.84-1.49,1.32-2.19a2.18,2.18,0,0,0,.43-.62,1.84,1.84,0,0,0-.77.68c-.44.61-.8,1.27-1.28,1.85-.1.11-.18.28-.37.24s-.18-.05-.07-.17c.59-.64,1-1.45,1.49-2.14,0-.05.1-.11,0-.18s-.14,0-.19,0a3.61,3.61,0,0,0-.73.91,4.88,4.88,0,0,1-1.07,1.36.36.36,0,0,1-.44.08c.56-.7,1-1.46,1.55-2.16s1-1.43,1.59-2.08a2.75,2.75,0,0,0-.93.83c-1,1.24-2,2.53-3,3.72a5.45,5.45,0,0,0-1.12,1.49A5.86,5.86,0,0,0,80.76,31Zm23.59-3a2.37,2.37,0,0,0-1.35.34A1,1,0,0,1,104.35,28ZM102,30.43a2.34,2.34,0,0,1-2.43,1.06,2.14,2.14,0,0,1-1.58-1.86,4.21,4.21,0,0,1-.06-.79,3.62,3.62,0,0,1,1-2.55,1.82,1.82,0,0,1,3,.17A3.32,3.32,0,0,1,102,30.43ZM88.7,29.25c.28.39.32.39.71.12s.35-.24,1-.2a15.91,15.91,0,0,0-1.7,1.2C88.78,30,88.63,29.61,88.7,29.25Zm.19-.51-2.21,0-.46.05c-.11,0-.23,0-.22-.15s.12-.08.19-.08c.7,0,1.4-.12,2.14-.05,1.72-.07,3.47-.13,5.22-.14,1.11,0,2.22-.07,3.34-.1l.43-.05c.06,0,.14,0,.15.07s-.06.1-.13.11a7.23,7.23,0,0,1-1.39.1c-1.14,0-2.28.06-3.42.09S90.1,28.69,88.89,28.74Zm-.48-.91a2.81,2.81,0,0,1,.77-1.45l-.33.89a2.4,2.4,0,0,0-.15.6.2.2,0,0,1-.24.21C88.28,28.05,88.39,27.91,88.41,27.83Zm-6.52,5.38a4.43,4.43,0,0,1-.44-3.13A3.18,3.18,0,0,1,82,28.94a2,2,0,0,1,2.54-.67,4.6,4.6,0,0,1,1.38,1,.14.14,0,0,1,0,.2.3.3,0,0,0,0,.33.78.78,0,0,0,.2-.38c0-.11.06-.17.17-.17s.14,0,.18,0,0,.12-.05.17-.1.12,0,.18.11,0,.17,0,.15-.31.28-.12-.13.18-.2.27-.1.09-.14.14-.12.15-.05.23.14,0,.21-.07a1.84,1.84,0,0,1,.22-.17c.07,0,.15-.15.24,0s0,.19-.09.26-.29.32-.42.48-.15.15-.11.31a4.17,4.17,0,0,0,.69-.55c.11-.1.19-.15.32,0s.15.18,0,.3a3.39,3.39,0,0,0-.86.87c0,.06-.11.11-.06.21s.18-.11.25-.18c.24-.22.48-.44.71-.67s.29-.28.65,0a8.92,8.92,0,0,0-1.1,1A1,1,0,0,0,87,32c0,.07-.16.16-.09.24s.16,0,.22-.1c.36-.39.75-.73,1.13-1.07a15.29,15.29,0,0,1,2.52-1.81,1.84,1.84,0,0,1,1.11-.16c-.87.54-1.68,1.09-2.47,1.66a10.67,10.67,0,0,0-2.13,1.9.84.84,0,0,0-.23.5,1.15,1.15,0,0,0,.37-.31A23.92,23.92,0,0,1,91,29.92a13.63,13.63,0,0,1,1.46-.78.42.42,0,0,1,.16,0c1.07,0,2.15-.1,3.23-.06l.07,0c-.61.27-1.32.18-1.87.6a.84.84,0,0,0,.47,0c.83-.14,1.63-.4,2.45-.58.38-.09.41-.05.43.36,0,.06,0,.12,0,.17h0v0h0a3.67,3.67,0,0,0,.92,1.93l0,0c.28.27.28.27.07.57.25,0,.44-.36.7-.08-.09.15-.3.19-.36.42a.69.69,0,0,0,.44-.22.89.89,0,0,1,.61-.19,2.87,2.87,0,0,0,2.18-.87,3.53,3.53,0,0,0,.9-2,.94.94,0,0,1,1.34-.63,2.69,2.69,0,0,1,.74.8A38.7,38.7,0,0,1,106.9,33a1.72,1.72,0,0,1,.16.6,1,1,0,0,1-.61,1.06,2.17,2.17,0,0,1-1.16.28c.31-.15.6-.23.76-.51a10.52,10.52,0,0,1-1.16.39c0-.13.13-.12.2-.16l.35-.16s.14-.06.12-.14-.13-.05-.19,0l-.59.23c-.1,0-.19.1-.28,0,.17-.14.44-.14.58-.43a9,9,0,0,1-1.3.35c.11-.19.33-.21.44-.43-.42.09-.71.4-1.12.42.1-.17.32-.23.4-.47-.53.24-.9.7-1.51.77.11-.23.29-.29.43-.39L103,34c.05,0,.13-.07.08-.15s-.11,0-.15,0a5.37,5.37,0,0,0-.84.6.56.56,0,0,1-.45.15,5.6,5.6,0,0,1,.7-.94.89.89,0,0,0-.42.29c-.12.12-.19.3-.43.42.12-.5.49-.73.78-1.09a.65.65,0,0,0-.37.22l-.34.29a1.16,1.16,0,0,1,.55-.91c.29-.24.66-.22,1-.39a1.44,1.44,0,0,0-1.15.06,2.18,2.18,0,0,0-.57.44,9.65,9.65,0,0,1-1.49,1.37.43.43,0,0,0-.11.12c.3,0,.5-.26.78-.39l-.52.63-.2.2h0a18,18,0,0,1-2.12,2,3.72,3.72,0,0,0,.85-.54c-.28.57-.92.82-1.27,1.34l0,.06.7-.59.06,0a2.87,2.87,0,0,0-.29,2.45,1.29,1.29,0,0,0,.29.57c.07-.12,0-.2,0-.29a3.54,3.54,0,0,1,.27-2.61c.19-.37.54-.58.78-.91.5-.7,1.12-1.29,1.66-2,.14-.17.21-.14.28.05a1.12,1.12,0,0,0,.62.81,1,1,0,0,0,.85,0l.32-.11c-.08.13-.23.14-.26.3.4-.07.66-.51,1.12-.42a2.44,2.44,0,0,0-.9.61c.31-.05.5-.27.78-.25a2.16,2.16,0,0,0-.45.52c.34-.2.69-.1,1-.31l-.49.33s-.1.07-.08.13.11.05.17,0a3.78,3.78,0,0,1,.5-.22l-.47.27s-.13.06-.08.15.1,0,.15,0l.32-.14c-.33.46-.56.9-.24,1.43.15-.48.17-1,.66-1.31,0,0-.08.09,0,.15a.62.62,0,0,0,.5-.71c.11.13.07.26.08.38s0,.24,0,.37a5.9,5.9,0,0,1-.12,1.32.26.26,0,0,1-.32.26.33.33,0,0,0-.29.06.8.8,0,0,1-.9.09,3.05,3.05,0,0,0-1.72-.07,3.36,3.36,0,0,1-1.48,0c0-.16.23-.21.23-.43a3.88,3.88,0,0,1-.38.27c-.12.07-.22.19-.41.05s-.24.16-.43.17c.24-.27.56-.41.75-.7,0,0,0-.05-.06,0a5.14,5.14,0,0,0-1.81,1.57c0,.07-.16.17-.07.27s.19,0,.27-.08a2.69,2.69,0,0,1,2.17-.53,7.36,7.36,0,0,0,1.15,0,8.4,8.4,0,0,1,1.66.14c.28.05.56,0,.84,0s.38.12.3.45-.18.64-.27,1a.44.44,0,0,0,0,.37,3.22,3.22,0,0,0,.68-1.73.48.48,0,0,1,.06-.31,3.48,3.48,0,0,0,.42-2.32c0-.19-.11-.4,0-.56s.32-.09.49-.16.28-.19.37-.1,0,.29,0,.43c-.22,1-.61,1.88-.8,2.86a9.91,9.91,0,0,1-.78,2.3,1.77,1.77,0,0,0-.15.88,4.59,4.59,0,0,1,0,1.28,1.82,1.82,0,0,1-.92,1.22c.06-.32.35-.47.39-.8-.44.38-.69.94-1.35,1.08a2.65,2.65,0,0,0,.71-1c-.48.39-.83,1-1.58,1.09l.84-.88-.06-.06c-.51.29-.89.86-1.56.85a3.8,3.8,0,0,0,.82-.94c-.58.32-.93.94-1.63.88a5.45,5.45,0,0,0,.92-.81c-.57.17-1,.68-1.68.59l1-.77,0-.08-1.12.55a.5.5,0,0,1-.57,0,9.82,9.82,0,0,0,1.23-1c-.65.23-1.12.73-1.77.75.29-.36.71-.55,1-.95a4,4,0,0,0-1.07.58c-.2.15-.35.16-.52,0l1.29-1.07,0-.08c-.24.13-.48.26-.71.41a3.43,3.43,0,0,1-.79.45.35.35,0,0,1-.37-.07,6.24,6.24,0,0,1,.65-.5,2.48,2.48,0,0,0,.57-.55c-.06-.08-.1,0-.14,0-.39.26-.8.51-1.17.79-.2.14-.31,0-.4-.1s.09-.16.16-.21a7.08,7.08,0,0,0,1.1-1,.28.28,0,0,0-.29.08c-.35.23-.7.45-1,.69-.13.09-.22.11-.33,0s-.12-.19,0-.27A6.39,6.39,0,0,0,97.34,41a.73.73,0,0,0,0-.09c-.09-.06-.13,0-.17.05-.43.37-.92.65-1.38,1-.1.08-.19.11-.27,0s-.12-.23,0-.34c.37-.3.77-.55,1.11-.88a2.56,2.56,0,0,0,.36-.44,9.51,9.51,0,0,0-1.42,1c-.07.07-.12.26-.27.16s-.1-.43,0-.53l1.39-1.24s.13-.07.13-.19c-.16,0-.25.15-.36.23a11.17,11.17,0,0,0-1.21.94c-.13.12-.16.07-.21-.08a.41.41,0,0,1,.16-.49l1.2-1a.4.4,0,0,0,.14-.17,7,7,0,0,0-1.54,1.06c-.17-.37-.15-.52.15-.76s.85-.63,1.24-1a.34.34,0,0,0,.14-.25,12.24,12.24,0,0,0-1.67,1.27c0-.56.06-1.09.12-1.62,0-.07,0-.14,0-.19s-.11,0-.16.06l-.76.56a.53.53,0,0,0-.23.42,7.16,7.16,0,0,0,.92-.65,4.13,4.13,0,0,1-.28,1.9c.24-.08.23.06.25.22a5.61,5.61,0,0,0,.65,2.27.15.15,0,0,1-.07.25l-.65.35a.36.36,0,0,1-.46-.08,5.15,5.15,0,0,0,1-.79c-.13-.07-.21,0-.28.06-.27.18-.53.34-.8.49a.52.52,0,0,1-.63-.06,10.81,10.81,0,0,0,1.36-1.16c-.09-.08-.13,0-.17,0a15.71,15.71,0,0,1-1.33.85.43.43,0,0,1-.56,0,12.93,12.93,0,0,0,1.66-1.36c-.06-.08-.09,0-.13,0l-1.78,1.17-.12.07a.27.27,0,0,1-.32-.11c-.07-.1.08-.14.14-.19.52-.41,1-.81,1.52-1.25.08-.07.18-.11.19-.23s-.1,0-.15,0c-.63.44-1.3.83-1.9,1.34-.21.18-.39,0-.63,0a20,20,0,0,0,2.46-2c-.12-.06-.18,0-.24.06-.78.53-1.56,1.06-2.33,1.61a.38.38,0,0,1-.57,0c1-.71,1.91-1.47,2.84-2.28a.24.24,0,0,0-.28.06c-.89.62-1.79,1.25-2.67,1.89a.33.33,0,0,1-.51,0,38.31,38.31,0,0,0,3.07-2.59.53.53,0,0,0-.36.15c-1,.71-1.92,1.42-2.87,2.14-.14.11-.22.08-.31,0s0-.2.11-.25c.64-.49,1.29-1,1.89-1.51a11.11,11.11,0,0,0,1-1l0-.07-.63.45L89.38,40c-.08.06-.15.18-.27,0s0-.21.09-.29c.82-.71,1.64-1.42,2.42-2.17.09-.08.21-.15.23-.3s-.15,0-.2.06c-.91.71-1.84,1.37-2.68,2.16,0,0-.11.14-.18,0s-.15-.23,0-.35l.64-.58A22.9,22.9,0,0,0,91.11,37c.06-.06.15-.1.15-.21s-.12,0-.17.06a28.37,28.37,0,0,0-2.3,1.83c-.06.06-.12.21-.23.09a.22.22,0,0,1,0-.35c.33-.3.65-.58,1-.89a37.23,37.23,0,0,1,4.06-3l1.74-1.33c.08-.07.2-.1.2-.26a50.07,50.07,0,0,0-7.11,5.21.6.6,0,0,1,.15-.69,28.84,28.84,0,0,1,3.77-2.93c.83-.57,1.65-1.17,2.45-1.81a.21.21,0,0,0,.11-.21,43.16,43.16,0,0,0-6.62,4.83c-.19-.27-.05-.47.14-.63a19.6,19.6,0,0,1,2.21-1.86c1.21-.84,2.41-1.7,3.59-2.6.07-.06.16-.1.19-.2-.67.1-5.15,3.34-6.27,4.53-.18-.23-.12-.4.07-.6a22.77,22.77,0,0,1,3-2.46c.8-.58,1.59-1.18,2.38-1.77.06,0,.14-.09.16-.19s-.12,0-.17,0a47.47,47.47,0,0,0-3.94,2.71c-.52.43-1,.87-1.53,1.34-.06.06-.13.25-.24.1s-.19-.26,0-.44a25.54,25.54,0,0,1,2.47-2.07l2.79-2.06s.11-.06.13-.13c-.59,0-4.76,3.1-5.57,4.13a10.41,10.41,0,0,0-.5-1.08.36.36,0,0,0,0,.32,12,12,0,0,1,.41,2.31c0,.65-.26,1-.78,1.06a1.71,1.71,0,0,1-1.22-.31A11.91,11.91,0,0,1,81.89,33.21Zm3.8,9.3a5,5,0,0,1-.7-1.79,27.07,27.07,0,0,0,3.22,4.69,3.09,3.09,0,0,1-1.27-1C86.54,43.79,86.09,43.17,85.69,42.51ZM86.35,44A2.9,2.9,0,0,1,85,41.77,10,10,0,0,0,86.35,44Zm1.86.95a28.68,28.68,0,0,1-2.65-3.8A3.53,3.53,0,0,1,85.07,40a44.34,44.34,0,0,0,4.66,5.92,2.43,2.43,0,0,0-.45-.72c-1.09-1.4-2.23-2.76-3.21-4.25-.34-.51-.66-1-1-1.57a.64.64,0,0,1-.11-.46,56.32,56.32,0,0,0,3.86,4.88l.12-.1a44.81,44.81,0,0,1-4-5.62c1.34,1.41,2.44,3,3.8,4.43-1-1.45-2.12-2.81-3.13-4.26a10.46,10.46,0,0,1,2.27,2.33A30.82,30.82,0,0,0,91,44.15a16.21,16.21,0,0,0,1.52,1.47l.15.11.06,0L91.15,44c-.53-.58-1.07-1.14-1.6-1.72A21.78,21.78,0,0,1,88,40.45c-.46-.64-.94-1.26-1.47-1.88a.68.68,0,0,1,.49.26,24.25,24.25,0,0,1,1.63,1.87,19.36,19.36,0,0,0,2.51,2.76A23.11,23.11,0,0,0,92.94,45a.43.43,0,0,0,.34.13c-1.3-1.22-2.47-2.48-3.62-3.77a15.32,15.32,0,0,1,1.39,1.14c.46.42.93.84,1.4,1.23a5.74,5.74,0,0,0,1.49,1c-1-.92-2-1.93-3-2.86l.24.13c1.6,1.15,3.18,2.35,4.67,3.65.18.16.36.32.55.47s.24.24,0,.42-.58.57-.87.86a.67.67,0,0,0-.23.34,11.81,11.81,0,0,1,1.91-1.34,1,1,0,0,1-.22.31l-1.5,1.46a.36.36,0,0,1-.39.11,23.75,23.75,0,0,1-6-2.37A3.62,3.62,0,0,1,88.21,45Zm8.73.22c.17.16.35.31.51.47s.22.11.11.24-.21.07-.31,0l-.34-.33a13.52,13.52,0,0,0-2-1.7,1,1,0,0,1-.17-.14A5.59,5.59,0,0,1,96.94,45.19ZM95,42.89a2.47,2.47,0,0,0,.49-.36.36.36,0,0,1,.09-.08.42.42,0,0,1,.23.33c0,.23-.62.46-.81.32S94.88,43,95,42.89Zm3.29,2.85a3.31,3.31,0,0,1-1.11-.82,13.3,13.3,0,0,1-1-1l2.18,1.72Zm.36.48a8,8,0,0,1-2.38,2.55C97.08,47.92,97.93,47.12,98.67,46.22Zm-1.86-.38.1.11c.06.07.15.13,0,.23s-.16.11-.25,0c-1-1-2.14-1.74-3.15-2.68-.27-.25-.54-.5-.8-.76l0,0c.19.12.39.22.58.35A20.15,20.15,0,0,1,96.81,45.84Zm1.14.53A7.53,7.53,0,0,1,96.61,48a4.73,4.73,0,0,0-.46.44.33.33,0,0,1-.52,0C96.43,47.77,97.21,47.1,98,46.37ZM96.56,50a2.63,2.63,0,0,1,1-1.4,11.4,11.4,0,0,0,1.13-.84,2.52,2.52,0,0,0,1-1.83c0-.06,0-.15.07-.16a.31.31,0,0,1,.14.07.43.43,0,0,1,.14.36,2,2,0,0,1-.61,1.47,7.67,7.67,0,0,1-1.49,1.24,3.39,3.39,0,0,0-1.52,2.68,9.36,9.36,0,0,1-.17,1.06.58.58,0,0,1-.34.44C96.25,52,96.22,51,96.56,50Zm3.33-2A4.84,4.84,0,0,1,98,49.83,7.19,7.19,0,0,0,99.89,48Zm-2.23,3.54A6.84,6.84,0,0,0,100,49.39,4,4,0,0,1,97.66,51.55Zm2.06-1a3.94,3.94,0,0,1-2.1,1.8A7.7,7.7,0,0,0,99.72,50.51Zm-1.88.21a7.47,7.47,0,0,0,2.33-2.38A4.19,4.19,0,0,1,97.84,50.72ZM84.17,41.83s.08-.07.12,0a.12.12,0,0,1,0,.1,1,1,0,0,1,0,.17,1.36,1.36,0,0,0,.37,1.24A18.47,18.47,0,0,0,89,46.51a23.34,23.34,0,0,0,6.12,2.4,1.4,1.4,0,0,1,.72.38.35.35,0,0,1,.09.39c0,.13-.1.17-.22.12-2.14-.8-4.4-1.27-6.42-2.41a18.38,18.38,0,0,1-4.39-3.15,3.81,3.81,0,0,1-1-1.45.84.84,0,0,1,0-.31A.8.8,0,0,1,84.17,41.83Zm0,10.73c.56-.34,1.12-.67,1.71-1,.05,0,.11,0,.14,0s0,.07,0,.09l-1.7,1-.09,0s-.05,0-.05-.05S84.14,52.58,84.17,52.56Zm-.5-.47a6.72,6.72,0,0,1,1.62-.94A8.76,8.76,0,0,1,83.67,52.09ZM86.74,52a6,6,0,0,1-2.1,1.16A14.11,14.11,0,0,1,86.74,52Zm-1.5,1.71a14.86,14.86,0,0,1,2.22-1.28s.08,0,.17,0l-1.69,1-.61.37c-.06,0-.12,0-.15,0S85.21,53.77,85.24,53.74Zm3.39-.91-3,1.77A7.29,7.29,0,0,1,88.63,52.83ZM86.25,55a20,20,0,0,1,2.88-1.79.27.27,0,0,1,.31,0l-1,.63-2.1,1.29s-.12.13-.18,0S86.2,55.05,86.25,55Zm.52.59a15.88,15.88,0,0,1,1.85-1.21L90,53.63a.39.39,0,0,1,.39-.09.51.51,0,0,1-.28.23c-1.09.62-2.15,1.28-3.2,2l0,0c-.1,0-.2.2-.27.06S86.69,55.66,86.77,55.6Zm.45.69a37.72,37.72,0,0,1,3.85-2.43.33.33,0,0,1,.35,0c-.86.55-1.69,1.06-2.52,1.6l-1.59,1s-.13.16-.2.05S87.14,56.35,87.22,56.29Zm3.4-4.82c.77-.55,1.56-1.07,2.35-1.57A19.23,19.23,0,0,1,90.62,51.47Zm3.25-1.27,0,.06c-.78.57-1.61,1.07-2.45,1.57l0-.07ZM91.4,52.76l0-.07,3.45-2.23A39.13,39.13,0,0,1,91.4,52.76ZM95,51.21a19.6,19.6,0,0,1-2.61,1.72Zm-10.36-.53a7.59,7.59,0,0,1-1.54.87A4.9,4.9,0,0,1,84.68,50.68ZM80,48.93c-1.34.91-2.77,1.66-4.1,2.59A39.8,39.8,0,0,1,80,48.93Zm.42.53c-1.37.92-2.81,1.74-4.17,2.69A29.62,29.62,0,0,1,80.4,49.46Zm.49.52c-1.4.94-2.86,1.78-4.26,2.72A33.79,33.79,0,0,1,80.89,50Zm.41.56c-1.39,1-2.84,1.81-4.23,2.77A27.24,27.24,0,0,1,81.3,50.54Zm-3.79,3.33c-.07-.11.08-.14.15-.19,1.07-.82,2.22-1.51,3.36-2.22a3.57,3.57,0,0,1,.83-.46,1.12,1.12,0,0,1-.44.37c-1.24.79-2.5,1.56-3.68,2.45C77.67,53.87,77.58,54,77.51,53.87Zm.39.62c-.06-.09.06-.12.11-.16,1.33-1,2.76-1.86,4.17-2.75l.15,0a.3.3,0,0,1-.18.21c-1.33.93-2.73,1.76-4,2.71C78.05,54.49,78,54.59,77.9,54.49Zm.63.63a.12.12,0,0,1-.19,0c-.08-.1,0-.12.08-.16,1-.69,1.91-1.38,2.93-2,.42-.25.83-.53,1.25-.8.07,0,.14-.13.27-.07a1.24,1.24,0,0,1-.38.31l-3.62,2.48Zm.45.64a.11.11,0,0,1-.12-.08c0-.08,0-.12.08-.16l.71-.53c1.14-.85,2.36-1.56,3.52-2.36.07,0,.15-.14.22,0s0,.16-.12.2c-.92.62-1.85,1.22-2.76,1.85-.47.31-.91.67-1.36,1Zm.39.51c-.11-.14,0-.17.11-.22a50.47,50.47,0,0,1,4.28-2.85.31.31,0,0,1,.12-.05,5.65,5.65,0,0,1-1.21,1c-1,.68-2.06,1.36-3,2.1C79.54,56.29,79.46,56.4,79.37,56.27Zm.85.51-.17.12a.21.21,0,0,1-.19-.12c0-.11.06-.12.12-.16,1-.69,1.92-1.37,2.94-2,.4-.24.78-.52,1.17-.79l.21-.13a.1.1,0,0,1,.12,0c0,.06,0,.09-.06.11l-.55.38C82.6,55.07,81.4,55.9,80.22,56.78Zm.46.66c-.11.08-.2,0-.26-.07s0-.13.11-.18c1.13-.92,2.4-1.63,3.59-2.47l.58-.42c.06,0,.12-.08.16,0s-.11.15-.19.2c-.89.62-1.75,1.3-2.66,1.89a13.8,13.8,0,0,0-1.23.94Zm.31.41c-.09-.14.08-.17.15-.21,1.31-.91,2.63-1.8,4-2.7a.4.4,0,0,1,.17-.09.13.13,0,0,1,.16.12l-.17.14-3.06,2.13c-.3.21-.59.42-.87.64A.2.2,0,0,1,81,57.85Zm.61.51c-.1-.13.06-.15.12-.19,1.27-.87,2.56-1.73,3.84-2.6a.54.54,0,0,1,.16-.1c.07,0,.1,0,.12.07a.48.48,0,0,1-.2.2l-3.27,2.32a5.2,5.2,0,0,0-.47.35A.19.19,0,0,1,81.6,58.36Zm.81.62a.21.21,0,0,1-.18-.13c-.06-.12.06-.13.12-.17l3.11-2.12.59-.41c.07,0,.15-.17.23-.07s-.06.15-.12.21c-.7.6-1.47,1.08-2.21,1.62-.45.33-.91.64-1.36,1Zm.39.25a42.78,42.78,0,0,0,3.79-2.5,1.7,1.7,0,0,0,.14-.1c.07-.05.14-.06.19,0s0,.13-.08.17l-1,.75c-.84.61-1.69,1.2-2.52,1.81C83.07,59.55,83,59.39,82.8,59.23Zm.72.54c2.93-1.93,5.7-4.07,8.76-5.74,0,0,.09,0,.14.06l-.87.56c-1.83,1.15-3.64,2.35-5.39,3.63-.73.54-1.51,1-2.22,1.56C83.77,60,83.66,59.89,83.52,59.77Zm.71.44c1.53-1,3-2,4.54-3.05a49.35,49.35,0,0,1,4.62-2.88,24.33,24.33,0,0,1-2.26,1.54c-2,1.31-3.94,2.65-5.86,4-.19.14-.39.25-.57.39S84.4,60.4,84.23,60.21Zm.91.6s-.13,0-.13-.12.07-.08.12-.11c1.67-1.15,3.33-2.31,5-3.44,1.24-.84,2.48-1.67,3.77-2.41,0,0,.1-.1.21,0a1.73,1.73,0,0,1-.51.4c-1.76,1.1-3.46,2.29-5.15,3.49-1,.72-2,1.44-3.07,2.18C85.31,60.83,85.24,60.87,85.14,60.81Zm1,.42a.22.22,0,0,1-.29-.11c-.06-.1.07-.13.13-.17,1-.67,2-1.3,3-2q1.9-1.38,3.87-2.67l1.27-.79s.14-.13.17,0-.14.18-.23.24c-1.25.77-2.47,1.6-3.68,2.45s-2.66,1.93-4,2.89A1.21,1.21,0,0,1,86.13,61.23Zm.85.37a.22.22,0,0,1-.32-.05c-.07-.12.08-.15.14-.2.85-.6,1.73-1.17,2.57-1.78,1.12-.82,2.27-1.6,3.42-2.39.45-.31.91-.59,1.37-.88,0,0,.09-.08.15-.06s0,0,0,.07-.14.17-.23.23c-1.22.84-2.46,1.64-3.65,2.51s-2.27,1.58-3.35,2.45Zm.74.36a.19.19,0,0,1-.24-.08c-.07-.09,0-.12.1-.16s.32-.24.49-.35c2-1.26,3.87-2.81,5.9-4.06l.33-.21c.07,0,.12,0,.13.08s-.1.14-.17.19l-2.19,1.46a20.42,20.42,0,0,0-1.87,1.33c-.72.64-1.56,1.1-2.32,1.69A.57.57,0,0,1,87.72,62Zm.55.22c.31-.21.59-.39.87-.59,1.68-1.19,3.33-2.42,5.07-3.51.1-.07.23-.26.33-.11s-.13.22-.24.29c-1.24.83-2.49,1.65-3.68,2.56-.61.46-1.21.93-1.85,1.35A.38.38,0,0,1,88.27,62.18Zm1.16.42c-.07,0-.17,0-.19-.09s.06-.11.11-.14c1.73-1.16,3.37-2.46,5.13-3.58.06,0,.15-.18.22-.09s0,.2-.13.26c-1.08.76-2.16,1.52-3.25,2.27-.58.39-1.08.9-1.68,1.26C89.57,62.53,89.52,62.61,89.43,62.6Zm.72.17c1.48-1.13,3-2.14,4.49-3.2.07,0,.16-.17.23-.07s0,.21-.13.29l-3,2.1a14.3,14.3,0,0,0-1.2.89C90.39,62.89,90.28,62.86,90.15,62.77Zm1,.21c1.31-.92,2.6-1.82,3.89-2.74a.21.21,0,0,1-.09.3L91.5,63C91.38,63.08,91.27,63.06,91.12,63Zm1.42.19a.31.31,0,0,1-.38,0l.36-.27c.8-.58,1.61-1.15,2.42-1.72,0,0,.12-.15.2,0s0,.16-.1.21l-1.87,1.33Zm2.66-1L94.12,63c-.16.12-.34.22-.5.35a.3.3,0,0,1-.41,0L95.11,62s.12-.1.18,0S95.27,62.17,95.2,62.22Zm2.85.64a.62.62,0,0,1-.54-.63.53.53,0,0,1,.46-.59.67.67,0,0,1,.64.64A.6.6,0,0,1,98.05,62.86Zm.51-2.2c-.65.41-1.29.81-1.91,1.27a.44.44,0,0,0-.14.54c.14.25.28,0,.44,0a.22.22,0,0,1-.12.31.4.4,0,0,0-.24.49c0,.08.1.2,0,.22s-.17-.09-.18-.19c-.1-.71-.19-1.41-.28-2.11-.16-1.24-.36-2.47-.57-3.7-.16-.89-.27-1.79-.36-2.7a.78.78,0,0,1,.58-.9l.81-.24,0,0-.85.43a.54.54,0,0,0-.31.47c0,.25.07.33.28.21A25.12,25.12,0,0,0,98,53.55c1.47-.94,3-1.84,4.46-2.72a1.08,1.08,0,0,1,.29-.13,5.23,5.23,0,0,1-.87.61l-4.07,2.47c-.63.37-1.28.72-1.92,1.08-.24.14-.48.3-.42.66,0,.19.08.31.29.2.06,0,.15-.09.19,0s0,.14-.1.17a.43.43,0,0,0-.25.56c0,.1.07.18.2.11s.12-.13.18,0a.14.14,0,0,1-.07.21c-.28.13-.21.36-.16.58s.11.19.24.11l.33-.2c.07,0,.14-.07.19,0s0,.11-.09.14l-.35.23a.51.51,0,0,0-.16.66c.08.16.15,0,.21,0,1.11-.71,2.23-1.42,3.33-2.14,1.61-1,3.3-2,4.93-3,.47-.28.93-.59,1.45-.92a.34.34,0,0,1-.18.26A35.18,35.18,0,0,1,102,54.82c-1.86,1.08-3.66,2.25-5.46,3.42l-.16.1c-.52.34-.52.34-.42.95s.17,1,.25,1.51c0,.17.07.18.2.08,2.23-1.51,4.49-3,6.81-4.28a45.09,45.09,0,0,0,4.9-3.06l.17-.11c0,.16-.1.2-.17.26a38.68,38.68,0,0,1-4.63,3c-2.4,1.38-4.74,2.85-7,4.37a.52.52,0,0,0-.1.63c.08.09.14,0,.19,0a14.66,14.66,0,0,0,1.35-.86c2.26-1.47,4.57-2.85,6.9-4.19a35,35,0,0,0,4.24-2.81l.1,0a4.85,4.85,0,0,1-.74.65,32.14,32.14,0,0,1-4.85,3.18C101.87,58.6,100.22,59.63,98.56,60.66Zm.16.72c-.08-.15.19-.22.31-.3,2.22-1.52,4.56-2.82,6.88-4.16a39.3,39.3,0,0,0,4-2.75.17.17,0,0,1,.19-.06c-.61.56-1.23,1-1.85,1.52a33.39,33.39,0,0,1-4.07,2.6c-1.68,1-3.37,1.92-5,3C99,61.32,98.82,61.53,98.72,61.38Zm.12,1.73.4-.29c2-1.38,4.16-2.62,6.32-3.79A34,34,0,0,0,110,56c.5-.39,1-.76,1.54-1.12a4.79,4.79,0,0,1-.87.75,40.36,40.36,0,0,1-4,3L101,61.9A17.18,17.18,0,0,0,99.26,63,.4.4,0,0,1,98.84,63.11Zm11.66-6.36a24.59,24.59,0,0,1-3.67,2.78c-1.06.6-2.13,1.2-3.2,1.78-.42.23-.83.49-1.23.74a6.57,6.57,0,0,1-1.8.75c1.38-.83,2.73-1.61,4.09-2.35A26.7,26.7,0,0,0,109,57.77c.94-.75,1.9-1.49,2.86-2.23A9.73,9.73,0,0,1,110.5,56.75Z" transform="translate(-73.91 -4.28)"/><path class="cls-3" d="M96.61,25.63a5.41,5.41,0,0,0-1.37,1.7A8.66,8.66,0,0,0,96.61,25.63Z" transform="translate(-73.91 -4.28)"/><path class="cls-3" d="M90.79,13c0-.11-.15-.05-.22,0a6.06,6.06,0,0,0-2,.84c-.41.28-.82.56-1.25.82a16.21,16.21,0,0,0-2.55,2,.82.82,0,0,0-.29.39c.12,0,.18-.05.25-.1l.77-.6a18.87,18.87,0,0,1,5.16-3.15C90.7,13.11,90.83,13.11,90.79,13Z" transform="translate(-73.91 -4.28)"/><path class="cls-3" d="M101.82,22.57a8.39,8.39,0,0,0-3.31.08,3.71,3.71,0,0,0-1.49.67c.09.07.14,0,.2,0a6.84,6.84,0,0,1,3.53-.66c.35,0,.71,0,1.06.06.07,0,.18,0,.18-.07S101.88,22.58,101.82,22.57Z" transform="translate(-73.91 -4.28)"/><path class="cls-3" d="M91,23.07a.41.41,0,0,0-.11.07c-.06.06-.14.13-.1.22s.14.06.21,0a2.35,2.35,0,0,0,.44-.17c.71-.33,1.41-.66,2.14-.94l.8-.35-.13-.05A19.72,19.72,0,0,0,91,23.07Z" transform="translate(-73.91 -4.28)"/><path class="cls-3" d="M86.21,17.25s-.07.05,0,.1a.54.54,0,0,0,.35-.09,22.2,22.2,0,0,0,3.88-2.21,10.06,10.06,0,0,1,3-1.52c.58-.17,1.18-.32,1.77-.48a.45.45,0,0,0,.34-.22l-.94.18a9.85,9.85,0,0,0-3.9,1.47C89.21,15.47,87.73,16.4,86.21,17.25Z" transform="translate(-73.91 -4.28)"/><path class="cls-3" d="M98.08,62a.26.26,0,0,0-.28.31c0,.18.07.36.27.36s.29-.16.31-.38A.31.31,0,0,0,98.08,62Z" transform="translate(-73.91 -4.28)"/><path class="cls-3" d="M99.17,13.43A3.56,3.56,0,0,1,101,15.91c0,.08,0,.19.14.18s.11-.12.11-.2a2.06,2.06,0,0,0-.26-1.14,4,4,0,0,0-1.77-1.5.21.21,0,0,0-.25,0C99,13.35,99.09,13.38,99.17,13.43Z" transform="translate(-73.91 -4.28)"/><path class="cls-3" d="M96.75,56.24c0,.16,0,.36.22.35s.32-.19.34-.39a.3.3,0,0,0-.32-.32C96.77,55.87,96.75,56.05,96.75,56.24Z" transform="translate(-73.91 -4.28)"/><path class="cls-3" d="M87.78,13.81c.09-.06.2-.11.2-.27a11.06,11.06,0,0,0-4.75,3.76l0,.06a.11.11,0,0,0,.08,0,1.8,1.8,0,0,0,.2-.19,13.22,13.22,0,0,1,2.76-2.36A9.64,9.64,0,0,0,87.78,13.81Z" transform="translate(-73.91 -4.28)"/><path class="cls-3" d="M86.7,16.18c-.06.05-.15.08-.15.2a.45.45,0,0,0,.3-.1,11.66,11.66,0,0,0,1.82-1.16,11.18,11.18,0,0,1,4-2.1c.06,0,.15,0,.17-.11l0,0h-.13a8.14,8.14,0,0,0-3.75,1.59C88.18,15,87.44,15.61,86.7,16.18Z" transform="translate(-73.91 -4.28)"/><path class="cls-3" d="M90.74,21.57c-.15.07-.42.15-.34.32s.32,0,.47,0a23.36,23.36,0,0,1,2.2-.93l.73-.24a.18.18,0,0,0-.23,0A10.93,10.93,0,0,0,90.74,21.57Z" transform="translate(-73.91 -4.28)"/><path class="cls-3" d="M98.58,34.82c-1,.84-2.2,1.48-3.29,2.37A10.53,10.53,0,0,0,98.58,34.82Z" transform="translate(-73.91 -4.28)"/><path class="cls-3" d="M93.81,37.62A29.71,29.71,0,0,0,98,34.53,22.89,22.89,0,0,0,93.81,37.62Z" transform="translate(-73.91 -4.28)"/><path class="cls-3" d="M97.39,30.63s.08-.06.06-.11-.06-.05-.11-.05-.14-.06-.21,0l-1.32.76,0,.1A14.86,14.86,0,0,0,97.39,30.63Z" transform="translate(-73.91 -4.28)"/><path class="cls-3" d="M97.31,34.17a34.53,34.53,0,0,0-4.53,3.33A23.11,23.11,0,0,0,97.31,34.17Z" transform="translate(-73.91 -4.28)"/><path class="cls-3" d="M96,33.41a36.77,36.77,0,0,0-4.46,3.17A19.34,19.34,0,0,0,96,33.41Z" transform="translate(-73.91 -4.28)"/><path class="cls-3" d="M92.22,37a23.54,23.54,0,0,0,4.43-3.2A37.45,37.45,0,0,0,92.22,37Z" transform="translate(-73.91 -4.28)"/><path class="cls-3" d="M83.44,33.9a7.35,7.35,0,0,1-.55-1.66,4.22,4.22,0,0,1-.18-1.73.33.33,0,0,1,.14-.26,4.07,4.07,0,0,1,1-.43.45.45,0,0,1,.48.14l-.71.41c-.44.29-.51.37-.54.57a2.81,2.81,0,0,1,1.58-.52c-.5.47-1.13.66-1.51,1.18a.73.73,0,0,0,.43-.18,3.13,3.13,0,0,1,1-.52c.14,0,.35-.2.42,0s-.18.24-.31.32a1.54,1.54,0,0,0-.93,1.38,1.72,1.72,0,0,0,1.32,2,2.84,2.84,0,0,1,1,.33c.19.14.36,0,.47-.16s.12-.51-.15-.82-.69-.72-.58-1.3c0-.18.06-.36.09-.54a3,3,0,0,1,.34-1c-.27.06-.33.28-.51.37a5.82,5.82,0,0,0-.41-1.24,1.83,1.83,0,0,0-1.42-1.26A1.56,1.56,0,0,0,82,30.25a5.56,5.56,0,0,0,.48,3c0,.08.06.2.22.21A5.47,5.47,0,0,1,82.3,31,13.65,13.65,0,0,0,83,33.48a4.08,4.08,0,0,0,1.18,1.81c.08.07.16.18.32.13a1,1,0,0,0-.16-.18A3.75,3.75,0,0,1,83.44,33.9Z" transform="translate(-73.91 -4.28)"/><path class="cls-3" d="M102.3,40a2.92,2.92,0,0,1-.55.51c-.19.18-.46.23-.67.47.09,0,.12,0,.14,0,.4-.33.94-.42,1.31-.81,0-.06.13-.15.2-.06s0,.15-.08.2a2.54,2.54,0,0,1-.5.36,1,1,0,0,0-.44.45,10.4,10.4,0,0,0,1.44-.93c-.15.38-.49.54-.76.78a.81.81,0,0,0,.7-.26c.26-.31.49-.64.94-.64h0c.07,0,.12-.08.1-.15s-.08-.08-.15-.08a11.47,11.47,0,0,1-1.66-.07c-.32,0-.65,0-1,0,0,.08,0,.1.05.12s.28,0,.29.14-.18.18-.28.25-.4.11-.6.3a1.43,1.43,0,0,0,1.08-.45C102,40,102.11,39.9,102.3,40Z" transform="translate(-73.91 -4.28)"/><path class="cls-3" d="M85,35.1c0-.07-.08-.07-.13,0a.35.35,0,0,0,0,.3,1.34,1.34,0,0,0,1,.79C85.44,35.82,85.05,35.58,85,35.1Z" transform="translate(-73.91 -4.28)"/><path class="cls-3" d="M96.09,46.75l.08-.11A23,23,0,0,0,94.24,45,11.64,11.64,0,0,0,96.09,46.75Z" transform="translate(-73.91 -4.28)"/><path class="cls-3" d="M91.91,30c-.54.35-1.08.7-1.61,1.07a13.62,13.62,0,0,0-2.56,2.12,1,1,0,0,0-.36.66,43.21,43.21,0,0,1,4.85-3.91A.35.35,0,0,0,91.91,30Z" transform="translate(-73.91 -4.28)"/><path class="cls-3" d="M94.6,30.43a11.47,11.47,0,0,0,2.18-.89c.08,0,.2-.06.22-.19l0,0-2.43.93c-.07,0-.19.06-.14.16S94.53,30.46,94.6,30.43Z" transform="translate(-73.91 -4.28)"/><path class="cls-3" d="M87.94,33.93a1.07,1.07,0,0,0-.37.63,62.65,62.65,0,0,1,5.33-4.15.56.56,0,0,0-.38.14,29,29,0,0,0-2.8,1.87A14.21,14.21,0,0,0,87.94,33.93Z" transform="translate(-73.91 -4.28)"/><path class="cls-3" d="M99.37,30.8a3.7,3.7,0,0,0,1.71-1.6C100.55,29.75,99.94,30.2,99.37,30.8Z" transform="translate(-73.91 -4.28)"/><path class="cls-3" d="M90.83,22.4a.16.16,0,0,0,0,.16c0,.06.09.05.15,0a1.16,1.16,0,0,0,.43-.15,16.05,16.05,0,0,1,2.09-.9l.82-.28a.26.26,0,0,0-.22-.06,15.19,15.19,0,0,0-3,1A1.12,1.12,0,0,0,90.83,22.4Z" transform="translate(-73.91 -4.28)"/><path class="cls-3" d="M86,24.39a8.43,8.43,0,0,0,2.64-2.71,3.78,3.78,0,0,0-.39.41,15.57,15.57,0,0,1-1.83,1.71A1.05,1.05,0,0,0,86,24.39Z" transform="translate(-73.91 -4.28)"/><path class="cls-3" d="M100.75,29.09c0-.07.09-.16,0-.21s-.12,0-.16.1a4,4,0,0,1-.92.86.88.88,0,0,0-.41.42,5.24,5.24,0,0,0,1-.6A1.89,1.89,0,0,0,100.75,29.09Z" transform="translate(-73.91 -4.28)"/><path class="cls-3" d="M90.15,20.6c.74-.31,1.46-.68,2.23-.92l1.09-.35a.53.53,0,0,0-.36,0,12.39,12.39,0,0,0-2.3.68,3.21,3.21,0,0,0-.77.37c-.1.07-.26.16-.18.3S90.06,20.63,90.15,20.6Z" transform="translate(-73.91 -4.28)"/><path class="cls-3" d="M99.28,26.31a3.31,3.31,0,0,0-.72,4.21,1.36,1.36,0,0,0,.71.63.22.22,0,0,0,.28,0,1.64,1.64,0,0,1-1-1.06,4.53,4.53,0,0,1-.27-1.49c.23.12.28.12.28,0s-.13-.17,0-.2.14.11.18.18.09.17.15.25a.49.49,0,0,0,.85.07,1.26,1.26,0,0,0,.32-.64c0-.11.07-.17.16-.07s.4.2.52.43a.26.26,0,0,0,.28.14c0-.15-.22-.24-.06-.4a4.1,4.1,0,0,1,.65-.6s.06-.05.09,0a.17.17,0,0,1,0,.1c0,.11-.07.15-.13.2l-.47.39a.12.12,0,0,0-.06.15c.05.08.12,0,.17,0a2,2,0,0,1,.57-.34c-.1.3-.32.4-.49.56s-.18.09-.1.19.15,0,.22,0,.22-.22.39-.24a2.72,2.72,0,0,1-1,2.18.13.13,0,0,0,.19,0,2.07,2.07,0,0,0,.73-.71,3.13,3.13,0,0,0-.08-3.4A1.6,1.6,0,0,0,99.28,26.31Zm1.54.68c-.06.08-.11,0-.17,0a1.62,1.62,0,0,0-.75-.24.29.29,0,0,0-.27.06c.21.07.4.12.59.2a.71.71,0,0,1,.43.45c-1.14-.42-1.32-.37-1.77.47-.28-.35-.27-.34,0-.68a2.36,2.36,0,0,1,.94-.81,1.35,1.35,0,0,1,1,.39A.15.15,0,0,1,100.82,27Z" transform="translate(-73.91 -4.28)"/><path class="cls-3" d="M90.19,21.11c-.06,0-.13.1-.09.18s.12.06.19,0l.21-.08a21.13,21.13,0,0,1,3-1.16s.06,0,.11-.08l-.08,0a9.54,9.54,0,0,0-3.11,1A1.53,1.53,0,0,0,90.19,21.11Z" transform="translate(-73.91 -4.28)"/><path class="cls-3" d="M96.92,29.85a8.22,8.22,0,0,1-1.72.94A.25.25,0,0,0,95,31c.1.05.17,0,.25,0a10.88,10.88,0,0,0,2.12-1.15s0-.08.07-.12h0v0h0A1.5,1.5,0,0,0,96.92,29.85Z" transform="translate(-73.91 -4.28)"/><path class="cls-3" d="M94.88,47.59a6.2,6.2,0,0,0-1.39-1.41A5.48,5.48,0,0,0,94.88,47.59Z" transform="translate(-73.91 -4.28)"/><path class="cls-3" d="M103.79,40.33a5.2,5.2,0,0,0-.53.51.79.79,0,0,1-.64.29,2.26,2.26,0,0,0-1.3.46,10.72,10.72,0,0,1,2.59-.16c-.17-.2-.42-.19-.63-.3A2.55,2.55,0,0,0,103.79,40.33Z" transform="translate(-73.91 -4.28)"/><path class="cls-3" d="M99.83,34.72A7,7,0,0,0,98,36.06s-.09.07-.13.11c-.79.57-1.56,1.18-2.37,1.73-.14.09-.31.18-.35.4a.36.36,0,0,0,.27-.12c.73-.5,1.39-1.11,2.15-1.57a4.17,4.17,0,0,0,.78-.62,8.76,8.76,0,0,1,1.49-1.09h0l.2-.2C99.94,34.62,99.88,34.68,99.83,34.72Z" transform="translate(-73.91 -4.28)"/><path class="cls-3" d="M92.29,46.43A19.78,19.78,0,0,0,89,42.91,27.66,27.66,0,0,0,92.29,46.43Z" transform="translate(-73.91 -4.28)"/><path class="cls-3" d="M91.74,47a18.36,18.36,0,0,0-2.48-2.73A18.36,18.36,0,0,0,91.74,47Z" transform="translate(-73.91 -4.28)"/></g><path class="cls-3" d="M93.59,63.2A18,18,0,0,1,75.77,45.13V14.71a.42.42,0,0,1,.42-.42h1.44L94,6.4l.06,0,15.45,7.88H111a.42.42,0,0,1,.3.12.41.41,0,0,1,.12.3V45.13A18,18,0,0,1,93.59,63.2ZM94,6.7,77.7,14.56H76.19a.15.15,0,0,0-.15.15V45.13a17.55,17.55,0,1,0,35.1,0V14.72a.17.17,0,0,0-.16-.16h0l-1.57,0,0,0Z" transform="translate(-73.91 -4.28)"/><path class="cls-1" d="M106.69,51.49a7.44,7.44,0,0,0,3.17-1.44,8,8,0,0,0,2.89-5.29,7.93,7.93,0,0,0-3.18,1.54A8.35,8.35,0,0,0,106.69,51.49Z" transform="translate(-73.91 -4.28)"/><path class="cls-3" d="M117.76,36.36V26.08a.66.66,0,0,0-.11-.42.87.87,0,0,0-.41-.23v-.29h6.18a7.54,7.54,0,0,1,3.12.51,4.68,4.68,0,0,1,2.31,2.44,7.57,7.57,0,0,1,.59,3.13A6.19,6.19,0,0,1,127.68,36,4.23,4.23,0,0,1,126,37a8.93,8.93,0,0,1-2.53.29h-6.18V37a.87.87,0,0,0,.41-.23A.66.66,0,0,0,117.76,36.36Zm2.42-1.07h3a4.39,4.39,0,0,0,2.19-.43c1-.63,1.57-1.84,1.57-3.64a4.66,4.66,0,0,0-.85-3,2.6,2.6,0,0,0-1.14-.83,5.31,5.31,0,0,0-1.77-.24h-3Z" transform="translate(-73.91 -4.28)"/><path class="cls-3" d="M133.68,32.93v2.7H140a.45.45,0,0,0,.33-.1.75.75,0,0,0,.19-.36h.23v2.55h-.23a.75.75,0,0,0-.19-.36.45.45,0,0,0-.33-.1h-9V37a.75.75,0,0,0,.36-.19.49.49,0,0,0,.1-.34V28.16a.49.49,0,0,0-.1-.34.75.75,0,0,0-.36-.19V27.4h8.78a.48.48,0,0,0,.33-.1.75.75,0,0,0,.19-.36h.23v2.55h-.23a.75.75,0,0,0-.19-.36.48.48,0,0,0-.33-.1h-6.17v2.34h4a.45.45,0,0,0,.33-.11.67.67,0,0,0,.19-.36h.23v2.49h-.23A.76.76,0,0,0,138,33a.45.45,0,0,0-.33-.11Z" transform="translate(-73.91 -4.28)"/><path class="cls-3" d="M150.6,33h-5.68v3.56a.48.48,0,0,0,.1.33.75.75,0,0,0,.36.19v.23H142.3V37a.67.67,0,0,0,.36-.19.49.49,0,0,0,.11-.33V28.15a.49.49,0,0,0-.11-.33.67.67,0,0,0-.36-.19V27.4h3.08v.23a.75.75,0,0,0-.36.19.48.48,0,0,0-.1.33v3.18h5.68V28.15a.48.48,0,0,0-.1-.33.75.75,0,0,0-.36-.19V27.4h3.07v.23a.75.75,0,0,0-.36.19.54.54,0,0,0-.1.33v8.36a.54.54,0,0,0,.1.33.75.75,0,0,0,.36.19v.23h-3.07V37a.75.75,0,0,0,.36-.19.48.48,0,0,0,.1-.33Z" transform="translate(-73.91 -4.28)"/><path class="cls-3" d="M160.41,27.23a5.79,5.79,0,0,1,4.09,1.39,5.11,5.11,0,0,1,.83,6.41,5.33,5.33,0,0,1-4.9,2.4A5.74,5.74,0,0,1,156.36,36a4.86,4.86,0,0,1-1.23-1.79,5.19,5.19,0,0,1,.39-4.63C156.49,28.05,158.12,27.26,160.41,27.23Zm0,1.67a3.38,3.38,0,0,0-2.35.84,3.58,3.58,0,0,0,0,5.18,3.74,3.74,0,0,0,4.72,0,3.31,3.31,0,0,0,.85-1.22,3.39,3.39,0,0,0,.26-1.33,3.3,3.3,0,0,0-1.11-2.63A3.53,3.53,0,0,0,160.42,28.9Z" transform="translate(-73.91 -4.28)"/><path class="cls-3" d="M170.29,29.67v6.74a.57.57,0,0,0,.11.38.78.78,0,0,0,.41.21v.26h-3.26V37a.78.78,0,0,0,.41-.21.57.57,0,0,0,.11-.38V27a.61.61,0,0,0-.11-.38,1,1,0,0,0-.41-.21v-.26h3.77v.26c-.23.06-.35.19-.35.38a.68.68,0,0,0,.23.43l6.11,6.35V27a.61.61,0,0,0-.11-.38,1,1,0,0,0-.41-.21v-.26H180v.26a.92.92,0,0,0-.4.21.56.56,0,0,0-.11.38v9.38a.52.52,0,0,0,.11.38.75.75,0,0,0,.4.21v.26h-3.49V37c.23,0,.35-.16.35-.35s-.14-.29-.4-.56Z" transform="translate(-73.91 -4.28)"/><path class="cls-3" d="M150.18,46.3v0a.08.08,0,0,0-.08,0l-.19.25a0,0,0,0,0,0,0s0,0,0,0h0v0h-.26v0h.05l0,0,.11-.24a0,0,0,0,0,0,0s0,0,0,0v0Z" transform="translate(-73.91 -4.28)"/><path class="cls-2" d="M169.41,44.13a1,1,0,0,1,0-.24l-8.9.1q-4.16,0-8.31,0c-2.24,0-4.47,0-6.71,0a65.66,65.66,0,0,0-6.58.1c-1.93.18-3.83.5-5.75.73-.48,0-2.84.51-2.63-.59a2.87,2.87,0,0,1,.82-1.24c.07-.07,0-.12-.08-.13a.5.5,0,0,0-.34.07,13.32,13.32,0,0,1-4.47,1.32c-.29,0-1.28.17-1.14-.41a1.68,1.68,0,0,1,.43-.65c.25-.28.51-.53.78-.78A16.44,16.44,0,0,0,128,41a.92.92,0,0,0,.27-.49c0-.21-.25-.25-.42-.25a6.83,6.83,0,0,0-2.52.7c-.93.37-1.85.76-2.77,1.17-2.52,1.09-5,2.26-7.48,3.49-.1.05-.14.13-.06.2s.31,0,.39-.06q3.39-1.7,6.85-3.22c.89-.39,1.79-.78,2.69-1.15.51-.21,1-.41,1.56-.59a2.55,2.55,0,0,1,1.08-.25c.39.07-.39.77-.49.87-.54.51-1.11,1-1.63,1.52-.26.26-.87.82-.71,1.27s1.08.37,1.44.34a14.51,14.51,0,0,0,4.25-1.11c-.37.44-.72,1-.36,1.44a1.56,1.56,0,0,0,1.11.33,12.1,12.1,0,0,0,2-.13c.94-.11,1.87-.25,2.81-.38,1.42-.19,2.86-.37,4.3-.43,1.05,0,2.1,0,3.15,0q3.71,0,7.41.05l8,0c3.52,0,7-.08,10.56-.12Z" transform="translate(-73.91 -4.28)"/><path class="cls-2" d="M170.72,42.42a.39.39,0,0,1,.47-.36.75.75,0,0,0,.51-.24c.52-.46,1-.93,1.54-1.38a.4.4,0,0,0,.09-.57,2.79,2.79,0,0,1-.24-2.22A3,3,0,0,1,174.17,36a4.29,4.29,0,0,0-.36,1.64,2.48,2.48,0,0,0,.61,1.6c.25-2.27,1.66-3.76,3.82-4.75a8.34,8.34,0,0,0-.88,1.8,8.17,8.17,0,0,1,4.09-3,17.47,17.47,0,0,1,5.29-1,8.91,8.91,0,0,0-2.31,1.68c.52-.29,1-.62,1.55-.88a6.71,6.71,0,0,1,2.8-.95,17.36,17.36,0,0,1,6.32,1,15.62,15.62,0,0,1,3.69,1.81c.1.06.27.12.19.25s-.2,0-.31,0a11.37,11.37,0,0,0-1.65,0,26.61,26.61,0,0,0-4.8.62,2.27,2.27,0,0,1-1.56-.13.62.62,0,0,0-.47-.08c.12.16.4.17.37.33s-.28.17-.45.22l-2.14.55a1.76,1.76,0,0,1-.79,0c-.64-.14-1.29-.26-1.93-.38a4.33,4.33,0,0,0,1.14.51.35.35,0,0,1,.17.1c0,.09-.07.13-.14.16a3.83,3.83,0,0,1-2.29.32l-.5-.09c.3.21.68.2,1,.43a9,9,0,0,1-5.7.91,5.53,5.53,0,0,0,3.18.49,8.84,8.84,0,0,1-2.83,1,8.45,8.45,0,0,1-3.09,0,2.71,2.71,0,0,0,1.45.7,6.71,6.71,0,0,0,1.72,0c-.14.12-.17.16-.22.18a4.35,4.35,0,0,1-4-.06.49.49,0,0,0-.68.07c-.3.28-.64.53-.94.81-.56.51-1.26.92-1.56,1.64a.23.23,0,0,1-.25.12,7.29,7.29,0,0,0-2.06.77A9,9,0,0,0,170.72,42.42ZM174,40.76a35.42,35.42,0,0,1,10.51-5.46A34.33,34.33,0,0,1,195.37,34a23.56,23.56,0,0,0-6.22-.08c-7.81.8-13.69,5.19-17.08,8.38C172.54,41.93,173.2,41.37,174,40.76Z" transform="translate(-73.91 -4.28)"/><path class="cls-5" d="M171.47,42.79l-1.79,1.5,1.84-1.45S171.49,42.81,171.47,42.79Z" transform="translate(-73.91 -4.28)"/><circle class="cls-5" cx="97.55" cy="38.58" r="0.24"/><path class="cls-2" d="M185.74,30.43V28.79h.36v1.72a.8.8,0,0,1-.79.75h-3.18a.82.82,0,0,1-.79-.78v-3.2a.81.81,0,0,1,.78-.79h1.6v.37h-1.5a.49.49,0,0,0-.52.48v3.12a.47.47,0,0,0,.49.46h3.07A.47.47,0,0,0,185.74,30.43Z" transform="translate(-73.91 -4.28)"/><path class="cls-2" d="M186.39,27.23c-.71.33-.69,1.15-.8,1.19a.07.07,0,0,1-.08-.05A1.47,1.47,0,0,0,184.18,27a.07.07,0,0,1-.06-.07s0,0,.06-.06a1.49,1.49,0,0,0,1.33-1.34.05.05,0,0,1,.05,0,.06.06,0,0,1,.07,0A1.48,1.48,0,0,0,187,26.91s.06,0,.06.06S186.69,27.09,186.39,27.23Z" transform="translate(-73.91 -4.28)"/><path class="cls-2" d="M184.78,25.94c-.2.1-.19.32-.22.33h0a.41.41,0,0,0-.36-.37l0,0h0a.42.42,0,0,0,.37-.37h0a.41.41,0,0,0,.37.37h0S184.86,25.91,184.78,25.94Z" transform="translate(-73.91 -4.28)"/><path class="cls-2" d="M183.63,29.48h-.72l-.19.57h-.38L183,27.9h.49L184.2,30h-.4Zm-.09-.34-.3-.87-.27.89Z" transform="translate(-73.91 -4.28)"/><rect class="cls-2" x="110.57" y="23.62" width="0.38" height="2.14"/><path class="cls-2" d="M131.23,40c0-.23,0-.29-.16-.31H131a.05.05,0,0,1,0-.08l.69,0a1.14,1.14,0,0,1,.54.09.41.41,0,0,1,.24.4.46.46,0,0,1-.32.44s0,0,.06,0a.53.53,0,0,1,.43.53c0,.37-.28.62-.86.62H131s0-.06,0-.08h.05c.17,0,.18-.06.18-.4Zm.26.43c0,.09,0,.1.17.09.32,0,.5-.11.5-.41a.42.42,0,0,0-.48-.43.26.26,0,0,0-.14,0s0,0,0,.08Zm0,.74a.63.63,0,0,0,.07.35.29.29,0,0,0,.25.09c.29,0,.5-.13.5-.45s-.12-.54-.63-.54c-.18,0-.19,0-.19.08Z" transform="translate(-73.91 -4.28)"/><path class="cls-2" d="M133.17,40.05c0-.33,0-.39-.2-.41h-.08s0-.07,0-.08h.8s0,.07,0,.08h-.08c-.19,0-.2.08-.2.41v1.14c0,.34,0,.39.2.41h.08s0,.07,0,.08h-.8a.06.06,0,0,1,0-.08H133c.19,0,.2-.07.2-.41Z" transform="translate(-73.91 -4.28)"/><path class="cls-2" d="M134.25,40c0-.23,0-.29-.16-.31H134a.06.06,0,0,1,0-.08l.69,0a1.14,1.14,0,0,1,.54.09.41.41,0,0,1,.24.4.46.46,0,0,1-.32.44s0,0,.06,0a.53.53,0,0,1,.43.53c0,.37-.28.62-.85.62H134s0-.06,0-.08h0c.17,0,.18-.06.18-.4Zm.26.43c0,.09,0,.1.17.09.33,0,.5-.11.5-.41a.42.42,0,0,0-.48-.43.26.26,0,0,0-.14,0s-.05,0-.05.08Zm0,.74a.63.63,0,0,0,.07.35.29.29,0,0,0,.25.09c.29,0,.51-.13.51-.45s-.13-.54-.64-.54c-.17,0-.19,0-.19.08Z" transform="translate(-73.91 -4.28)"/><path class="cls-2" d="M136.19,40.05c0-.34,0-.39-.21-.41h-.08s0-.07,0-.08h.81s0,.07,0,.08h-.07c-.19,0-.2.07-.2.41v1.11c0,.2,0,.29.07.35s.09.07.35.07.34,0,.39,0a.75.75,0,0,0,.21-.32s.08,0,.08,0a2.23,2.23,0,0,1-.14.45h-1.5a.06.06,0,0,1,0-.08h.1c.18,0,.19-.06.19-.4Z" transform="translate(-73.91 -4.28)"/><path class="cls-2" d="M138,40.05c0-.33,0-.39-.2-.41h-.08s0-.07,0-.08h.8s0,.07,0,.08h-.08c-.19,0-.2.08-.2.41v1.14c0,.34,0,.39.2.41h.08s0,.07,0,.08h-.8s0-.06,0-.08h.08c.19,0,.2-.07.2-.41Z" transform="translate(-73.91 -4.28)"/><path class="cls-2" d="M138.78,40.65a1.11,1.11,0,0,1,1.14-1.13,1.05,1.05,0,0,1,1.11,1.1,1.13,1.13,0,0,1-2.25,0Zm1.93.06c0-.52-.23-1.09-.84-1.09-.34,0-.77.22-.77.92,0,.48.23,1.09.86,1.09C140.35,41.63,140.71,41.35,140.71,40.71Z" transform="translate(-73.91 -4.28)"/><path class="cls-2" d="M142.26,41.2c0,.34,0,.39.19.4h.11s0,.07,0,.08h-.86a.05.05,0,0,1,0-.08h.11c.18,0,.2-.06.2-.4V39.77c0-.1,0-.1-.1-.1h-.17a.63.63,0,0,0-.4.08.59.59,0,0,0-.14.22.06.06,0,0,1-.08,0,3.36,3.36,0,0,0,.12-.48h.06c0,.1.12.1.27.1h1.3c.17,0,.2,0,.25-.09s0,0,0,0a2.11,2.11,0,0,0,0,.48.06.06,0,0,1-.09,0c0-.08,0-.2-.08-.23a.58.58,0,0,0-.37-.08h-.23c-.09,0-.09,0-.09.11Z" transform="translate(-73.91 -4.28)"/><path class="cls-2" d="M143.61,40.05c0-.33,0-.38-.2-.41h0s0-.07,0-.08h1.41a2.83,2.83,0,0,1,.05.42.06.06,0,0,1-.08,0c-.05-.15-.08-.26-.24-.3a1.28,1.28,0,0,0-.31,0H144c-.1,0-.1,0-.1.13v.64c0,.09,0,.09.11.09h.18a1.23,1.23,0,0,0,.27,0s.06,0,.08-.12l0-.13s.07,0,.08,0,0,.2,0,.32,0,.24,0,.31-.07,0-.08,0l0-.12c0-.06,0-.11-.1-.13H144c-.1,0-.11,0-.11.08v.46a.53.53,0,0,0,.06.33s.11.07.39.07a.87.87,0,0,0,.41,0,.8.8,0,0,0,.23-.31.07.07,0,0,1,.08,0,4.53,4.53,0,0,1-.15.44h-1.58a.06.06,0,0,1,0-.08h.11c.18,0,.2-.06.2-.4Z" transform="translate(-73.91 -4.28)"/><path class="cls-2" d="M145.61,39.79a1.41,1.41,0,0,1,.87-.27,2.52,2.52,0,0,1,.56.07l.09,0c0,.07,0,.27.05.47a.08.08,0,0,1-.09,0,.58.58,0,0,0-.65-.46.88.88,0,0,0-.91,1,.94.94,0,0,0,.95,1,.69.69,0,0,0,.67-.45.06.06,0,0,1,.08,0,1.18,1.18,0,0,1-.15.44.35.35,0,0,0-.11,0,2.19,2.19,0,0,1-.51.07,1.47,1.47,0,0,1-.8-.21,1.05,1.05,0,0,1-.45-.88A1.07,1.07,0,0,1,145.61,39.79Z" transform="translate(-73.91 -4.28)"/><path class="cls-2" d="M148.6,40.94c0-.07,0-.08-.13-.08H148c-.08,0-.1,0-.12.08l-.12.33a2.11,2.11,0,0,0-.07.27s0,.05.1.06h.1s0,.07,0,.08h-.64a.08.08,0,0,1,0-.08h.1a.23.23,0,0,0,.2-.16c.05-.14.14-.35.28-.71l.32-.86a.44.44,0,0,0,.06-.23.3.3,0,0,0,.16-.12s.05,0,.05,0,.1.28.14.42l.44,1.29c.1.28.14.33.27.34h.09s0,.07,0,.08h-.75s0-.06,0-.08h.09c.07,0,.11,0,.11-.06a.54.54,0,0,0,0-.17Zm-.63-.29c0,.08,0,.08.06.08h.4c.09,0,.1,0,.07-.1l-.17-.52c0-.08-.06-.16-.08-.2h0a.77.77,0,0,0-.08.19Z" transform="translate(-73.91 -4.28)"/><path class="cls-2" d="M150.5,40c0-.22,0-.29-.15-.31h-.07s0-.06,0-.08l.8,0a2.23,2.23,0,0,1,.71.09,1,1,0,0,1,.65,1,1,1,0,0,1-.57.95,1.43,1.43,0,0,1-.71.16c-.21,0-.41,0-.52,0h-.4a.06.06,0,0,1,0-.08h.07c.19,0,.19-.06.19-.4Zm.27,1.15a.65.65,0,0,0,.06.35c.07.1.19.13.4.13.62,0,.89-.41.89-1a.89.89,0,0,0-1-1,.77.77,0,0,0-.32,0s0,.1,0,.25Z" transform="translate(-73.91 -4.28)"/><path class="cls-2" d="M153,40.05c0-.33,0-.38-.19-.41h-.05s0-.07,0-.08h1.42s0,.28,0,.42-.07,0-.08,0-.08-.26-.25-.3a1.24,1.24,0,0,0-.31,0h-.23c-.09,0-.09,0-.09.13v.64c0,.09,0,.09.1.09h.19l.27,0s.06,0,.08-.12l0-.13a.06.06,0,0,1,.09,0c0,.07,0,.2,0,.32s0,.24,0,.31a.07.07,0,0,1-.09,0l0-.12a.14.14,0,0,0-.1-.13h-.43c-.09,0-.1,0-.1.08v.46a.53.53,0,0,0,.06.33s.1.07.38.07a.85.85,0,0,0,.41,0,.71.71,0,0,0,.23-.31.07.07,0,0,1,.08,0,2.83,2.83,0,0,1-.14.44h-1.58a.06.06,0,0,1,0-.08h.11c.18,0,.19-.06.19-.4Z" transform="translate(-73.91 -4.28)"/><path class="cls-2" d="M155.3,40.65c-.16,0-.16,0-.16.1v.45c0,.34,0,.38.19.4h.1s0,.07,0,.08h-.78s0-.06,0-.08h.06c.18,0,.18-.06.18-.4V40.05c0-.34,0-.39-.18-.41h-.09s0-.07,0-.08h.77s0,.07,0,.08h-.06c-.19,0-.19.07-.19.41v.37c0,.1,0,.1.16.1h.91c.16,0,.16,0,.16-.1v-.37c0-.34,0-.39-.19-.41h-.06s0-.07,0-.08h.77s0,.07,0,.08h-.07c-.19,0-.19.07-.19.41V41.2c0,.34,0,.38.19.4h.07s0,.07,0,.08h-.78s0-.06,0-.08h.06c.19,0,.19-.06.19-.4v-.45c0-.1,0-.1-.16-.1Z" transform="translate(-73.91 -4.28)"/><path class="cls-2" d="M157.19,40.65a1.11,1.11,0,0,1,1.14-1.13,1.06,1.06,0,0,1,1.12,1.1,1.1,1.1,0,0,1-1.12,1.11A1.08,1.08,0,0,1,157.19,40.65Zm1.94.06c0-.52-.24-1.09-.85-1.09-.33,0-.77.22-.77.92,0,.48.23,1.09.87,1.09C158.76,41.63,159.13,41.35,159.13,40.71Z" transform="translate(-73.91 -4.28)"/><path class="cls-2" d="M161.73,41.14c0,.09,0,.47,0,.56a.06.06,0,0,1-.06,0l-.41-.48-.75-.85c-.08-.1-.3-.36-.37-.43h0a1.1,1.1,0,0,0,0,.21v.7a2.28,2.28,0,0,0,.06.66s.08.05.16.06h.1a.06.06,0,0,1,0,.08h-.71a.06.06,0,0,1,0-.08h.08a.21.21,0,0,0,.15-.06,3.5,3.5,0,0,0,0-.66V40a.33.33,0,0,0-.07-.23.4.4,0,0,0-.2-.08h-.06s0-.07,0-.08h.51a4.14,4.14,0,0,0,.55.7l.31.35c.22.25.38.43.53.58h0s0-.07,0-.13v-.69a2.23,2.23,0,0,0-.07-.66s-.07-.05-.2-.07h-.05s0-.07,0-.08H162s0,.06,0,.08H162a.4.4,0,0,0-.18.07,2.82,2.82,0,0,0,0,.66Z" transform="translate(-73.91 -4.28)"/><path class="cls-2" d="M162.51,40.05c0-.33,0-.39-.19-.41h-.08s0-.07,0-.08h.8s0,.07,0,.08H163c-.19,0-.2.08-.2.41v1.14c0,.34,0,.39.2.41h.08s0,.07,0,.08h-.8s0-.06,0-.08h.08c.19,0,.19-.07.19-.41Z" transform="translate(-73.91 -4.28)"/><path class="cls-2" d="M164.49,40.94c0-.07,0-.08-.13-.08h-.49c-.08,0-.1,0-.12.08l-.11.33a1.12,1.12,0,0,0-.07.27s0,.05.09.06h.11s0,.07,0,.08h-.64s0-.06,0-.08h.11a.21.21,0,0,0,.19-.16c.06-.14.15-.35.28-.71l.33-.86a.58.58,0,0,0,.06-.23.34.34,0,0,0,.16-.12s0,0,0,0,.09.28.14.42l.44,1.29c.09.28.13.33.27.34h.09a.08.08,0,0,1,0,.08h-.76a.05.05,0,0,1,0-.08h.09c.07,0,.11,0,.11-.06a1.2,1.2,0,0,0,0-.17Zm-.64-.29c0,.08,0,.08.07.08h.4c.09,0,.09,0,.07-.1l-.18-.52a1.11,1.11,0,0,0-.07-.2h0a1,1,0,0,0-.07.19Z" transform="translate(-73.91 -4.28)"/><path class="cls-2" d="M167.31,41.14c0,.09,0,.47,0,.56s0,0-.06,0l-.41-.48-.74-.85c-.09-.1-.3-.36-.37-.43h0a1.1,1.1,0,0,0,0,.21v.7a2.73,2.73,0,0,0,.05.66s.09.05.17.06h.1a.06.06,0,0,1,0,.08h-.71a.06.06,0,0,1,0-.08h.08c.08,0,.13,0,.14-.06a2.82,2.82,0,0,0,0-.66V40a.29.29,0,0,0-.07-.23.37.37,0,0,0-.19-.08h-.06s0-.07,0-.08h.51a4.65,4.65,0,0,0,.54.7l.31.35c.23.25.38.43.53.58h0a.38.38,0,0,0,0-.13v-.69a2.25,2.25,0,0,0-.06-.66s-.07-.05-.2-.07h0a.05.05,0,0,1,0-.08h.71s0,.06,0,.08h-.05a.35.35,0,0,0-.18.07,2.81,2.81,0,0,0-.05.66Z" transform="translate(-73.91 -4.28)"/><path class="cls-2" d="M169,40.94c0-.07,0-.08-.13-.08h-.48c-.08,0-.1,0-.12.08l-.12.33a2.11,2.11,0,0,0-.07.27s0,.05.1.06h.1s0,.07,0,.08h-.64a.06.06,0,0,1,0-.08h.1a.23.23,0,0,0,.2-.16c.05-.14.14-.35.28-.71l.32-.86a.44.44,0,0,0,.06-.23.37.37,0,0,0,.17-.12s0,0,0,0,.1.28.14.42l.44,1.29c.1.28.14.33.28.34h.08s0,.07,0,.08H169s0-.06,0-.08h.09c.07,0,.12,0,.12-.06a.68.68,0,0,0-.05-.17Zm-.63-.29c0,.08,0,.08.07.08h.39c.09,0,.1,0,.07-.1l-.17-.52c0-.08-.06-.16-.08-.2h0a1.72,1.72,0,0,0-.08.19Z" transform="translate(-73.91 -4.28)"/></svg>