<svg id="Camada_1" data-name="Camada 1" xmlns="http://www.w3.org/2000/svg" xmlns:xlink="http://www.w3.org/1999/xlink" viewBox="0 0 40.6 39.41"><defs><style>.cls-1{fill:none;}.cls-2{fill:#b11a22;}.cls-3{fill:#0d3851;}.cls-4{clip-path:url(#clip-path);}.cls-5{fill:#fff;}</style><clipPath id="clip-path" transform="translate(-5.4 -4)"><path class="cls-1" d="M22.61,32.44h0a8.58,8.58,0,0,1-8.53-8.63V9.17A.14.14,0,0,1,14.21,9h.72L22.8,5.24,30.27,9H31a.15.15,0,0,1,.14.14V23.81A8.58,8.58,0,0,1,22.61,32.44Z"/></clipPath></defs><path class="cls-1" d="M27.47,22.21A12.89,12.89,0,0,1,23,23.32a6.08,6.08,0,0,1-1.26-.14,14,14,0,0,1-3-1.15,12.49,12.49,0,0,0-3-1.16,6,6,0,0,0-1.63-.11v.45a7.54,7.54,0,0,1,2.7.4,21.44,21.44,0,0,1,2,.88,10.1,10.1,0,0,0,4.1,1.29,12.18,12.18,0,0,0,4.48-1.09,18.31,18.31,0,0,1,2.83-.91,6.48,6.48,0,0,1,.94-.14v-.46a10.23,10.23,0,0,0-2.36.55C28.35,21.88,27.91,22.05,27.47,22.21Z" transform="translate(-5.4 -4)"/><path class="cls-1" d="M27.47,23.52A13.09,13.09,0,0,1,23,24.62a6.06,6.06,0,0,1-1.26-.13,13.53,13.53,0,0,1-3-1.16,13.37,13.37,0,0,0-3-1.16,6.43,6.43,0,0,0-1.63-.11v.46a7.12,7.12,0,0,1,2.7.4,19.14,19.14,0,0,1,2,.88,9.93,9.93,0,0,0,4.1,1.28A12.17,12.17,0,0,0,27.38,24a19.49,19.49,0,0,1,2.83-.92,7.91,7.91,0,0,1,.94-.14v-.46a10.76,10.76,0,0,0-2.36.56Z" transform="translate(-5.4 -4)"/><path class="cls-1" d="M27.47,22.86A12.89,12.89,0,0,1,23,24a5.41,5.41,0,0,1-1.26-.14,13,13,0,0,1-3-1.15,13.37,13.37,0,0,0-3-1.16,6.43,6.43,0,0,0-1.63-.11v.46a7.31,7.31,0,0,1,2.7.39,19.21,19.21,0,0,1,2,.89,10.24,10.24,0,0,0,4.1,1.28,12.37,12.37,0,0,0,4.48-1.08,18.34,18.34,0,0,1,2.83-.92,8.23,8.23,0,0,1,.94-.14v-.46a10.78,10.78,0,0,0-2.36.55Z" transform="translate(-5.4 -4)"/><path class="cls-1" d="M27.47,24.17A13.09,13.09,0,0,1,23,25.27a6.06,6.06,0,0,1-1.26-.13,13.53,13.53,0,0,1-3-1.16,13.37,13.37,0,0,0-3-1.16,6.43,6.43,0,0,0-1.63-.11v.46a7.12,7.12,0,0,1,2.7.4,21.44,21.44,0,0,1,2,.88,9.93,9.93,0,0,0,4.1,1.28,11.93,11.93,0,0,0,4.48-1.08,19.49,19.49,0,0,1,2.83-.92c.32-.06.63-.11.94-.14v-.45a10.23,10.23,0,0,0-2.36.55C28.35,23.84,27.91,24,27.47,24.17Z" transform="translate(-5.4 -4)"/><path class="cls-1" d="M27.47,26.13A13.09,13.09,0,0,1,23,27.23a6,6,0,0,1-1.26-.13,13.53,13.53,0,0,1-3-1.16,13.37,13.37,0,0,0-3-1.16,6.09,6.09,0,0,0-1.59-.11c0,.15,0,.3.06.45a7.26,7.26,0,0,1,2.6.41,19.14,19.14,0,0,1,2,.88,9.93,9.93,0,0,0,4.1,1.28,12.12,12.12,0,0,0,4.48-1.08,19.49,19.49,0,0,1,2.83-.92l.76-.12c0-.15.06-.31.08-.47a11.34,11.34,0,0,0-2.26.55Z" transform="translate(-5.4 -4)"/><path class="cls-1" d="M27.47,26.78A13.09,13.09,0,0,1,23,27.88a6,6,0,0,1-1.26-.13,13.53,13.53,0,0,1-3-1.16,13.37,13.37,0,0,0-3-1.16,6.32,6.32,0,0,0-1.5-.11c0,.15.06.3.1.46a7.19,7.19,0,0,1,2.47.4,21.44,21.44,0,0,1,2,.88,9.93,9.93,0,0,0,4.1,1.28,11.93,11.93,0,0,0,4.48-1.08,19.49,19.49,0,0,1,2.83-.92c.2,0,.39-.07.59-.09l.12-.48a10.87,10.87,0,0,0-2.13.53C28.35,26.45,27.9,26.62,27.47,26.78Z" transform="translate(-5.4 -4)"/><path class="cls-1" d="M27.47,25.47A12.89,12.89,0,0,1,23,26.58a5.47,5.47,0,0,1-1.26-.14,13,13,0,0,1-3-1.15,13.37,13.37,0,0,0-3-1.16A6.43,6.43,0,0,0,14.07,24c0,.15,0,.3,0,.46a7.16,7.16,0,0,1,2.67.39,19.21,19.21,0,0,1,2,.89A10.24,10.24,0,0,0,22.9,27,12.17,12.17,0,0,0,27.38,26,18.34,18.34,0,0,1,30.21,25c.3-.06.59-.11.87-.14,0-.15,0-.3,0-.46a11.08,11.08,0,0,0-2.33.55Z" transform="translate(-5.4 -4)"/><path class="cls-1" d="M27.47,24.82A12.89,12.89,0,0,1,23,25.93a6.08,6.08,0,0,1-1.26-.14,14,14,0,0,1-3-1.15,12.49,12.49,0,0,0-3-1.16,6,6,0,0,0-1.63-.11v.44h0a7.54,7.54,0,0,1,2.7.4,21.44,21.44,0,0,1,2,.88,10.1,10.1,0,0,0,4.1,1.29,12.18,12.18,0,0,0,4.48-1.09,18.31,18.31,0,0,1,2.83-.91,8.06,8.06,0,0,1,.93-.14c0-.15,0-.29,0-.44v0a10.23,10.23,0,0,0-2.36.55C28.35,24.49,27.91,24.66,27.47,24.82Z" transform="translate(-5.4 -4)"/><path class="cls-1" d="M27.47,19.6A12.89,12.89,0,0,1,23,20.71a6.08,6.08,0,0,1-1.26-.14,14,14,0,0,1-3-1.15,12.49,12.49,0,0,0-3-1.16,6,6,0,0,0-1.63-.11v.45a7.54,7.54,0,0,1,2.7.4,21.44,21.44,0,0,1,2,.88,10.1,10.1,0,0,0,4.1,1.29,12.18,12.18,0,0,0,4.48-1.09,18.31,18.31,0,0,1,2.83-.91,6.48,6.48,0,0,1,.94-.14v-.46a10.23,10.23,0,0,0-2.36.55C28.35,19.27,27.91,19.44,27.47,19.6Z" transform="translate(-5.4 -4)"/><path class="cls-1" d="M27.47,19A13.09,13.09,0,0,1,23,20.05a6,6,0,0,1-1.26-.13,13.53,13.53,0,0,1-3-1.16,13.37,13.37,0,0,0-3-1.16,6.43,6.43,0,0,0-1.63-.11V18a7.12,7.12,0,0,1,2.7.4,21.44,21.44,0,0,1,2,.88,9.93,9.93,0,0,0,4.1,1.28,11.93,11.93,0,0,0,4.48-1.08,19.49,19.49,0,0,1,2.83-.92c.32-.06.64-.11.94-.14v-.45a10.23,10.23,0,0,0-2.36.55Z" transform="translate(-5.4 -4)"/><path class="cls-1" d="M27.47,18.3A13.09,13.09,0,0,1,23,19.4a6.06,6.06,0,0,1-1.26-.13,13.53,13.53,0,0,1-3-1.16,13.37,13.37,0,0,0-3-1.16,6.43,6.43,0,0,0-1.63-.11v.46a7.12,7.12,0,0,1,2.7.4,19.14,19.14,0,0,1,2,.88,9.93,9.93,0,0,0,4.1,1.28,12.17,12.17,0,0,0,4.48-1.08,19.49,19.49,0,0,1,2.83-.92,8.23,8.23,0,0,1,.94-.14v-.46a10.76,10.76,0,0,0-2.36.56C28.35,18,27.91,18.13,27.47,18.3Z" transform="translate(-5.4 -4)"/><path class="cls-1" d="M27.47,20.91A13.09,13.09,0,0,1,23,22a6.06,6.06,0,0,1-1.26-.13,13.53,13.53,0,0,1-3-1.16,13.37,13.37,0,0,0-3-1.16,6.43,6.43,0,0,0-1.63-.11v.46a7.12,7.12,0,0,1,2.7.4,19.14,19.14,0,0,1,2,.88,9.93,9.93,0,0,0,4.1,1.28,12.17,12.17,0,0,0,4.48-1.08,19.49,19.49,0,0,1,2.83-.92,8.23,8.23,0,0,1,.94-.14v-.46a10.76,10.76,0,0,0-2.36.56C28.35,20.57,27.91,20.74,27.47,20.91Z" transform="translate(-5.4 -4)"/><path class="cls-1" d="M27.47,21.56A13.09,13.09,0,0,1,23,22.66a6,6,0,0,1-1.26-.13,13.53,13.53,0,0,1-3-1.16,13.37,13.37,0,0,0-3-1.16,6.43,6.43,0,0,0-1.63-.11v.46a7.12,7.12,0,0,1,2.7.4,21.44,21.44,0,0,1,2,.88,9.93,9.93,0,0,0,4.1,1.28A11.93,11.93,0,0,0,27.38,22a19.49,19.49,0,0,1,2.83-.92c.32-.06.64-.11.94-.14v-.45a10.23,10.23,0,0,0-2.36.55Z" transform="translate(-5.4 -4)"/><path class="cls-1" d="M27.47,20.25A12.89,12.89,0,0,1,23,21.36a5.41,5.41,0,0,1-1.26-.14,13,13,0,0,1-3-1.15,13.37,13.37,0,0,0-3-1.16,6.43,6.43,0,0,0-1.63-.11v.46a7.31,7.31,0,0,1,2.7.39,19.21,19.21,0,0,1,2,.89,10.24,10.24,0,0,0,4.1,1.28,12.37,12.37,0,0,0,4.48-1.08,18.34,18.34,0,0,1,2.83-.92,8.23,8.23,0,0,1,.94-.14v-.46a10.78,10.78,0,0,0-2.36.55Z" transform="translate(-5.4 -4)"/><path class="cls-1" d="M27.47,28.74A13.09,13.09,0,0,1,23,29.84a6,6,0,0,1-1.26-.13,13.53,13.53,0,0,1-3-1.16,13.37,13.37,0,0,0-3-1.16,6.91,6.91,0,0,0-.9-.11c.07.16.15.32.23.48a7,7,0,0,1,1.74.38,19.14,19.14,0,0,1,2,.88,9.93,9.93,0,0,0,4.1,1.28,12.12,12.12,0,0,0,4.48-1.08,21.83,21.83,0,0,1,2.44-.82c.1-.18.21-.35.3-.53a12.48,12.48,0,0,0-1.33.39Z" transform="translate(-5.4 -4)"/><path class="cls-1" d="M22.93,8.77A11.94,11.94,0,0,0,27.4,7.68l.26-.09-.51-.26a12,12,0,0,1-4.15,1,5.47,5.47,0,0,1-1.26-.14,13.06,13.06,0,0,1-2.92-1.12l-.45.22.45.21A10.1,10.1,0,0,0,22.93,8.77Z" transform="translate(-5.4 -4)"/><path class="cls-1" d="M27.47,27.43A12.89,12.89,0,0,1,23,28.54a6.08,6.08,0,0,1-1.26-.14,14,14,0,0,1-3-1.15,12.49,12.49,0,0,0-3-1.16A5.69,5.69,0,0,0,14.34,26c0,.15.09.31.14.46a7.21,7.21,0,0,1,2.29.4,21.44,21.44,0,0,1,2,.88A10.1,10.1,0,0,0,22.9,29a11.94,11.94,0,0,0,4.48-1.09A18.31,18.31,0,0,1,30.21,27l.35-.07c.06-.16.12-.32.17-.48a11.64,11.64,0,0,0-1.94.5Z" transform="translate(-5.4 -4)"/><path class="cls-1" d="M26.91,7.22,26.39,7a10.21,10.21,0,0,1-3.39.7,6.06,6.06,0,0,1-1.26-.13,10.77,10.77,0,0,1-2.23-.8l-.46.22a9.46,9.46,0,0,0,3.88,1.17A10.68,10.68,0,0,0,26.91,7.22Z" transform="translate(-5.4 -4)"/><path class="cls-1" d="M22.93,10.07A12.12,12.12,0,0,0,27.4,9c.58-.22,1.18-.45,1.78-.64l-.53-.27-1.16.43A13.09,13.09,0,0,1,23,9.61a6.06,6.06,0,0,1-1.26-.13,13.53,13.53,0,0,1-3-1.16c-.43-.21-.87-.42-1.32-.6L16.92,8a18.83,18.83,0,0,1,1.9.83A9.93,9.93,0,0,0,22.93,10.07Z" transform="translate(-5.4 -4)"/><path class="cls-1" d="M26.16,6.84l-.55-.28A8.93,8.93,0,0,1,23,7a6.06,6.06,0,0,1-1.26-.13,9,9,0,0,1-1.52-.49l-.48.23a8.22,8.22,0,0,0,3.19.85A9.36,9.36,0,0,0,26.16,6.84Z" transform="translate(-5.4 -4)"/><path class="cls-1" d="M24.49,6l-.7-.35a6.84,6.84,0,0,1-.79,0,6.16,6.16,0,0,1-1.12-.11l-.61.3a6.47,6.47,0,0,0,1.66.27A6.77,6.77,0,0,0,24.49,6Z" transform="translate(-5.4 -4)"/><path class="cls-1" d="M25.37,6.44l-.61-.31A7.44,7.44,0,0,1,23,6.35a6.06,6.06,0,0,1-1.26-.13c-.25-.06-.5-.13-.74-.21l-.53.25a7.11,7.11,0,0,0,2.46.55A8.44,8.44,0,0,0,25.37,6.44Z" transform="translate(-5.4 -4)"/><path class="cls-1" d="M22.93,9.42A12.17,12.17,0,0,0,27.4,8.34l1-.38-.51-.25-.4.14A12.89,12.89,0,0,1,23,9a6.06,6.06,0,0,1-1.26-.13,13.53,13.53,0,0,1-3-1.16l-.61-.29-.47.22c.39.17.77.36,1.15.54A10.24,10.24,0,0,0,22.93,9.42Z" transform="translate(-5.4 -4)"/><path class="cls-1" d="M27.47,17.64A12.89,12.89,0,0,1,23,18.75a5.41,5.41,0,0,1-1.26-.14,13,13,0,0,1-3-1.15,13.37,13.37,0,0,0-3-1.16,6.43,6.43,0,0,0-1.63-.11v.46a7.31,7.31,0,0,1,2.7.39,19.21,19.21,0,0,1,2,.89,10.24,10.24,0,0,0,4.1,1.28,12.37,12.37,0,0,0,4.48-1.08,18.34,18.34,0,0,1,2.83-.92,8.23,8.23,0,0,1,.94-.14v-.46a10.74,10.74,0,0,0-2.37.55C28.35,17.31,27.91,17.48,27.47,17.64Z" transform="translate(-5.4 -4)"/><path class="cls-1" d="M27.47,28.08A12.89,12.89,0,0,1,23,29.19a5.47,5.47,0,0,1-1.26-.14,13,13,0,0,1-3-1.15,13.37,13.37,0,0,0-3-1.16,5.71,5.71,0,0,0-1.16-.12c.06.16.11.31.18.47a7.29,7.29,0,0,1,2,.39,19.21,19.21,0,0,1,2,.89,10.24,10.24,0,0,0,4.1,1.28,12.37,12.37,0,0,0,4.48-1.08,18.34,18.34,0,0,1,2.83-.92h0c.08-.16.16-.32.23-.49a12.7,12.7,0,0,0-1.68.45Z" transform="translate(-5.4 -4)"/><path class="cls-1" d="M17.31,30.51a8.48,8.48,0,0,0,4.37,1.8,13.89,13.89,0,0,1-2.95-1.15C18.27,30.94,17.79,30.71,17.31,30.51Z" transform="translate(-5.4 -4)"/><path class="cls-1" d="M27.47,29.39A13.09,13.09,0,0,1,23,30.49a6.06,6.06,0,0,1-1.26-.13,13.53,13.53,0,0,1-3-1.16,13.37,13.37,0,0,0-3-1.16L15.14,28l.3.5a7.83,7.83,0,0,1,1.33.33,21.44,21.44,0,0,1,2,.88A9.93,9.93,0,0,0,22.9,31a12,12,0,0,0,4.48-1.08c.6-.23,1.22-.46,1.85-.66a6,6,0,0,0,.42-.57l-.86.27C28.35,29.06,27.91,29.23,27.47,29.39Z" transform="translate(-5.4 -4)"/><path class="cls-1" d="M23,31.8a5.47,5.47,0,0,1-1.26-.14,13,13,0,0,1-3-1.15,15,15,0,0,0-2.52-1c.21.22.42.44.64.64A19.9,19.9,0,0,1,18.8,31a10.24,10.24,0,0,0,4.1,1.28,8.52,8.52,0,0,0,2.79-.48,8.29,8.29,0,0,0,2.17-1.23l-.39.14A12.89,12.89,0,0,1,23,31.8Z" transform="translate(-5.4 -4)"/><path class="cls-1" d="M27.47,30A12.89,12.89,0,0,1,23,31.15,6.08,6.08,0,0,1,21.72,31a14,14,0,0,1-3-1.15,12.49,12.49,0,0,0-3-1.16l-.11,0c.13.18.26.36.41.54s.51.13.77.22a21.44,21.44,0,0,1,2,.88,10.1,10.1,0,0,0,4.1,1.29,12.14,12.14,0,0,0,4.48-1.09l.93-.34A8.59,8.59,0,0,0,29,29.5l-.19.06Z" transform="translate(-5.4 -4)"/><path class="cls-1" d="M23.47,5.49l-.67-.34-.6.29a4.4,4.4,0,0,0,.73.06A4.87,4.87,0,0,0,23.47,5.49Z" transform="translate(-5.4 -4)"/><path class="cls-1" d="M27.49,12.42A12.89,12.89,0,0,1,23,13.53a5.47,5.47,0,0,1-1.26-.14,13.51,13.51,0,0,1-3-1.15,12.91,12.91,0,0,0-3-1.16A6.12,6.12,0,0,0,14.07,11v.46a7,7,0,0,1,2.72.39,21.44,21.44,0,0,1,2,.88,12.91,12.91,0,0,0,3,1.16l.2,0a6.44,6.44,0,0,0,.86.09,8.27,8.27,0,0,0,2.63-.43h0c.63-.19,1.24-.42,1.85-.65A19.07,19.07,0,0,1,30.23,12a8.06,8.06,0,0,1,.93-.14v-.46a11.44,11.44,0,0,0-2.35.55Z" transform="translate(-5.4 -4)"/><path class="cls-1" d="M27.49,11.12A13.09,13.09,0,0,1,23,12.22a6.06,6.06,0,0,1-1.26-.13,13.53,13.53,0,0,1-3-1.16,13.37,13.37,0,0,0-3-1.16,6.55,6.55,0,0,0-1.65-.11v.46a7.22,7.22,0,0,1,2.72.4,19.14,19.14,0,0,1,2,.88,9.93,9.93,0,0,0,4.11,1.28A12.12,12.12,0,0,0,27.4,11.6a20.31,20.31,0,0,1,2.83-.92c.32-.06.63-.11.93-.14v-.45a10.27,10.27,0,0,0-2.35.55Z" transform="translate(-5.4 -4)"/><path class="cls-1" d="M27.49,11.77A13.09,13.09,0,0,1,23,12.87a6.06,6.06,0,0,1-1.26-.13,14,14,0,0,1-3-1.15,12.94,12.94,0,0,0-3-1.17,6.11,6.11,0,0,0-1.65-.1v.45a7.19,7.19,0,0,1,2.72.4,21.44,21.44,0,0,1,2,.88,9.93,9.93,0,0,0,4.11,1.28,12,12,0,0,0,4.47-1.08,19,19,0,0,1,2.83-.91,6.35,6.35,0,0,1,.93-.14v-.46a10.27,10.27,0,0,0-2.35.55Z" transform="translate(-5.4 -4)"/><path class="cls-1" d="M27.47,15.69A13.09,13.09,0,0,1,23,16.79a6.06,6.06,0,0,1-1.26-.13,13.53,13.53,0,0,1-3-1.16,13.37,13.37,0,0,0-3-1.16,6.43,6.43,0,0,0-1.63-.11v.46a7.12,7.12,0,0,1,2.7.4,19.14,19.14,0,0,1,2,.88,9.93,9.93,0,0,0,4.1,1.28,12.12,12.12,0,0,0,4.48-1.08,19.49,19.49,0,0,1,2.83-.92,8.39,8.39,0,0,1,.95-.14v-.46a10.85,10.85,0,0,0-2.37.56C28.35,15.35,27.91,15.52,27.47,15.69Z" transform="translate(-5.4 -4)"/><path class="cls-1" d="M27.47,15A12.89,12.89,0,0,1,23,16.14,5.47,5.47,0,0,1,21.72,16a13,13,0,0,1-3-1.15,13.47,13.47,0,0,0-3-1.16l-.22,0a6.85,6.85,0,0,0-1.42-.08V14a7.31,7.31,0,0,1,2.7.39,19.21,19.21,0,0,1,2,.89,10.24,10.24,0,0,0,4.1,1.28,12.17,12.17,0,0,0,4.48-1.08,18.34,18.34,0,0,1,2.83-.92,8.39,8.39,0,0,1,.95-.14V14a10.87,10.87,0,0,0-2.37.55Z" transform="translate(-5.4 -4)"/><path class="cls-1" d="M27.5,13.73l-.7.26h0a11.14,11.14,0,0,1-3.79.84,6.06,6.06,0,0,1-1.26-.13,12.65,12.65,0,0,1-2.7-1l-.25-.12h0l0,0a13.37,13.37,0,0,0-3-1.16,6.55,6.55,0,0,0-1.65-.11v.46a7.22,7.22,0,0,1,2.72.4,15.51,15.51,0,0,1,1.73.74l.26.12h0l0,0a9.93,9.93,0,0,0,4.1,1.28,11.93,11.93,0,0,0,4.48-1.08c.59-.22,1.2-.46,1.81-.65h0c.36-.11.69-.2,1-.27s.63-.11.93-.14V12.7a10.14,10.14,0,0,0-2.35.55C28.38,13.4,27.93,13.56,27.5,13.73Z" transform="translate(-5.4 -4)"/><path class="cls-1" d="M27.49,13.07a20.31,20.31,0,0,1-2.83.92h0a7.76,7.76,0,0,1-1.64.19,6.15,6.15,0,0,1-1.27-.13,9.42,9.42,0,0,1-1.2-.36l-.33-.13h0c-.51-.2-1-.44-1.48-.67a13.37,13.37,0,0,0-3-1.16,6.55,6.55,0,0,0-1.65-.11v.46a7.39,7.39,0,0,1,2.72.39,21.52,21.52,0,0,1,2,.89c.36.17.73.35,1.1.51l.28.12h0a7.64,7.64,0,0,0,2.72.65,12,12,0,0,0,4.46-1.07h0a20.31,20.31,0,0,1,2.83-.92,8.06,8.06,0,0,1,.93-.14V12a11.44,11.44,0,0,0-2.35.55Z" transform="translate(-5.4 -4)"/><path class="cls-1" d="M28.56,14h0l-1.07.39A12.89,12.89,0,0,1,23,15.49a6.08,6.08,0,0,1-1.26-.14,14,14,0,0,1-3-1.15c-.36-.18-.73-.35-1.1-.51l-.28-.13h0A9.64,9.64,0,0,0,15.72,13a6.11,6.11,0,0,0-1.65-.1v.45a7.19,7.19,0,0,1,2.72.4l.23.09.34.12h0c.5.21,1,.44,1.48.67a9.93,9.93,0,0,0,4.1,1.28,11.93,11.93,0,0,0,4.48-1.08A18.31,18.31,0,0,1,30.21,14c.21,0,.41-.08.61-.11l.18,0h.16v-.46a10.14,10.14,0,0,0-2.35.55Z" transform="translate(-5.4 -4)"/><path class="cls-1" d="M27.47,16.34A13.09,13.09,0,0,1,23,17.44a6,6,0,0,1-1.26-.13,13.53,13.53,0,0,1-3-1.16,13.37,13.37,0,0,0-3-1.16,6.43,6.43,0,0,0-1.63-.11v.46a7.12,7.12,0,0,1,2.7.4,21.44,21.44,0,0,1,2,.88,9.93,9.93,0,0,0,4.1,1.28,12,12,0,0,0,4.48-1.08,19.49,19.49,0,0,1,2.83-.92c.33-.06.64-.11.95-.14v-.45a10.32,10.32,0,0,0-2.37.55Z" transform="translate(-5.4 -4)"/><path class="cls-1" d="M27.47,17A13.11,13.11,0,0,1,23,18.1,6.08,6.08,0,0,1,21.72,18a14,14,0,0,1-3-1.15,12.49,12.49,0,0,0-3-1.16,6,6,0,0,0-1.63-.11V16a7.54,7.54,0,0,1,2.7.4,21.44,21.44,0,0,1,2,.88,9.93,9.93,0,0,0,4.1,1.28,11.74,11.74,0,0,0,4.48-1.08,18.31,18.31,0,0,1,2.83-.91,6.61,6.61,0,0,1,.95-.14V16a10.2,10.2,0,0,0-2.37.55Z" transform="translate(-5.4 -4)"/><path class="cls-1" d="M27.49,9.16A13.09,13.09,0,0,1,23,10.26a6.06,6.06,0,0,1-1.26-.13,14,14,0,0,1-3-1.15,16.73,16.73,0,0,0-2.08-.9l-.59.28a5.75,5.75,0,0,1,.71.2,21.44,21.44,0,0,1,2,.88,9.93,9.93,0,0,0,4.11,1.28A11.93,11.93,0,0,0,27.4,9.64,21.31,21.31,0,0,1,30,8.77l-.59-.29-.63.2Z" transform="translate(-5.4 -4)"/><path class="cls-1" d="M27.49,9.81A12.89,12.89,0,0,1,23,10.92a5.47,5.47,0,0,1-1.26-.14,13.51,13.51,0,0,1-3-1.15,13.47,13.47,0,0,0-2.94-1.14l-.74.35a7.34,7.34,0,0,1,1.72.37,21.44,21.44,0,0,1,2,.88,10.1,10.1,0,0,0,4.11,1.29A12.37,12.37,0,0,0,27.4,10.3a18,18,0,0,1,2.83-.92,8.06,8.06,0,0,1,.93-.14V8.89h-.79a12.86,12.86,0,0,0-1.56.43Z" transform="translate(-5.4 -4)"/><path class="cls-1" d="M27.49,10.46A12.89,12.89,0,0,1,23,11.57a6.06,6.06,0,0,1-1.26-.13,13.53,13.53,0,0,1-3-1.16,13.37,13.37,0,0,0-3-1.16A6.55,6.55,0,0,0,14.07,9v.46a7.39,7.39,0,0,1,2.72.39,21.52,21.52,0,0,1,2,.89A10.24,10.24,0,0,0,22.93,12,12.17,12.17,0,0,0,27.4,11,20.31,20.31,0,0,1,30.23,10a8.06,8.06,0,0,1,.93-.14V9.43a11.44,11.44,0,0,0-2.35.55Z" transform="translate(-5.4 -4)"/><path class="cls-2" d="M21.49,14a9.35,9.35,0,0,1-1.26-.43h0l.33.13a9.42,9.42,0,0,0,1.2.36,6.15,6.15,0,0,0,1.27.13A7.76,7.76,0,0,0,24.63,14h-.27v-.13a10.52,10.52,0,0,0,1.2-.3h0A8.27,8.27,0,0,1,22.9,14,6.44,6.44,0,0,1,22,13.9l.42.09Z" transform="translate(-5.4 -4)"/><path class="cls-2" d="M18.79,13.56h0l.25.12a12.65,12.65,0,0,0,2.7,1,6.06,6.06,0,0,0,1.26.13A11.14,11.14,0,0,0,26.77,14h-.53l.34-.13.81-.3h0a12,12,0,0,1-4.46,1.07A7.64,7.64,0,0,1,20.18,14h-.49Z" transform="translate(-5.4 -4)"/><path class="cls-2" d="M17.37,13.56h0l.28.13c.37.16.74.33,1.1.51a14,14,0,0,0,3,1.15,6.08,6.08,0,0,0,1.26.14,12.89,12.89,0,0,0,4.49-1.11L28.54,14H28l.35-.13.9-.3h0c-.61.19-1.22.43-1.81.65a11.93,11.93,0,0,1-4.48,1.08A9.93,9.93,0,0,1,18.8,14l0,0h-.45Z" transform="translate(-5.4 -4)"/><path class="cls-2" d="M30.69,13.86l.13,0c-.2,0-.4.06-.61.11a18.31,18.31,0,0,0-2.83.91,11.93,11.93,0,0,1-4.48,1.08,9.93,9.93,0,0,1-4.1-1.28c-.48-.23-1-.46-1.48-.67h-.54a6.84,6.84,0,0,0-1.06-.3l-.23,0,.22,0a13.47,13.47,0,0,1,3,1.16,13,13,0,0,0,3,1.15,5.47,5.47,0,0,0,1.26.14A12.89,12.89,0,0,0,27.47,15l1.32-.48A10.87,10.87,0,0,1,31.16,14H30.7Z" transform="translate(-5.4 -4)"/><path class="cls-2" d="M31,13.82h0Z" transform="translate(-5.4 -4)"/><path class="cls-2" d="M27.38,15.52A12.17,12.17,0,0,1,22.9,16.6a10.24,10.24,0,0,1-4.1-1.28,19.21,19.21,0,0,0-2-.89,7.31,7.31,0,0,0-2.7-.39v.19a6.43,6.43,0,0,1,1.63.11,13.37,13.37,0,0,1,3,1.16,13.53,13.53,0,0,0,3,1.16,6.06,6.06,0,0,0,1.26.13,13.09,13.09,0,0,0,4.49-1.1c.44-.17.88-.34,1.32-.48a10.85,10.85,0,0,1,2.37-.56v-.19a8.39,8.39,0,0,0-.95.14A18.34,18.34,0,0,0,27.38,15.52Z" transform="translate(-5.4 -4)"/><path class="cls-2" d="M27.38,16.17a12.12,12.12,0,0,1-4.48,1.08A9.93,9.93,0,0,1,18.8,16a19.14,19.14,0,0,0-2-.88,7.12,7.12,0,0,0-2.7-.4v.19A6.43,6.43,0,0,1,15.7,15a13.37,13.37,0,0,1,3,1.16,13.53,13.53,0,0,0,3,1.16,6,6,0,0,0,1.26.13,13.09,13.09,0,0,0,4.49-1.1l1.32-.48a10.32,10.32,0,0,1,2.37-.55v-.2a8.39,8.39,0,0,0-.95.14A19.49,19.49,0,0,0,27.38,16.17Z" transform="translate(-5.4 -4)"/><path class="cls-2" d="M27.38,16.82A12,12,0,0,1,22.9,17.9a9.93,9.93,0,0,1-4.1-1.28,21.44,21.44,0,0,0-2-.88,7.12,7.12,0,0,0-2.7-.4v.2a6,6,0,0,1,1.63.11,12.49,12.49,0,0,1,3,1.16,14,14,0,0,0,3,1.15A6.08,6.08,0,0,0,23,18.1,13.11,13.11,0,0,0,27.47,17l1.32-.48A10.2,10.2,0,0,1,31.16,16v-.2c-.31,0-.62.08-.95.14A19.49,19.49,0,0,0,27.38,16.82Z" transform="translate(-5.4 -4)"/><path class="cls-2" d="M27.38,17.47a11.74,11.74,0,0,1-4.48,1.08,9.93,9.93,0,0,1-4.1-1.28,21.44,21.44,0,0,0-2-.88,7.54,7.54,0,0,0-2.7-.4v.2a6.43,6.43,0,0,1,1.63.11,13.37,13.37,0,0,1,3,1.16,13,13,0,0,0,3,1.15,5.41,5.41,0,0,0,1.26.14,12.89,12.89,0,0,0,4.49-1.11c.44-.16.88-.33,1.32-.48a10.74,10.74,0,0,1,2.37-.55v-.19a6.61,6.61,0,0,0-.95.14A18.31,18.31,0,0,0,27.38,17.47Z" transform="translate(-5.4 -4)"/><path class="cls-2" d="M27.38,18.13a12.37,12.37,0,0,1-4.48,1.08,10.24,10.24,0,0,1-4.1-1.28,19.21,19.21,0,0,0-2-.89,7.31,7.31,0,0,0-2.7-.39v.19A6.43,6.43,0,0,1,15.7,17a13.37,13.37,0,0,1,3,1.16,13.53,13.53,0,0,0,3,1.16A6.06,6.06,0,0,0,23,19.4a13.09,13.09,0,0,0,4.49-1.1c.44-.17.88-.34,1.32-.48a10.76,10.76,0,0,1,2.36-.56v-.19a8.23,8.23,0,0,0-.94.14A18.34,18.34,0,0,0,27.38,18.13Z" transform="translate(-5.4 -4)"/><path class="cls-2" d="M27.38,18.78a12.17,12.17,0,0,1-4.48,1.08,9.93,9.93,0,0,1-4.1-1.28,19.14,19.14,0,0,0-2-.88,7.12,7.12,0,0,0-2.7-.4v.19a6.43,6.43,0,0,1,1.63.11,13.37,13.37,0,0,1,3,1.16,13.53,13.53,0,0,0,3,1.16,6,6,0,0,0,1.26.13A13.09,13.09,0,0,0,27.47,19l1.32-.48a10.23,10.23,0,0,1,2.36-.55v-.2a8.23,8.23,0,0,0-.94.14A19.49,19.49,0,0,0,27.38,18.78Z" transform="translate(-5.4 -4)"/><path class="cls-2" d="M27.38,19.43a11.93,11.93,0,0,1-4.48,1.08,9.93,9.93,0,0,1-4.1-1.28,21.44,21.44,0,0,0-2-.88,7.12,7.12,0,0,0-2.7-.4v.2a6,6,0,0,1,1.63.11,12.49,12.49,0,0,1,3,1.16,14,14,0,0,0,3,1.15,6.08,6.08,0,0,0,1.26.14,12.89,12.89,0,0,0,4.49-1.11c.44-.16.88-.33,1.32-.48a10.23,10.23,0,0,1,2.36-.55v-.2c-.3,0-.62.08-.94.14A19.49,19.49,0,0,0,27.38,19.43Z" transform="translate(-5.4 -4)"/><path class="cls-2" d="M27.38,20.08a12.18,12.18,0,0,1-4.48,1.09,10.1,10.1,0,0,1-4.1-1.29,21.44,21.44,0,0,0-2-.88,7.54,7.54,0,0,0-2.7-.4v.2a6.43,6.43,0,0,1,1.63.11,13.37,13.37,0,0,1,3,1.16,13,13,0,0,0,3,1.15,5.41,5.41,0,0,0,1.26.14,12.89,12.89,0,0,0,4.49-1.11l1.32-.48a10.78,10.78,0,0,1,2.36-.55V19a6.48,6.48,0,0,0-.94.14A18.31,18.31,0,0,0,27.38,20.08Z" transform="translate(-5.4 -4)"/><path class="cls-2" d="M27.38,20.74a12.37,12.37,0,0,1-4.48,1.08,10.24,10.24,0,0,1-4.1-1.28,19.21,19.21,0,0,0-2-.89,7.31,7.31,0,0,0-2.7-.39v.19a6.43,6.43,0,0,1,1.63.11,13.37,13.37,0,0,1,3,1.16,13.53,13.53,0,0,0,3,1.16A6.06,6.06,0,0,0,23,22a13.09,13.09,0,0,0,4.49-1.1c.44-.17.88-.34,1.32-.48a10.76,10.76,0,0,1,2.36-.56v-.19a8.23,8.23,0,0,0-.94.14A18.34,18.34,0,0,0,27.38,20.74Z" transform="translate(-5.4 -4)"/><path class="cls-2" d="M27.38,21.39a12.17,12.17,0,0,1-4.48,1.08,9.93,9.93,0,0,1-4.1-1.28,19.14,19.14,0,0,0-2-.88,7.12,7.12,0,0,0-2.7-.4v.19a6.43,6.43,0,0,1,1.63.11,13.37,13.37,0,0,1,3,1.16,13.53,13.53,0,0,0,3,1.16,6,6,0,0,0,1.26.13,13.09,13.09,0,0,0,4.49-1.1l1.32-.48a10.23,10.23,0,0,1,2.36-.55v-.2a8.23,8.23,0,0,0-.94.14A19.49,19.49,0,0,0,27.38,21.39Z" transform="translate(-5.4 -4)"/><path class="cls-2" d="M27.38,22a11.93,11.93,0,0,1-4.48,1.08,9.93,9.93,0,0,1-4.1-1.28,21.44,21.44,0,0,0-2-.88,7.12,7.12,0,0,0-2.7-.4v.2a6,6,0,0,1,1.63.11,12.49,12.49,0,0,1,3,1.16,14,14,0,0,0,3,1.15,6.08,6.08,0,0,0,1.26.14,12.89,12.89,0,0,0,4.49-1.11c.44-.16.88-.33,1.32-.48a10.23,10.23,0,0,1,2.36-.55V21c-.3,0-.62.08-.94.14A19.49,19.49,0,0,0,27.38,22Z" transform="translate(-5.4 -4)"/><path class="cls-2" d="M27.38,22.69a12.18,12.18,0,0,1-4.48,1.09,10.1,10.1,0,0,1-4.1-1.29,21.44,21.44,0,0,0-2-.88,7.54,7.54,0,0,0-2.7-.4v.2a6.43,6.43,0,0,1,1.63.11,13.37,13.37,0,0,1,3,1.16,13,13,0,0,0,3,1.15A5.41,5.41,0,0,0,23,24a12.89,12.89,0,0,0,4.49-1.11l1.32-.48a10.78,10.78,0,0,1,2.36-.55v-.19a6.48,6.48,0,0,0-.94.14A18.31,18.31,0,0,0,27.38,22.69Z" transform="translate(-5.4 -4)"/><path class="cls-2" d="M27.38,23.35a12.37,12.37,0,0,1-4.48,1.08,10.24,10.24,0,0,1-4.1-1.28,19.21,19.21,0,0,0-2-.89,7.31,7.31,0,0,0-2.7-.39v.19a6.43,6.43,0,0,1,1.63.11,13.37,13.37,0,0,1,3,1.16,13.53,13.53,0,0,0,3,1.16,6.06,6.06,0,0,0,1.26.13,13.09,13.09,0,0,0,4.49-1.1L28.79,23a10.76,10.76,0,0,1,2.36-.56v-.19a8.23,8.23,0,0,0-.94.14A18.34,18.34,0,0,0,27.38,23.35Z" transform="translate(-5.4 -4)"/><path class="cls-2" d="M27.38,24a12.17,12.17,0,0,1-4.48,1.08,9.93,9.93,0,0,1-4.1-1.28,19.14,19.14,0,0,0-2-.88,7.12,7.12,0,0,0-2.7-.4v.19a6.43,6.43,0,0,1,1.63.11,13.37,13.37,0,0,1,3,1.16,13.53,13.53,0,0,0,3,1.16,6.06,6.06,0,0,0,1.26.13,13.09,13.09,0,0,0,4.49-1.1c.44-.16.88-.33,1.32-.48a10.23,10.23,0,0,1,2.36-.55v-.2a7.91,7.91,0,0,0-.94.14A19.49,19.49,0,0,0,27.38,24Z" transform="translate(-5.4 -4)"/><path class="cls-2" d="M27.38,24.65a11.93,11.93,0,0,1-4.48,1.08,9.93,9.93,0,0,1-4.1-1.28,21.44,21.44,0,0,0-2-.88,7.12,7.12,0,0,0-2.7-.4v.2a6,6,0,0,1,1.63.11,12.49,12.49,0,0,1,3,1.16,14,14,0,0,0,3,1.15,6.08,6.08,0,0,0,1.26.14,12.89,12.89,0,0,0,4.49-1.11c.44-.16.88-.33,1.32-.48a10.23,10.23,0,0,1,2.36-.55v-.2c-.31,0-.62.08-.94.14A19.49,19.49,0,0,0,27.38,24.65Z" transform="translate(-5.4 -4)"/><path class="cls-2" d="M27.38,25.3a12.18,12.18,0,0,1-4.48,1.09,10.1,10.1,0,0,1-4.1-1.29,21.44,21.44,0,0,0-2-.88,7.54,7.54,0,0,0-2.7-.4V24a6.43,6.43,0,0,1,1.63.11,13.37,13.37,0,0,1,3,1.16,13,13,0,0,0,3,1.15,5.47,5.47,0,0,0,1.26.14,12.89,12.89,0,0,0,4.49-1.11L28.79,25a11.08,11.08,0,0,1,2.33-.55c0-.06,0-.13,0-.19a8.06,8.06,0,0,0-.93.14A18.31,18.31,0,0,0,27.38,25.3Z" transform="translate(-5.4 -4)"/><path class="cls-2" d="M27.38,26A12.17,12.17,0,0,1,22.9,27a10.24,10.24,0,0,1-4.1-1.28,19.21,19.21,0,0,0-2-.89,7.16,7.16,0,0,0-2.67-.39,1.21,1.21,0,0,0,0,.19,6.09,6.09,0,0,1,1.59.11,13.37,13.37,0,0,1,3,1.16,13.53,13.53,0,0,0,3,1.16,6,6,0,0,0,1.26.13,13.09,13.09,0,0,0,4.49-1.1l1.32-.48a11.34,11.34,0,0,1,2.26-.55l0-.2c-.28,0-.57.08-.87.14A18.34,18.34,0,0,0,27.38,26Z" transform="translate(-5.4 -4)"/><path class="cls-2" d="M27.38,26.61a12.12,12.12,0,0,1-4.48,1.08,9.93,9.93,0,0,1-4.1-1.28,19.14,19.14,0,0,0-2-.88,7.26,7.26,0,0,0-2.6-.41l0,.2a6.32,6.32,0,0,1,1.5.11,13.37,13.37,0,0,1,3,1.16,13.53,13.53,0,0,0,3,1.16,6,6,0,0,0,1.26.13,13.09,13.09,0,0,0,4.49-1.1c.43-.16.88-.33,1.32-.48a10.87,10.87,0,0,1,2.13-.53c0-.06,0-.13,0-.2l-.76.12A19.49,19.49,0,0,0,27.38,26.61Z" transform="translate(-5.4 -4)"/><path class="cls-2" d="M27.38,27.26a11.93,11.93,0,0,1-4.48,1.08,9.93,9.93,0,0,1-4.1-1.28,21.44,21.44,0,0,0-2-.88,7.19,7.19,0,0,0-2.47-.4c0,.06,0,.12,0,.19a5.69,5.69,0,0,1,1.36.12,12.49,12.49,0,0,1,3,1.16,14,14,0,0,0,3,1.15,6.08,6.08,0,0,0,1.26.14,12.89,12.89,0,0,0,4.49-1.11L28.79,27a11.64,11.64,0,0,1,1.94-.5,1.18,1.18,0,0,1,.07-.2c-.2,0-.39.05-.59.09A19.49,19.49,0,0,0,27.38,27.26Z" transform="translate(-5.4 -4)"/><path class="cls-2" d="M27.38,27.91A11.94,11.94,0,0,1,22.9,29a10.1,10.1,0,0,1-4.1-1.29,21.44,21.44,0,0,0-2-.88,7.21,7.21,0,0,0-2.29-.4l.06.19a5.71,5.71,0,0,1,1.16.12,13.37,13.37,0,0,1,3,1.16,13,13,0,0,0,3,1.15,5.47,5.47,0,0,0,1.26.14,12.89,12.89,0,0,0,4.49-1.11l1.32-.48a12.7,12.7,0,0,1,1.68-.45l.09-.22-.35.07A18.31,18.31,0,0,0,27.38,27.91Z" transform="translate(-5.4 -4)"/><path class="cls-2" d="M27.38,28.57a12.37,12.37,0,0,1-4.48,1.08,10.24,10.24,0,0,1-4.1-1.28,19.21,19.21,0,0,0-2-.89,7.29,7.29,0,0,0-2-.39c0,.06,0,.13.08.19a6.91,6.91,0,0,1,.9.11,13.37,13.37,0,0,1,3,1.16,13.53,13.53,0,0,0,3,1.16,6,6,0,0,0,1.26.13,13.09,13.09,0,0,0,4.49-1.1l1.32-.48a12.48,12.48,0,0,1,1.33-.39,1.67,1.67,0,0,0,.12-.23h0A18.34,18.34,0,0,0,27.38,28.57Z" transform="translate(-5.4 -4)"/><path class="cls-2" d="M22.9,30.3A9.93,9.93,0,0,1,18.8,29a19.14,19.14,0,0,0-2-.88A7,7,0,0,0,15,27.76l.11.2.56.08a13.37,13.37,0,0,1,3,1.16,13.53,13.53,0,0,0,3,1.16,6.06,6.06,0,0,0,1.26.13,13.09,13.09,0,0,0,4.49-1.1c.44-.16.88-.33,1.32-.48l.86-.27.17-.24a21.83,21.83,0,0,0-2.44.82A12.12,12.12,0,0,1,22.9,30.3Z" transform="translate(-5.4 -4)"/><path class="cls-2" d="M22.9,31a9.93,9.93,0,0,1-4.1-1.28,21.44,21.44,0,0,0-2-.88,7.83,7.83,0,0,0-1.33-.33l.15.22.11,0a12.49,12.49,0,0,1,3,1.16,14,14,0,0,0,3,1.15,6.08,6.08,0,0,0,1.26.14A12.89,12.89,0,0,0,27.47,30l1.32-.48L29,29.5a3.47,3.47,0,0,0,.25-.29c-.63.2-1.25.43-1.85.66A12,12,0,0,1,22.9,31Z" transform="translate(-5.4 -4)"/><path class="cls-2" d="M22.9,31.61a10.1,10.1,0,0,1-4.1-1.29,21.44,21.44,0,0,0-2-.88c-.26-.09-.52-.16-.77-.22l.21.26a15,15,0,0,1,2.52,1,13,13,0,0,0,3,1.15A5.47,5.47,0,0,0,23,31.8a12.89,12.89,0,0,0,4.49-1.11l.39-.14c.16-.12.3-.25.45-.37l-.93.34A12.14,12.14,0,0,1,22.9,31.61Z" transform="translate(-5.4 -4)"/><path class="cls-2" d="M18.8,31a19.9,19.9,0,0,0-1.95-.86,5.58,5.58,0,0,0,.46.39c.48.2,1,.43,1.42.65a13.89,13.89,0,0,0,2.95,1.15c.3,0,.61,0,.93,0h0a8.56,8.56,0,0,0,3.08-.58,8.52,8.52,0,0,1-2.79.48A10.24,10.24,0,0,1,18.8,31Z" transform="translate(-5.4 -4)"/><path class="cls-2" d="M23.79,5.65l-.32-.16a4.87,4.87,0,0,1-.54,0,4.4,4.4,0,0,1-.73-.06l-.32.15A6.16,6.16,0,0,0,23,5.7,6.84,6.84,0,0,0,23.79,5.65Z" transform="translate(-5.4 -4)"/><path class="cls-2" d="M23,6.35a7.44,7.44,0,0,0,1.76-.22L24.49,6a6.77,6.77,0,0,1-1.56.16,6.47,6.47,0,0,1-1.66-.27L21,6c.24.08.49.15.74.21A6.06,6.06,0,0,0,23,6.35Z" transform="translate(-5.4 -4)"/><path class="cls-2" d="M23,7a8.93,8.93,0,0,0,2.61-.44l-.24-.12a8.44,8.44,0,0,1-2.44.37,7.11,7.11,0,0,1-2.46-.55l-.25.12a9,9,0,0,0,1.52.49A6.06,6.06,0,0,0,23,7Z" transform="translate(-5.4 -4)"/><path class="cls-2" d="M23,7.65A10.21,10.21,0,0,0,26.39,7l-.23-.11a9.36,9.36,0,0,1-3.23.62,8.22,8.22,0,0,1-3.19-.85l-.23.11a10.77,10.77,0,0,0,2.23.8A6.06,6.06,0,0,0,23,7.65Z" transform="translate(-5.4 -4)"/><path class="cls-2" d="M23,8.31a12,12,0,0,0,4.15-1l-.24-.11a10.68,10.68,0,0,1-4,.89,9.46,9.46,0,0,1-3.88-1.17l-.23.11a13.06,13.06,0,0,0,2.92,1.12A5.47,5.47,0,0,0,23,8.31Z" transform="translate(-5.4 -4)"/><path class="cls-2" d="M21.74,8.83A6.06,6.06,0,0,0,23,9a12.89,12.89,0,0,0,4.49-1.11l.4-.14-.23-.12-.26.09a11.94,11.94,0,0,1-4.47,1.09,10.1,10.1,0,0,1-4.11-1.29l-.45-.21-.23.11.61.29A13.53,13.53,0,0,0,21.74,8.83Z" transform="translate(-5.4 -4)"/><path class="cls-2" d="M21.74,9.48A6.06,6.06,0,0,0,23,9.61a13.09,13.09,0,0,0,4.49-1.1l1.16-.43L28.4,8l-1,.38a12.17,12.17,0,0,1-4.47,1.08,10.24,10.24,0,0,1-4.11-1.28c-.38-.18-.76-.37-1.15-.54l-.24.12c.45.18.89.39,1.32.6A13.53,13.53,0,0,0,21.74,9.48Z" transform="translate(-5.4 -4)"/><path class="cls-2" d="M27.4,9a12.12,12.12,0,0,1-4.47,1.08,9.93,9.93,0,0,1-4.11-1.28A18.83,18.83,0,0,0,16.92,8l-.25.12a16.73,16.73,0,0,1,2.08.9,14,14,0,0,0,3,1.15,6.06,6.06,0,0,0,1.26.13,13.09,13.09,0,0,0,4.49-1.1l1.32-.48.63-.2-.26-.13C28.58,8.54,28,8.77,27.4,9Z" transform="translate(-5.4 -4)"/><path class="cls-2" d="M22.93,10.72a9.93,9.93,0,0,1-4.11-1.28,21.44,21.44,0,0,0-2-.88,5.75,5.75,0,0,0-.71-.2l-.27.13a13.47,13.47,0,0,1,2.94,1.14,13.51,13.51,0,0,0,3,1.15,5.47,5.47,0,0,0,1.26.14,12.89,12.89,0,0,0,4.49-1.11l1.32-.48a12.86,12.86,0,0,1,1.56-.43h-.09L30,8.77a21.31,21.31,0,0,0-2.63.87A11.93,11.93,0,0,1,22.93,10.72Z" transform="translate(-5.4 -4)"/><path class="cls-2" d="M27.4,10.3a12.37,12.37,0,0,1-4.47,1.08,10.1,10.1,0,0,1-4.11-1.29,21.44,21.44,0,0,0-2-.88,7.34,7.34,0,0,0-1.72-.37l-.13.06h-.87V9a6.55,6.55,0,0,1,1.65.11,13.37,13.37,0,0,1,3,1.16,13.53,13.53,0,0,0,3,1.16,6.06,6.06,0,0,0,1.26.13,12.89,12.89,0,0,0,4.49-1.11L28.81,10a11.44,11.44,0,0,1,2.35-.55V9.24a8.06,8.06,0,0,0-.93.14A18,18,0,0,0,27.4,10.3Z" transform="translate(-5.4 -4)"/><path class="cls-2" d="M27.4,11A12.17,12.17,0,0,1,22.93,12a10.24,10.24,0,0,1-4.11-1.28,21.52,21.52,0,0,0-2-.89,7.39,7.39,0,0,0-2.72-.39v.19a6.55,6.55,0,0,1,1.65.11,13.37,13.37,0,0,1,3,1.16,13.53,13.53,0,0,0,3,1.16,6.06,6.06,0,0,0,1.26.13,13.09,13.09,0,0,0,4.49-1.1l1.32-.48a10.27,10.27,0,0,1,2.35-.55v-.2a8.06,8.06,0,0,0-.93.14A20.31,20.31,0,0,0,27.4,11Z" transform="translate(-5.4 -4)"/><path class="cls-2" d="M27.4,11.6a12.12,12.12,0,0,1-4.47,1.08,9.93,9.93,0,0,1-4.11-1.28,19.14,19.14,0,0,0-2-.88,7.22,7.22,0,0,0-2.72-.4v.2a6.11,6.11,0,0,1,1.65.1,12.94,12.94,0,0,1,3,1.17,14,14,0,0,0,3,1.15,6.06,6.06,0,0,0,1.26.13,13.09,13.09,0,0,0,4.49-1.1l1.32-.48a10.27,10.27,0,0,1,2.35-.55v-.2c-.3,0-.61.08-.93.14A20.31,20.31,0,0,0,27.4,11.6Z" transform="translate(-5.4 -4)"/><path class="cls-2" d="M27.4,12.25a12,12,0,0,1-4.47,1.08,9.93,9.93,0,0,1-4.11-1.28,21.44,21.44,0,0,0-2-.88,7.19,7.19,0,0,0-2.72-.4V11a6.12,6.12,0,0,1,1.65.11,12.91,12.91,0,0,1,3,1.16,13.51,13.51,0,0,0,3,1.15,5.47,5.47,0,0,0,1.26.14,12.89,12.89,0,0,0,4.49-1.11l1.32-.48a11.44,11.44,0,0,1,2.35-.55V11.2a6.35,6.35,0,0,0-.93.14A19,19,0,0,0,27.4,12.25Z" transform="translate(-5.4 -4)"/><path class="cls-2" d="M15.72,11.73a13.37,13.37,0,0,1,3,1.16c.48.23,1,.47,1.48.67h.54A8.22,8.22,0,0,0,22,13.9l-.2,0a12.91,12.91,0,0,1-3-1.16,21.44,21.44,0,0,0-2-.88,7,7,0,0,0-2.72-.39v.19A6.55,6.55,0,0,1,15.72,11.73Z" transform="translate(-5.4 -4)"/><path class="cls-2" d="M20.23,13.56a9.35,9.35,0,0,0,1.26.43h1L22,13.9a8.22,8.22,0,0,1-1.27-.33Z" transform="translate(-5.4 -4)"/><path class="cls-2" d="M27.4,12.91c-.61.23-1.22.46-1.85.65h.6l-.4.13c-.34.11-.72.21-1.12.3h0a20.31,20.31,0,0,0,2.83-.92l1.32-.48A11.44,11.44,0,0,1,31.16,12v-.19a8.06,8.06,0,0,0-.93.14A19.07,19.07,0,0,0,27.4,12.91Z" transform="translate(-5.4 -4)"/><path class="cls-2" d="M24.36,14h.27c.4-.09.78-.19,1.12-.3l.4-.13h-.6a10.52,10.52,0,0,1-1.2.3Z" transform="translate(-5.4 -4)"/><path class="cls-2" d="M15.72,12.38a13.37,13.37,0,0,1,3,1.16l0,0h.45c.31.14.62.29.94.42h0l-.28-.12c-.37-.16-.74-.34-1.1-.51a21.52,21.52,0,0,0-2-.89,7.39,7.39,0,0,0-2.72-.39v.19A6.55,6.55,0,0,1,15.72,12.38Z" transform="translate(-5.4 -4)"/><path class="cls-2" d="M18.79,13.56l.9.42h.49c-.32-.13-.63-.28-.94-.42Z" transform="translate(-5.4 -4)"/><path class="cls-2" d="M27.4,13.56h.52l-.45.17-.7.26h0l.7-.26c.43-.17.88-.33,1.31-.48a10.14,10.14,0,0,1,2.35-.55v-.2a8.06,8.06,0,0,0-.93.14A20.31,20.31,0,0,0,27.4,13.56Z" transform="translate(-5.4 -4)"/><path class="cls-2" d="M26.24,14h.53l.7-.26.45-.17h-.53c-.27.1-.54.21-.81.3Z" transform="translate(-5.4 -4)"/><path class="cls-2" d="M15.72,13a9.64,9.64,0,0,1,1.65.53h.48c.31.13.61.28.91.42h0l-.26-.12a15.51,15.51,0,0,0-1.73-.74,7.22,7.22,0,0,0-2.72-.4v.2A6.11,6.11,0,0,1,15.72,13Z" transform="translate(-5.4 -4)"/><path class="cls-2" d="M17.37,13.56l.94.42h.45c-.3-.14-.6-.29-.91-.42Z" transform="translate(-5.4 -4)"/><path class="cls-2" d="M29.22,13.56h.68l-.43.13-.68.21-.25.09h0l.25-.09a10.14,10.14,0,0,1,2.35-.55v-.2c-.3,0-.61.08-.93.14S29.58,13.45,29.22,13.56Z" transform="translate(-5.4 -4)"/><path class="cls-2" d="M28,14h.57l.25-.09.68-.21.43-.13h-.68l-.9.3Z" transform="translate(-5.4 -4)"/><path class="cls-2" d="M15.49,13.65l-.41-.09H16a7.08,7.08,0,0,1,.75.22l.55.21h0L17,13.87l-.23-.09a7.19,7.19,0,0,0-2.72-.4v.19A6.85,6.85,0,0,1,15.49,13.65Z" transform="translate(-5.4 -4)"/><path class="cls-2" d="M16,13.56h-.94l.41.09.23,0a6.84,6.84,0,0,1,1.06.3h.54l-.55-.21A7.08,7.08,0,0,0,16,13.56Z" transform="translate(-5.4 -4)"/><path class="cls-2" d="M30.82,13.84l.18,0Z" transform="translate(-5.4 -4)"/><path class="cls-2" d="M31.16,13.81Z" transform="translate(-5.4 -4)"/><path class="cls-2" d="M31,13.82l-.18,0-.13,0V14h.46v-.18H31Z" transform="translate(-5.4 -4)"/><path class="cls-3" d="M22.61,33.44a9.54,9.54,0,0,1-9.52-9.52V8.31a.46.46,0,0,1,.47-.46h1.36L22.8,4l7.53,3.85h1.34a.45.45,0,0,1,.46.46V23.92A9.53,9.53,0,0,1,22.61,33.44ZM13.74,8.49V23.92a8.88,8.88,0,0,0,17.75,0V8.49H30.17L22.8,4.72,15.07,8.49Z" transform="translate(-5.4 -4)"/><g class="cls-4"><path class="cls-5" d="M32,28.07a.13.13,0,0,1-.08,0l0,0h0a.09.09,0,0,1-.06,0,55.4,55.4,0,0,1-5-2.45l-.5-.27c-.08,0-.1-.1-.11-.2a3.49,3.49,0,0,0-.08-1c0-.09,0-.09.09-.1a8.74,8.74,0,0,1,.87-.14,1.73,1.73,0,0,0,.46-.12,1,1,0,0,0,.66-1,3,3,0,0,1,.29-1.36c.14-.36.19-.75.3-1.12a6.41,6.41,0,0,0,.27-.95.9.9,0,0,1,.22-.51.89.89,0,0,0,.1-.94,1.79,1.79,0,0,0-.2-.39s0-.06,0-.08a1.51,1.51,0,0,0,.91-1.09c0-.13.07-.23.22-.26s.18-.16.16-.32-.07-.21-.22-.23-.09,0-.11-.12a1.51,1.51,0,0,0-.65-.93.13.13,0,0,1-.06-.14.38.38,0,0,0-.07-.25,7.83,7.83,0,0,1-.65-1.58,4,4,0,0,0-1.49-2.28c-.08-.06-.14-.11-.12-.23a1.61,1.61,0,0,0-.87-1.76A3.26,3.26,0,0,0,25,7.78c-.56-.07-1.13-.06-1.7-.09s-1.24,0-1.87.1a6.93,6.93,0,0,0-3,1.09A7.37,7.37,0,0,0,17,10.19a8.81,8.81,0,0,0-.93,1.25,3.77,3.77,0,0,0-.58,2.37,4.1,4.1,0,0,1,.06.78,3.79,3.79,0,0,0,0,.89,4.91,4.91,0,0,0,.29,1.26c.24.64.44,1.3.71,1.93a12,12,0,0,0,1.06,1.8,1.17,1.17,0,0,0,.48.43.12.12,0,0,1,.08.11l0,.55c0,.09,0,.13-.12.16a.69.69,0,0,0-.49.54c-.16.65-.42,1.26-.63,1.88a.17.17,0,0,1-.07.1c-.61.42-1.21.86-1.83,1.28-.4.26-.83.49-1.24.74,0,0-.08,0-.1,0a1.64,1.64,0,0,1-.22.14,13.31,13.31,0,0,0,2.68,3.5,11.13,11.13,0,0,0,7.3,2.95,9.52,9.52,0,0,0,1.6-.14,10.24,10.24,0,0,0,2.9-.93,11.65,11.65,0,0,0,3.71-2.88c.2-.24.39-.48.58-.73Z" transform="translate(-5.4 -4)"/><path class="cls-3" d="M25.62,9.3a3.14,3.14,0,0,1,.18.31s0,.08.09.07,0-.08,0-.12a.84.84,0,0,0-.17-.4,1.92,1.92,0,0,0-1.49-.77,3.33,3.33,0,0,0-1.52.32c-1.42.63-2.76,1.42-4.14,2.13,0,0-.07,0-.08.08s.1,0,.15,0c1-.42,2-1,3-1.48a10,10,0,0,1,1.49-.68,2.28,2.28,0,0,1,1.24-.13A1.8,1.8,0,0,1,25.62,9.3Z" transform="translate(-5.4 -4)"/><path class="cls-3" d="M24.22,12.51a4.07,4.07,0,0,1,1.83-.21,16.4,16.4,0,0,0,1.85.23,2.33,2.33,0,0,1,.33.06.12.12,0,0,0-.11-.1,1.11,1.11,0,0,0-.44-.08,6.52,6.52,0,0,1-1.31-.16,3.88,3.88,0,0,0-2.13.18.26.26,0,0,0-.16.1h0Z" transform="translate(-5.4 -4)"/><path class="cls-3" d="M27.87,11.89a.19.19,0,0,0-.11-.07,3.64,3.64,0,0,0-.86-.17,9.24,9.24,0,0,0-1.82-.07,3.21,3.21,0,0,0-1,.26A8.81,8.81,0,0,1,27.87,11.89Z" transform="translate(-5.4 -4)"/><path class="cls-3" d="M24.33,8.81a4,4,0,0,1,1.15.82C25.36,9.21,24.66,8.7,24.33,8.81Z" transform="translate(-5.4 -4)"/><path class="cls-3" d="M32,28.1l-.08,0,0,0h0l-.06,0c-1.7-.78-3.41-1.51-5-2.45-.16-.1-.32-.18-.49-.27s-.1-.1-.11-.2a3.49,3.49,0,0,0-.08-1c0-.1,0-.1.09-.11l.87-.14a1.82,1.82,0,0,0,.46-.11,1,1,0,0,0,.66-1,3,3,0,0,1,.29-1.36c.13-.37.18-.76.3-1.13a6,6,0,0,0,.27-.94.9.9,0,0,1,.21-.51.9.9,0,0,0,.11-1,2.75,2.75,0,0,0-.2-.38s0-.06,0-.08A1.51,1.51,0,0,0,30,16.28c0-.13.07-.23.22-.26s.18-.16.16-.32a.22.22,0,0,0-.22-.24.11.11,0,0,1-.11-.11,1.46,1.46,0,0,0-.65-.93.12.12,0,0,1-.06-.14A.51.51,0,0,0,29.3,14a8,8,0,0,1-.65-1.57,4,4,0,0,0-1.5-2.28A.22.22,0,0,1,27,9.93a1.59,1.59,0,0,0-.87-1.75A3.14,3.14,0,0,0,25,7.81c-.57-.07-1.13-.06-1.7-.09s-1.25,0-1.87.09a6.94,6.94,0,0,0-3,1.1A7,7,0,0,0,17,10.21a9.42,9.42,0,0,0-.93,1.25,3.82,3.82,0,0,0-.58,2.38,4.1,4.1,0,0,1,.06.78,3.78,3.78,0,0,0,0,.89,5,5,0,0,0,.29,1.26c.24.64.43,1.3.71,1.92a11.28,11.28,0,0,0,1.06,1.81,1.19,1.19,0,0,0,.47.42c.05,0,.09,0,.09.11l0,.55a.16.16,0,0,1-.12.17.71.71,0,0,0-.5.54c-.15.64-.41,1.25-.62,1.88a.16.16,0,0,1-.07.09c-.61.43-1.21.87-1.83,1.28-.4.27-.83.5-1.24.75-.05,0-.08,0-.1,0l-.22.14a13.1,13.1,0,0,0,2.68,3.49A11,11,0,0,0,19,31.87a10.79,10.79,0,0,0,4.42,1,9.31,9.31,0,0,0,1.59-.14A10.63,10.63,0,0,0,28,31.82a11.5,11.5,0,0,0,3.7-2.88c.21-.24.4-.48.59-.73Zm-1.07.22-.8.65a20.42,20.42,0,0,1-2.75,1.77c-.65.37-1.3.74-1.92,1.16,0,0-.11.1-.15,0s.05-.1.1-.13c1-.68,2-1.25,3.09-1.84a16.75,16.75,0,0,0,1.92-1.32l.49-.36Zm-1.58-.72a3.56,3.56,0,0,1-.68.55c-.63.42-1.3.77-1.95,1.16-.86.53-1.72,1.06-2.57,1.63-.05,0-.12.12-.16.06s.06-.12.12-.15C25,30.21,26,29.59,27,29a23.87,23.87,0,0,0,2.22-1.35Zm-.4-.2,0,0a4.6,4.6,0,0,1-.51.39c-.63.42-1.29.78-1.93,1.16q-1.28.78-2.52,1.59s-.08.07-.14.06.07-.12.12-.15c.75-.52,1.53-1,2.31-1.47s1.55-.88,2.3-1.37Zm-.8-.33c-1.07.74-2.21,1.36-3.3,2.05A31.25,31.25,0,0,1,28.11,27.07ZM24.75,28.7c.95-.7,2-1.25,3-1.88A32.51,32.51,0,0,1,24.75,28.7Zm-.35-.2a31.11,31.11,0,0,1,3-1.86C26.42,27.29,25.4,27.87,24.4,28.5Zm.11.53c0,.22-.08.34-.23.34S24,29.16,24,29a.29.29,0,0,1,.25-.3C24.35,28.67,24.51,28.86,24.51,29Zm4.83-14.35a1.23,1.23,0,0,1,.53,1.26,1.42,1.42,0,0,1-.54,1,1,1,0,0,1-.32.17c-.05,0-.11,0-.13-.05S28.94,17,29,17a1.33,1.33,0,0,0,.79-1.25,1.2,1.2,0,0,0-.31-.89.71.71,0,0,0-1.12.07,1.39,1.39,0,0,0-.16.35c0,.05,0,.11-.11.11a.93.93,0,0,1,.69-.87A.84.84,0,0,1,29.34,14.68Zm-.62,1.45v.58l-.38-.64a.25.25,0,0,0,.27-.11s0,0,.06,0,0,.05,0,.07-.11.11-.13.19S28.64,16.16,28.72,16.13Zm-.29-.84s-.06,0,0,0,.06-.12.14-.11a.41.41,0,0,1,.32.46A.49.49,0,0,0,28.43,15.29Zm.34-.18a.46.46,0,0,0-.21,0,.54.54,0,0,1,.34-.19c.07,0,.11,0,.1.09s0,.17,0,.26A1.18,1.18,0,0,0,28.77,15.11Zm.75.75c.06,0,.09,0,.08.09a1.12,1.12,0,0,1-.56.91c-.06,0-.08,0-.08,0v-.24A3.83,3.83,0,0,1,29,16a.12.12,0,0,1,.13-.12Zm-.31-.43a3,3,0,0,0,.05-.42s0-.09,0-.1.07,0,.09,0a.81.81,0,0,1,.25.47c0,.17,0,.2-.15.2h-.11C29.18,15.62,29.18,15.62,29.21,15.43ZM16.4,16.91a1,1,0,0,1,0,.25,1.77,1.77,0,0,1,.05-.56,3.64,3.64,0,0,1,.9-1.7c.37-.45.71-.93,1.06-1.39a4,4,0,0,1,.67-.7.27.27,0,0,0,.08-.1,1.22,1.22,0,0,0-.38.26,5.46,5.46,0,0,0-.78.88c-.33.42-.69.81-1,1.24a3.09,3.09,0,0,0-.6,1.15c-.05.17-.07.35-.11.55a.85.85,0,0,1,0-.59,4.36,4.36,0,0,1,.86-1.67,13.77,13.77,0,0,0,1-1.39,3.94,3.94,0,0,1,.91-1s0,0,.08-.06a.2.2,0,0,0-.17.05,3.51,3.51,0,0,0-1,1.05,18.56,18.56,0,0,1-1.19,1.61,3.59,3.59,0,0,0-.63,1.44.15.15,0,0,0,0,.07,3.49,3.49,0,0,1,.45-1.41c.41-.71.89-1.39,1.35-2.07a3.25,3.25,0,0,1,.59-.64l.08-.09a.18.18,0,0,0-.15.06,3.19,3.19,0,0,0-.91,1c-.27.46-.6.87-.87,1.33a7.69,7.69,0,0,1,.71-1.54,4.35,4.35,0,0,1,1.08-1.14,7,7,0,0,1,1.68-1.11,1.12,1.12,0,0,0,.18-.1,13.27,13.27,0,0,1-1.46,1.35,5.31,5.31,0,0,0,1.38-1,3.42,3.42,0,0,1-.33.84c-.16.25-.39.43-.53.68A3.35,3.35,0,0,0,20.41,11a1.52,1.52,0,0,1-.14.71,3.76,3.76,0,0,1-.36.61,2.37,2.37,0,0,0,.69-1,3.49,3.49,0,0,1-.26,1.32,3.42,3.42,0,0,1-.79,1.06,2.28,2.28,0,0,0,.51-.42,2.74,2.74,0,0,0,.65-1.46.39.39,0,0,1,.27-.32,5.4,5.4,0,0,1,1.27-.47.61.61,0,0,0,.23-.09.21.21,0,0,0-.17,0,4.53,4.53,0,0,0-1.52.5s-.06.05-.08,0-.05-.11,0-.15a.41.41,0,0,1,.11-.07,6.68,6.68,0,0,1,1.43-.48s0,0,.07,0a.68.68,0,0,0-.43,0,7.38,7.38,0,0,0-1.12.38s-.09.08-.12,0,0-.1.08-.13A4.58,4.58,0,0,1,22,10.5a2.13,2.13,0,0,0,.33-.11,1.1,1.1,0,0,0-.48,0,4.75,4.75,0,0,0-1.05.33c-.05,0-.09,0-.12,0s0-.08.06-.1a2.47,2.47,0,0,1,.87-.32l.72-.19A.11.11,0,0,0,22.4,10a13.21,13.21,0,0,0-1.31.25,4.88,4.88,0,0,1,2-.52v0h-.56a2.85,2.85,0,0,1,.92-.08A1.45,1.45,0,0,0,23,9.5a2.73,2.73,0,0,1,.76.07s.14.06.16,0-.07-.09-.12-.12a1.09,1.09,0,0,0-.19-.1.39.39,0,0,1,.25,0l.53.19s.08.05.11,0,0-.08-.06-.11a1.31,1.31,0,0,0-1-.36,1.45,1.45,0,0,1,.87.09,2.77,2.77,0,0,1,.75.49A.18.18,0,0,0,25,9.51a1.38,1.38,0,0,0-1.51-.61,4.08,4.08,0,0,0-1,.37c-.43.24-.9.39-1.35.6a11.65,11.65,0,0,0-2.76,1.68,5.39,5.39,0,0,0-.57.6,6.84,6.84,0,0,0-.82,1.1,7.2,7.2,0,0,0-.53,1.08c-.12.36-.25.72-.38,1.08-.05.15-.08.3-.12.45a7,7,0,0,1,.67-2.39A6.23,6.23,0,0,1,18,11.42c-.05,0-.07,0-.1,0a4.14,4.14,0,0,0-1.19,1.49c-.34.7-.59,1.43-.89,2.17a2.81,2.81,0,0,1,.12-.82,17.21,17.21,0,0,1,.88-2,5.51,5.51,0,0,1,1.76-1.83c.05,0,.12,0,.16-.16a5.46,5.46,0,0,0-1.86,1.61,6.71,6.71,0,0,0-1,2.28,5.36,5.36,0,0,1,1.92-3.73,3.41,3.41,0,0,0-1.33,1.34,9.19,9.19,0,0,0-.74,1.77,2.53,2.53,0,0,1,.11-.91A4.57,4.57,0,0,1,16.69,11,10.92,10.92,0,0,1,18,9.54a5.51,5.51,0,0,1,1.56-1,7.12,7.12,0,0,1,1.81-.48,2.74,2.74,0,0,1,.5,0c.61,0,1.22,0,1.84,0a6.74,6.74,0,0,1,1.89.22A1.66,1.66,0,0,1,26.81,9.5a.75.75,0,0,1,0,.42c-.06-.1,0-.21,0-.31a.7.7,0,0,0-.17-.3c0,.19.09.36,0,.51A1.5,1.5,0,0,0,26.35,9a.25.25,0,0,0,0,.17,2.5,2.5,0,0,1,.06.67c0,.07.06.08.1.11a5,5,0,0,1,1.77,2.22c.05.16.1.32.14.47a5.63,5.63,0,0,0,.48,1.22L29,14c.05.15,0,.21-.17.23,0-.06.06-.08.09-.11s.09-.07,0-.13-.07,0-.1.05a.46.46,0,0,1-.27.16c0-.1.12-.14.09-.27a5.57,5.57,0,0,1-.51.44c.06-.18.2-.28.23-.44a1.77,1.77,0,0,0-.41.41,2.12,2.12,0,0,0-.22-.88c0,.15.05.31.07.46a1.88,1.88,0,0,1-.22,1.14.27.27,0,0,1-.14.14h-.05c-.11-.16-.17,0-.28,0a1,1,0,0,1,.16-.24s.06-.07,0-.11-.07,0-.1,0l-.09.08s0,.08-.08,0a.07.07,0,0,1,0-.12,2.09,2.09,0,0,0,.2-.22s.05-.05,0-.09-.2.18-.36.19a1.37,1.37,0,0,0,.43-1.56H27.3c0,.14,0,.28,0,.42a1.16,1.16,0,0,1-.12.69c-.06.14-.21.18-.32.25h-.05s0,0,0-.07a.92.92,0,0,1,.22-.26.24.24,0,0,0,.1-.25,2.07,2.07,0,0,1-.52.3l.22-.24s.1-.08.06-.12-.1,0-.14,0a1.22,1.22,0,0,1-.3.16,1.25,1.25,0,0,1,.23-.23s.09-.07.05-.11-.07,0-.1,0-.2.14-.31.2a.17.17,0,0,1-.14.05c.05-.17.24-.22.31-.41-.25.13-.42.3-.67.41.09-.15.26-.22.27-.4a2.08,2.08,0,0,1-.7.42,3.12,3.12,0,0,0,.43-.46,10.08,10.08,0,0,1-.87.57,2.52,2.52,0,0,0,.47-.53c-.29.19-.52.46-.8.67a4.88,4.88,0,0,0,.48-.62c-.37.26-.63.65-1,.92a8.23,8.23,0,0,1,.54-.7.16.16,0,0,0-.13.06,10,10,0,0,0-.83,1s-.05.05,0,.08.06,0,.08,0a3.46,3.46,0,0,1,1-.48c.12,0,.19-.17.35-.19-.4.33-.82.59-1.2.92a2.58,2.58,0,0,0,.7-.36.42.42,0,0,1-.36.4l-.89,0c-.44,0-.89,0-1.33.06a.35.35,0,0,1-.17,0l.21-.12c.4-.2.81-.39,1.21-.62,0,0,.11,0,.11-.13l-.57.26c-.32.16-.64.31-.95.48a1.33,1.33,0,0,1-.83.17c.6-.34,1.23-.58,1.84-1a.19.19,0,0,0-.21,0c-.59.26-1.17.51-1.73.82a1.11,1.11,0,0,1-.3.12s-.1,0-.12,0,0-.09,0-.13.09-.06.14-.08c.94-.45,1.86-1,2.83-1.35l.09-.07a14.8,14.8,0,0,0-3,1.28.29.29,0,0,1,.17-.31,21.57,21.57,0,0,1,2-1l.67-.29a.19.19,0,0,0-.18,0,14.38,14.38,0,0,0-2.49,1.07s0,.05-.08,0,0-.07,0-.1a.49.49,0,0,1,.23-.24c.59-.31,1.19-.6,1.81-.86a3.65,3.65,0,0,0,.53-.25,11.29,11.29,0,0,0-2.33.92.56.56,0,0,1,.34-.42c.6-.27,1.19-.55,1.8-.78,0,0,0,0,.05-.08a10.11,10.11,0,0,0-2.06.8c0-.18.13-.35.05-.53-.05,0-.05,0-.06.07a2.41,2.41,0,0,1-.62,1.22,3.83,3.83,0,0,0-.36.44,1.39,1.39,0,0,0-.21.6c0,.14-.11.11-.19.11s0-.08,0-.14a2,2,0,0,1,.66-1.19A2.54,2.54,0,0,0,21,13s0-.09,0-.14S21,12.91,21,13a3.41,3.41,0,0,1-.69,1.1,2.5,2.5,0,0,0-.76,1.34.43.43,0,0,0,0,0,.12.12,0,0,1-.12.07c-.07,0-.05-.08,0-.13l.1-.28s0-.06,0-.12a1,1,0,0,0-.24.41.76.76,0,0,1,0,.11c0,.05-.07,0-.1,0s0,0,0-.08a5.39,5.39,0,0,1,.72-1.31c.16-.19.35-.36.52-.55a2.27,2.27,0,0,0,.55-1.29c0-.09,0-.23,0-.24s0,.13-.05.2A2.4,2.4,0,0,1,20,13.77a4.07,4.07,0,0,0-.91,1.3,1.74,1.74,0,0,1-.23.4s-.07.12-.15.07,0-.12,0-.16a9.21,9.21,0,0,1,.51-.93l.05-.07s0,0,0-.06,0,0-.06,0a.76.76,0,0,0-.2.2c-.17.24-.3.51-.48.74a.27.27,0,0,1-.07.08s-.07,0-.11,0,0-.05,0-.08c.22-.35.4-.72.63-1.06a.88.88,0,0,0,.21-.3.86.86,0,0,0-.37.33c-.21.29-.39.61-.62.89-.05.06-.08.14-.18.12s-.09,0,0-.08c.28-.31.46-.7.72-1,0,0,.05,0,0-.08s-.06,0-.09,0a1.7,1.7,0,0,0-.35.45,2.33,2.33,0,0,1-.52.65.17.17,0,0,1-.21,0c.27-.34.49-.7.75-1s.49-.69.77-1a1.24,1.24,0,0,0-.45.4c-.49.6-1,1.22-1.48,1.8a2.72,2.72,0,0,0-.54.72A3.18,3.18,0,0,0,16.4,16.91Zm11.41-1.43a1.18,1.18,0,0,0-.66.16A.47.47,0,0,1,27.81,15.48Zm-1.17,1.16a1.1,1.1,0,0,1-1.17.51,1,1,0,0,1-.76-.9,2.34,2.34,0,0,1,0-.38,1.75,1.75,0,0,1,.46-1.23.88.88,0,0,1,1.43.08A1.61,1.61,0,0,1,26.64,16.64Zm-6.4-.57c.14.19.16.19.34.06s.17-.12.5-.1a7.61,7.61,0,0,0-.82.58C20.28,16.41,20.21,16.25,20.24,16.07Zm.09-.25c-.35,0-.71,0-1.07,0l-.22,0c-.05,0-.11,0-.11-.07s.06,0,.1,0c.34,0,.68-.05,1,0,.83,0,1.68-.07,2.53-.07l1.61-.05.21,0s.07,0,.07,0,0,.05-.06.05a3.07,3.07,0,0,1-.67.05l-1.66,0Zm-.23-.44a1.36,1.36,0,0,1,.37-.7c0,.15-.1.29-.16.43a1.53,1.53,0,0,0-.07.29c0,.07,0,.11-.11.1S20.09,15.42,20.1,15.38ZM17,18a2.14,2.14,0,0,1-.21-1.51,1.55,1.55,0,0,1,.26-.55,1,1,0,0,1,1.23-.32,2.28,2.28,0,0,1,.67.48.08.08,0,0,1,0,.1.16.16,0,0,0,0,.16.28.28,0,0,0,.09-.18c0-.06,0-.09.09-.08s.06,0,.09,0,0,.06,0,.09-.05.05,0,.08.06,0,.08,0,.08-.15.14-.06-.06.09-.1.13,0,.05-.06.07-.06.07,0,.11.07,0,.1,0l.11-.07s.07-.08.11,0,0,.09,0,.12-.15.15-.21.23a.16.16,0,0,0-.05.15,1.72,1.72,0,0,0,.33-.26c0-.05.09-.07.16,0s.07.09,0,.14a1.68,1.68,0,0,0-.42.42s-.05.05,0,.1.09-.05.12-.08l.35-.33c.13-.13.14-.13.31,0a3.08,3.08,0,0,0-.53.49l-.06.07s-.08.08,0,.12.08,0,.1-.05.36-.35.55-.52a7.51,7.51,0,0,1,1.22-.87.94.94,0,0,1,.54-.08c-.43.26-.82.53-1.2.8a5.65,5.65,0,0,0-1,.92.48.48,0,0,0-.11.24.44.44,0,0,0,.18-.15,11.78,11.78,0,0,1,1.73-1.42,6.7,6.7,0,0,1,.7-.37l.08,0c.52,0,1-.05,1.56,0l0,0c-.3.13-.64.09-.91.29a.45.45,0,0,0,.23,0c.4-.07.79-.19,1.18-.28.19-.05.2,0,.21.17v.08h0a1.72,1.72,0,0,0,.44.93h0c.13.13.13.13,0,.27.12,0,.21-.17.33,0,0,.07-.14.09-.17.2a.32.32,0,0,0,.21-.1.4.4,0,0,1,.29-.1A1.37,1.37,0,0,0,26.68,17a1.74,1.74,0,0,0,.44-1,.45.45,0,0,1,.64-.31,1.34,1.34,0,0,1,.36.39c.35.55.62,1.15.92,1.74a.73.73,0,0,1,.07.29.45.45,0,0,1-.29.51.94.94,0,0,1-.56.14c.15-.07.29-.11.37-.25a5.27,5.27,0,0,1-.56.19c0-.06.06-.06.09-.07l.17-.08s.07,0,.06-.07-.07,0-.09,0l-.29.11s-.09,0-.13,0,.21-.07.28-.21a5.39,5.39,0,0,1-.63.17c0-.1.16-.11.21-.21-.2,0-.34.19-.54.2.05-.08.16-.11.19-.22-.25.11-.43.33-.72.37,0-.11.13-.14.2-.19l.28-.19s.06,0,0-.07,0,0-.07,0a2.92,2.92,0,0,0-.4.29.27.27,0,0,1-.22.08,2.61,2.61,0,0,1,.34-.46.43.43,0,0,0-.21.14c-.05.06-.08.15-.2.21.06-.25.24-.36.38-.53a.26.26,0,0,0-.18.1l-.17.15a.59.59,0,0,1,.27-.45c.14-.11.32-.1.47-.18a.66.66,0,0,0-.55,0,.83.83,0,0,0-.28.21,4.51,4.51,0,0,1-.72.66s0,0-.05.06c.14,0,.24-.13.37-.19l-.25.3-.09.1h0a10.36,10.36,0,0,1-1,1A1.91,1.91,0,0,0,25,19.5c-.13.27-.44.39-.61.65l0,0,.34-.28h0a1.36,1.36,0,0,0-.14,1.19.54.54,0,0,0,.14.27c0-.06,0-.1,0-.14A1.67,1.67,0,0,1,24.89,20c.1-.18.27-.28.38-.44.24-.34.54-.62.81-.94.06-.08.1-.07.13,0a.52.52,0,0,0,.3.39.49.49,0,0,0,.41,0,.94.94,0,0,1,.15-.06C27,19,27,19,27,19.1c.19,0,.32-.25.54-.21a1.12,1.12,0,0,0-.43.3c.15,0,.24-.13.37-.12a1.12,1.12,0,0,0-.22.25c.17-.1.34-.05.47-.15l-.23.16s-.05,0,0,.06.05,0,.08,0a1,1,0,0,1,.24-.1l-.22.13s-.07,0-.05.07a.08.08,0,0,0,.08,0l.16-.07c-.17.22-.28.43-.12.69.07-.23.08-.49.32-.63,0,0,0,0,0,.07a.29.29,0,0,0,.24-.34c.05.06,0,.12,0,.18a1.1,1.1,0,0,1,0,.18,2.78,2.78,0,0,1-.06.64.12.12,0,0,1-.15.12.17.17,0,0,0-.14,0,.4.4,0,0,1-.43.05,1.5,1.5,0,0,0-.84,0,1.7,1.7,0,0,1-.71,0c0-.08.11-.11.11-.21l-.18.13c-.06,0-.11.09-.2,0s-.12.08-.21.09c.11-.13.27-.2.36-.35l0,0a2.54,2.54,0,0,0-.87.76s-.08.09,0,.13.09,0,.12,0a1.33,1.33,0,0,1,1-.26,2.62,2.62,0,0,0,.56,0,4.25,4.25,0,0,1,.8.07c.14,0,.27,0,.41,0s.18.06.14.22-.08.31-.13.46a.23.23,0,0,0,0,.18,1.44,1.44,0,0,0,.33-.83c0-.06,0-.1,0-.15a1.68,1.68,0,0,0,.2-1.12c0-.1-.05-.2,0-.27s.15-.05.23-.08.14-.09.18,0,0,.14,0,.21c-.11.46-.3.91-.39,1.38a4.7,4.7,0,0,1-.38,1.11.91.91,0,0,0-.07.43,2.49,2.49,0,0,1,0,.61.88.88,0,0,1-.45.6c0-.16.17-.23.2-.39-.22.18-.34.46-.66.52a1.41,1.41,0,0,0,.35-.47c-.24.19-.41.47-.77.52l.4-.42,0,0c-.25.14-.43.42-.76.41a2,2,0,0,0,.4-.45c-.28.15-.45.45-.79.42a2.38,2.38,0,0,0,.45-.39c-.28.08-.5.33-.82.29l.5-.38,0,0-.54.26a.23.23,0,0,1-.27,0,5,5,0,0,0,.59-.48c-.32.11-.54.35-.86.36.15-.17.35-.27.47-.46a1.75,1.75,0,0,0-.52.28.15.15,0,0,1-.25,0l.62-.52,0,0-.34.2a2.08,2.08,0,0,1-.38.22.16.16,0,0,1-.18,0,3.65,3.65,0,0,1,.31-.24,1.73,1.73,0,0,0,.28-.26s-.05,0-.07,0c-.19.12-.39.24-.57.38s-.15,0-.19-.05,0-.08.07-.1a3.37,3.37,0,0,0,.54-.47.13.13,0,0,0-.14,0l-.5.33c-.06,0-.11.06-.16,0s-.06-.09,0-.12a3.44,3.44,0,0,0,.66-.55s0,0,0,0-.06,0-.08,0a7.37,7.37,0,0,1-.67.47c-.05,0-.09.06-.13,0s-.06-.11,0-.17.37-.26.54-.42a1.73,1.73,0,0,0,.17-.21,4.1,4.1,0,0,0-.68.5s-.06.12-.13.07a.2.2,0,0,1,0-.25l.67-.6s.07,0,.06-.1a.52.52,0,0,0-.17.12,5,5,0,0,0-.58.45c-.07.06-.08,0-.1,0a.2.2,0,0,1,.07-.24c.2-.16.39-.33.58-.5a.14.14,0,0,0,.07-.08,3,3,0,0,0-.74.51c-.09-.18-.08-.25.07-.37a6.86,6.86,0,0,0,.59-.48.14.14,0,0,0,.07-.12,6.84,6.84,0,0,0-.8.62q0-.4.06-.78s0-.07,0-.09,0,0-.08,0l-.36.26a.31.31,0,0,0-.12.2,2.11,2.11,0,0,0,.45-.31,2.07,2.07,0,0,1-.14.92c.12,0,.11,0,.13.11a2.59,2.59,0,0,0,.31,1.09c0,.06,0,.1,0,.13l-.32.17a.17.17,0,0,1-.22,0,2.8,2.8,0,0,0,.47-.38c-.06,0-.1,0-.13,0l-.39.23a.24.24,0,0,1-.3,0,4.93,4.93,0,0,0,.65-.56s-.06,0-.08,0c-.2.15-.43.27-.64.4a.2.2,0,0,1-.27,0,6.38,6.38,0,0,0,.8-.66,0,0,0,0,0-.06,0l-.87.56a.09.09,0,0,1-.05,0,.14.14,0,0,1-.16-.05s0-.07.07-.09c.25-.2.5-.39.74-.61,0,0,.08-.05.09-.11s-.05,0-.07,0a9.58,9.58,0,0,0-.92.65c-.1.09-.19,0-.31,0a9.32,9.32,0,0,0,1.19-1c-.06,0-.09,0-.12,0-.37.26-.75.51-1.12.78a.19.19,0,0,1-.28,0c.48-.34.93-.71,1.38-1.1a.11.11,0,0,0-.14,0l-1.29.91a.17.17,0,0,1-.25,0c.51-.39,1-.8,1.49-1.25a.23.23,0,0,0-.17.07l-1.39,1c-.07.06-.11,0-.15,0s0-.09.05-.12c.31-.24.62-.47.91-.73a3.94,3.94,0,0,0,.51-.49l0,0-.31.22-1.22.92s-.07.09-.13,0,0-.1,0-.13c.4-.35.79-.69,1.17-1.05.05,0,.11-.08.12-.15a.09.09,0,0,0-.1,0c-.44.34-.89.66-1.3,1,0,0-.05.07-.08,0s-.08-.11,0-.17l.31-.28c.28-.24.56-.48.82-.75,0,0,.07-.05.07-.11s-.06,0-.08,0a12,12,0,0,0-1.11.89s-.06.1-.12,0a.11.11,0,0,1,0-.17l.47-.43a18.45,18.45,0,0,1,2-1.46l.84-.65s.1,0,.1-.12a24.09,24.09,0,0,0-3.44,2.52.3.3,0,0,1,.07-.34A14.51,14.51,0,0,1,22,18.61c.41-.28.81-.57,1.19-.88a.11.11,0,0,0,0-.1A21,21,0,0,0,20,20c-.09-.13,0-.23.07-.31a9.26,9.26,0,0,1,1.07-.9c.59-.4,1.16-.82,1.73-1.26a.18.18,0,0,0,.1-.09,15.12,15.12,0,0,0-3,2.19.19.19,0,0,1,0-.29,10.4,10.4,0,0,1,1.46-1.19l1.14-.86a.12.12,0,0,0,.08-.09s-.06,0-.08,0c-.64.43-1.31.82-1.91,1.31-.25.21-.49.42-.73.65,0,0-.07.12-.12.05s-.09-.13,0-.22A12.61,12.61,0,0,1,21,18l1.35-1s.05,0,.06-.07a11.49,11.49,0,0,0-2.69,2c-.09-.16-.13-.35-.24-.52,0,.06,0,.11,0,.15a6.12,6.12,0,0,1,.2,1.12c0,.32-.13.49-.38.51a.84.84,0,0,1-.59-.15A5.84,5.84,0,0,1,17,18Zm1.84,4.5a2.28,2.28,0,0,1-.34-.86A13.5,13.5,0,0,0,20,23.88a1.55,1.55,0,0,1-.61-.47C19.2,23.1,19,22.8,18.79,22.48Zm.31.73a1.41,1.41,0,0,1-.63-1.09A5.08,5.08,0,0,0,19.1,23.21Zm.9.46a14.73,14.73,0,0,1-1.28-1.84,1.65,1.65,0,0,1-.23-.56,21.63,21.63,0,0,0,2.25,2.86,1.15,1.15,0,0,0-.22-.35C20,23.1,19.44,22.45,19,21.73L18.49,21a.39.39,0,0,1,0-.23,25.5,25.5,0,0,0,1.87,2.36l.06,0a22.81,22.81,0,0,1-1.95-2.72c.65.68,1.18,1.47,1.84,2.14-.49-.7-1-1.36-1.51-2.06a5.31,5.31,0,0,1,1.09,1.13,15.32,15.32,0,0,0,1.49,1.72,7.07,7.07,0,0,0,.74.71l.07.06,0,0-.75-.83-.77-.83a10.48,10.48,0,0,1-.73-.87c-.22-.3-.45-.6-.71-.91a.38.38,0,0,1,.24.13c.26.3.55.58.79.9a9.64,9.64,0,0,0,1.21,1.34c.28.25.54.53.84.75a.19.19,0,0,0,.17.06c-.63-.58-1.2-1.2-1.76-1.81a7,7,0,0,1,.68.54c.22.21.44.41.67.6a3,3,0,0,0,.72.51c-.49-.45-.95-.94-1.44-1.39a.41.41,0,0,1,.11.07A27.37,27.37,0,0,1,23.7,24l.27.23c.09.06.12.11,0,.2s-.28.28-.42.42a.26.26,0,0,0-.11.16,6.17,6.17,0,0,1,.92-.65.33.33,0,0,1-.1.15l-.73.71a.17.17,0,0,1-.19.05,11.23,11.23,0,0,1-2.89-1.14A2,2,0,0,1,20,23.67Zm4.23.1.24.23s.11.06.06.12-.11,0-.16,0l-.16-.16a6.38,6.38,0,0,0-1-.82l-.08-.07A2.81,2.81,0,0,1,24.23,23.77Zm-.93-1.11a.91.91,0,0,0,.23-.17.1.1,0,0,1,0,0c.05,0,.11.09.11.16s-.3.22-.4.16S23.23,22.7,23.3,22.66ZM24.89,24a1.74,1.74,0,0,1-.54-.39l-.5-.47,1.06.83Zm.17.23a3.87,3.87,0,0,1-1.15,1.23C24.29,25.09,24.7,24.71,25.06,24.27Zm-.9-.18.05.05s.07.07,0,.11-.08.05-.13,0c-.45-.49-1-.84-1.52-1.29l-.39-.37h0l.28.16A9.56,9.56,0,0,1,24.16,24.09Zm.55.25a3.69,3.69,0,0,1-.64.77,2.29,2.29,0,0,0-.23.21.15.15,0,0,1-.25,0A13.32,13.32,0,0,0,24.71,24.34ZM24,26.09a1.35,1.35,0,0,1,.49-.68c.19-.12.37-.26.55-.4a1.23,1.23,0,0,0,.47-.89s0-.07,0-.07.05,0,.06,0a.18.18,0,0,1,.07.17,1,1,0,0,1-.29.71,4.1,4.1,0,0,1-.72.6,1.64,1.64,0,0,0-.74,1.3,4.5,4.5,0,0,1-.08.51.25.25,0,0,1-.16.21C23.89,27.08,23.88,26.57,24,26.09Zm1.61-.95a2.32,2.32,0,0,1-.93.88A3.54,3.54,0,0,0,25.65,25.14Zm-1.08,1.71a3.27,3.27,0,0,0,1.14-1.05A1.91,1.91,0,0,1,24.57,26.85Zm1-.51a1.91,1.91,0,0,1-1,.88A3.72,3.72,0,0,0,25.57,26.34Zm-.91.11a3.62,3.62,0,0,0,1.12-1.15A2,2,0,0,1,24.66,26.45Zm-6.61-4.3s0,0,.06,0,0,0,0,.05,0,0,0,.08a.62.62,0,0,0,.18.59,8.64,8.64,0,0,0,2.11,1.55,11,11,0,0,0,3,1.16.61.61,0,0,1,.35.19.17.17,0,0,1,.05.18c0,.07-.05.08-.11.06a19.91,19.91,0,0,1-3.1-1.16,9.14,9.14,0,0,1-2.13-1.53,1.69,1.69,0,0,1-.45-.69.5.5,0,0,1,0-.16A.38.38,0,0,1,18.05,22.15Zm0,5.19a8.44,8.44,0,0,1,.83-.47,0,0,0,0,1,.07,0s0,0,0,0l-.82.46h0s0,0,0,0S18,27.35,18.05,27.34Zm-.24-.23a3.41,3.41,0,0,1,.78-.46A4.1,4.1,0,0,1,17.81,27.11Zm1.49,0a3,3,0,0,1-1,.56A6,6,0,0,1,19.3,27.08Zm-.73.83a6.34,6.34,0,0,1,1.07-.62s0,0,.08,0l-.81.49-.3.18a.06.06,0,0,1-.07,0S18.55,27.92,18.57,27.91Zm1.64-.44-1.44.85A3.55,3.55,0,0,1,20.21,27.47Zm-1.15,1.05a10,10,0,0,1,1.39-.86.12.12,0,0,1,.15,0l-.49.31-1,.62s-.06.06-.09,0S19,28.54,19.06,28.52Zm.25.28a8.47,8.47,0,0,1,.89-.58l.66-.37c.06,0,.11-.07.19,0a.22.22,0,0,1-.13.11c-.53.3-1,.62-1.55.95l0,0s-.09.09-.13,0S19.27,28.83,19.31,28.8Zm.22.34A17.16,17.16,0,0,1,21.39,28a.19.19,0,0,1,.17,0l-1.22.77-.77.51s-.06.07-.1,0S19.49,29.17,19.53,29.14Zm1.64-2.33c.37-.26.75-.52,1.13-.76A8.59,8.59,0,0,1,21.17,26.81Zm1.57-.62,0,0c-.38.28-.79.52-1.19.76l0,0Zm-1.19,1.24,0,0,1.67-1.08A19.83,19.83,0,0,1,21.55,27.43Zm1.75-.75a8.91,8.91,0,0,1-1.26.84Zm-5-.25a3.69,3.69,0,0,1-.75.42A2.23,2.23,0,0,1,18.3,26.43ZM16,25.58c-.65.44-1.34.8-2,1.25A20.7,20.7,0,0,1,16,25.58Zm.2.26c-.66.44-1.36.84-2,1.3A14.78,14.78,0,0,1,16.23,25.84Zm.23.25c-.67.45-1.38.86-2.05,1.31A17,17,0,0,1,16.46,26.09Zm.21.27c-.68.46-1.38.88-2.05,1.34A12.45,12.45,0,0,1,16.67,26.36ZM14.83,28s0-.07.07-.09c.52-.4,1.08-.73,1.63-1.08a1.94,1.94,0,0,1,.4-.22.52.52,0,0,1-.21.18c-.6.39-1.21.75-1.78,1.19C14.91,28,14.87,28,14.83,28Zm.19.3s0-.06.05-.08c.65-.49,1.34-.9,2-1.33l.07,0c0,.07-.06.08-.09.1-.64.45-1.31.85-2,1.31C15.09,28.27,15.05,28.32,15,28.27Zm.31.3s-.07,0-.1,0,0-.06,0-.07c.47-.34.93-.67,1.42-1l.6-.39s.07-.06.13,0a.5.5,0,0,1-.18.15l-1.75,1.21A.91.91,0,0,0,15.33,28.57Zm.21.31s0,0,0,0,0-.06,0-.07.22-.18.34-.26c.55-.41,1.14-.75,1.7-1.14,0,0,.07-.07.1,0s0,.08-.05.1l-1.34.89c-.22.15-.44.32-.65.49Zm.19.25c-.05-.07,0-.08.06-.11.65-.51,1.36-.93,2.06-1.38l.06,0a2.55,2.55,0,0,1-.58.47c-.5.33-1,.66-1.48,1C15.81,29.14,15.78,29.19,15.73,29.13Zm.41.25-.08.05a.08.08,0,0,1-.09-.06c0-.05,0-.05,0-.07.47-.33.94-.66,1.43-1,.19-.11.37-.25.56-.38l.1-.06s.05,0,.06,0,0,0,0,.05a2.48,2.48,0,0,1-.26.19C17.3,28.55,16.71,29,16.14,29.38Zm.22.32c-.05,0-.09,0-.12,0s0-.06.05-.08c.55-.45,1.16-.79,1.74-1.2a2.83,2.83,0,0,1,.28-.2s.05,0,.07,0-.05.07-.09.1c-.43.29-.84.62-1.28.91a6.26,6.26,0,0,0-.6.45S16.38,29.68,16.36,29.7Zm.16.19c-.05-.07,0-.08.07-.1.63-.44,1.27-.87,1.91-1.3l.08,0a.07.07,0,0,1,.08.06l-.09.07-1.48,1-.42.31C16.61,30,16.55,30,16.52,29.89Zm.29.25c0-.06,0-.07.06-.09l1.85-1.26.08-.05a0,0,0,0,1,.06,0,.16.16,0,0,1-.1.1L17.18,30l-.22.16A.09.09,0,0,1,16.81,30.14Zm.39.3a.15.15,0,0,1-.09-.06c0-.06,0-.07.06-.09l1.51-1,.28-.2s.07-.08.11,0,0,.07-.06.1c-.33.29-.71.52-1.06.78l-.66.47Zm.19.12a20.68,20.68,0,0,0,1.83-1.21l.07-.05s.07,0,.09,0,0,.06,0,.08l-.49.36c-.41.3-.82.58-1.22.88C17.52,30.71,17.47,30.64,17.39,30.56Zm.35.26c1.41-.93,2.75-2,4.23-2.77,0,0,0,0,.07,0-.14.09-.28.19-.42.27-.89.56-1.76,1.14-2.61,1.76-.35.26-.73.48-1.07.76C17.86,30.92,17.81,30.88,17.74,30.82Zm.34.21c.74-.48,1.48-1,2.2-1.47a20.7,20.7,0,0,1,2.23-1.39,13.22,13.22,0,0,1-1.1.74c-.95.63-1.9,1.28-2.83,2l-.27.19A.14.14,0,0,1,18.08,31Zm.44.29s-.06,0-.06-.06,0,0,.05-.05l2.43-1.66c.6-.41,1.2-.81,1.82-1.17,0,0,0,0,.1,0a.84.84,0,0,1-.24.19c-.85.53-1.68,1.11-2.5,1.69L18.64,31.3S18.57,31.35,18.52,31.32Zm.48.21a.12.12,0,0,1-.14-.05c0-.06,0-.07.06-.09.48-.32,1-.63,1.43-1s1.24-.87,1.87-1.28c.2-.14.41-.26.61-.39,0,0,.07-.06.09,0s-.07.09-.12.12c-.6.37-1.19.77-1.77,1.18s-1.29.93-1.93,1.4Zm.41.18a.1.1,0,0,1-.15,0c0-.06,0-.07.06-.09.41-.3.84-.57,1.24-.87l1.66-1.15c.21-.15.44-.29.66-.43,0,0,0,0,.07,0s0,0,0,0-.07.08-.12.11c-.58.4-1.18.79-1.76,1.21s-1.1.77-1.62,1.19Zm.36.17a.1.1,0,0,1-.12,0s0-.06.05-.08l.24-.17c1-.6,1.87-1.35,2.85-2l.16-.1s.05,0,.06,0-.05.07-.08.09l-1.06.71c-.3.21-.62.4-.9.64s-.76.53-1.12.82ZM20,32l.43-.29c.81-.57,1.6-1.17,2.44-1.7.05,0,.12-.12.16-.05s-.06.11-.11.14c-.6.4-1.2.8-1.78,1.24-.3.22-.59.45-.9.65A.18.18,0,0,1,20,32Zm.56.2s-.08,0-.09,0,0,0,.05-.06c.84-.56,1.63-1.19,2.48-1.73,0,0,.08-.09.11-.05s0,.1-.06.13l-1.57,1.09c-.28.2-.52.44-.81.62C20.66,32.16,20.64,32.19,20.59,32.19Zm.35.08c.72-.54,1.45-1,2.17-1.54,0,0,.08-.09.11,0s0,.1-.06.14l-1.46,1a4,4,0,0,0-.58.43C21.06,32.33,21,32.31,20.94,32.27Zm.47.1,1.88-1.32c0,.09,0,.11,0,.14L21.6,32.38A.17.17,0,0,1,21.41,32.37Zm.69.09a.16.16,0,0,1-.19,0l.18-.13c.39-.28.77-.56,1.17-.83,0,0,.06-.08.09,0s0,.08,0,.1l-.91.65ZM23.38,32l-.52.37-.24.17a.14.14,0,0,1-.2,0l.92-.63s.06-.06.09,0S23.42,32,23.38,32Zm1.38.32A.31.31,0,0,1,24.5,32a.27.27,0,0,1,.22-.29A.33.33,0,0,1,25,32,.3.3,0,0,1,24.76,32.32ZM25,31.25c-.32.2-.63.39-.93.61a.23.23,0,0,0-.06.27c.07.12.13,0,.21,0s0,.12-.06.15a.18.18,0,0,0-.11.23s0,.1,0,.11-.08,0-.09-.09c0-.34-.09-.68-.13-1-.08-.6-.18-1.2-.28-1.79-.07-.43-.13-.87-.17-1.3a.38.38,0,0,1,.28-.44l.39-.12v0l-.41.21a.24.24,0,0,0-.15.22c0,.12,0,.16.14.11a11.72,11.72,0,0,0,1.1-.6c.71-.45,1.43-.89,2.16-1.31a.35.35,0,0,1,.14-.06,2.86,2.86,0,0,1-.42.29l-2,1.19c-.3.19-.62.35-.93.53-.12.07-.23.14-.2.31s0,.16.14.11.07-.05.09,0a.06.06,0,0,1-.05.08.21.21,0,0,0-.12.27c0,.05,0,.09.1.05s.05-.06.08,0a.06.06,0,0,1,0,.1c-.13.07-.1.17-.08.28s.06.09.12.06l.16-.1s.07,0,.09,0,0,.05,0,.07l-.17.11a.24.24,0,0,0-.08.32c0,.08.07,0,.1,0l1.61-1c.78-.51,1.6-.95,2.39-1.43l.7-.44a.17.17,0,0,1-.09.12,15.67,15.67,0,0,1-1.73,1.09c-.9.52-1.77,1.09-2.64,1.65l-.08.05c-.25.16-.25.16-.2.46l.12.73c0,.08,0,.08.1,0,1.07-.73,2.16-1.43,3.29-2.07a22.34,22.34,0,0,0,2.37-1.48l.08,0c0,.08-.05.09-.09.12a17.1,17.1,0,0,1-2.23,1.46c-1.16.67-2.29,1.38-3.41,2.11a.24.24,0,0,0,0,.31s.06,0,.09,0c.23-.12.43-.28.65-.42,1.09-.71,2.21-1.38,3.33-2a16.18,16.18,0,0,0,2-1.36h.05a2.12,2.12,0,0,1-.36.32,16.22,16.22,0,0,1-2.34,1.53C26.61,30.25,25.81,30.75,25,31.25Zm.08.35c-.05-.07.09-.11.15-.15,1.07-.73,2.2-1.36,3.32-2a17.65,17.65,0,0,0,1.91-1.33s0,0,.09,0c-.29.28-.6.5-.89.74a16.42,16.42,0,0,1-2,1.26c-.82.46-1.63.93-2.41,1.45C25.23,31.57,25.13,31.67,25.09,31.6Zm.05.84.19-.14c1-.67,2-1.27,3.06-1.84A16.55,16.55,0,0,0,30.56,29c.24-.19.49-.37.74-.54a2.42,2.42,0,0,1-.42.36,20.82,20.82,0,0,1-1.94,1.45L26.2,31.85a9.38,9.38,0,0,0-.85.54A.25.25,0,0,1,25.14,32.44Zm5.64-3.08A11.52,11.52,0,0,1,29,30.7c-.51.3-1,.58-1.54.87-.21.11-.4.23-.6.35a2.71,2.71,0,0,1-.87.36c.67-.4,1.32-.77,2-1.13a13.11,13.11,0,0,0,2.08-1.29q.69-.55,1.38-1.08A5.09,5.09,0,0,1,30.78,29.36Z" transform="translate(-5.4 -4)"/><path class="cls-3" d="M24.06,14.32a2.77,2.77,0,0,0-.66.82A3.5,3.5,0,0,0,24.06,14.32Z" transform="translate(-5.4 -4)"/><path class="cls-3" d="M21.25,8.21c0-.06-.07,0-.1,0a2.73,2.73,0,0,0-1,.41l-.6.39a7.62,7.62,0,0,0-1.24,1,.45.45,0,0,0-.14.19c.06,0,.09,0,.12-.05s.25-.19.37-.29a9.3,9.3,0,0,1,2.5-1.52S21.27,8.27,21.25,8.21Z" transform="translate(-5.4 -4)"/><path class="cls-3" d="M26.58,12.84a4.11,4.11,0,0,0-1.6,0,1.88,1.88,0,0,0-.72.33s.07,0,.1,0a3.23,3.23,0,0,1,1.7-.31l.52,0s.08,0,.09,0S26.61,12.85,26.58,12.84Z" transform="translate(-5.4 -4)"/><path class="cls-3" d="M21.35,13.08l-.05,0s-.07.06-.05.1.07,0,.1,0l.22-.08c.34-.16.68-.32,1-.46l.39-.16-.07,0A10.19,10.19,0,0,0,21.35,13.08Z" transform="translate(-5.4 -4)"/><path class="cls-3" d="M19,10.27s0,0,0,.05a.26.26,0,0,0,.17-.05,11.11,11.11,0,0,0,1.87-1.06,5,5,0,0,1,1.45-.74l.85-.23a.23.23,0,0,0,.17-.11l-.46.09a4.73,4.73,0,0,0-1.88.71C20.49,9.41,19.77,9.86,19,10.27Z" transform="translate(-5.4 -4)"/><path class="cls-3" d="M24.77,31.91a.13.13,0,0,0-.13.15c0,.09,0,.18.13.18s.14-.08.15-.19A.15.15,0,0,0,24.77,31.91Z" transform="translate(-5.4 -4)"/><path class="cls-3" d="M25.3,8.43a1.72,1.72,0,0,1,.87,1.19s0,.09.06.09.06-.06.06-.1a1,1,0,0,0-.13-.55,1.91,1.91,0,0,0-.85-.72s-.08-.05-.12,0S25.26,8.4,25.3,8.43Z" transform="translate(-5.4 -4)"/><path class="cls-3" d="M24.13,29.11c0,.08,0,.18.11.18a.19.19,0,0,0,.16-.19.14.14,0,0,0-.15-.16C24.14,28.94,24.13,29,24.13,29.11Z" transform="translate(-5.4 -4)"/><path class="cls-3" d="M19.8,8.61s.09-.06.09-.13A5.28,5.28,0,0,0,17.6,10.3l0,0h0l.09-.1a6.63,6.63,0,0,1,1.34-1.14A5.45,5.45,0,0,0,19.8,8.61Z" transform="translate(-5.4 -4)"/><path class="cls-3" d="M19.28,9.75s-.08,0-.08.1a.21.21,0,0,0,.15,0,5.61,5.61,0,0,0,.87-.56,5.61,5.61,0,0,1,1.93-1s.08,0,.09-.05h-.08a4,4,0,0,0-1.81.77Z" transform="translate(-5.4 -4)"/><path class="cls-3" d="M21.23,12.36c-.08,0-.21.07-.17.16s.16,0,.23,0a8.35,8.35,0,0,1,1.07-.45l.34-.12a.08.08,0,0,0-.11,0A5.06,5.06,0,0,0,21.23,12.36Z" transform="translate(-5.4 -4)"/><path class="cls-3" d="M25,18.76c-.5.41-1.06.72-1.58,1.15A5.06,5.06,0,0,0,25,18.76Z" transform="translate(-5.4 -4)"/><path class="cls-3" d="M22.71,20.11a13.15,13.15,0,0,0,2-1.49A11.26,11.26,0,0,0,22.71,20.11Z" transform="translate(-5.4 -4)"/><path class="cls-3" d="M24.44,16.73s0,0,0-.05,0,0,0,0-.07,0-.1,0l-.64.37,0,.05A7,7,0,0,0,24.44,16.73Z" transform="translate(-5.4 -4)"/><path class="cls-3" d="M24.4,18.45a16.35,16.35,0,0,0-2.19,1.61A11,11,0,0,0,24.4,18.45Z" transform="translate(-5.4 -4)"/><path class="cls-3" d="M23.79,18.08a18,18,0,0,0-2.16,1.53A9.31,9.31,0,0,0,23.79,18.08Z" transform="translate(-5.4 -4)"/><path class="cls-3" d="M21.94,19.84a12.1,12.1,0,0,0,2.15-1.55A17.24,17.24,0,0,0,21.94,19.84Z" transform="translate(-5.4 -4)"/><path class="cls-3" d="M17.7,18.32a4,4,0,0,1-.27-.8,2.17,2.17,0,0,1-.09-.84.14.14,0,0,1,.08-.12,1.88,1.88,0,0,1,.45-.22.25.25,0,0,1,.24.07l-.35.2c-.21.14-.25.18-.26.28a1.34,1.34,0,0,1,.77-.25c-.25.22-.55.31-.73.57a.37.37,0,0,0,.2-.09,1.38,1.38,0,0,1,.5-.25c.07,0,.17-.1.2,0s-.08.12-.15.16a.76.76,0,0,0-.45.67.82.82,0,0,0,.64.95,1.33,1.33,0,0,1,.47.17c.1.06.18,0,.23-.08s.06-.25-.07-.4-.33-.35-.28-.63a2.17,2.17,0,0,0,0-.25,1.65,1.65,0,0,1,.17-.5c-.13,0-.16.13-.25.18a3.94,3.94,0,0,0-.19-.61.9.9,0,0,0-.7-.6.74.74,0,0,0-.89.65A2.56,2.56,0,0,0,17.24,18a.11.11,0,0,0,.11.1,2.69,2.69,0,0,1-.2-1.15,5.92,5.92,0,0,0,.34,1.18,2,2,0,0,0,.57.88s.08.09.16.06L18.14,19A1.79,1.79,0,0,1,17.7,18.32Z" transform="translate(-5.4 -4)"/><path class="cls-3" d="M26.81,21.27a2,2,0,0,1-.26.24c-.09.09-.22.12-.32.23s.05,0,.06,0c.2-.15.46-.2.63-.39,0,0,.07-.07.1,0s0,.08,0,.1a1,1,0,0,1-.24.17.5.5,0,0,0-.21.22,5.2,5.2,0,0,0,.7-.45c-.08.19-.24.26-.37.38a.4.4,0,0,0,.34-.13c.12-.15.23-.31.45-.31h0s.06,0,.05-.07,0,0-.07,0a7.31,7.31,0,0,1-.81,0h-.46a0,0,0,0,0,0,.06s.13,0,.13.07-.08.09-.13.12-.19.05-.29.15a.69.69,0,0,0,.52-.22C26.68,21.28,26.72,21.22,26.81,21.27Z" transform="translate(-5.4 -4)"/><path class="cls-3" d="M18.43,18.9s0,0-.06,0a.16.16,0,0,0,0,.15.64.64,0,0,0,.47.38C18.67,19.24,18.48,19.13,18.43,18.9Z" transform="translate(-5.4 -4)"/><path class="cls-3" d="M23.81,24.53l0-.05a10,10,0,0,0-.93-.79A5.44,5.44,0,0,0,23.81,24.53Z" transform="translate(-5.4 -4)"/><path class="cls-3" d="M21.79,16.43c-.26.17-.52.33-.78.51a7.14,7.14,0,0,0-1.24,1,.55.55,0,0,0-.17.32A20.25,20.25,0,0,1,22,16.4.19.19,0,0,0,21.79,16.43Z" transform="translate(-5.4 -4)"/><path class="cls-3" d="M23.09,16.64a6,6,0,0,0,1.06-.43s.09,0,.1-.09h0l-1.18.45s-.09,0-.07.08S23.06,16.65,23.09,16.64Z" transform="translate(-5.4 -4)"/><path class="cls-3" d="M19.87,18.33a.5.5,0,0,0-.17.31,28.49,28.49,0,0,1,2.57-2,.25.25,0,0,0-.18.07,15.23,15.23,0,0,0-1.36.9A8.51,8.51,0,0,0,19.87,18.33Z" transform="translate(-5.4 -4)"/><path class="cls-3" d="M25.4,16.82a1.71,1.71,0,0,0,.82-.77C26,16.31,25.67,16.53,25.4,16.82Z" transform="translate(-5.4 -4)"/><path class="cls-3" d="M21.27,12.76a.07.07,0,0,0,0,.07s0,0,.07,0a.6.6,0,0,0,.21-.08,9,9,0,0,1,1-.43l.39-.14a.1.1,0,0,0-.1,0,6.7,6.7,0,0,0-1.45.49Z" transform="translate(-5.4 -4)"/><path class="cls-3" d="M18.92,13.72a4,4,0,0,0,1.27-1.31,1.12,1.12,0,0,0-.18.2,8.56,8.56,0,0,1-.89.82A.54.54,0,0,0,18.92,13.72Z" transform="translate(-5.4 -4)"/><path class="cls-3" d="M26.06,16s.05-.07,0-.1-.06,0-.08,0a2,2,0,0,1-.45.42.43.43,0,0,0-.2.2,2.74,2.74,0,0,0,.46-.29A.75.75,0,0,0,26.06,16Z" transform="translate(-5.4 -4)"/><path class="cls-3" d="M20.94,11.89c.36-.15.71-.33,1.08-.45l.53-.16a.24.24,0,0,0-.18,0,5.44,5.44,0,0,0-1.11.33,1.24,1.24,0,0,0-.37.17c-.05,0-.13.08-.09.15S20.9,11.91,20.94,11.89Z" transform="translate(-5.4 -4)"/><path class="cls-3" d="M25.35,14.65a1.6,1.6,0,0,0-.34,2,.68.68,0,0,0,.34.31s.08,0,.14,0a.76.76,0,0,1-.46-.51,2.14,2.14,0,0,1-.13-.72c.11.06.13.06.13,0s-.06-.08,0-.1.06.06.08.09a.75.75,0,0,1,.07.12.25.25,0,0,0,.42,0,.75.75,0,0,0,.15-.31c0-.06,0-.09.08,0s.19.1.25.21a.13.13,0,0,0,.13.07c0-.07-.1-.12,0-.2a2.16,2.16,0,0,1,.31-.29s0,0,0,0a.14.14,0,0,1,0,.06s0,.07-.07.09l-.22.19s-.05,0,0,.07.06,0,.08,0a1.21,1.21,0,0,1,.28-.16c-.05.15-.16.19-.24.27s-.09.05-.05.1.07,0,.11,0,.1-.1.19-.12a1.34,1.34,0,0,1-.49,1.06c.05,0,.07,0,.1,0a1.06,1.06,0,0,0,.35-.35,1.5,1.5,0,0,0,0-1.64A.78.78,0,0,0,25.35,14.65Zm.75.33S26,15,26,15a.81.81,0,0,0-.36-.12.2.2,0,0,0-.14,0l.29.1a.35.35,0,0,1,.21.22c-.56-.21-.64-.19-.86.22-.13-.17-.13-.16,0-.33a1.13,1.13,0,0,1,.45-.39.74.74,0,0,1,.51.19A.11.11,0,0,1,26.1,15Z" transform="translate(-5.4 -4)"/><path class="cls-3" d="M21,12.13s-.06,0,0,.09.06,0,.09,0l.1,0a10.47,10.47,0,0,1,1.44-.56l.06,0-.05,0a4.72,4.72,0,0,0-1.5.49Z" transform="translate(-5.4 -4)"/><path class="cls-3" d="M24.21,16.36a3.7,3.7,0,0,1-.83.45s-.08,0-.09.08.08,0,.12,0a4.62,4.62,0,0,0,1-.56s0,0,0-.05h0A1.28,1.28,0,0,0,24.21,16.36Z" transform="translate(-5.4 -4)"/><path class="cls-3" d="M23.23,24.93a3.13,3.13,0,0,0-.68-.68A2.59,2.59,0,0,0,23.23,24.93Z" transform="translate(-5.4 -4)"/><path class="cls-3" d="M27.53,21.42c-.09.09-.18.17-.25.25a.38.38,0,0,1-.31.14,1.12,1.12,0,0,0-.63.22A5.22,5.22,0,0,1,27.59,22c-.08-.1-.2-.09-.3-.15A1.28,1.28,0,0,0,27.53,21.42Z" transform="translate(-5.4 -4)"/><path class="cls-3" d="M25.62,18.72a3.3,3.3,0,0,0-.89.64l-.07.05c-.38.28-.75.58-1.14.84-.07.05-.15.09-.17.19a.16.16,0,0,0,.13-.05c.35-.24.67-.54,1-.76a2.11,2.11,0,0,0,.37-.3,4.68,4.68,0,0,1,.73-.53h0l.09-.1S25.65,18.7,25.62,18.72Z" transform="translate(-5.4 -4)"/><path class="cls-3" d="M22,24.38a9.49,9.49,0,0,0-1.61-1.71A13,13,0,0,0,22,24.38Z" transform="translate(-5.4 -4)"/><path class="cls-3" d="M21.71,24.62a8.76,8.76,0,0,0-1.2-1.31A9.33,9.33,0,0,0,21.71,24.62Z" transform="translate(-5.4 -4)"/></g><path class="cls-3" d="M22.6,32.48A8.68,8.68,0,0,1,14,23.75V9.05a.2.2,0,0,1,.2-.21h.7L22.79,5h0l7.46,3.81H31a.22.22,0,0,1,.14.06.2.2,0,0,1,.06.15v14.7A8.68,8.68,0,0,1,22.6,32.48Zm.19-27.31L14.92,9h-.73a.07.07,0,0,0-.07.08v14.7a8.49,8.49,0,1,0,17,0V9.05a.09.09,0,0,0,0-.06l0,0h-.77Z" transform="translate(-5.4 -4)"/><path class="cls-1" d="M28.94,26.82a3.54,3.54,0,0,0,1.53-.7,3.87,3.87,0,0,0,1.39-2.55,3.8,3.8,0,0,0-1.53.74A4,4,0,0,0,28.94,26.82Z" transform="translate(-5.4 -4)"/><path class="cls-3" d="M6.74,38.4v-5a.3.3,0,0,0-.06-.2.41.41,0,0,0-.19-.11V33h3a3.55,3.55,0,0,1,1.51.25,2.31,2.31,0,0,1,1.12,1.18,3.7,3.7,0,0,1,.28,1.51,3,3,0,0,1-.85,2.31,2.2,2.2,0,0,1-.84.48,4.17,4.17,0,0,1-1.22.14h-3v-.13a.35.35,0,0,0,.19-.12A.28.28,0,0,0,6.74,38.4Zm1.17-.51H9.37a2.11,2.11,0,0,0,1.06-.21,1.88,1.88,0,0,0,.76-1.76,2.26,2.26,0,0,0-.41-1.45,1.21,1.21,0,0,0-.55-.4A2.5,2.5,0,0,0,9.37,34H7.91Z" transform="translate(-5.4 -4)"/><path class="cls-3" d="M14.43,36.75v1.3h3.06a.29.29,0,0,0,.17,0,.52.52,0,0,0,.09-.17h.11v1.23h-.11a.52.52,0,0,0-.09-.17.23.23,0,0,0-.17,0H13.17v-.12a.3.3,0,0,0,.17-.09.23.23,0,0,0,.05-.16v-4a.29.29,0,0,0-.05-.17.52.52,0,0,0-.17-.09v-.11h4.24a.21.21,0,0,0,.16,0,.3.3,0,0,0,.09-.17h.11v1.23h-.11a.3.3,0,0,0-.09-.17.21.21,0,0,0-.16,0h-3V36h1.93a.23.23,0,0,0,.16-.05.38.38,0,0,0,.1-.17h.11V37h-.11a.38.38,0,0,0-.1-.17.19.19,0,0,0-.16,0Z" transform="translate(-5.4 -4)"/><path class="cls-3" d="M22.61,36.76H19.86v1.71a.29.29,0,0,0,.05.17.45.45,0,0,0,.17.08v.12H18.6v-.12a.3.3,0,0,0,.17-.09.23.23,0,0,0,.05-.16v-4a.29.29,0,0,0-.05-.17.52.52,0,0,0-.17-.09v-.11h1.48v.11a.38.38,0,0,0-.17.09.29.29,0,0,0-.05.17V36h2.75V34.44a.29.29,0,0,0-.05-.17.37.37,0,0,0-.18-.09v-.11h1.49v.11a.52.52,0,0,0-.17.09.23.23,0,0,0-.05.17v4a.19.19,0,0,0,.05.16.3.3,0,0,0,.17.09v.12H22.38v-.12a.43.43,0,0,0,.18-.08.29.29,0,0,0,.05-.17Z" transform="translate(-5.4 -4)"/><path class="cls-3" d="M27.35,34a2.81,2.81,0,0,1,2,.67,2.37,2.37,0,0,1,.77,1.82,2.41,2.41,0,0,1-.37,1.28,2.59,2.59,0,0,1-2.37,1.16,2.79,2.79,0,0,1-2-.67,2.28,2.28,0,0,1-.59-.87,2.41,2.41,0,0,1-.18-.93A2.51,2.51,0,0,1,25,35.14,2.61,2.61,0,0,1,27.35,34Zm0,.81a1.63,1.63,0,0,0-1.13.4,1.73,1.73,0,0,0,0,2.51,1.82,1.82,0,0,0,2.28,0,1.53,1.53,0,0,0,.41-.59,1.78,1.78,0,0,0,.13-.64,1.6,1.6,0,0,0-.54-1.28A1.73,1.73,0,0,0,27.35,34.8Z" transform="translate(-5.4 -4)"/><path class="cls-3" d="M32.12,35.17v3.26a.24.24,0,0,0,.06.18.34.34,0,0,0,.19.1v.13H30.8v-.13a.37.37,0,0,0,.2-.1.3.3,0,0,0,.05-.18V33.89a.3.3,0,0,0-.05-.18.46.46,0,0,0-.2-.1v-.13h1.82v.13c-.11,0-.17.09-.17.18a.36.36,0,0,0,.11.21l3,3.07V33.89a.24.24,0,0,0-.06-.18.48.48,0,0,0-.19-.1v-.13h1.57v.13a.46.46,0,0,0-.2.1.3.3,0,0,0,0,.18v4.54a.3.3,0,0,0,0,.18.37.37,0,0,0,.2.1v.13H35.15v-.13c.11,0,.17-.08.17-.17s-.07-.14-.2-.27Z" transform="translate(-5.4 -4)"/><circle class="cls-5" cx="17.39" cy="1.88" r="1.34"/><path class="cls-3" d="M22.79,7.29a1.41,1.41,0,1,1,1.4-1.41A1.41,1.41,0,0,1,22.79,7.29Zm0-2.69a1.28,1.28,0,1,0,1.27,1.28A1.28,1.28,0,0,0,22.79,4.6Z" transform="translate(-5.4 -4)"/><path class="cls-2" d="M23.55,5.5h-.14c-.11,0-.15-.07-.16-.18a1.62,1.62,0,0,0,0-.22.2.2,0,0,0-.16-.16,2.91,2.91,0,0,0-.59,0,.2.2,0,0,0-.16.16,1.62,1.62,0,0,0,0,.22.17.17,0,0,1-.15.18H22c-.11,0-.2,0-.21.17v.21a1.79,1.79,0,0,1,0,.23c0,.13.06.17.19.2l.16,0a.19.19,0,0,1,.17.18l0,.13c0,.2,0,.19.22.22H23c.2,0,.18,0,.22-.22a.51.51,0,0,1,0-.13.21.21,0,0,1,.17-.18l.16,0c.13,0,.16-.07.19-.2a1.79,1.79,0,0,1,0-.23V5.67c0-.12-.1-.16-.21-.17m-.35.41a.31.31,0,0,1-.06.13.73.73,0,0,1-.3.22l-.05,0-.06,0a.73.73,0,0,1-.3-.22.31.31,0,0,1-.06-.13.19.19,0,0,1,.23-.23l.09,0a.17.17,0,0,0,.1,0h0a.16.16,0,0,0,.09,0l.09,0a.19.19,0,0,1,.23.23" transform="translate(-5.4 -4)"/><path class="cls-3" d="M22.4,43.2v0s0,0,0,0l-.1.13h0v0h-.13v0h0l0,0,.05-.12h0s0,0,0,0v0Z" transform="translate(-5.4 -4)"/><path class="cls-2" d="M31.7,42.16V42l-4.3.05-4,0H20.14a30.67,30.67,0,0,0-3.18,0c-.93.09-1.85.25-2.78.35-.23,0-1.37.25-1.27-.28a1.44,1.44,0,0,1,.4-.6s0,0,0-.06a.22.22,0,0,0-.16,0,6.17,6.17,0,0,1-2.17.64c-.14,0-.61.08-.55-.2a.74.74,0,0,1,.21-.31,4.54,4.54,0,0,1,.38-.38,7.6,7.6,0,0,0,.71-.68c.05-.06.14-.15.13-.24s-.12-.12-.2-.12a3.6,3.6,0,0,0-1.22.34l-1.34.56c-1.22.53-2.42,1.1-3.61,1.69,0,0-.07.06,0,.1s.15,0,.19,0c1.09-.55,2.2-1.06,3.31-1.56l1.3-.55c.25-.1.5-.2.75-.28a1.25,1.25,0,0,1,.53-.13c.18,0-.19.38-.24.42-.26.25-.54.48-.79.74s-.42.39-.34.61.52.18.69.16a6.8,6.8,0,0,0,2.06-.53c-.18.21-.35.49-.18.69a.76.76,0,0,0,.54.17,6.2,6.2,0,0,0,1-.07l1.36-.18c.69-.09,1.38-.18,2.08-.21.5,0,1,0,1.52,0l3.58,0,3.85,0,5.11-.06Z" transform="translate(-5.4 -4)"/><path class="cls-2" d="M32.33,41.33a.19.19,0,0,1,.23-.17.39.39,0,0,0,.25-.12l.74-.67a.18.18,0,0,0,0-.27A1.34,1.34,0,0,1,33.48,39a1.41,1.41,0,0,1,.52-.8,2.21,2.21,0,0,0-.18.79,1.25,1.25,0,0,0,.3.78A2.82,2.82,0,0,1,36,37.5a3.92,3.92,0,0,0-.43.87,4,4,0,0,1,2-1.47,8.42,8.42,0,0,1,2.56-.49,4.44,4.44,0,0,0-1.12.82c.25-.14.49-.3.75-.43a3.28,3.28,0,0,1,1.35-.46,8.51,8.51,0,0,1,3,.48,7.61,7.61,0,0,1,1.79.87c.05,0,.13.06.09.12s-.1,0-.15,0a5.31,5.31,0,0,0-.8,0,12.82,12.82,0,0,0-2.31.3A1.11,1.11,0,0,1,42,38a.34.34,0,0,0-.23,0c.06.08.2.09.18.17s-.13.08-.22.1l-1,.27a.81.81,0,0,1-.38,0l-.94-.19a1.88,1.88,0,0,0,.56.25.16.16,0,0,1,.08,0s0,.06-.07.08a1.84,1.84,0,0,1-1.11.15l-.24,0c.15.1.33.09.5.2a4.38,4.38,0,0,1-2.75.45,2.75,2.75,0,0,0,1.54.23,4.18,4.18,0,0,1-1.37.5,3.93,3.93,0,0,1-1.49,0,1.29,1.29,0,0,0,.69.34,3.44,3.44,0,0,0,.84,0l-.11.09a2.11,2.11,0,0,1-1.91,0c-.15-.08-.23-.07-.33,0s-.31.26-.46.39-.61.45-.75.79a.1.1,0,0,1-.12.06,3.56,3.56,0,0,0-1,.38A4.14,4.14,0,0,0,32.33,41.33Zm1.6-.8A17,17,0,0,1,39,37.89a16.28,16.28,0,0,1,5.24-.61,11.27,11.27,0,0,0-3,0,14.41,14.41,0,0,0-8.26,4C33.21,41.09,33.53,40.83,33.93,40.53Z" transform="translate(-5.4 -4)"/><path class="cls-5" d="M32.69,41.51l-.86.73.89-.7Z" transform="translate(-5.4 -4)"/><circle class="cls-5" cx="27.29" cy="37.54" r="0.12"/><path class="cls-2" d="M39.59,35.54v-.8h.18v.83a.38.38,0,0,1-.38.37H37.84a.39.39,0,0,1-.38-.38V34a.4.4,0,0,1,.38-.39h.77v.17h-.73a.24.24,0,0,0-.25.23v1.51a.23.23,0,0,0,.24.22h1.48A.23.23,0,0,0,39.59,35.54Z" transform="translate(-5.4 -4)"/><path class="cls-2" d="M39.91,34c-.35.16-.34.56-.39.57s0,0,0,0a.71.71,0,0,0-.64-.64s0,0,0,0,0,0,0,0a.71.71,0,0,0,.64-.64l0,0s0,0,0,0a.72.72,0,0,0,.64.65,0,0,0,0,1,0,0S40.05,33.92,39.91,34Z" transform="translate(-5.4 -4)"/><path class="cls-2" d="M39.13,33.37c-.1,0-.1.15-.11.16h0a.21.21,0,0,0-.18-.18,0,0,0,0,1,0,0h0a.2.2,0,0,0,.18-.18h0c0,.12.06.15.17.18h0S39.17,33.35,39.13,33.37Z" transform="translate(-5.4 -4)"/><path class="cls-2" d="M38.57,35.08h-.35l-.09.28H38l.32-1h.24l.34,1h-.2Zm0-.17-.15-.42-.13.43Z" transform="translate(-5.4 -4)"/><rect class="cls-2" x="33.58" y="30.31" width="0.18" height="1.03"/><path class="cls-2" d="M13.25,40.15c0-.11,0-.14-.08-.15h-.05a0,0,0,0,1,0,0h.33a.68.68,0,0,1,.26,0,.21.21,0,0,1,.12.2c0,.11-.06.16-.16.21l0,0a.25.25,0,0,1,.21.26c0,.18-.13.3-.41.3h-.36s0,0,0,0h0c.08,0,.09,0,.09-.2Zm.12.21s0,0,.08,0,.25,0,.25-.19-.12-.21-.24-.21h-.07s0,0,0,0Zm0,.36a.47.47,0,0,0,0,.17.18.18,0,0,0,.13,0,.21.21,0,0,0,.24-.22c0-.12-.06-.26-.31-.26-.08,0-.09,0-.09,0Z" transform="translate(-5.4 -4)"/><path class="cls-2" d="M14.18,40.19c0-.17,0-.19-.09-.2h0s0,0,0,0h.39s0,0,0,0h0c-.09,0-.09,0-.09.2v.55c0,.16,0,.18.09.2h0a0,0,0,0,1,0,0h-.39a0,0,0,0,1,0,0h0c.09,0,.09,0,.09-.2Z" transform="translate(-5.4 -4)"/><path class="cls-2" d="M14.71,40.15c0-.11,0-.14-.08-.15h-.05a0,0,0,0,1,0,0h.33a.68.68,0,0,1,.26,0,.21.21,0,0,1,.12.2c0,.11-.06.16-.16.21l0,0a.25.25,0,0,1,.21.26c0,.18-.13.3-.41.3H14.6s0,0,0,0h0c.08,0,.09,0,.09-.2Zm.12.21s0,0,.08,0,.25,0,.25-.19S15,40,14.92,40h-.07s0,0,0,0Zm0,.36a.47.47,0,0,0,0,.17.18.18,0,0,0,.13,0,.21.21,0,0,0,.24-.22c0-.12-.06-.26-.31-.26-.08,0-.09,0-.09,0Z" transform="translate(-5.4 -4)"/><path class="cls-2" d="M15.64,40.19c0-.17,0-.19-.1-.2h0s0,0,0,0h.39s0,0,0,0h0c-.09,0-.09,0-.09.2v.53c0,.1,0,.14,0,.17s0,0,.17,0a.51.51,0,0,0,.19,0,.36.36,0,0,0,.1-.16h0a.79.79,0,0,1-.07.22h-.72s0,0,0,0h.05c.09,0,.09,0,.09-.2Z" transform="translate(-5.4 -4)"/><path class="cls-2" d="M16.5,40.19c0-.17,0-.19-.1-.2h0s0,0,0,0h.39s0,0,0,0h0c-.09,0-.1,0-.1.2v.55c0,.16,0,.18.1.2h0s0,0,0,0h-.39a0,0,0,0,1,0,0h0c.09,0,.1,0,.1-.2Z" transform="translate(-5.4 -4)"/><path class="cls-2" d="M16.89,40.47a.54.54,0,0,1,.56-.54.51.51,0,0,1,.53.53.55.55,0,0,1-1.09,0Zm.94,0c0-.26-.12-.53-.41-.53s-.37.11-.37.45.11.52.42.52S17.83,40.81,17.83,40.51Z" transform="translate(-5.4 -4)"/><path class="cls-2" d="M18.58,40.74c0,.16,0,.19.09.2h0a0,0,0,0,1,0,0H18.3a0,0,0,0,1,0,0h.05c.09,0,.1,0,.1-.2v-.69s0,0-.05,0h-.08a.28.28,0,0,0-.19,0,.26.26,0,0,0-.07.11s0,0,0,0,.05-.17.06-.23h0s.06,0,.13,0h.63c.08,0,.09,0,.12,0h0a2.32,2.32,0,0,0,0,.24h0a.18.18,0,0,0,0-.11.26.26,0,0,0-.18,0h-.11s0,0,0,0Z" transform="translate(-5.4 -4)"/><path class="cls-2" d="M19.23,40.19c0-.17,0-.19-.1-.2h0s0,0,0,0h.68s0,.14,0,.2,0,0,0,0,0-.13-.12-.15H19.4s0,0,0,.06v.31c0,.05,0,.05.06.05h.22s0,0,0-.06l0-.06h0s0,.1,0,.16,0,.11,0,.15h0l0-.06s0,0-.05-.06h-.2c-.05,0-.06,0-.06,0v.22a.3.3,0,0,0,0,.16s.06,0,.19,0a.38.38,0,0,0,.2,0s.07-.07.11-.15h0a1.14,1.14,0,0,1-.07.22h-.77a0,0,0,0,1,0,0h.05c.09,0,.1,0,.1-.2Z" transform="translate(-5.4 -4)"/><path class="cls-2" d="M20.2,40.06a.63.63,0,0,1,.41-.13,1.18,1.18,0,0,1,.28,0h0s0,.13,0,.23h0c0-.1-.09-.22-.32-.22a.42.42,0,0,0-.43.47.45.45,0,0,0,.46.5.33.33,0,0,0,.32-.22s0,0,0,0a.64.64,0,0,1-.07.21h-.06a.61.61,0,0,1-.24,0,.73.73,0,0,1-.39-.1.52.52,0,0,1-.22-.43A.51.51,0,0,1,20.2,40.06Z" transform="translate(-5.4 -4)"/><path class="cls-2" d="M21.64,40.62s0,0-.06,0h-.24s0,0-.05,0l-.06.17,0,.12s0,0,0,0h.05a0,0,0,0,1,0,0H21a0,0,0,0,1,0,0H21a.1.1,0,0,0,.09-.08l.14-.35.16-.41c0-.06,0-.09,0-.11a.13.13,0,0,0,.08-.06h0l.06.21.22.62c0,.13.06.16.13.17h0a0,0,0,0,1,0,0h-.37a0,0,0,0,1,0,0h.05s.05,0,.05,0a.31.31,0,0,0,0-.08Zm-.3-.14s0,0,0,0h.19s.05,0,0,0l-.08-.26,0-.09h0s0,0,0,.09Z" transform="translate(-5.4 -4)"/><path class="cls-2" d="M22.56,40.15c0-.1,0-.14-.07-.15h0a0,0,0,0,1,0,0h.38a1.29,1.29,0,0,1,.35,0,.48.48,0,0,1,.31.46.51.51,0,0,1-.27.46.69.69,0,0,1-.35.08l-.25,0h-.19s0,0,0,0h0c.09,0,.09,0,.09-.2Zm.13.56a.27.27,0,0,0,0,.17s.09.06.19.06c.3,0,.43-.2.43-.49a.43.43,0,0,0-.48-.45.42.42,0,0,0-.16,0s0,0,0,.12Z" transform="translate(-5.4 -4)"/><path class="cls-2" d="M23.77,40.19c0-.17,0-.19-.1-.2h0s0,0,0,0h.69s0,.14,0,.2,0,0,0,0,0-.13-.12-.15h-.26s0,0,0,.06v.31c0,.05,0,.05.05.05h.22s0,0,0-.06v-.06h0s0,.1,0,.16,0,.11,0,.15h0l0-.06a.05.05,0,0,0,0-.06H24c-.05,0-.05,0-.05,0v.22c0,.08,0,.13,0,.16s.05,0,.18,0a.38.38,0,0,0,.2,0s.07-.07.11-.15h0a1.14,1.14,0,0,1-.07.22h-.76s0,0,0,0h.05c.09,0,.1,0,.1-.2Z" transform="translate(-5.4 -4)"/><path class="cls-2" d="M24.88,40.47c-.08,0-.08,0-.08.05v.22c0,.16,0,.19.09.2h.05a0,0,0,0,1,0,0h-.38a0,0,0,0,1,0,0h0c.09,0,.09,0,.09-.2v-.55c0-.17,0-.19-.09-.2h0s0,0,0,0h.37s0,0,0,0h0c-.09,0-.09,0-.09.2v.17s0,0,.08,0h.44c.07,0,.08,0,.08,0v-.17c0-.17,0-.19-.1-.2h0s0,0,0,0h.37s0,0,0,0h0c-.09,0-.1,0-.1.2v.55c0,.16,0,.18.1.2h0a0,0,0,0,1,0,0h-.37s0,0,0,0h0c.1,0,.1,0,.1-.2v-.22s0-.05-.08-.05Z" transform="translate(-5.4 -4)"/><path class="cls-2" d="M25.79,40.47a.54.54,0,0,1,.56-.54.51.51,0,0,1,.53.53.55.55,0,0,1-1.09,0Zm.94,0c0-.26-.12-.53-.41-.53s-.37.11-.37.45.11.52.42.52S26.73,40.81,26.73,40.51Z" transform="translate(-5.4 -4)"/><path class="cls-2" d="M28,40.71A2.35,2.35,0,0,0,28,41s0,0,0,0a2.17,2.17,0,0,0-.2-.23l-.36-.41a2,2,0,0,0-.18-.21h0a.25.25,0,0,0,0,.1v.34a1.09,1.09,0,0,0,0,.32l.08,0h.05a0,0,0,0,1,0,0H27a0,0,0,0,1,0,0h0s.06,0,.07,0a1.51,1.51,0,0,0,0-.31v-.45a.14.14,0,0,0,0-.11.18.18,0,0,0-.1,0h0s0,0,0,0h.24a2.24,2.24,0,0,0,.27.34l.15.17.25.28h0v-.4a1.09,1.09,0,0,0,0-.32s0,0-.1,0h0s0,0,0,0h.34a0,0,0,0,1,0,0h0S28,40,28,40a1.12,1.12,0,0,0,0,.32Z" transform="translate(-5.4 -4)"/><path class="cls-2" d="M28.36,40.19c0-.17,0-.19-.09-.2h0s0,0,0,0h.39s0,0,0,0h0c-.1,0-.1,0-.1.2v.55c0,.16,0,.18.1.2h0a0,0,0,0,1,0,0h-.39s0,0,0,0h0c.09,0,.09,0,.09-.2Z" transform="translate(-5.4 -4)"/><path class="cls-2" d="M29.32,40.62s0,0-.06,0H29s-.05,0-.06,0l-.05.17,0,.12s0,0,0,0h0a0,0,0,0,1,0,0h-.31a0,0,0,0,1,0,0h.05a.12.12,0,0,0,.09-.08l.14-.35.15-.41a.22.22,0,0,0,0-.11.17.17,0,0,0,.08-.06h0c0,.07.05.14.07.21l.21.62c.05.13.07.16.14.17h0a0,0,0,0,1,0,0h-.37a0,0,0,0,1,0,0h0s.06,0,.06,0a.31.31,0,0,0,0-.08ZM29,40.48s0,0,0,0h.19s0,0,0,0l-.08-.26a.63.63,0,0,1,0-.09h0s0,0,0,.09Z" transform="translate(-5.4 -4)"/><path class="cls-2" d="M30.69,40.71V41s0,0,0,0a2.17,2.17,0,0,0-.2-.23l-.36-.41a2,2,0,0,0-.18-.21h0a.25.25,0,0,0,0,.1v.34a1.09,1.09,0,0,0,0,.32l.08,0h.05a0,0,0,0,1,0,0h-.34a0,0,0,0,1,0,0h0s.06,0,.07,0a1.51,1.51,0,0,0,0-.31v-.45a.14.14,0,0,0,0-.11.18.18,0,0,0-.1,0h0s0,0,0,0h.24a2.24,2.24,0,0,0,.27.34l.15.17.25.28h0v-.4a1.09,1.09,0,0,0,0-.32s0,0-.1,0h0s0,0,0,0h.34a0,0,0,0,1,0,0h0c-.05,0-.09,0-.09,0a1.13,1.13,0,0,0,0,.32Z" transform="translate(-5.4 -4)"/><path class="cls-2" d="M31.5,40.62s0,0-.07,0H31.2s-.05,0-.06,0l-.05.17a.48.48,0,0,0,0,.12s0,0,.05,0h0a0,0,0,0,1,0,0h-.31s0,0,0,0h.05a.11.11,0,0,0,.1-.08c0-.07.07-.17.13-.35l.16-.41a.45.45,0,0,0,0-.11.24.24,0,0,0,.08-.06h0c0,.07.05.14.07.21l.21.62c.05.13.07.16.13.17h0s0,0,0,0h-.36a0,0,0,0,1,0,0h0s.06,0,.06,0a.16.16,0,0,0,0-.08Zm-.31-.14s0,0,0,0h.19c.05,0,.05,0,0,0l-.09-.26a.94.94,0,0,0,0-.09h0a.4.4,0,0,0,0,.09Z" transform="translate(-5.4 -4)"/></svg>